<?xml version="1.0" standalone="no"?>
<svg version="1.0" xmlns="http://www.w3.org/2000/svg"
 width="60.000000pt" height="60.000000pt" viewBox="0 0 60.000000 60.000000"
 preserveAspectRatio="xMidYMid meet">

<g transform="translate(0.000000,60.000000) scale(0.100000,-0.100000)"
fill="#000000" stroke="none">
<path d="M182 533 c-24 -8 -59 -31 -78 -49 -55 -55 -68 -90 -69 -175 0 -64 4
-84 30 -134 28 -55 80 -105 109 -105 6 0 -2 9 -17 19 -28 18 -97 106 -97 122
0 5 6 6 14 3 9 -4 15 5 18 26 4 29 3 31 -19 27 -32 -6 -29 9 5 21 16 6 20 11
10 11 -12 1 -15 6 -11 18 5 12 2 15 -10 10 -9 -3 -17 -2 -17 4 0 16 29 22 45
9 10 -8 15 -9 15 -2 0 6 -7 15 -15 20 -10 5 -13 15 -9 25 5 15 9 15 22 5 13
-11 15 -10 9 5 -4 11 -2 17 7 17 18 0 50 37 38 44 -9 5 -9 21 -2 46 1 3 5 -5
10 -17 5 -13 16 -23 24 -23 25 0 28 18 5 34 -27 18 -17 41 12 26 10 -6 19 -16
19 -23 0 -15 131 -17 143 -2 5 6 7 4 4 -6 -6 -18 64 -89 89 -89 23 0 11 24
-14 28 -22 3 -31 22 -11 22 5 0 7 5 4 10 -5 8 -11 8 -20 0 -10 -8 -15 -8 -20
1 -4 6 -1 16 6 21 11 8 10 9 -3 5 -9 -3 -19 1 -22 9 -3 9 -11 12 -16 9 -6 -4
-17 -2 -25 5 -9 7 -15 8 -20 0 -3 -5 -11 -10 -16 -10 -6 0 -7 6 -3 13 6 9 4 9
-7 1 -24 -19 -59 -24 -59 -8 0 8 -4 14 -10 14 -5 0 -7 7 -4 15 4 8 5 15 3 14
-2 0 -23 -7 -47 -16z m-32 -95 c0 -6 -7 -7 -16 -4 -8 3 -12 2 -9 -4 3 -6 2
-10 -4 -10 -17 0 -24 22 -11 30 16 10 40 2 40 -12z"/>
<path d="M454 476 c31 -28 56 -57 56 -64 0 -7 5 -12 11 -12 7 0 5 10 -5 25
-21 31 -20 41 1 24 15 -13 15 -12 5 8 -15 28 -34 40 -25 16 4 -11 -5 -7 -26
13 -17 18 -41 34 -52 37 -14 4 -1 -13 35 -47z"/>
<path d="M233 434 c-3 -8 -12 -13 -19 -10 -7 3 -21 -2 -30 -11 -16 -16 -16
-70 1 -120 6 -19 4 -23 -14 -23 -11 0 -21 5 -21 11 0 5 -4 7 -10 4 -20 -12 -9
-25 20 -25 22 0 30 -5 30 -18 0 -10 7 -28 16 -40 9 -13 13 -26 9 -30 -3 -4
-11 1 -16 10 -6 11 -17 14 -31 11 -23 -6 -23 -6 -4 15 11 12 16 25 11 30 -4 4
-10 1 -12 -5 -3 -7 -11 -13 -19 -13 -8 0 -14 -4 -14 -10 0 -5 -12 -10 -26 -10
-23 0 -25 -2 -14 -15 7 -8 18 -14 24 -13 6 2 29 -16 50 -39 25 -28 52 -47 78
-53 51 -14 126 -3 138 21 13 24 13 29 -4 23 -28 -11 -92 15 -105 42 -16 35
-10 38 28 17 30 -17 32 -17 42 -1 5 10 16 18 24 18 17 0 44 49 38 68 -3 6 -11
12 -19 12 -8 0 -14 5 -14 11 0 6 -8 8 -18 5 -10 -4 -26 0 -37 7 -18 14 -18 15
1 53 12 24 28 41 44 45 22 6 22 7 4 8 -12 1 -27 -6 -34 -15 -8 -8 -21 -19 -31
-25 -15 -8 -17 -6 -12 7 5 14 2 16 -15 12 -27 -7 -38 7 -16 20 10 6 15 16 11
26 -8 20 -26 21 -34 0z m29 -143 c-11 -6 -8 -14 12 -36 26 -28 33 -45 19 -45
-16 1 -43 28 -43 43 0 9 -5 19 -11 23 -12 7 6 24 26 24 6 0 4 -4 -3 -9z m118
-41 c0 -5 -4 -10 -10 -10 -5 0 -10 5 -10 10 0 6 5 10 10 10 6 0 10 -4 10 -10z
m-125 -80 c3 -5 2 -10 -4 -10 -5 0 -13 5 -16 10 -3 6 -2 10 4 10 5 0 13 -4 16
-10z m-35 -52 c0 -5 -11 -1 -25 8 -14 9 -25 23 -25 32 0 12 6 10 25 -8 14 -13
25 -27 25 -32z"/>
<path d="M350 436 c0 -2 7 -7 16 -10 8 -3 12 -2 9 4 -6 10 -25 14 -25 6z"/>
<path d="M520 380 c0 -5 7 -10 16 -10 11 0 14 -6 9 -20 -4 -13 -2 -20 7 -20 9
0 9 -3 2 -8 -6 -4 -10 -15 -8 -24 3 -23 -1 -23 -25 3 -12 13 -21 17 -26 10 -3
-6 -11 -11 -16 -11 -6 0 -7 5 -4 10 3 6 1 10 -5 10 -24 0 -2 -24 28 -32 18 -5
32 -13 32 -18 0 -13 -38 -32 -50 -25 -6 3 -10 1 -10 -6 0 -8 10 -9 31 -5 27 5
28 4 15 -9 -8 -8 -20 -15 -26 -15 -6 0 -8 -5 -5 -10 4 -6 11 -8 16 -5 18 11 9
-12 -19 -51 -53 -73 -154 -104 -262 -82 -30 7 -32 6 -15 -4 11 -7 57 -13 106
-13 78 0 90 3 135 30 56 35 108 112 119 176 10 55 -3 117 -26 129 -13 7 -19 7
-19 0z"/>
<path d="M339 360 c-21 -17 -22 -21 -9 -30 22 -14 40 -12 40 4 0 8 -6 17 -12
20 -7 3 -4 4 6 3 10 -1 21 4 23 11 7 19 -22 14 -48 -8z"/>
<path d="M460 370 c0 -5 7 -7 15 -4 8 4 15 8 15 10 0 2 -7 4 -15 4 -8 0 -15
-4 -15 -10z"/>
<path d="M470 340 c0 -5 10 -10 23 -10 18 0 19 2 7 10 -19 13 -30 13 -30 0z"/>
<path d="M390 300 c-15 -10 -15 -10 25 -10 3 0 5 3 6 7 1 12 -15 13 -31 3z"/>
<path d="M450 204 c0 -10 31 -36 37 -31 3 3 -2 13 -10 22 -16 15 -27 19 -27 9z"/>
<path d="M430 166 c0 -2 7 -7 16 -10 8 -3 12 -2 9 4 -6 10 -25 14 -25 6z"/>
<path d="M410 150 c0 -5 5 -10 11 -10 5 0 7 5 4 10 -3 6 -8 10 -11 10 -2 0 -4
-4 -4 -10z"/>
</g>
</svg>
