<?xml version="1.0" encoding="UTF-8" standalone="no"?>
<!-- Created with Inkscape (http://www.inkscape.org/) -->

<svg
   width="68.824738mm"
   height="67.051285mm"
   viewBox="0 0 243.86717 237.58329"
   id="svg2"
   version="1.1"
   xmlns="http://www.w3.org/2000/svg">
  <g
     id="layer2"
     transform="translate(-314.73213)">
    <g
       id="g2"
       transform="translate(-127.87548,-432.68126)">
      <path
         transform="matrix(0.28222222,0,0,0.28222222,440.28981,432.39456)"
         id="path3369-8"
         d="m 403.608,698.363 c -81.034,10.784 -142.455,51.262 -137.219,90.411 5.157,39.15 75.017,62.202 156.051,51.418 80.956,-10.705 142.377,-51.183 137.219,-90.411 -5.235,-39.15 -75.095,-62.124 -156.051,-51.418 z"
         clip-path="url(#clipEmfPath1-1)"
         style="fill:#ba752d;fill-opacity:1;fill-rule:evenodd;stroke:none" />
      <path
         id="path3371-3"
         d="m 612.74932,622.54122 c -26.79503,3.55064 -47.28295,15.65797 -45.76121,27.03773 1.49973,11.35776 24.43537,17.70917 51.23068,14.13652 26.79502,-3.55064 47.28294,-15.65826 45.7612,-27.01573 -1.49973,-11.37976 -24.43536,-17.70916 -51.23067,-14.15852 z"
         style="fill:#ba752d;fill-opacity:1;fill-rule:evenodd;stroke:none" />
      <path
         id="path3373-3"
         d="m 473.61292,602.64879 c -7.14542,12.72483 0.11035,30.41198 16.25346,39.47611 16.12138,9.08615 34.99922,6.13071 42.16654,-6.59412 7.16759,-12.72484 -0.0881,-30.41199 -16.23145,-39.49813 -16.1211,-9.08614 -35.02124,-6.131 -42.18855,6.61614 z"
         style="fill:#ba752d;fill-opacity:1;fill-rule:evenodd;stroke:none" />
      <path
         id="path3375-6"
         d="m 542.24372,581.19058 c -20.35528,3.44029 -35.26367,15.5036 -33.32283,26.92739 1.91855,11.44609 19.98049,17.92986 40.31404,14.48929 20.33354,-3.44029 35.26366,-15.5036 33.3231,-26.92739 -1.94084,-11.4458 -19.98077,-17.92958 -40.31431,-14.48929 z"
         style="fill:#ba752d;fill-opacity:1;fill-rule:evenodd;stroke:none" />
      <path
         id="path3377-3"
         d="m 651.12279,602.09732 c -19.53965,0 -35.37401,8.22622 -35.37401,18.37069 0,10.14476 15.83436,18.3707 35.37401,18.3707 19.51736,0 35.352,-8.22594 35.352,-18.3707 0,-10.14447 -15.83464,-18.37069 -35.352,-18.37069 z"
         style="fill:#ba752d;fill-opacity:1;fill-rule:evenodd;stroke:none" />
      <path
         id="path3379-2"
         d="m 614.64613,587.25526 c -29.30934,0 -53.08317,7.43204 -53.08317,16.5845 0,9.1742 23.77383,16.60624 53.08317,16.60624 29.33136,0 53.0829,-7.43204 53.0829,-16.60624 0,-9.15246 -23.75154,-16.5845 -53.0829,-16.5845 z"
         style="fill:#ba752d;fill-opacity:1;fill-rule:evenodd;stroke:none" />
      <path
         transform="matrix(0.28222222,0,0,0.28222222,440.28981,432.39456)"
         id="path3381-6"
         d="M 103.461,652.024 C 45.7917,659.682 3.282,698.597 8.67386,738.841 13.9876,779.163 65.1712,805.575 122.841,797.917 180.588,790.259 223.02,751.422 217.706,711.1 212.314,670.778 161.209,644.366 103.461,652.024 Z"
         clip-path="url(#clipEmfPath1-1)"
         style="fill:#ba752d;fill-opacity:1;fill-rule:evenodd;stroke:none" />
      <path
         id="path3383-0"
         d="m 499.68037,635.7955 c -18.08395,2.40369 -31.80145,11.48983 -30.63268,20.26723 1.16896,8.7994 16.78291,13.98213 34.86686,11.57816 18.08396,-2.40396 31.80137,-11.46781 30.63268,-20.26722 -1.16896,-8.79941 -16.7829,-13.98214 -34.86686,-11.57817 z"
         style="fill:#ba752d;fill-opacity:1;fill-rule:evenodd;stroke:none" />
      <path
         id="path3385-9"
         d="m 553.2707,599.95836 c -53.76672,10.85032 -94.8528,32.08782 -91.76529,47.41531 3.10958,15.34922 49.20167,18.98819 102.96867,8.11558 53.76672,-10.85031 94.85263,-32.0658 91.76512,-47.41531 -3.10953,-15.3272 -49.20178,-18.96618 -102.9685,-8.11558 z"
         style="fill:#ba752d;fill-opacity:1;fill-rule:evenodd;stroke:none" />
      <path
         id="path3387-7"
         d="m 543.41268,586.70408 -38.8366,35.72679 7.54239,8.20392 38.8366,-35.7268 z"
         style="fill:#808080;fill-opacity:1;fill-rule:evenodd;stroke:none" />
      <path
         id="path3389-1"
         d="m 504.75275,469.81948 v 152.435 h 115.95806 v -152.435 z"
         style="fill:#808080;fill-opacity:1;fill-rule:evenodd;stroke:none" />
      <path
         id="path3391-5"
         d="m 562.73164,432.68126 c -32.02178,0 -57.97889,15.61398 -57.97889,34.8669 0,19.25264 25.95711,34.84457 57.97889,34.84457 32.02206,0 57.97917,-15.59193 57.97917,-34.84457 0,-19.25292 -25.95711,-34.8669 -57.97917,-34.8669 z"
         style="fill:#808080;fill-opacity:1;fill-rule:evenodd;stroke:none" />
      <path
         id="path3393-0"
         d="m 511.5893,477.95736 v 152.435 h 115.95806 v -152.435 z"
         style="fill:#a6a6a6;fill-opacity:1;fill-rule:evenodd;stroke:none" />
      <path
         id="path3395-2"
         d="m 569.56847,440.8411 c -32.02206,0 -57.97917,15.59194 -57.97917,34.84466 0,19.25291 25.95711,34.84484 57.97917,34.84484 32.02178,0 57.97889,-15.59193 57.97889,-34.84484 0,-19.25272 -25.95711,-34.84466 -57.97889,-34.84466 z"
         style="fill:#a6a6a6;fill-opacity:1;fill-rule:evenodd;stroke:none" />
      <path
         id="path3397-4"
         d="m 525.52713,598.39231 c 1.14695,-4.19015 1.38938,-3.28591 1.19098,1.54376 -0.17639,4.82995 -0.0883,20.57625 -2.31564,27.43482 -2.22758,6.83655 -10.32114,14.04817 -11.07101,13.67338 -0.74986,-0.35306 4.25648,-8.66704 6.5278,-15.87867 2.27161,-7.23363 4.5212,-22.56084 5.66787,-26.77329 z"
         style="fill:#3eb319;fill-opacity:1;fill-rule:evenodd;stroke:none" />
      <path
         id="path3399-7"
         d="m 510.19992,639.50052 c -0.11035,4.36654 -0.55146,3.52862 -1.52174,-1.19098 -0.97028,-4.74162 -4.82967,-20.00278 -4.3005,-27.19211 0.52945,-7.18961 6.66016,-16.12138 7.49836,-15.94471 0.81591,0.17639 -2.0732,9.43892 -2.55834,17.00332 -0.48514,7.54239 0.99257,22.97995 0.88222,27.32448 z"
         style="fill:#3eb319;fill-opacity:1;fill-rule:evenodd;stroke:none" />
      <path
         id="path3401-9"
         d="m 519.72718,601.98726 c 0.92625,-3.79335 0.92625,-2.84509 0.33077,1.78618 -0.59549,4.60925 -2.27161,19.87042 -3.92572,25.93509 -1.67611,6.06496 -5.77793,10.98268 -6.06467,10.45352 -0.26472,-0.55147 2.71272,-7.3217 4.43287,-13.71742 1.72014,-6.41745 4.3005,-20.68632 5.22675,-24.45737 z"
         style="fill:#3eb319;fill-opacity:1;fill-rule:evenodd;stroke:none" />
      <path
         id="path3403-3"
         d="m 505.81109,633.28119 c 0.81618,3.85938 0.35306,3.04348 -1.21271,-1.36709 -1.56605,-4.41085 -7.05725,-18.78979 -8.15989,-25.09717 -1.12494,-6.28538 0.92625,-12.98956 1.47743,-12.68081 0.55146,0.33076 0.59549,7.9835 1.83049,14.62165 1.21299,6.63815 5.24877,20.66403 6.06468,24.52342 z"
         style="fill:#3eb319;fill-opacity:1;fill-rule:evenodd;stroke:none" />
      <path
         id="path3405-4"
         d="m 508.30339,637.16287 c -1.12494,3.83709 -1.16896,2.88883 -0.52945,-1.76445 0.6175,-4.65328 2.29362,-20.0025 4.34453,-26.15551 2.05119,-6.15301 7.54239,-11.31373 7.93948,-10.78428 0.3968,0.52917 -3.44058,7.47607 -5.53551,13.98186 -2.11723,6.50606 -5.09439,20.90702 -6.21905,24.72238 z"
         style="fill:#3eb319;fill-opacity:1;fill-rule:evenodd;stroke:none" />
      <path
         id="path3407-4"
         d="m 526.58575,638.13315 c -1.52175,3.90342 -1.6098,2.97716 -0.7939,-1.74216 0.81591,-4.69759 2.88911,-20.15716 5.66787,-26.46454 2.80078,-6.30738 10.51955,-11.8649 11.11504,-11.37976 0.5732,0.50743 -4.74161,7.71877 -7.60871,14.37922 -2.88882,6.66016 -6.85856,21.30382 -8.3803,25.20724 z"
         style="fill:#3eb319;fill-opacity:1;fill-rule:evenodd;stroke:none" />
      <path
         id="path3409-2"
         d="m 655.59968,584.87358 c -0.17639,1.21299 -0.28673,8.46865 0,11.86491 0.26473,3.39626 1.45542,6.59384 1.63181,8.49065 0.17667,1.89654 -0.77188,2.95515 -0.57319,2.91113 0.22041,-0.0223 1.65382,-1.45571 1.83049,-3.0655 0.1984,-1.63209 -0.35306,-4.08009 -0.66181,-6.68246 -0.30875,-2.60209 -0.8159,-6.70419 -1.16868,-8.90947 -0.35306,-2.18327 -0.88223,-5.82225 -1.05862,-4.60926 z"
         style="fill:#3eb319;fill-opacity:1;fill-rule:evenodd;stroke:none" />
      <path
         id="path3411-9"
         d="m 649.20396,607.25804 c 0.0443,-1.23501 -0.68354,-8.46864 -1.32305,-11.79887 -0.66153,-3.35195 -2.22758,-6.39543 -2.62439,-8.24794 -0.37507,-1.87452 0.48514,-3.02147 0.26473,-2.95515 -0.19869,0.044 -1.49973,1.63181 -1.49973,3.2639 -0.022,1.63209 0.8159,4.01377 1.4334,6.54981 0.59549,2.53634 1.54376,6.57211 2.16126,8.71136 0.59549,2.13924 1.54376,5.68988 1.58778,4.47689 z"
         style="fill:#3eb319;fill-opacity:1;fill-rule:evenodd;stroke:none" />
      <path
         id="path3413-1"
         d="m 653.87954,584.34413 c -0.55146,1.05862 -2.75675,6.90288 -3.2862,10.71824 -0.50715,3.79307 -0.088,10.10045 0.15438,12.08532 0.24271,1.98487 1.12494,1.25702 1.34535,-0.1984 0.2207,-1.4557 -0.30875,-5.49148 0,-8.53468 0.28674,-3.02148 1.4557,-7.43233 1.78647,-9.70365 0.30875,-2.29362 0.52917,-5.42516 0,-4.36683 z"
         style="fill:#3eb319;fill-opacity:1;fill-rule:evenodd;stroke:none" />
      <path
         id="path3415-7"
         d="m 654.43072,607.72117 c 0.11035,-1.213 0.0443,-7.58642 -0.81591,-11.4238 -0.86021,-3.83737 -3.4623,-9.79198 -4.36654,-11.64448 -0.92625,-1.83022 -1.4557,-0.83792 -1.14695,0.63979 0.30875,1.47744 2.20557,5.20446 2.99946,8.22593 0.79389,3.04349 1.27903,7.67476 1.78618,9.96809 0.50744,2.31564 1.4114,5.42544 1.54376,4.23447 z"
         style="fill:#3eb319;fill-opacity:1;fill-rule:evenodd;stroke:none" />
      <path
         id="path3417-7"
         d="m 656.63629,607.1697 c -0.28674,2.07321 0,1.69813 0.8159,-0.48514 0.8159,-2.20528 3.77105,-9.2185 4.0798,-12.68081 0.28674,-3.44028 -1.89653,-8.04954 -2.29362,-8.02752 -0.3968,0.044 0.26473,4.60925 -0.11006,8.24794 -0.35306,3.61696 -2.20557,10.8506 -2.49202,12.94553 z"
         style="fill:#3eb319;fill-opacity:1;fill-rule:evenodd;stroke:none" />
      <path
         id="path3419-0"
         d="m 617.75566,640.91191 c -1.98487,3.32994 -1.98487,2.49202 -0.70584,-1.56577 1.27903,-4.05807 4.80766,-17.44444 8.35829,-22.75953 3.52863,-5.31481 12.28401,-9.63732 12.8795,-9.15218 0.57319,0.46312 -5.75621,6.39544 -9.3949,12.01928 -3.66098,5.62356 -9.17448,18.14999 -11.13705,21.4582 z"
         style="fill:#3eb319;fill-opacity:1;fill-rule:evenodd;stroke:none" />
      <path
         id="path3421-9"
         d="m 609.30903,605.40553 c 0.044,-3.85939 0.46313,-3.13154 1.38938,1.01431 0.92625,4.14613 4.54293,17.51076 4.14613,23.88418 -0.39709,6.37343 -5.82225,14.51131 -6.57211,14.37894 -0.74987,-0.13236 1.76445,-8.42433 2.11723,-15.1288 0.35278,-6.70419 -1.12466,-20.28924 -1.08063,-24.14863 z"
         style="fill:#3eb319;fill-opacity:1;fill-rule:evenodd;stroke:none" />
      <path
         id="path3423-0"
         d="m 615.21933,642.21295 c -0.83792,3.33023 -0.83792,2.49203 -0.28674,-1.56576 0.55146,-4.0578 2.05119,-17.44444 3.57293,-22.75925 1.49945,-5.31509 5.24877,-9.63761 5.4912,-9.15247 0.24271,0.46313 -2.44799,6.39572 -4.01376,12.01928 -1.56577,5.64586 -3.90342,18.15028 -4.76363,21.4582 z"
         style="fill:#3eb319;fill-opacity:1;fill-rule:evenodd;stroke:none" />
      <path
         id="path3425-9"
         d="m 600.55365,607.69915 c -0.77188,-3.37425 -0.35278,-2.6464 1.10264,1.1907 1.4557,3.83737 6.57211,16.36381 7.63073,21.8773 1.08063,5.53551 -0.70584,11.53414 -1.21299,11.26942 -0.48514,-0.26473 -0.61751,-7.03496 -1.78647,-12.8572 -1.16868,-5.82225 -4.96203,-18.08396 -5.73391,-21.48022 z"
         style="fill:#3eb319;fill-opacity:1;fill-rule:evenodd;stroke:none" />
      <path
         id="path3427-4"
         d="m 597.22371,610.83069 c -1.14695,-3.13154 -1.30133,-2.448 -0.88223,1.19098 0.4191,3.61668 1.21299,15.48158 3.39627,20.57597 2.18327,5.11641 9.10815,10.29914 9.70364,10.0124 0.59549,-0.30875 -3.92571,-6.41773 -6.15301,-11.79886 -2.22729,-5.35884 -4.89599,-16.84895 -6.06467,-19.98049 z"
         style="fill:#3eb319;fill-opacity:1;fill-rule:evenodd;stroke:none" />
    </g>
    <path
       style="font-family:'Nova Flat Slim';-inkscape-font-specification:'Nova Flat Slim';letter-spacing:0px;white-space:pre;fill:#4d4d4d;stroke:#4d4d4d;stroke-linecap:round"
       d="m 22.34375,-70.499609 h 1.611328 q 0.744141,0 1.259766,-0.28125 0.527343,-0.28125 0.527343,-1.03125 v -5.167969 q 0,-0.75 -0.527343,-1.03125 -0.515625,-0.28125 -1.259766,-0.28125 H 22.34375 Z m -1.171875,0.527343 v -8.4375 l 0.867187,-0.410156 h 1.97461 q 1.224609,0 2.091797,0.5625 0.867187,0.5625 0.867187,1.804688 0,0 0,4.113281 0,1.248047 -0.867187,1.804687 -0.861328,0.5625 -2.091797,0.5625 z m 7.910156,0 v -8.4375 l 0.867188,-0.410156 h 3.585937 v 0.05859 l -0.222656,0.46875 h -3.058594 v 3.632812 h 3.28125 v 0.05859 l -0.222656,0.46875 h -3.058594 v 3.632813 h 3.574219 v 0.05859 l -0.222656,0.46875 z m 7.382813,-3.457031 h 1.435547 q 0.74414,0 1.259765,-0.28125 0.527344,-0.28125 0.527344,-1.03125 v -2.238281 q 0,-0.75 -0.527344,-1.03125 -0.515625,-0.28125 -1.259765,-0.28125 h -1.435547 z m -1.113282,3.574219 h -0.05859 v -8.554688 l 0.867187,-0.410156 h 1.798828 q 1.22461,0 2.091797,0.5625 0.867188,0.5625 0.867188,1.804688 v 1.183593 q 0,1.236328 -0.867188,1.804688 -0.861328,0.5625 -2.091797,0.5625 h -1.49414 v 2.519531 z"
       id="text1-8"
       transform="matrix(3.7134097,0,0,3.7134097,327.49395,341.5577)"
       aria-label="DEP" />
    <path
       d="m 20.894,-75.645042 q -0.102,0 -0.138,0.036 -0.036,0.03 -0.036,0.138 v 0.396 q 0,0.12 0.024,0.156 0.024,0.03 0.144,0.03 h 3.738 q 0.126,0 0.15,-0.042 0.024,-0.048 0.024,-0.162 v -0.378 q 0,-0.114 -0.03,-0.144 -0.024,-0.03 -0.132,-0.03 z m 18.01198,3.87 q 0.036,-0.09 0,-0.126 -0.036,-0.042 -0.138,-0.09 l -0.342,-0.15 q -0.102,-0.042 -0.138,0 -0.036,0.036 -0.078,0.12 -0.126,0.288 -0.294,0.432 -0.168,0.144 -0.33,0.144 -0.312,0 -0.432,-0.186 -0.12,-0.186 -0.144,-0.498 -0.024,-0.312 -0.03,-0.69 0,-0.378 -0.066,-0.762 -0.066,-0.39 -0.27,-0.732 -0.198,-0.342 -0.63,-0.57 -0.204,-0.108 -0.192,-0.168 0.012,-0.066 0.186,-0.126 0.84,-0.264 1.176,-0.786 0.342,-0.528 0.342,-1.26 0,-0.672 -0.318,-1.212 -0.312,-0.546 -1.002,-0.864 -0.69,-0.318 -1.818,-0.318 h -4.656 q -0.12,0 -0.156,0.042 -0.03,0.042 -0.03,0.168 v 0.306 q 0,0.168 0.03,0.222 0.036,0.054 0.198,0.054 h 0.798 q 0.192,0 0.24,0.048 0.054,0.048 0.054,0.246 v 6.852 q 0,0.186 -0.054,0.228 -0.048,0.042 -0.24,0.042 h -0.804 q -0.132,0 -0.18,0.036 -0.042,0.036 -0.042,0.18 v 0.378 q 0,0.12 0.036,0.162 0.042,0.036 0.162,0.036 h 3.6 q 0.138,0 0.18,-0.036 0.042,-0.042 0.042,-0.174 v -0.36 q 0,-0.138 -0.036,-0.18 -0.036,-0.042 -0.162,-0.042 h -0.888 q -0.144,0 -0.192,-0.036 -0.042,-0.036 -0.042,-0.174 v -2.772 q 0,-0.192 0.036,-0.246 0.036,-0.06 0.234,-0.06 h 1.38 q 0.63,0 0.954,0.228 0.33,0.228 0.462,0.606 0.138,0.378 0.174,0.828 0.036,0.444 0.066,0.894 0.03,0.45 0.15,0.828 0.126,0.378 0.438,0.606 0.318,0.228 0.93,0.228 0.768,0 1.2,-0.366 0.438,-0.366 0.636,-0.93 z m -6.378,-3.762 q -0.192,0 -0.24,-0.048 -0.042,-0.048 -0.042,-0.24 v -2.712 q 0,-0.21 0.036,-0.246 0.036,-0.042 0.24,-0.042 h 1.866 q 0.444,0 0.828,0.186 0.39,0.18 0.63,0.546 0.24,0.366 0.24,0.918 0,0.552 -0.24,0.918 -0.24,0.36 -0.63,0.54 -0.384,0.18 -0.828,0.18 z m 6.594004,3.444 q 0,0.762 0.534,1.182 0.534,0.414 1.362,0.414 0.618,0 0.99,-0.144 0.378,-0.15 0.582,-0.348 0.21,-0.198 0.318,-0.342 0.09,-0.108 0.126,-0.108 0.036,0 0.078,0.12 0.042,0.15 0.138,0.342 0.096,0.192 0.33,0.336 0.234,0.144 0.678,0.144 h 0.006 q 0.288,0 0.54,-0.102 0.252,-0.096 0.462,-0.282 0.21,-0.192 0.348,-0.456 0.042,-0.096 -0.036,-0.144 l -0.282,-0.174 q -0.078,-0.06 -0.138,0.042 -0.15,0.24 -0.288,0.312 -0.138,0.072 -0.264,0.072 -0.126,0 -0.222,-0.084 -0.09,-0.084 -0.09,-0.264 v -3.462 q 0,-0.522 -0.18,-0.966 -0.174,-0.444 -0.636,-0.708 -0.456,-0.264 -1.296,-0.264 -0.48,0 -0.96,0.108 -0.474,0.108 -0.864,0.324 -0.39,0.21 -0.624,0.522 -0.234,0.312 -0.234,0.714 0,0.408 0.24,0.57 0.24,0.162 0.552,0.162 0.33,0 0.534,-0.204 0.21,-0.204 0.21,-0.528 0,-0.234 -0.078,-0.33 -0.078,-0.096 -0.162,-0.144 -0.078,-0.054 -0.078,-0.156 0,-0.108 0.162,-0.204 0.168,-0.096 0.432,-0.156 0.264,-0.06 0.558,-0.06 0.45,0 0.696,0.174 0.252,0.168 0.348,0.474 0.096,0.3 0.096,0.69 v 0.666 q 0,0.108 -0.03,0.132 -0.024,0.024 -0.126,0.024 h -0.564 q -1.032,0 -1.74,0.288 -0.702,0.282 -1.068,0.762 -0.36,0.474 -0.36,1.056 z m 1.452,-0.186 q 0,-0.432 0.174,-0.744 0.18,-0.312 0.57,-0.48 0.39,-0.174 1.026,-0.174 h 0.546 q 0.12,0 0.12,0.12 v 0.648 q 0,0.786 -0.384,1.218 -0.384,0.432 -0.966,0.432 -0.426,0 -0.756,-0.234 -0.33,-0.24 -0.33,-0.786 z m 6.276006,-3.834 q 0.09,0 0.126,0.024 0.036,0.018 0.036,0.102 v 4.446 q 0,0.126 -0.042,0.156 -0.042,0.024 -0.174,0.024 h -0.642 q -0.12,0 -0.174,0.036 -0.048,0.036 -0.048,0.162 v 0.348 q 0,0.114 0.03,0.156 0.03,0.042 0.144,0.042 h 3.018 q 0.108,0 0.144,-0.036 0.042,-0.036 0.042,-0.15 v -0.354 q 0,-0.132 -0.048,-0.168 -0.042,-0.036 -0.168,-0.036 h -0.552 q -0.138,0 -0.192,-0.054 -0.054,-0.054 -0.054,-0.192 v -2.406 q 0,-0.618 0.222,-1.116 0.228,-0.498 0.636,-0.786 0.408,-0.294 0.948,-0.294 0.546,0 0.798,0.336 0.252,0.33 0.252,0.966 v 3.312 q 0,0.156 -0.048,0.198 -0.042,0.036 -0.192,0.036 h -0.612 q -0.102,0 -0.132,0.042 -0.024,0.042 -0.024,0.144 v 0.36 q 0,0.108 0.018,0.156 0.024,0.042 0.126,0.042 h 3.018 q 0.12,0 0.162,-0.018 0.048,-0.024 0.048,-0.138 v -0.402 q 0,-0.108 -0.03,-0.144 -0.03,-0.042 -0.132,-0.042 h -0.69 q -0.162,0 -0.198,-0.054 -0.03,-0.054 -0.03,-0.216 v -3.414 q 0,-0.642 -0.18,-1.074 -0.18,-0.432 -0.612,-0.654 -0.432,-0.222 -1.182,-0.222 -0.78,0 -1.278,0.324 -0.492,0.318 -0.786,0.786 -0.066,0.102 -0.102,0.108 -0.03,0.006 -0.03,-0.222 v -0.636 q 0,-0.096 -0.054,-0.156 -0.048,-0.066 -0.156,-0.066 h -1.968 q -0.084,0 -0.12,0.036 -0.036,0.036 -0.036,0.126 v 0.408 q 0,0.096 0.03,0.138 0.03,0.036 0.126,0.036 z m 8.004004,-3.12 q 0.126,0 0.18,0.036 0.06,0.03 0.06,0.168 v 7.476 q 0,0.126 -0.042,0.162 -0.042,0.03 -0.18,0.03 h -0.684 q -0.09,0 -0.132,0.024 -0.042,0.018 -0.042,0.102 v 0.432 q 0,0.09 0.036,0.138 0.036,0.048 0.138,0.048 h 2.916 q 0.102,0 0.144,-0.024 0.042,-0.024 0.042,-0.12 v -0.438 q 0,-0.108 -0.06,-0.132 -0.06,-0.03 -0.162,-0.03 h -0.486 q -0.138,0 -0.174,-0.048 -0.03,-0.048 -0.03,-0.174 v -2.1 q 0,-0.174 0.03,-0.198 0.03,-0.024 0.102,0.048 l 2.226,2.316 q 0.078,0.078 0.078,0.12 0.006,0.036 -0.192,0.036 h -0.27 q -0.126,0 -0.162,0.042 -0.03,0.036 -0.03,0.168 v 0.312 q 0,0.132 0.024,0.18 0.03,0.042 0.156,0.042 h 2.67 q 0.144,0 0.192,-0.042 0.048,-0.042 0.048,-0.186 v -0.36 q 0,-0.09 -0.036,-0.12 -0.03,-0.036 -0.12,-0.036 h -0.426 q -0.162,0 -0.222,-0.03 -0.054,-0.036 -0.132,-0.114 l -2.478,-2.628 q -0.102,-0.114 -0.102,-0.15 0.006,-0.036 0.12,-0.126 l 1.956,-1.566 q 0.072,-0.06 0.15,-0.09 0.084,-0.03 0.228,-0.03 h 0.642 q 0.132,0 0.174,-0.03 0.042,-0.036 0.042,-0.162 v -0.378 q 0,-0.114 -0.036,-0.15 -0.036,-0.042 -0.144,-0.042 h -3.06 q -0.108,0 -0.138,0.042 -0.03,0.036 -0.03,0.144 v 0.324 q 0,0.156 0.03,0.204 0.03,0.048 0.174,0.048 h 0.66 q 0.306,0 0.294,0.03 -0.012,0.024 -0.174,0.15 l -2.094,1.602 q -0.114,0.084 -0.132,0.024 -0.018,-0.06 -0.018,-0.234 v -5.214 q 0,-0.156 -0.072,-0.198 -0.072,-0.042 -0.216,-0.042 h -1.884 q -0.126,0 -0.162,0.048 -0.03,0.042 -0.03,0.174 v 0.354 q 0,0.108 0.024,0.138 0.03,0.03 0.144,0.03 z m 7.812002,0.234 q 0,0.336 0.24,0.564 0.246,0.228 0.582,0.228 0.336,0 0.576,-0.228 0.24,-0.228 0.24,-0.564 0,-0.342 -0.24,-0.57 -0.24,-0.228 -0.576,-0.228 -0.336,0 -0.582,0.228 -0.24,0.228 -0.24,0.57 z m 0.096,2.886 q 0.144,0 0.144,0.144 v 4.446 q 0,0.096 -0.024,0.132 -0.018,0.03 -0.12,0.03 h -0.744 q -0.108,0 -0.15,0.03 -0.042,0.03 -0.042,0.15 v 0.42 q 0,0.096 0.036,0.12 0.042,0.024 0.144,0.024 h 3.132 q 0.09,0 0.108,-0.03 0.018,-0.03 0.018,-0.12 v -0.468 q 0,-0.09 -0.03,-0.108 -0.03,-0.018 -0.114,-0.018 h -0.81 q -0.072,0 -0.102,-0.03 -0.024,-0.036 -0.024,-0.114 v -5.226 q 0,-0.078 -0.024,-0.102 -0.018,-0.024 -0.09,-0.024 h -2.094 q -0.15,0 -0.15,0.156 v 0.45 q 0,0.084 0.018,0.114 0.024,0.024 0.108,0.024 z m 4.110005,0 q 0.09,0 0.126,0.024 0.036,0.018 0.036,0.102 v 4.446 q 0,0.126 -0.042,0.156 -0.042,0.024 -0.174,0.024 h -0.642 q -0.12,0 -0.174,0.036 -0.048,0.036 -0.048,0.162 v 0.348 q 0,0.114 0.03,0.156 0.03,0.042 0.144,0.042 h 3.018 q 0.108,0 0.144,-0.036 0.042,-0.036 0.042,-0.15 v -0.354 q 0,-0.132 -0.048,-0.168 -0.042,-0.036 -0.168,-0.036 h -0.552 q -0.138,0 -0.192,-0.054 -0.054,-0.054 -0.054,-0.192 v -2.406 q 0,-0.618 0.222,-1.116 0.228,-0.498 0.636,-0.786 0.408,-0.294 0.948,-0.294 0.546,0 0.798,0.336 0.252,0.33 0.252,0.966 v 3.312 q 0,0.156 -0.048,0.198 -0.042,0.036 -0.192,0.036 h -0.612 q -0.102,0 -0.132,0.042 -0.024,0.042 -0.024,0.144 v 0.36 q 0,0.108 0.018,0.156 0.024,0.042 0.126,0.042 h 3.018 q 0.12,0 0.162,-0.018 0.048,-0.024 0.048,-0.138 v -0.402 q 0,-0.108 -0.03,-0.144 -0.03,-0.042 -0.132,-0.042 h -0.69 q -0.162,0 -0.198,-0.054 -0.03,-0.054 -0.03,-0.216 v -3.414 q 0,-0.642 -0.18,-1.074 -0.18,-0.432 -0.612,-0.654 -0.432,-0.222 -1.182,-0.222 -0.78,0 -1.278,0.324 -0.492,0.318 -0.786,0.786 -0.066,0.102 -0.102,0.108 -0.03,0.006 -0.03,-0.222 v -0.636 q 0,-0.096 -0.054,-0.156 -0.048,-0.066 -0.156,-0.066 h -1.968 q -0.084,0 -0.12,0.036 -0.036,0.036 -0.036,0.126 v 0.408 q 0,0.096 0.03,0.138 0.03,0.036 0.126,0.036 z m 8.652001,1.338 q 0,-0.426 0.102,-0.804 0.108,-0.378 0.36,-0.612 0.252,-0.24 0.69,-0.24 0.432,0 0.684,0.24 0.252,0.234 0.354,0.612 0.108,0.378 0.108,0.804 0,0.426 -0.108,0.81 -0.102,0.378 -0.354,0.612 -0.252,0.234 -0.684,0.234 -0.438,0 -0.69,-0.234 -0.252,-0.234 -0.36,-0.612 -0.102,-0.384 -0.102,-0.81 z m -1.32,0 q 0,0.606 0.252,1.086 0.258,0.474 0.726,0.756 0.126,0.072 0.144,0.096 0.018,0.018 -0.138,0.084 -0.426,0.192 -0.672,0.48 -0.246,0.288 -0.246,0.648 0,0.378 0.156,0.606 0.156,0.228 0.426,0.354 0.114,0.054 0.126,0.066 0.018,0.018 -0.102,0.078 -0.39,0.204 -0.708,0.594 -0.318,0.39 -0.318,0.93 0,0.762 0.792,1.134 0.798,0.372 2.13,0.372 0.978,0 1.698,-0.258 0.726,-0.258 1.122,-0.744 0.402,-0.48 0.402,-1.176 0,-0.6 -0.186,-0.966 -0.186,-0.372 -0.504,-0.564 -0.312,-0.198 -0.714,-0.27 -0.402,-0.072 -0.84,-0.072 -0.126,0 -0.324,0.006 -0.192,0 -0.408,0 -0.216,0 -0.402,0.006 -0.186,0 -0.3,0 -0.468,0 -0.774,-0.06 -0.3,-0.066 -0.3,-0.366 0,-0.162 0.18,-0.318 0.186,-0.162 0.432,-0.282 0.084,-0.042 0.144,-0.048 0.066,-0.012 0.174,0.006 0.126,0.024 0.246,0.036 0.126,0.006 0.258,0.006 0.732,0 1.284,-0.276 0.552,-0.276 0.858,-0.774 0.312,-0.498 0.312,-1.17 0,-0.588 -0.258,-1.074 -0.036,-0.066 -0.024,-0.096 0.012,-0.03 0.048,-0.084 0.186,-0.258 0.396,-0.36 0.21,-0.108 0.408,-0.108 0.204,0 0.204,0.168 0,0.09 -0.06,0.156 -0.06,0.06 -0.12,0.156 -0.06,0.096 -0.06,0.3 0,0.228 0.174,0.396 0.174,0.162 0.462,0.162 0.294,0 0.498,-0.192 0.21,-0.192 0.21,-0.54 0,-0.324 -0.144,-0.57 -0.144,-0.246 -0.426,-0.39 -0.282,-0.144 -0.702,-0.144 -0.246,0 -0.564,0.138 -0.318,0.132 -0.594,0.432 -0.054,0.06 -0.072,0.066 -0.018,0 -0.084,-0.054 -0.318,-0.276 -0.762,-0.426 -0.444,-0.156 -0.984,-0.156 -0.738,0 -1.296,0.276 -0.558,0.276 -0.87,0.78 -0.306,0.498 -0.306,1.164 z m 4.764,5.43 q 0,0.408 -0.294,0.672 -0.288,0.27 -0.75,0.396 -0.456,0.132 -0.96,0.132 -0.918,0 -1.374,-0.33 -0.45,-0.33 -0.45,-0.918 0,-0.192 0.048,-0.474 0.054,-0.276 0.294,-0.528 0.042,-0.048 0.072,-0.06 0.036,-0.006 0.108,0.006 0.198,0.018 0.396,0.018 0.204,0.006 0.408,0.006 0.132,0 0.402,0 0.27,0 0.54,0 0.27,0 0.396,0 0.588,0 0.876,0.312 0.288,0.312 0.288,0.768 z m 6.491985,-6.3 q -0.102,0 -0.138,0.036 -0.036,0.03 -0.036,0.138 v 0.396 q 0,0.12 0.024,0.156 0.024,0.03 0.144,0.03 h 3.738 q 0.126,0 0.15,-0.042 0.024,-0.048 0.024,-0.162 v -0.378 q 0,-0.114 -0.03,-0.144 -0.024,-0.03 -0.132,-0.03 z"
       id="text1-7-8"
       style="font-weight:500;font-family:Besley;-inkscape-font-specification:'Besley Medium';letter-spacing:0px;white-space:pre;fill:#4d4d4d;stroke:#4d4d4d;stroke-linecap:round"
       transform="matrix(1.4470187,0,0,1.4470187,362.04461,230.34998)"
       aria-label="- Ranking -" />
  </g>
</svg>
