<svg width="5rem" version="1.1" id="prefix__svg1" xmlns="http://www.w3.org/2000/svg" x="0" y="0" viewBox="0 0 132.1 131.1" xml:space="preserve"><style>.prefix__st0{fill:#fff;stroke:#1d1d1b;stroke-width:.25;stroke-miterlimit:10}</style><path class="prefix__st0" d="M87.5 48.1l-13 .3v-2.9c7.9-2.8 11.9-7.6 11.9-14.5 0-3.3-1-5.5-3.3-6.9C81 22.7 76.7 22 69.9 22c-12.4 0-19.9.5-22.5 1.6-2.6 1-3.8 3.3-3.8 6.9 0 7.3 4.1 12.6 12.3 16.1v2.9l-14.3-.9v-2.9c.9-.9 2.1-1.9 3.1-3.3-2.4-3.8-3.6-8.1-3.6-13 0-6.2 2.1-11.7 6.2-16.6 4.1-4.8 9.8-7.3 17.1-7.3 7.1 0 13 2.4 17.4 7.3 4.8 4.8 6.9 10.9 6.9 18 0 4.3-1.2 8.1-3.5 11.6.7 1.2 1.4 2.4 2.2 3.3v2.4zM69.2 54.6h49l.3 21.1h-2.8C113.5 63.8 109 60 102.2 60H101v53.5h9v5.7H77.7v-5.7h9V60h-2.1c-6.9 0-10.5 3.6-12.8 15.5H69l.2-20.9zM18.3 113.3v5.9h41.3v-5.9H38.8zM25.4 64h5.7v45.8h-5.7zM46.6 64h5.7v45.8h-5.7zM41.8 109.9V64h-5.7v45.9h2.7z"/><path class="prefix__st0" d="M59.6 54.5H18.1c-3.1 0-5.5 2.4-5.5 5.5s2.4 5.5 5.5 5.5c2.9 0 5.4-2.4 5.5-5.4H54c.2 2.9 2.6 5.4 5.5 5.4 3.1 0 5.5-2.4 5.5-5.5.1-3.1-2.3-5.5-5.4-5.5z"/></svg>