<svg xmlns="http://www.w3.org/2000/svg" viewBox="0 0 427.6 131.1"><path d="M150.1 19.9l-2.3-9.5-14.2-10 7.5 15.6zM161.3 21l-4.8-16.7-3.9 16.9 4.5 8.6zM145.5 33.9l9.3 2.9-3.2-9.2-15.2-8.4zM158.3 48.7l-12.1-12.3 4.6 16.7 8.1 5.3zM162 48.6l6-7.7-.9-17.3-7.6 15.6zM156.1 66.7l-9.6-14.4 1.3 17.3 7 6.8zM161.7 66.5l8.2-5.3 4.9-16.6-12.4 12.2zM177.4 64.1l-16 6.8-4.2 8.8 9.6-1.9zM142.3 87.2l6.1 7.6 2.4-9.5-7.9-15.4zM152.3 93.1l9.7-.5 12.4-12.1-16.7 4.5zM140.6 97l-5-16.6-3.7 16.9 4.7 8.5zM141.3 104.6l9.6 1.3 14.5-9.5-17.2 1.3zM126.8 108l1.4-17.3-9.7 14.4 1.3 9.6zM117 103l-15.7 7.2-4 8.9 9.5-2.1zM95.3 125.3l7.7 6.1 17.3-.9-15.5-7.7zM112.1 120.3l8.1 5.4 17.2-2.2-16.1-6.4zM127.4 114.1l9.2 3.2 16.1-6.7-17.3-2zM45.7.2l-14.1 10-2.3 9.5 8.9-3.9zM26.8 21l-4-16.9L18 20.8l4.2 8.8zM33.8 33.8L42.9 19l-15.1 8.4-3.3 9.2zM21 48.5l-.6 9.7 8.2-5.3 4.6-16.7zM19.8 39l-7.6-15.6-.9 17.3 6 7.7zM31.5 69.4l1.4-17.3-9.6 14.4 1.2 9.7zM17.6 66.3l-.7-9.7L4.6 44.4 9.4 61zM22.1 79.5l-4.2-8.8L2 63.9l10.6 13.7zM37.1 87l-.7-17.3-7.8 15.4 2.3 9.5zM27.1 92.9l-5.5-8.1-16.7-4.5 12.4 12.1zM38.7 96.8l4.1 8.8 4.6-8.5-3.7-16.9zM38 104.4l-6.8-6.9-17.3-1.2 14.5 9.4zM59.6 114.5l1.2-9.6-9.7-14.4 1.5 17.3zM82 118.9l-4-8.9-15.7-7.2 10.2 14zM59 130.3l17.3.9 7.7-6.1-9.4-2.5zM67.2 120.2l-9.2-3.3-16.1 6.4 17.2 2.3zM51.9 113.9l-8-5.5-17.2 2.1 16 6.6zM83.626 121.738l6.364-6.364 6.364 6.364-6.364 6.363z"/><g><path d="M203.9 59c.4-1.2 1-2.2 1.7-3.1.7-.9 1.5-1.5 2.5-2 .9-.5 1.9-.7 2.9-.7.9 0 1.7.2 2.5.6.7.4 1.3.9 1.8 1.6.1.1.2.2.3.2s.1-.1.2-.4l.4-1.6c0-.1.1-.2.1-.2H217.2c.1 0 .2 0 .2.1v6.2c0 .1 0 .2-.1.3 0 0-.1.1-.2.1h-.8c-.1 0-.2 0-.2-.1s0-.2-.1-.3c-.1-.8-.4-1.6-.8-2.3-.4-.7-1-1.3-1.6-1.7-.7-.4-1.4-.7-2.3-.7-1.1 0-2 .4-2.8 1-.8.7-1.3 1.7-1.7 2.9s-.6 2.6-.6 4.1c0 1.5.2 2.9.6 4.1.4 1.2.9 2.1 1.7 2.8.7.7 1.7 1 2.8 1 1 0 1.9-.3 2.6-.8.7-.5 1.3-1.2 1.7-2.1s.7-1.8.8-2.7c0-.1 0-.2.1-.2 0 0 .1-.1.2-.1h1.1s.1.1 0 .2c-.1 1.4-.4 2.7-1 3.8-.6 1.1-1.3 2-2.3 2.6-1 .6-2.1 1-3.5 1-1.1 0-2.1-.2-3-.7-.9-.5-1.7-1.1-2.4-2-.7-.9-1.2-1.9-1.5-3.1-.4-1.2-.5-2.5-.5-3.9-.3-1.5-.1-2.7.3-3.9zM219.9 62.4c.4-1.1.9-1.9 1.6-2.5.7-.6 1.6-.9 2.7-.9s2 .3 2.7.9c.7.6 1.3 1.4 1.6 2.4.4 1 .5 2.1.5 3.2 0 1.3-.2 2.5-.5 3.6-.4 1.1-.9 1.9-1.6 2.5-.7.6-1.6.9-2.7.9s-2-.3-2.7-.9c-.7-.6-1.3-1.4-1.6-2.4-.4-1-.5-2.1-.5-3.2-.1-1.4.1-2.6.5-3.6zm2.1 5.9c.1.9.4 1.6.7 2.1s.9.8 1.6.8c.5 0 .9-.1 1.3-.4.3-.3.6-.7.8-1.2.2-.5.3-1.1.4-1.7.1-.6.1-1.2.1-1.9 0-1-.1-1.9-.2-2.8-.1-.9-.4-1.6-.7-2.1-.4-.5-.9-.8-1.6-.8-.5 0-.9.2-1.2.5-.3.3-.6.7-.8 1.2-.2.5-.3 1.1-.4 1.7-.1.6-.1 1.2-.1 1.9-.1.9-.1 1.8.1 2.7zM230.8 60.8c-.1 0-.2 0-.2-.1v-1.2c0-.1 0-.2.1-.3 0-.1.1-.1.2-.1h3.3c.1 0 .2 0 .3.1.1.1.1.2.1.3V61c0 .3 0 .5.1.5l.2-.2c.3-.6.8-1.2 1.3-1.6.5-.4 1.3-.7 2.1-.7s1.5.2 2 .5.8.8 1 1.4c.2.6.3 1.3.3 2.2v7.1c0 .2 0 .4.1.4 0 .1.1.1.3.1h1.1c.1 0 .2 0 .2.1v1.1c0 .2 0 .3-.1.3h-5.3c-.1 0-.2 0-.2-.1V71v-.3c0-.1.1-.1.2-.1h1c.2 0 .3 0 .3-.1.1-.1.1-.2.1-.4v-6.9c0-.9-.1-1.6-.4-2-.3-.5-.7-.7-1.3-.7-.6 0-1.1.2-1.6.6s-.8 1-1.1 1.6c-.2.7-.4 1.5-.4 2.3v5c0 .2 0 .3.1.4.1.1.2.1.3.1h.9c.1 0 .2 0 .3.1.1.1.1.2.1.4v.7c0 .2 0 .3-.1.3 0 0-.1.1-.2.1h-5c-.1 0-.2 0-.2-.1v-1c0-.2 0-.3.1-.3s.1-.1.3-.1h1.1c.1 0 .2 0 .3-.1s.1-.1.1-.3V61c0-.1 0-.2-.1-.2h-1.7zM244.5 62.4c.4-1.1.9-1.9 1.6-2.5.7-.6 1.6-.9 2.7-.9s2 .3 2.7.9c.7.6 1.3 1.4 1.6 2.4.4 1 .5 2.1.5 3.2 0 1.3-.2 2.5-.5 3.6-.4 1.1-.9 1.9-1.6 2.5-.7.6-1.6.9-2.7.9s-2-.3-2.7-.9c-.7-.6-1.3-1.4-1.6-2.4-.4-1-.5-2.1-.5-3.2 0-1.4.2-2.6.5-3.6zm2.1 5.9c.1.9.4 1.6.7 2.1s.9.8 1.6.8c.5 0 .9-.1 1.3-.4.3-.3.6-.7.8-1.2.2-.5.3-1.1.4-1.7.1-.6.1-1.2.1-1.9 0-1-.1-1.9-.2-2.8-.1-.9-.4-1.6-.7-2.1-.4-.5-.9-.8-1.6-.8-.5 0-.9.2-1.2.5-.3.3-.6.7-.8 1.2-.2.5-.3 1.1-.4 1.7-.1.6-.1 1.2-.1 1.9-.1.9 0 1.8.1 2.7zM255.9 63.1c.2-.8.6-1.5 1-2.2.4-.6 1-1.1 1.6-1.5.6-.4 1.4-.5 2.2-.5.9 0 1.6.2 2.2.5.6.3 1.1.8 1.4 1.4.3.6.5 1.2.5 1.9 0 .6-.2 1.1-.5 1.4-.3.3-.6.4-1 .4-.3 0-.6-.1-.9-.4s-.4-.6-.4-1.1c0-.3.1-.6.2-.7.1-.2.2-.3.3-.5s.2-.3.2-.5c0-.3-.2-.6-.5-.8-.3-.2-.8-.3-1.3-.3-.7 0-1.2.3-1.7.8-.4.5-.8 1.2-1 2s-.3 1.7-.3 2.7c0 .9.1 1.8.3 2.6.2.8.5 1.5.9 2s.9.8 1.6.8c.8 0 1.4-.3 1.9-.8s.9-1.3 1.1-2.1c0-.1.1-.2.1-.2s.1-.1.2-.1h1v.2c-.2.9-.5 1.6-.9 2.3s-.9 1.2-1.4 1.5c-.6.4-1.3.5-2.1.5-1.2 0-2.1-.3-2.9-.9-.7-.6-1.3-1.4-1.7-2.5-.4-1-.5-2.2-.5-3.4 0-.8.1-1.7.4-2.5zM267.1 62.4c.4-1.1.9-1.9 1.7-2.5s1.7-.9 2.8-.9c.7 0 1.3.1 1.8.4.5.3.9.6 1.3 1.1.3.4.6 1 .8 1.5s.4 1.1.4 1.8.1 1.2.1 1.8c0 .2 0 .3-.1.3 0 0-.1.1-.3.1h-6.4c-.1 0-.2 0-.2.1s-.1.1-.1.3c0 .9.1 1.7.3 2.4s.5 1.4.9 1.8.9.7 1.6.7c.8 0 1.4-.3 1.9-.8s.9-1.2 1.1-2.1c0-.1.1-.2.1-.2 0-.1.1-.1.2-.1h.8c.1 0 .2 0 .2.1v.2c-.2.9-.5 1.6-.9 2.3s-.9 1.2-1.5 1.5c-.6.4-1.3.5-2.2.5-1 0-1.9-.3-2.6-.9-.7-.6-1.3-1.4-1.6-2.4-.4-1-.6-2.1-.6-3.2 0-1.6.2-2.8.5-3.8zm6.3 2.1h.2v-.2c0-.4 0-.8-.1-1.3s-.2-.9-.4-1.3-.4-.8-.7-1c-.3-.3-.6-.4-1-.4-.6 0-1 .2-1.4.6-.4.4-.7.9-.8 1.5-.2.6-.3 1.2-.3 1.8v.3s.1.1.2.1h4.3zM279.1 60.9c0-.1-.1-.1-.3-.1h-1.1c-.1 0-.2 0-.3-.1s0-.2 0-.4v-.6c0-.2 0-.3.1-.4 0-.1.1-.1.3-.1h3.2c.1 0 .2 0 .3.1.1 0 .1.1.1.3V61.3s.1-.1.2-.3c.3-.6.6-1.1 1-1.4.4-.4 1-.6 1.7-.6.6 0 1.1.2 1.6.7.5.4.7 1 .7 1.8 0 .4-.1.7-.2 1-.1.3-.3.6-.5.8-.2.2-.5.3-.7.3-.4 0-.7-.1-1-.4s-.4-.6-.4-1c0-.3 0-.6.1-.7.1-.2.2-.3.2-.4.1-.1.1-.2.1-.3 0-.1 0-.2-.1-.3-.1-.1-.2-.1-.4-.1-.4 0-.8.2-1.2.7-.4.5-.6 1.1-.8 1.8-.2.7-.3 1.5-.3 2.4v5.4c0 .1.1.1.3.1h1.2c.1 0 .2 0 .2.1v1.3c0 .1-.1.1-.2.1h-5.3s-.1-.1-.1-.2V71c0-.1 0-.2.1-.3 0 0 .1-.1.2-.1h1.1c.2 0 .3 0 .3-.1.1-.1.1-.2.1-.4v-9c-.2-.1-.2-.2-.2-.2zM292.9 74.3c.1-.3.3-.6.5-.8s.5-.3.7-.3c.3 0 .6.1.8.4.2.2.3.6.3 1 0 .2 0 .4-.1.6s-.1.3-.2.3c-.1.1-.2.2-.3.2s-.2.1-.2.2-.1.2-.1.3c0 .3.1.5.3.7.2.2.4.3.8.3.3 0 .5-.1.9-.3s.6-.6 1-1.1c.3-.5.6-1.3.9-2.2l.2-.7c.1-.3.1-.5.1-.6 0-.1-.1-.3-.1-.6l-3.9-10.6c-.1-.2-.1-.3-.2-.4 0-.1-.2-.1-.4-.1h-.9c-.1 0-.2 0-.3-.1 0-.1-.1-.2-.1-.3v-.9c0-.1 0-.2.1-.2h5.2c.2 0 .3 0 .3.1s.1.2.1.4v.5c0 .2 0 .4-.1.5 0 .1-.2.1-.4.1h-.8c-.2 0-.3 0-.4.1v.3l2.5 7c.1.3.2.5.2.6l.1.2c.1 0 .1-.1.2-.2 0-.2.1-.4.2-.7l2.2-6.9c.1-.2.1-.3 0-.3s-.2-.1-.4-.1h-.7c-.1 0-.2 0-.3-.1 0-.1-.1-.2-.1-.4v-.6c0-.2 0-.4.1-.4.1-.1.2-.1.3-.1H304.8c.1 0 .1.1.1.3v1.1c0 .1-.1.1-.3.1h-.8c-.2 0-.4 0-.4.1s-.1.2-.2.4l-4.3 13.3c-.3 1.1-.7 1.9-1.2 2.5-.4.6-.9 1-1.3 1.2-.5.2-.9.3-1.3.3-.5 0-1-.2-1.4-.5-.4-.3-.7-.7-.9-1.2-.2-.5-.3-1.1-.3-1.6.2-.1.3-.5.4-.8zM315.3 71c0-.2 0-.3.1-.4.1 0 .2-.1.3-.1h1.6c.2 0 .4 0 .5-.1.1-.1.1-.3.1-.6V55.5c0-.2 0-.4-.1-.4-.1-.1-.2-.1-.3-.1h-.8c-.8 0-1.5.1-2 .4-.5.3-.8.7-1 1.4s-.3 1.6-.3 2.7c0 .2 0 .3-.1.4s-.2.1-.3.1h-.4c-.2 0-.3-.1-.3-.2s-.1-.3-.1-.5V54c0-.3 0-.5.1-.6 0-.1.2-.1.4-.1h12.8c.2 0 .3 0 .3.1s.1.2.1.5v5.6c0 .2 0 .3-.1.4s-.2.1-.3.1h-.5c-.2 0-.3 0-.4-.1 0-.1-.1-.2-.1-.5 0-1.1-.1-2-.3-2.7-.2-.6-.5-1.1-1-1.4-.5-.3-1.1-.4-2-.4h-.9c-.2 0-.3 0-.3.1s-.1.2-.1.4v14.3c0 .3 0 .5.1.6.1.1.2.1.5.1h1.6c.2 0 .3 0 .4.1 0 .1.1.2.1.5v.5c0 .3 0 .4-.1.5-.1.1-.2.1-.4.1h-6.3c-.2 0-.3 0-.4-.1-.1-.1-.1-.2-.1-.4V71zM328.5 60.9c0-.1-.1-.1-.3-.1h-1.1c-.1 0-.2 0-.3-.1v-1c0-.2 0-.3.1-.4 0-.1.1-.1.3-.1h3.2c.1 0 .2 0 .3.1.1 0 .1.1.1.3V61.3s.1-.1.2-.3c.3-.6.6-1.1 1-1.4.4-.4 1-.6 1.7-.6.6 0 1.1.2 1.6.7.5.4.7 1 .7 1.8 0 .4-.1.7-.2 1-.1.3-.3.6-.5.8s-.5.3-.7.3c-.4 0-.7-.1-1-.4-.3-.3-.4-.6-.4-1 0-.3 0-.6.1-.7.1-.2.2-.3.2-.4.1-.1.1-.2.1-.3 0-.1 0-.2-.1-.3s-.2-.1-.4-.1c-.4 0-.8.2-1.2.7-.4.5-.6 1.1-.8 1.8s-.3 1.5-.3 2.4v5.4c0 .1.1.1.3.1h1.2c.1 0 .2 0 .2.1v1.3c0 .1-.1.1-.2.1H327s-.1-.1-.1-.2V71c0-.1 0-.2.1-.3s.1-.1.2-.1h1.1c.2 0 .3 0 .3-.1.1-.1.1-.2.1-.4v-9l-.2-.2zM337.1 60.8c-.1 0-.2 0-.2-.1v-1.1c0-.2.1-.3.2-.3h3.7V70.6s.1.1.2.1h1.5v1.4s-.1.1-.2.1h-5.4s-.1-.1-.1-.2v-1c0-.2 0-.3.1-.3 0 0 .1-.1.2-.1h1.2c.1 0 .2 0 .2-.1V60.9c0-.2-.1-.3-.2-.3h-1.2zm1.6-7.2c.3-.3.6-.5 1-.5s.7.2 1 .5c.3.3.4.7.4 1.2s-.1.9-.4 1.2c-.3.3-.6.5-1 .5s-.7-.2-1-.5c-.3-.3-.4-.7-.4-1.2s.1-.9.4-1.2zM344.9 61.2v-.3c0-.1-.1-.1-.2-.1h-1.2c-.1 0-.2 0-.3-.1-.1 0-.1-.1-.1-.3v-.7c0-.2 0-.3.1-.4 0-.1.1-.1.3-.1h3.2c.2 0 .3 0 .3.1s.1.2.1.3v8.5c0 .9.1 1.6.4 2.1s.7.8 1.3.8c.6 0 1.1-.2 1.6-.7s.8-1 1.1-1.8c.3-.7.4-1.5.4-2.4V61c0-.2 0-.3-.1-.4-.1 0-.2-.1-.3-.1h-1.2s-.1-.1-.1-.2v-.9-.3c0-.1.1-.1.2-.1h3.4c.1 0 .2 0 .2.1V70c0 .2 0 .3.1.4s.1.1.3.1h1.1c.1 0 .2 0 .2.1.1 0 .1.1.1.3V72c0 .1-.1.1-.2.1h-3.2c-.2 0-.2 0-.3-.1s-.1-.2-.1-.4v-1.4c0-.1 0-.2-.1-.2 0 0-.1 0-.2.2-.3.7-.7 1.2-1.3 1.6-.5.4-1.2.6-2.1.6-.8 0-1.5-.2-2-.5s-.8-.8-1-1.4c-.2-.6-.3-1.3-.3-2.2v-7.1zM357.1 60.8c-.1 0-.2 0-.2-.1v-1.2c0-.1 0-.2.1-.3 0-.1.1-.1.2-.1h3.3c.1 0 .2 0 .3.1.1.1.1.2.1.3V61c0 .3 0 .5.1.5l.2-.2c.3-.6.8-1.2 1.3-1.6.5-.4 1.3-.7 2.1-.7s1.5.2 2 .5.8.8 1 1.4c.2.6.3 1.3.3 2.2v7.1c0 .2 0 .4.1.4 0 .1.1.1.3.1h1.1c.1 0 .2 0 .2.1v1.1c0 .2 0 .3-.1.3h-5.3c-.1 0-.2 0-.2-.1V71v-.3c0-.1.1-.1.2-.1h1c.2 0 .3 0 .3-.1.1-.1.1-.2.1-.4v-6.9c0-.9-.1-1.6-.4-2-.3-.5-.7-.7-1.3-.7-.6 0-1.1.2-1.6.6-.5.4-.8 1-1.1 1.6-.2.7-.4 1.5-.4 2.3v5c0 .2 0 .3.1.4.1.1.2.1.3.1h.9c.1 0 .2 0 .3.1 0 .1.1.2.1.4v.7c0 .2 0 .3-.1.3s-.1.1-.2.1h-5c-.1 0-.2 0-.2-.1v-1c0-.2 0-.3.1-.3s.1-.1.3-.1h1.1c.1 0 .2 0 .3-.1s.1-.1.1-.3V61c0-.1 0-.2-.1-.2h-1.7zM374.1 70.2v.4c0 .1.1.1.3.1H376.3c.1 0 .1.1.1.3v.8c0 .2 0 .3-.1.3 0 0-.1.1-.3.1h-5.7c-.1 0-.2 0-.2-.1V71c0-.1 0-.2.1-.3 0 0 .1-.1.2-.1h1.2c.1 0 .2 0 .2-.1v-9.4-.3s-.1-.1-.2-.1h-1.5s-.1-.1-.1-.3v-.9c0-.1 0-.2.1-.3 0 0 .1-.1.2-.1h1.2c.1 0 .2 0 .2-.1v-1.2c0-1.1.2-2 .5-2.8s.8-1.5 1.4-1.9 1.4-.7 2.3-.7c.7 0 1.4.1 1.9.4.5.3.9.6 1.2 1.1.3.4.4.9.4 1.4 0 .6-.1 1.1-.4 1.4-.3.3-.6.5-1 .5s-.7-.1-1-.4c-.2-.3-.4-.6-.4-1 0-.3 0-.5.1-.6s.2-.3.2-.4c.1-.1.1-.3.1-.4 0-.1-.1-.3-.3-.4-.2-.1-.5-.2-1-.2s-.9.2-1.2.5c-.3.3-.5.9-.7 1.6-.1.7-.2 1.6-.2 2.7v.7s.1.1.2.1h2.1c.1 0 .2 0 .3.1 0 0 .1.1.1.3v1.1s-.1.1-.3.1h-2.1c-.1 0-.2 0-.2.1V70.2zM378.7 66.9c.4-.7 1-1.2 1.8-1.6.8-.4 1.7-.6 2.9-.6h1.1V63c0-.5-.1-1-.2-1.4s-.3-.8-.6-1c-.3-.2-.7-.4-1.2-.4-.3 0-.6 0-.9.1-.3.1-.5.2-.7.3-.2.1-.3.3-.3.4 0 .1 0 .2.1.3l.3.3c.1.1.1.4.1.7 0 .5-.1.8-.3 1.1s-.4.6-.8.6c-.3 0-.7-.1-.9-.3-.3-.2-.4-.6-.4-1.2s.1-1.1.4-1.5c.3-.4.6-.8 1-1.1s.9-.5 1.4-.7c.5-.1 1.1-.2 1.6-.2.9 0 1.6.2 2.2.5.5.4.9.9 1.1 1.5.2.6.3 1.3.3 2v7.2c0 .2.1.4.2.5.1.1.2.2.4.2s.3 0 .4-.1c.2-.1.3-.3.5-.7.1-.1.1-.2.2-.1l.5.4c.1.1.1.2.1.3-.2.4-.3.7-.6.9s-.5.5-.8.6c-.3.1-.6.2-.9.2-.5 0-.9-.1-1.1-.3-.3-.2-.4-.4-.5-.7-.1-.3-.2-.5-.2-.7 0-.2-.1-.2-.1-.2l-.2.2c-.1.2-.3.4-.5.7-.2.3-.6.5-1 .7s-1 .3-1.6.3c-.9 0-1.7-.3-2.3-.9-.6-.6-.9-1.4-.9-2.5-.2-.7 0-1.4.4-2.1zm2.4 3.5c.4.3.8.5 1.3.5.6 0 1.2-.3 1.6-.9.4-.6.6-1.4.6-2.5v-1.3c0-.2-.1-.2-.2-.2h-.9c-.7 0-1.3.1-1.7.4-.4.2-.7.6-.9 1-.2.4-.3 1-.3 1.5-.1.6.1 1.1.5 1.5zM391.1 60.9c0-.1-.1-.1-.3-.1h-1.1c-.1 0-.2 0-.3-.1s0-.2 0-.4v-.6c0-.2 0-.3.1-.4 0-.1.1-.1.3-.1h3.2c.1 0 .2 0 .3.1.1 0 .1.1.1.3V61.3s.1-.1.2-.3c.3-.6.6-1.1 1-1.4.4-.4 1-.6 1.7-.6.6 0 1.1.2 1.6.7.5.4.7 1 .7 1.8 0 .4-.1.7-.2 1-.1.3-.3.6-.5.8-.2.2-.5.3-.7.3-.4 0-.7-.1-1-.4s-.4-.6-.4-1c0-.3 0-.6.1-.7.1-.2.2-.3.2-.4.1-.1.1-.2.1-.3 0-.1 0-.2-.1-.3-.1-.1-.2-.1-.4-.1-.4 0-.8.2-1.2.7-.4.5-.6 1.1-.8 1.8-.2.7-.3 1.5-.3 2.4v5.4c0 .1.1.1.3.1h1.2c.1 0 .2 0 .2.1v1.3c0 .1-.1.1-.2.1h-5.3s-.1-.1-.1-.2V71c0-.1 0-.2.1-.3 0 0 .1-.1.2-.1h1.1c.2 0 .3 0 .3-.1.1-.1.1-.2.1-.4v-9c-.1-.1-.1-.2-.2-.2z"/></g><g><path d="M59.7 52.5c.5-1.6 1.2-2.9 2.1-4 .9-1.1 1.9-2 3.1-2.6 1.2-.6 2.4-.9 3.7-.9 1.2 0 2.3.3 3.3.9 1 .6 1.8 1.3 2.4 2.2.1.2.2.3.3.2.1 0 .1-.2.2-.5l.5-2.4c0-.1 0-.2.1-.2 0 0 .1-.1.2-.1h.7c.1 0 .2 0 .2.1v8.1c0 .2 0 .3-.1.3-.1.1-.2.1-.3.1h-.8c-.2 0-.2 0-.3-.1 0-.1 0-.2-.1-.4-.1-1.1-.5-2.1-1.1-3.1-.6-1-1.3-1.8-2.2-2.4-.9-.6-1.9-.9-3.1-.9-1.5 0-2.7.5-3.8 1.4-1 1-1.8 2.3-2.3 3.9-.5 1.6-.8 3.5-.8 5.5s.2 3.8.7 5.4c.5 1.6 1.2 2.9 2.2 3.9 1 1 2.2 1.4 3.7 1.4 1.4 0 2.6-.4 3.5-1.1 1-.8 1.8-1.7 2.3-2.9.6-1.2.9-2.5 1-3.8 0-.1 0-.2.1-.2 0 0 .1-.1.2-.1h1.1s.1.1.1.2c-.1 1.9-.5 3.5-1.2 5-.4 1.6-1.3 2.7-2.6 3.6-1.2.9-2.7 1.3-4.4 1.3-1.4 0-2.6-.3-3.8-.9-1.1-.6-2.1-1.5-3-2.6s-1.5-2.5-1.9-4c-.5-1.6-.7-3.2-.7-5.1 0-2 .3-3.7.8-5.2zM104.3 68.7c0-.3 0-.4.1-.5.1-.1.2-.1.4-.1h2.1c.3 0 .5 0 .6-.1.1-.1.1-.4.1-.8V47.6c0-.3 0-.5-.1-.6-.1-.1-.2-.1-.5-.1h-1.2c-1.1 0-2 .2-2.6.6-.6.4-1.1 1-1.3 1.9-.3.9-.4 2.1-.4 3.7 0 .3 0 .4-.1.5 0 .1-.2.1-.4.1h-.4c-.2 0-.3-.1-.4-.2 0-.2-.1-.4-.1-.6v-6.7c0-.4 0-.6.1-.7.1-.1.2-.1.5-.1H117c.2 0 .4 0 .5.1.1.1.1.3.1.6v7.1c0 .2 0 .4-.1.4s-.2.1-.4.1h-.3c-.2 0-.4-.1-.4-.2s-.1-.3-.1-.6c0-1.5-.2-2.7-.4-3.6-.3-.9-.7-1.5-1.3-1.8-.6-.4-1.5-.5-2.6-.5h-1.3c-.2 0-.4 0-.4.1-.1.1-.1.3-.1.6v19.6c0 .4 0 .7.1.8.1.1.3.2.6.2h2.1c.3 0 .4 0 .5.1.1.1.1.3.1.7v.3c0 .3-.1.5-.2.6s-.3.1-.5.1h-7.8c-.2 0-.4 0-.5-.1-.1-.1-.1-.3-.1-.6v-.7zM79.8 77.3c.2-.4.5-.8.9-1 .4-.2.8-.4 1.2-.4.5 0 1 .2 1.4.5s.5.8.5 1.4c0 .3-.1.6-.2.8s-.2.3-.4.4c-.2.1-.3.2-.5.3s-.3.2-.4.3c-.1.1-.2.2-.2.4 0 .4.2.7.5.9.3.3.7.4 1.3.4.4 0 .9-.1 1.4-.4.5-.3 1-.7 1.6-1.4.5-.7 1.1-1.7 1.6-2.9l.4-.9c.1-.3.2-.6.2-.8s-.1-.4-.2-.8l-6.4-14c-.1-.2-.2-.4-.3-.5-.1-.1-.3-.1-.6-.1h-1.4c-.2 0-.4 0-.5-.1-.1-.1-.1-.2-.1-.5v-1.1c0-.2 0-.2.1-.3.1 0 .2-.1.3-.1h8.3c.3 0 .4 0 .5.1.1.1.1.3.1.6v.6c0 .3 0 .5-.1.6-.1.1-.3.1-.6.1h-1.5c-.3 0-.5 0-.6.1-.1 0-.1.2 0 .4l4.1 9.2.4.8c.1.2.2.3.2.3.1 0 .2-.1.3-.3.1-.2.2-.5.3-.9l3.6-9c.1-.2.1-.4 0-.5-.1-.1-.3-.1-.6-.1h-1.1c-.2 0-.4 0-.5-.1-.1-.1-.1-.2-.1-.5V58c0-.3 0-.5.1-.6s.3-.1.5-.1h6.1c.2 0 .3 0 .4.1.1 0 .1.2.1.3v1c0 .2 0 .4-.1.5-.1.1-.2.2-.5.2H98c-.4 0-.6.1-.7.2-.1.1-.2.3-.3.6l-7.1 17.6c-.6 1.4-1.2 2.5-1.9 3.3-.7.8-1.5 1.3-2.2 1.6-.8.3-1.5.4-2.2.4-.9 0-1.7-.2-2.3-.6s-1.1-.9-1.5-1.6c-.3-.7-.5-1.4-.5-2.2.1-.4.2-.9.5-1.4z"/></g></svg>