<?xml version="1.0" encoding="UTF-8"?>
<svg width="61.878mm" height="46.264mm" version="1.1" viewBox="0 0 61.878 46.264" xml:space="preserve" xmlns="http://www.w3.org/2000/svg"><g transform="translate(-481.35 -3.5251)" fill="#fff"><path transform="matrix(.88192 0 0 1.1339 -.51535 -6.4583e-8)" d="m566.69 20.314q0 1.0101 0.32275 1.8588 0.32872 0.8487 0.92639 1.4643 0.60365 0.61561 1.4165 0.95628 0.81882 0.34068 1.799 0.34068 1.2193 0 2.0919-0.46021 0.87858-0.46619 1.3746-1.2671 0.50205-0.80686 0.57974-1.8229 0.012-0.0777-0.0239-0.09563t-0.12552-0.01793h-0.52595q-0.0837 0-0.11356 0.02988-0.0299 0.02988-0.0478 0.10758-0.0837 0.6933-0.46619 1.3089-0.38251 0.6156-1.0459 1.0041-0.65744 0.38251-1.5599 0.38251-0.99214 0-1.6556-0.49607-0.65744-0.49607-0.99214-1.3507-0.3347-0.86065-0.3347-1.9424 0-1.0818 0.35861-1.9424 0.3586-0.86065 1.04-1.3627 0.68733-0.50205 1.6675-0.50205 0.79491 0 1.3926 0.32274 0.60365 0.31677 0.97421 0.83077 0.37055 0.50802 0.47814 1.0818 0.0179 0.1016 0.0299 0.14344 0.0179 0.04184 0.14344 0.04184h0.49607q0.10758 0 0.14344-0.02988 0.0418-0.02988 0.0418-0.13747v-2.8449q0-0.08965-0.0239-0.11356-0.0239-0.02988-0.11953-0.02988h-0.39447q-0.0956 0-0.11953 0.02391-0.0179 0.01793-0.0418 0.08965l-0.23907 0.771q-0.0657 0.16735-0.11953 0.1793-0.0478 0.01195-0.1554-0.08965-0.44228-0.45423-1.0878-0.75307-0.63951-0.29884-1.4703-0.29884-0.93835 0-1.7691 0.34665-0.83076 0.34068-1.4703 0.96226-0.63951 0.62158-1.0101 1.4703-0.36458 0.84272-0.36458 1.8408zm17.056-1.016q-0.11954 0-0.14942 0.04781-0.0299 0.04184-0.0299 0.16735v0.28688q0 0.16137 0.0359 0.20919 0.0418 0.04781 0.19724 0.04781h0.63353q0.13149 0 0.17333 0.02988 0.0418 0.02391 0.0179 0.14344-0.19126 1.0758-0.89054 2.0321-0.13746 0.18528-0.18528 0.17333-0.0418-0.01195-0.16137-0.20321l-1.5599-2.4325q-0.0897-0.13746-0.10161-0.19126-6e-3 -0.05379 0.14942-0.11954 0.54986-0.23907 1.0101-0.52595 0.46619-0.29286 0.7471-0.70526 0.28688-0.41837 0.28688-1.034 0-0.49009-0.30481-0.83077-0.29884-0.34067-0.82479-0.51998-0.51998-0.1793-1.1954-0.1793-0.72319 0-1.297 0.22114-0.56779 0.21516-0.89651 0.61561-0.32275 0.40044-0.32275 0.95628 0 0.31079 0.16138 0.70526 0.16735 0.39447 0.38849 0.74709l0.21516 0.34068q0.0897 0.13746 0.11953 0.19126 0.0359 0.04781-0.13746 0.11954-0.49607 0.18528-0.96824 0.41837-0.46618 0.22712-0.84272 0.54388-0.37056 0.31079-0.5917 0.76502t-0.22114 1.0878q0 0.85468 0.4124 1.4165 0.4124 0.55584 1.0997 0.83674 0.68733 0.27493 1.5181 0.27493 0.69928 0 1.3268-0.18528 0.63353-0.19126 1.1774-0.52595 0.14344-0.08965 0.18527-0.09563 0.0478-0.01195 0.13747 0.12551l0.22114 0.34665q0.0837 0.12551 0.14942 0.16137 0.0657 0.03586 0.27493 0.03586h2.4505q0.13148 0 0.15539-0.04184 0.0299-0.04781 0.0299-0.1793v-0.31677q0-0.13149-0.0299-0.17332-0.0299-0.04781-0.15539-0.04781h-1.3747q-0.15539 0-0.20321-0.02391-0.0478-0.02391-0.10758-0.11356l-0.37056-0.58572q-0.1016-0.1554-0.0598-0.18528 0.0418-0.02988 0.14344-0.1554 0.48412-0.60365 0.77698-1.3089 0.29883-0.71123 0.43032-1.4643 0.0179-0.09563 0.0418-0.11954 0.0239-0.02391 0.14344-0.02391h0.75905q0.10758 0 0.13149-0.01793 0.0239-0.02391 0.0239-0.13149v-0.4363q0-0.10758-0.0418-0.13747-0.0418-0.03586-0.14345-0.03586zm-3.586 0.94433q0.16137-0.08965 0.20918-0.08367 0.0538 0 0.1554 0.14942l1.8767 2.9286q0.0897 0.13746 0.0956 0.18528 0.0119 0.04781-0.13149 0.12551-0.38252 0.23309-0.80686 0.37056-0.42435 0.13149-0.87859 0.13149-0.53193 0-0.98018-0.20321-0.44228-0.20919-0.71124-0.62756-0.26895-0.41837-0.26895-1.0519 0-0.73514 0.41239-1.1714 0.41838-0.44228 1.028-0.75307zm2.4505-3.0541q0 0.63951-0.33469 1.034-0.32873 0.39446-0.84273 0.67537-0.0897 0.04781-0.12551 0.05977-0.0299 6e-3 -0.0897-0.0777-0.3347-0.53791-0.55584-0.96226-0.21516-0.43033-0.21516-0.74709 0-0.45423 0.32872-0.68135 0.32872-0.23309 0.80089-0.23309 0.31676 0 0.54986 0.12551 0.23309 0.11954 0.3586 0.3347 0.12551 0.20919 0.12551 0.47216zm7.3156 7.3574q0 0.16735 0.0538 0.20919 0.0538 0.04184 0.22712 0.04184h3.7833q0.16735 0 0.257-0.03586 0.0897-0.04184 0.0897-0.22712v-0.23309q0-0.18528-0.0418-0.23907-0.0359-0.05379-0.22114-0.05379h-0.94433q-0.22712 0-0.28091-0.05977-0.0478-0.06574-0.0478-0.30481v-6.8254q0-0.1554 0.0359-0.20321 0.0359-0.05379 0.19126-0.05379h0.53193q0.75307 0 1.1714 0.19723 0.41837 0.19126 0.5917 0.65744 0.1793 0.46021 0.19723 1.279 6e-3 0.1554 0.0359 0.22114 0.0359 0.06574 0.21516 0.06574h0.22114q0.1554 0 0.20321-0.02988 0.0478-0.03586 0.0478-0.1793v-2.6597q0-0.17333-0.0418-0.22712t-0.20919-0.05379h-7.6861q-0.20321 0-0.24504 0.05977-0.0418 0.05379-0.0418 0.26298v2.5282q0 0.13746 0.0299 0.22114 0.0359 0.0777 0.19126 0.0777h0.24505q0.16735 0 0.20321-0.05379 0.0418-0.05977 0.0478-0.20321 0.0179-0.83077 0.19126-1.297 0.17332-0.47216 0.59169-0.6694 0.42435-0.19723 1.1834-0.19723h0.50205q0.16137 0 0.20918 0.05379 0.0478 0.04781 0.0478 0.20919v6.8434q0 0.22712-0.0538 0.28688-0.0538 0.05379-0.27493 0.05379h-0.95628q-0.13747 0-0.19724 0.03586-0.0538 0.03586-0.0538 0.18528z" stroke-width=".39845" aria-label="C&T"/><g transform="translate(161.51 -90.501)" fill="#fff" stroke-width=".26458"><g><path d="m366.28 94.092 5.8043 6.8626-0.81028-3.3404z"/><path d="m366.28 94.092 5.8043 6.8626-3.1596-1.3534z"/><g transform="rotate(38.863 368.39 106.24)"><path d="m366.28 94.092 5.8043 6.8626-0.81028-3.3404z"/><path d="m366.28 94.092 5.8043 6.8626-3.1596-1.3534z"/></g><g transform="rotate(-6.1516 428.49 88.208)"><path d="m366.28 94.092 5.8043 6.8626-0.81028-3.3404z"/><path d="m366.28 94.092 5.8043 6.8626-3.1596-1.3534z"/></g><g transform="rotate(10.217 297.57 125.23)"><path d="m366.28 94.092 5.8043 6.8626-0.81028-3.3404z"/><path d="m366.28 94.092 5.8043 6.8626-3.1596-1.3534z"/></g><g transform="rotate(51.703 363.75 110.38)"><path d="m366.28 94.092 5.8043 6.8626-0.81028-3.3404z"/><path d="m366.28 94.092 5.8043 6.8626-3.1596-1.3534z"/></g><g transform="rotate(21.139 319.52 115.39)"><path d="m366.28 94.092 5.8043 6.8626-0.81028-3.3404z"/><path d="m366.28 94.092 5.8043 6.8626-3.1596-1.3534z"/></g><g transform="rotate(70.996 362.62 112.06)"><path d="m366.28 94.092 5.8043 6.8626-0.81028-3.3404z"/><path d="m366.28 94.092 5.8043 6.8626-3.1596-1.3534z"/></g><g transform="rotate(92.592 363.26 112.71)"><path d="m366.28 94.092 5.8043 6.8626-0.81028-3.3404z"/><path d="m366.28 94.092 5.8043 6.8626-3.1596-1.3534z"/></g><g transform="rotate(27.771 318.36 112.98)"><path d="m366.28 94.092 5.8043 6.8626-0.81028-3.3404z"/><path d="m366.28 94.092 5.8043 6.8626-3.1596-1.3534z"/></g><g transform="rotate(100.73 361.78 114.19)"><path d="m366.28 94.092 5.8043 6.8626-0.81028-3.3404z"/><path d="m366.28 94.092 5.8043 6.8626-3.1596-1.3534z"/></g><g transform="rotate(38.073 325.77 109.23)"><path d="m366.28 94.092 5.8043 6.8626-0.81028-3.3404z"/><path d="m366.28 94.092 5.8043 6.8626-3.1596-1.3534z"/></g><g transform="rotate(111.6 360.39 114.85)"><path d="m366.28 94.092 5.8043 6.8626-0.81028-3.3404z"/><path d="m366.28 94.092 5.8043 6.8626-3.1596-1.3534z"/></g><g transform="rotate(59.68 337.57 108.37)"><path d="m366.28 94.092 5.8043 6.8626-0.81028-3.3404z"/><path d="m366.28 94.092 5.8043 6.8626-3.1596-1.3534z"/></g><g transform="rotate(91.033 345.59 109.32)"><path d="m366.28 94.092 5.8043 6.8626-0.81028-3.3404z"/><path d="m366.28 94.092 5.8043 6.8626-3.1596-1.3534z"/></g><g transform="rotate(141.93 356.02 116.23)"><path d="m366.28 94.092 5.8043 6.8626-0.81028-3.3404z"/><path d="m366.28 94.092 5.8043 6.8626-3.1596-1.3534z"/></g><g transform="rotate(137.28 358.46 116.06)"><path d="m366.28 94.092 5.8043 6.8626-0.81028-3.3404z"/><path d="m366.28 94.092 5.8043 6.8626-3.1596-1.3534z"/></g><g transform="rotate(122.37 358.95 115.38)"><path d="m366.28 94.092 5.8043 6.8626-0.81028-3.3404z"/><path d="m366.28 94.092 5.8043 6.8626-3.1596-1.3534z"/></g></g><g transform="matrix(-1 0 0 1 701.57 -.066146)"><path d="m366.28 94.092 5.8043 6.8626-0.81028-3.3404z"/><path d="m366.28 94.092 5.8043 6.8626-3.1596-1.3534z"/><g transform="rotate(38.863 368.39 106.24)"><path d="m366.28 94.092 5.8043 6.8626-0.81028-3.3404z"/><path d="m366.28 94.092 5.8043 6.8626-3.1596-1.3534z"/></g><g transform="rotate(-6.1516 428.49 88.208)"><path d="m366.28 94.092 5.8043 6.8626-0.81028-3.3404z"/><path d="m366.28 94.092 5.8043 6.8626-3.1596-1.3534z"/></g><g transform="rotate(10.217 297.57 125.23)"><path d="m366.28 94.092 5.8043 6.8626-0.81028-3.3404z"/><path d="m366.28 94.092 5.8043 6.8626-3.1596-1.3534z"/></g><g transform="rotate(51.703 363.75 110.38)"><path d="m366.28 94.092 5.8043 6.8626-0.81028-3.3404z"/><path d="m366.28 94.092 5.8043 6.8626-3.1596-1.3534z"/></g><g transform="rotate(21.139 319.52 115.39)"><path d="m366.28 94.092 5.8043 6.8626-0.81028-3.3404z"/><path d="m366.28 94.092 5.8043 6.8626-3.1596-1.3534z"/></g><g transform="rotate(70.996 362.62 112.06)"><path d="m366.28 94.092 5.8043 6.8626-0.81028-3.3404z"/><path d="m366.28 94.092 5.8043 6.8626-3.1596-1.3534z"/></g><g transform="rotate(92.592 363.26 112.71)"><path d="m366.28 94.092 5.8043 6.8626-0.81028-3.3404z"/><path d="m366.28 94.092 5.8043 6.8626-3.1596-1.3534z"/></g><g transform="rotate(27.771 318.36 112.98)"><path d="m366.28 94.092 5.8043 6.8626-0.81028-3.3404z"/><path d="m366.28 94.092 5.8043 6.8626-3.1596-1.3534z"/></g><g transform="rotate(100.73 361.78 114.19)"><path d="m366.28 94.092 5.8043 6.8626-0.81028-3.3404z"/><path d="m366.28 94.092 5.8043 6.8626-3.1596-1.3534z"/></g><g transform="rotate(38.073 325.77 109.23)"><path d="m366.28 94.092 5.8043 6.8626-0.81028-3.3404z"/><path d="m366.28 94.092 5.8043 6.8626-3.1596-1.3534z"/></g><g transform="rotate(111.6 360.39 114.85)"><path d="m366.28 94.092 5.8043 6.8626-0.81028-3.3404z"/><path d="m366.28 94.092 5.8043 6.8626-3.1596-1.3534z"/></g><g transform="rotate(59.68 337.57 108.37)"><path d="m366.28 94.092 5.8043 6.8626-0.81028-3.3404z"/><path d="m366.28 94.092 5.8043 6.8626-3.1596-1.3534z"/></g><g transform="rotate(91.033 345.59 109.32)"><path d="m366.28 94.092 5.8043 6.8626-0.81028-3.3404z"/><path d="m366.28 94.092 5.8043 6.8626-3.1596-1.3534z"/></g><g transform="rotate(141.93 356.02 116.23)"><path d="m366.28 94.092 5.8043 6.8626-0.81028-3.3404z"/><path d="m366.28 94.092 5.8043 6.8626-3.1596-1.3534z"/></g><g transform="rotate(137.28 358.46 116.06)"><path d="m366.28 94.092 5.8043 6.8626-0.81028-3.3404z"/><path d="m366.28 94.092 5.8043 6.8626-3.1596-1.3534z"/></g><g transform="rotate(122.37 358.95 115.38)"><path d="m366.28 94.092 5.8043 6.8626-0.81028-3.3404z"/><path d="m366.28 94.092 5.8043 6.8626-3.1596-1.3534z"/></g></g><rect transform="rotate(45)" x="343.33" y="-152.94" width="3.1915" height="3.1915"/></g></g></svg>
