<svg xmlns="http://www.w3.org/2000/svg" viewBox="0 0 221.9 165.2"><path d="M169.3 20.2l-2.3-9.4-14.1-10 7.5 15.6zM180.6 21.3l-4.8-16.6-4 16.8 4.6 8.6zM164.8 34.3l9.3 2.8-3.3-9.1-15.1-8.4zM177.6 49.1l-12.2-12.4 4.7 16.7 8.1 5.4zM181.3 48.9l6-7.6-.9-17.3-7.6 15.5zM175.3 67.1l-9.6-14.5 1.4 17.3 7 6.8zM181 66.8l8.2-5.2 4.8-16.7-12.3 12.2zM196.6 64.5l-15.9 6.8-4.2 8.7 9.5-1.8zM161.5 87.5l6.2 7.6 2.4-9.4-7.9-15.5zM171.6 93.4l9.7-.5 12.4-12-16.7 4.4zM159.9 97.3l-5-16.6-3.7 16.9 4.7 8.6zM160.6 104.9l9.6 1.4 14.5-9.5-17.3 1.2zM146.1 108.3l1.4-17.2-9.7 14.3 1.2 9.7zM136.3 103.4l-15.7 7.2-4 8.9 9.5-2.2zM114.6 125.7l7.7 6 17.3-.8-15.6-7.7zM131.4 120.7l8.1 5.4 17.2-2.3-16.1-6.4zM146.7 114.5l9.2 3.1 16-6.6-17.2-2zM65 .6l-14.1 10-2.3 9.4 8.9-3.8zM46 21.3L42.1 4.5l-4.8 16.6 4.2 8.8zM53.1 34.1l9.1-14.7-15.1 8.4-3.3 9.2zM40.3 48.9l-.6 9.7 8.1-5.4 4.6-16.7zM39.1 39.3l-7.6-15.5-.9 17.3 6 7.6zM50.8 69.7l1.4-17.2-9.6 14.4 1.2 9.6zM36.9 66.6l-.7-9.7-12.4-12.1 4.9 16.6zM41.4 79.9l-4.2-8.8-16-6.8L31.9 78zM56.4 87.4l-.7-17.3-7.9 15.4 2.4 9.4zM46.3 93.2l-5.4-8.1-16.7-4.4 12.4 12zM58 97.1l4 8.9 4.7-8.5-3.7-17zM57.3 104.7l-6.8-6.9-17.3-1.2 14.5 9.5zM78.9 114.9l1.2-9.7-9.7-14.3 1.4 17.2zM101.3 119.3l-4-8.9-15.7-7.2 10.2 13.9zM78.3 130.7l17.3.8 7.7-6-9.4-2.5zM86.5 120.5l-9.2-3.2-16.1 6.3 17.2 2.3zM71.2 114.3l-8-5.5-17.2 2 16 6.6zM102.952 122.11l6.364-6.364 6.364 6.364-6.364 6.364z"/><g><path d="M14 145.5c.4-1.2 1-2.2 1.7-3.1.7-.9 1.5-1.5 2.5-2 .9-.5 1.9-.7 2.9-.7.9 0 1.7.2 2.5.6.7.4 1.3.9 1.8 1.6.1.1.2.2.3.2s.1-.1.2-.4l.4-1.6c0-.1.1-.2.1-.2H27.3c.1 0 .2 0 .2.1v6.2c0 .1 0 .2-.1.3 0 0-.1.1-.2.1h-.8c-.1 0-.2 0-.2-.1s0-.2-.1-.3c-.1-.8-.4-1.6-.8-2.3-.4-.7-1-1.3-1.6-1.7-.7-.4-1.4-.7-2.3-.7-1.1 0-2 .4-2.8 1-.8.7-1.3 1.7-1.7 2.9s-.6 2.6-.6 4.1c0 1.5.2 2.9.6 4.1.4 1.2.9 2.1 1.7 2.8.7.7 1.7 1 2.8 1 1 0 1.9-.3 2.6-.8.7-.5 1.3-1.2 1.7-2.1s.7-1.8.8-2.7c0-.1 0-.2.1-.2 0 0 .1-.1.2-.1h1.1s.1.1 0 .2c-.1 1.4-.4 2.7-1 3.8-.6 1.1-1.3 2-2.3 2.6-1 .6-2.1 1-3.5 1-1.1 0-2.1-.2-3-.7-.9-.5-1.7-1.1-2.4-2-.7-.9-1.2-1.9-1.5-3.1-.4-1.2-.5-2.5-.5-3.9-.3-1.4-.1-2.7.3-3.9zM29.9 148.9c.4-1.1.9-1.9 1.6-2.5.7-.6 1.6-.9 2.7-.9s2 .3 2.7.9c.7.6 1.3 1.4 1.6 2.4.4 1 .5 2.1.5 3.2 0 1.3-.2 2.5-.5 3.6-.4 1.1-.9 1.9-1.6 2.5-.7.6-1.6.9-2.7.9s-2-.3-2.7-.9c-.7-.6-1.3-1.4-1.6-2.4-.4-1-.5-2.1-.5-3.2 0-1.3.2-2.5.5-3.6zm2.1 5.9c.1.9.4 1.6.7 2.1s.9.8 1.6.8c.5 0 .9-.1 1.3-.4.3-.3.6-.7.8-1.2.2-.5.3-1.1.4-1.7.1-.6.1-1.2.1-1.9 0-1-.1-1.9-.2-2.8-.1-.9-.4-1.6-.7-2.1-.4-.5-.9-.8-1.6-.8-.5 0-.9.2-1.2.5-.3.3-.6.7-.8 1.2-.2.5-.3 1.1-.4 1.7-.1.6-.1 1.2-.1 1.9-.1.9 0 1.8.1 2.7zM40.8 147.3c-.1 0-.2 0-.2-.1V146c0-.1 0-.2.1-.3 0-.1.1-.1.2-.1h3.3c.1 0 .2 0 .3.1.1.1.1.2.1.3v1.3c0 .3 0 .5.1.5l.2-.2c.3-.6.8-1.2 1.3-1.6.5-.4 1.3-.7 2.1-.7s1.5.2 2 .5.8.8 1 1.4c.2.6.3 1.3.3 2.2v7.1c0 .2 0 .4.1.4 0 .1.1.1.3.1h1.1c.1 0 .2 0 .2.1v1.1c0 .2 0 .3-.1.3h-5.3c-.1 0-.2 0-.2-.1v-1.1-.3c0-.1.1-.1.2-.1h1c.2 0 .3 0 .3-.1.1-.1.1-.2.1-.4v-6.9c0-.9-.1-1.6-.4-2-.3-.5-.7-.7-1.3-.7-.6 0-1.1.2-1.6.6s-.8 1-1.1 1.6c-.2.7-.4 1.5-.4 2.3v5c0 .2 0 .3.1.4.1.1.2.1.3.1h.9c.1 0 .2 0 .3.1.1.1.1.2.1.4v.7c0 .2 0 .3-.1.3 0 0-.1.1-.2.1h-5c-.1 0-.2 0-.2-.1v-1c0-.2 0-.3.1-.3s.1-.1.3-.1h.9c.1 0 .2 0 .3-.1s.1-.1.1-.3v-9.3c0-.1 0-.2-.1-.2h-1.5zM54.6 148.9c.4-1.1.9-1.9 1.6-2.5.7-.6 1.6-.9 2.7-.9s2 .3 2.7.9c.7.6 1.3 1.4 1.6 2.4.4 1 .5 2.1.5 3.2 0 1.3-.2 2.5-.5 3.6-.4 1.1-.9 1.9-1.6 2.5-.7.6-1.6.9-2.7.9s-2-.3-2.7-.9c-.7-.6-1.3-1.4-1.6-2.4-.4-1-.5-2.1-.5-3.2-.1-1.3.1-2.5.5-3.6zm2.1 5.9c.1.9.4 1.6.7 2.1s.9.8 1.6.8c.5 0 .9-.1 1.3-.4.3-.3.6-.7.8-1.2.2-.5.3-1.1.4-1.7.1-.6.1-1.2.1-1.9 0-1-.1-1.9-.2-2.8-.1-.9-.4-1.6-.7-2.1-.4-.5-.9-.8-1.6-.8-.5 0-.9.2-1.2.5-.3.3-.6.7-.8 1.2-.2.5-.3 1.1-.4 1.7-.1.6-.1 1.2-.1 1.9-.1.9-.1 1.8.1 2.7zM65.9 149.6c.2-.8.6-1.5 1-2.2.4-.6 1-1.1 1.6-1.5.6-.4 1.4-.5 2.2-.5.9 0 1.6.2 2.2.5.6.3 1.1.8 1.4 1.4.3.6.5 1.2.5 1.9 0 .6-.2 1.1-.5 1.4-.3.3-.6.4-1 .4-.3 0-.6-.1-.9-.4s-.4-.7-.4-1.2c0-.3.1-.6.2-.7.1-.2.2-.3.3-.5s.2-.3.2-.5c0-.3-.2-.6-.5-.8-.3-.2-.8-.3-1.3-.3-.7 0-1.2.3-1.7.8-.4.5-.8 1.2-1 2s-.3 1.7-.3 2.7c0 .9.1 1.8.3 2.6.2.8.5 1.5.9 2s.9.8 1.6.8c.8 0 1.4-.3 1.9-.8s.9-1.3 1.1-2.1c0-.1.1-.2.1-.2s.1-.1.2-.1h1v.2c-.2.9-.5 1.6-.9 2.3s-.9 1.2-1.4 1.5c-.6.4-1.3.5-2.1.5-1.2 0-2.1-.3-2.9-.9-.7-.6-1.3-1.4-1.7-2.5-.4-1-.5-2.2-.5-3.4.1-.7.2-1.6.4-2.4zM77.2 148.9c.4-1.1.9-1.9 1.7-2.5s1.7-.9 2.8-.9c.7 0 1.3.1 1.8.4.5.3.9.6 1.3 1.1.3.4.6 1 .8 1.5s.4 1.1.4 1.8.1 1.2.1 1.8c0 .2 0 .3-.1.3 0 0-.1.1-.3.1h-6.4c-.1 0-.2 0-.2.1s-.1.1-.1.3c0 .9.1 1.7.3 2.4s.5 1.4.9 1.8.9.7 1.6.7c.8 0 1.4-.3 1.9-.8s.9-1.2 1.1-2.1c0-.1.1-.2.1-.2 0-.1.1-.1.2-.1h.8c.1 0 .2 0 .2.1v.2c-.2.9-.5 1.6-.9 2.3s-.9 1.2-1.5 1.5c-.6.4-1.3.5-2.2.5-1 0-1.9-.3-2.6-.9-.7-.6-1.3-1.4-1.6-2.4-.4-1-.6-2.1-.6-3.2-.1-1.6.1-2.8.5-3.8zm6.3 2.1h.2v-.2c0-.4 0-.8-.1-1.3s-.2-.9-.4-1.3-.4-.8-.7-1c-.3-.3-.6-.4-1-.4-.6 0-1 .2-1.4.6-.4.4-.7.9-.8 1.5-.2.6-.3 1.2-.3 1.8v.3s.1.1.2.1h4.3zM89.1 147.4c0-.1-.1-.1-.3-.1h-1.1c-.1 0-.2 0-.3-.1s0-.2 0-.4v-.6c0-.2 0-.3.1-.4 0-.1.1-.1.3-.1H91c.1 0 .2 0 .3.1.1 0 .1.1.1.3V147.8s.1-.1.2-.3c.3-.6.6-1.1 1-1.4.4-.4 1-.6 1.7-.6.6 0 1.1.2 1.6.7.5.4.7 1 .7 1.8 0 .4-.1.7-.2 1-.1.3-.3.6-.5.8-.2.2-.5.3-.7.3-.4 0-.7-.1-1-.4s-.4-.6-.4-1c0-.3 0-.6.1-.7.1-.2.2-.3.2-.4.1-.1.1-.2.1-.3 0-.1 0-.2-.1-.3-.1-.1-.2-.1-.4-.1-.4 0-.8.2-1.2.7-.4.5-.6 1.1-.8 1.8-.2.7-.3 1.5-.3 2.4v5.4c0 .1.1.1.3.1h1.2c.1 0 .2 0 .2.1v1.3c0 .1-.1.1-.2.1h-5.3s-.1-.1-.1-.2v-.9c0-.1 0-.2.1-.3 0 0 .1-.1.2-.1h1.1c.2 0 .3 0 .3-.1.1-.1.1-.2.1-.4v-9c-.1-.2-.1-.4-.2-.4zM103 160.8c.1-.3.3-.6.5-.8s.5-.3.7-.3c.3 0 .6.1.8.4.2.2.3.6.3 1 0 .2 0 .4-.1.6s-.1.3-.2.3c-.1.1-.2.2-.3.2s-.2.1-.2.2-.1.2-.1.3c0 .3.1.5.3.7.2.2.4.3.8.3.3 0 .5-.1.9-.3s.6-.6 1-1.1c.3-.5.6-1.3.9-2.2l.2-.7c.1-.3.1-.5.1-.6 0-.1-.1-.3-.1-.6l-3.9-10.6c-.1-.2-.1-.3-.2-.4 0-.1-.2-.1-.4-.1h-.8c-.1 0-.2 0-.3-.1 0-.1-.1-.2-.1-.3v-.7c0-.1 0-.2.1-.2h5.2c.2 0 .3 0 .3.1s.1.2.1.4v.5c0 .2 0 .4-.1.5 0 .1-.2.1-.4.1h-.9c-.2 0-.3 0-.4.1v.3l2.5 7c.1.3.2.5.2.6l.1.2c.1 0 .1-.1.2-.2 0-.2.1-.4.2-.7l2.2-6.9c.1-.2.1-.3 0-.3s-.2-.1-.4-.1h-.7c-.1 0-.2 0-.3-.1 0-.1-.1-.2-.1-.4v-.6c0-.2 0-.4.1-.4.1-.1.2-.1.3-.1H114.9c.1 0 .1.1.1.3v1.1c0 .1-.1.1-.3.1h-.8c-.2 0-.4 0-.4.1s-.1.2-.2.4l-4.3 13.3c-.3 1.1-.7 1.9-1.2 2.5-.4.6-.9 1-1.3 1.2-.5.2-.9.3-1.3.3-.5 0-1-.2-1.4-.5-.4-.3-.7-.7-.9-1.2-.2-.5-.3-1.1-.3-1.6.2-.3.3-.7.4-1zM125.3 157.5c0-.2 0-.3.1-.4.1 0 .2-.1.3-.1h1.6c.2 0 .4 0 .5-.1.1-.1.1-.3.1-.6V142c0-.2 0-.4-.1-.4-.1-.1-.2-.1-.3-.1h-.8c-.8 0-1.5.1-2 .4-.5.3-.8.7-1 1.4s-.3 1.6-.3 2.7c0 .2 0 .3-.1.4s-.2.1-.3.1h-.4c-.2 0-.3-.1-.3-.2s-.1-.3-.1-.5v-5.3c0-.3 0-.5.1-.6 0-.1.2-.1.4-.1h12.8c.2 0 .3 0 .3.1s.1.2.1.5v5.6c0 .2 0 .3-.1.4s-.2.1-.3.1h-.4c-.2 0-.3 0-.4-.1 0-.1-.1-.2-.1-.5 0-1.1-.1-2-.3-2.7-.2-.6-.5-1.1-1-1.4-.5-.3-1.1-.4-2-.4h-.9c-.2 0-.3 0-.3.1s-.1.2-.1.4v14.3c0 .3 0 .5.1.6.1.1.2.1.5.1h1.6c.2 0 .3 0 .4.1 0 .1.1.2.1.5v.5c0 .3 0 .4-.1.5-.1.1-.2.1-.4.1h-6.3c-.2 0-.3 0-.4-.1-.1-.1-.1-.2-.1-.4v-.6zM138.6 147.4c0-.1-.1-.1-.3-.1h-1.1c-.1 0-.2 0-.3-.1v-1c0-.2 0-.3.1-.4 0-.1.1-.1.3-.1h3.2c.1 0 .2 0 .3.1.1 0 .1.1.1.3V147.8s.1-.1.2-.3c.3-.6.6-1.1 1-1.4.4-.4 1-.6 1.7-.6.6 0 1.1.2 1.6.7.5.4.7 1 .7 1.8 0 .4-.1.7-.2 1-.1.3-.3.6-.5.8s-.5.3-.7.3c-.4 0-.7-.1-1-.4-.3-.3-.4-.6-.4-1 0-.3 0-.6.1-.7.1-.2.2-.3.2-.4.1-.1.1-.2.1-.3 0-.1 0-.2-.1-.3s-.2-.1-.4-.1c-.4 0-.8.2-1.2.7-.4.5-.6 1.1-.8 1.8s-.3 1.5-.3 2.4v5.4c0 .1.1.1.3.1h1.2c.1 0 .2 0 .2.1v1.3c0 .1-.1.1-.2.1h-5.3s-.1-.1-.1-.2v-.9c0-.1 0-.2.1-.3s.1-.1.2-.1h1.1c.2 0 .3 0 .3-.1.1-.1.1-.2.1-.4v-9c-.2-.2-.2-.4-.2-.4zM147.2 147.3c-.1 0-.2 0-.2-.1V146c0-.2.1-.3.2-.3h3.7V157s.1.1.2.1h1.5v1.4s-.1.1-.2.1H147s-.1-.1-.1-.2v-.9c0-.2 0-.3.1-.3 0 0 .1-.1.2-.1h1.2c.1 0 .2 0 .2-.1V147.4c0-.2-.1-.3-.2-.3h-1.2zm1.5-7.2c.3-.3.6-.5 1-.5s.7.2 1 .5c.3.3.4.7.4 1.2s-.1.9-.4 1.2c-.3.3-.6.5-1 .5s-.7-.2-1-.5c-.3-.3-.4-.7-.4-1.2s.2-.9.4-1.2zM154.9 147.7v-.3c0-.1-.1-.1-.2-.1h-1.2c-.1 0-.2 0-.3-.1-.1 0-.1-.1-.1-.3v-.7c0-.2 0-.3.1-.4 0-.1.1-.1.3-.1h3.2c.2 0 .3 0 .3.1s.1.2.1.3v8.5c0 .9.1 1.6.4 2.1s.7.8 1.3.8c.6 0 1.1-.2 1.6-.7s.8-1 1.1-1.8c.3-.7.4-1.5.4-2.4v-5.1c0-.2 0-.3-.1-.4-.1 0-.2-.1-.3-.1h-1.2s-.1-.1-.1-.2v-.9-.3c0-.1.1-.1.2-.1h3.4c.1 0 .2 0 .2.1v10.9c0 .2 0 .3.1.4s.1.1.3.1h1.1c.1 0 .2 0 .2.1.1 0 .1.1.1.3v1.1c0 .1-.1.1-.2.1h-3.2c-.2 0-.2 0-.3-.1s-.1-.2-.1-.4v-1.4c0-.1 0-.2-.1-.2 0 0-.1 0-.2.2-.3.7-.7 1.2-1.3 1.6-.5.4-1.2.6-2.1.6-.8 0-1.5-.2-2-.5s-.8-.8-1-1.4c-.2-.6-.3-1.3-.3-2.2v-7.1zM167.2 147.3c-.1 0-.2 0-.2-.1V146c0-.1 0-.2.1-.3 0-.1.1-.1.2-.1h3.3c.1 0 .2 0 .3.1.1.1.1.2.1.3v1.3c0 .3 0 .5.1.5l.2-.2c.3-.6.8-1.2 1.3-1.6.5-.4 1.3-.7 2.1-.7s1.5.2 2 .5.8.8 1 1.4c.2.6.3 1.3.3 2.2v7.1c0 .2 0 .4.1.4 0 .1.1.1.3.1h1.1c.1 0 .2 0 .2.1v1.1c0 .2 0 .3-.1.3h-5.3c-.1 0-.2 0-.2-.1v-1.1-.3c0-.1.1-.1.2-.1h1c.2 0 .3 0 .3-.1.1-.1.1-.2.1-.4v-6.9c0-.9-.1-1.6-.4-2-.3-.5-.7-.7-1.3-.7-.6 0-1.1.2-1.6.6-.5.4-.8 1-1.1 1.6-.2.7-.4 1.5-.4 2.3v5c0 .2 0 .3.1.4.1.1.2.1.3.1h.9c.1 0 .2 0 .3.1 0 .1.1.2.1.4v.7c0 .2 0 .3-.1.3s-.1.1-.2.1h-5c-.1 0-.2 0-.2-.1v-1c0-.2 0-.3.1-.3s.1-.1.3-.1h1.1c.1 0 .2 0 .3-.1s.1-.1.1-.3v-9.3c0-.1 0-.2-.1-.2h-1.7zM184.2 156.7v.4c0 .1.1.1.3.1H186.4c.1 0 .1.1.1.3v.8c0 .2 0 .3-.1.3 0 0-.1.1-.3.1h-5.7c-.1 0-.2 0-.2-.1v-1.2c0-.1 0-.2.1-.3 0 0 .1-.1.2-.1h1.2c.1 0 .2 0 .2-.1v-9.4-.3s-.1-.1-.2-.1h-1.5s-.1-.1-.1-.3v-.8c0-.1 0-.2.1-.3 0 0 .1-.1.2-.1h1.2c.1 0 .2 0 .2-.1v-1.2c0-1.1.2-2 .5-2.8s.8-1.5 1.4-1.9 1.4-.7 2.3-.7c.7 0 1.4.1 1.9.4.5.3.9.6 1.2 1.1.3.4.4.9.4 1.4 0 .6-.1 1.1-.4 1.4-.3.3-.6.5-1 .5s-.7-.1-1-.4c-.2-.3-.4-.6-.4-1 0-.3 0-.5.1-.6s.2-.3.2-.4c.1-.1.1-.3.1-.4 0-.1-.1-.3-.3-.4-.2-.1-.5-.2-1-.2s-.9.2-1.2.5c-.3.3-.5.9-.7 1.6-.1.7-.2 1.6-.2 2.7v.7s.1.1.2.1h2.1c.1 0 .2 0 .3.1 0 0 .1.1.1.3v1.1s-.1.1-.3.1H184c-.1 0-.2 0-.2.1V156.7zM188.8 153.4c.4-.7 1-1.2 1.8-1.6.8-.4 1.7-.6 2.9-.6h1.1v-1.7c0-.5-.1-1-.2-1.4s-.3-.8-.6-1c-.3-.2-.7-.4-1.2-.4-.3 0-.6 0-.9.1-.3.1-.5.2-.7.3-.2.1-.3.3-.3.4 0 .1 0 .2.1.3l.3.3c.1.1.1.4.1.7 0 .5-.1.8-.3 1.1s-.5.4-.9.4c-.3 0-.7-.1-.9-.3-.3-.2-.4-.6-.4-1.2s.1-1.1.4-1.5c.3-.4.6-.8 1-1.1s.9-.5 1.4-.7c.5-.1 1.1-.2 1.6-.2.9 0 1.6.2 2.2.5.5.4.9.9 1.1 1.5.2.6.3 1.3.3 2v7.2c0 .2.1.4.2.5.1.1.2.2.4.2s.3 0 .4-.1c.2-.1.3-.3.5-.7.1-.1.1-.2.2-.1l.5.4c.1.1.1.2.1.3-.2.4-.3.7-.6.9s-.5.5-.8.6c-.3.1-.6.2-.9.2-.5 0-.9-.1-1.1-.3-.3-.2-.4-.4-.5-.7-.1-.3-.2-.5-.2-.7 0-.2-.1-.2-.1-.2l-.2.2c-.1.2-.3.4-.5.7-.2.3-.6.5-1 .7s-1 .3-1.6.3c-.9 0-1.7-.3-2.3-.9-.6-.6-.9-1.4-.9-2.5-.1-.5.1-1.2.5-1.9zm2.3 3.5c.4.3.8.5 1.3.5.6 0 1.2-.3 1.6-.9.4-.6.6-1.4.6-2.5v-1.3c0-.2-.1-.2-.2-.2h-.9c-.7 0-1.3.1-1.7.4-.4.2-.7.6-.9 1-.2.4-.3 1-.3 1.5 0 .6.1 1.2.5 1.5zM201.2 147.4c0-.1-.1-.1-.3-.1h-1.1c-.1 0-.2 0-.3-.1s0-.2 0-.4v-.6c0-.2 0-.3.1-.4 0-.1.1-.1.3-.1h3.2c.1 0 .2 0 .3.1.1 0 .1.1.1.3V147.8s.1-.1.2-.3c.3-.6.6-1.1 1-1.4.4-.4 1-.6 1.7-.6.6 0 1.1.2 1.6.7.5.4.7 1 .7 1.8 0 .4-.1.7-.2 1-.1.3-.3.6-.5.8-.2.2-.5.3-.7.3-.4 0-.7-.1-1-.4s-.4-.6-.4-1c0-.3 0-.6.1-.7.1-.2.2-.3.2-.4.1-.1.1-.2.1-.3 0-.1 0-.2-.1-.3-.1-.1-.2-.1-.4-.1-.4 0-.8.2-1.2.7-.4.5-.6 1.1-.8 1.8-.2.7-.3 1.5-.3 2.4v5.4c0 .1.1.1.3.1h1.2c.1 0 .2 0 .2.1v1.3c0 .1-.1.1-.2.1h-5.3s-.1-.1-.1-.2v-.9c0-.1 0-.2.1-.3 0 0 .1-.1.2-.1h1.1c.2 0 .3 0 .3-.1.1-.1.1-.2.1-.4v-9l-.2-.4z"/></g><g><path d="M79 52.8c.5-1.6 1.2-2.9 2.1-4 .9-1.1 1.9-2 3.1-2.6 1.2-.6 2.4-.9 3.7-.9 1.2 0 2.3.3 3.3.9 1 .6 1.8 1.3 2.4 2.2.1.2.2.3.3.2.1 0 .1-.2.2-.5l.5-2.4c0-.1 0-.2.1-.2 0 0 .1-.1.2-.1h.7c.1 0 .2 0 .2.1v8.1c0 .2 0 .3-.1.3-.1.1-.2.1-.3.1h-.8c-.2 0-.2 0-.3-.1 0-.1 0-.2-.1-.4-.1-1.1-.5-2.1-1.1-3.1-.6-1-1.3-1.8-2.2-2.4-.9-.6-1.9-.9-3.1-.9-1.5 0-2.7.5-3.8 1.4-1 1-1.8 2.3-2.3 3.9-.5 1.6-.8 3.5-.8 5.5s.2 3.8.7 5.4c.5 1.6 1.2 2.9 2.2 3.9 1 1 2.2 1.4 3.7 1.4 1.4 0 2.6-.4 3.5-1.1 1-.8 1.8-1.7 2.3-2.9.6-1.2.9-2.5 1-3.8 0-.1 0-.2.1-.2 0 0 .1-.1.2-.1h1.1s.1.1.1.2c-.1 1.9-.5 3.5-1.2 5s-1.7 2.7-2.9 3.5c-1.2.9-2.7 1.3-4.4 1.3-1.4 0-2.6-.3-3.8-.9-1.1-.6-2.1-1.5-3-2.6s-1.5-2.5-1.9-4c-.5-1.6-.7-3.2-.7-5.1.3-1.8.6-3.5 1.1-5.1zM123.6 69.1c0-.3 0-.4.1-.5.1-.1.2-.1.4-.1h2.1c.3 0 .5 0 .6-.1.1-.1.1-.4.1-.8V47.9c0-.3 0-.5-.1-.6-.1-.1-.2-.1-.5-.1h-1.2c-1.1 0-2 .2-2.6.6-.6.4-1.1 1-1.3 1.9-.3.9-.4 2.1-.4 3.7 0 .3 0 .4-.1.5 0 .1-.2.1-.4.1h-.4c-.2 0-.3-.1-.4-.2 0-.2-.1-.4-.1-.6v-6.7c0-.4 0-.6.1-.7.1-.1.2-.1.5-.1h16.2c.2 0 .4 0 .5.1.1.1.1.3.1.6v7.1c0 .2 0 .4-.1.4s-.2.1-.4.1h-.3c-.2 0-.4-.1-.4-.2s-.1-.3-.1-.6c0-1.5-.2-2.7-.4-3.6-.3-.9-.7-1.5-1.3-1.8-.6-.4-1.5-.5-2.6-.5h-1.3c-.2 0-.4 0-.4.1-.1.1-.1.3-.1.6v19.6c0 .4 0 .7.1.8.1.1.3.2.6.2h2.1c.3 0 .4 0 .5.1.1.1.1.3.1.7v.3c0 .3-.1.5-.2.6s-.3.1-.5.1h-7.8c-.2 0-.4 0-.5-.1-.1-.1-.1-.3-.1-.6v-.6zM99 77.7c.2-.4.5-.8.9-1 .4-.2.8-.4 1.2-.4.5 0 1 .2 1.4.5s.5.8.5 1.4c0 .3-.1.6-.2.8s-.2.3-.4.4c-.2.1-.3.2-.5.3s-.3.2-.4.3c-.1.1-.2.2-.2.4 0 .4.2.7.5.9.3.3.7.4 1.3.4.4 0 .9-.1 1.4-.4.5-.3 1-.7 1.6-1.4.5-.7 1.1-1.7 1.6-2.9l.4-.9c.1-.3.2-.6.2-.8s-.1-.4-.2-.8l-6.4-14c-.1-.2-.2-.4-.3-.5-.1-.1-.3-.1-.6-.1h-1.4c-.2 0-.4 0-.5-.1-.1-.1-.1-.2-.1-.5v-1.1c0-.2 0-.2.1-.3.1 0 .2-.1.3-.1h8.3c.3 0 .4 0 .5.1.1.1.1.3.1.6v.6c0 .3 0 .5-.1.6-.1.1-.3.1-.6.1h-1.5c-.3 0-.5 0-.6.1-.1 0-.1.2 0 .4l4.1 9.2.4.8c.1.2.2.3.2.3.1 0 .2-.1.3-.3.1-.2.2-.5.3-.9l3.6-9c.1-.2.1-.4 0-.5-.1-.1-.3-.1-.6-.1h-1.1c-.2 0-.4 0-.5-.1-.1-.1-.1-.2-.1-.5v-.8c0-.3 0-.5.1-.6s.3-.1.5-.1h6.1c.2 0 .3 0 .4.1.1 0 .1.2.1.3v1c0 .2 0 .4-.1.5-.1.1-.2.2-.5.2h-1.3c-.4 0-.6.1-.7.2-.1.1-.2.3-.3.6l-7.1 17.6c-.6 1.4-1.2 2.5-1.9 3.3-.7.8-1.5 1.3-2.2 1.6-.8.3-1.5.4-2.2.4-.9 0-1.7-.2-2.3-.6s-1.1-.9-1.5-1.6c-.3-.7-.5-1.4-.5-2.2.2-.5.3-1 .5-1.4z"/></g></svg>