<?xml version="1.0" encoding="UTF-8" standalone="no"?>
<svg
   viewBox="0 0 437.6 161.1"
   version="1.1"
   id="svg3"
   width="437.60001"
   height="161.10001"
   xmlns="http://www.w3.org/2000/svg"
  >
  <g
     id="g4"
     transform="translate(18.500003,14.750003)">
    <path
       d="m 150.1,19.9 -2.3,-9.5 -14.2,-10 7.5,15.6 z m 11.2,1.1 -4.8,-16.7 -3.9,16.9 4.5,8.6 z m -15.8,12.9 9.3,2.9 -3.2,-9.2 -15.2,-8.4 z m 12.8,14.8 -12.1,-12.3 4.6,16.7 8.1,5.3 z m 3.7,-0.1 6,-7.7 -0.9,-17.3 -7.6,15.6 z m -5.9,18.1 -9.6,-14.4 1.3,17.3 7,6.8 z m 5.6,-0.2 8.2,-5.3 4.9,-16.6 -12.4,12.2 z m 15.7,-2.4 -16,6.8 -4.2,8.8 9.6,-1.9 z m -35.1,23.1 6.1,7.6 2.4,-9.5 -7.9,-15.4 z m 10,5.9 9.7,-0.5 12.4,-12.1 -16.7,4.5 z m -11.7,3.9 -5,-16.6 -3.7,16.9 4.7,8.5 z m 0.7,7.6 9.6,1.3 14.5,-9.5 -17.2,1.3 z m -14.5,3.4 1.4,-17.3 -9.7,14.4 1.3,9.6 z m -9.8,-5 -15.7,7.2 -4,8.9 9.5,-2.1 z m -21.7,22.3 7.7,6.1 17.3,-0.9 -15.5,-7.7 z m 16.8,-5 8.1,5.4 17.2,-2.2 -16.1,-6.4 z m 15.3,-6.2 9.2,3.2 16.1,-6.7 -17.3,-2 z M 45.7,0.2 l -14.1,10 -2.3,9.5 8.9,-3.9 z M 26.8,21 22.8,4.1 18,20.8 l 4.2,8.8 z m 7,12.8 9.1,-14.8 -15.1,8.4 -3.3,9.2 z M 21,48.5 20.4,58.2 28.6,52.9 33.2,36.2 Z M 19.8,39 12.2,23.4 l -0.9,17.3 6,7.7 z m 11.7,30.4 1.4,-17.3 -9.6,14.4 1.2,9.7 z M 17.6,66.3 16.9,56.6 4.6,44.4 9.4,61 Z M 22.1,79.5 17.9,70.7 2,63.9 12.6,77.6 Z m 15,7.5 -0.7,-17.3 -7.8,15.4 2.3,9.5 z m -10,5.9 -5.5,-8.1 -16.7,-4.5 12.4,12.1 z m 11.6,3.9 4.1,8.8 4.6,-8.5 -3.7,-16.9 z m -0.7,7.6 -6.8,-6.9 -17.3,-1.2 14.5,9.4 z m 21.6,10.1 1.2,-9.6 -9.7,-14.4 1.5,17.3 z m 22.4,4.4 -4,-8.9 -15.7,-7.2 10.2,14 z m -23,11.4 17.3,0.9 7.7,-6.1 -9.4,-2.5 z m 8.2,-10.1 -9.2,-3.3 -16.1,6.4 17.2,2.3 z m -15.3,-6.3 -8,-5.5 -17.2,2.1 16,6.6 z m 31.726,7.838 6.364,-6.364 6.364,6.364 -6.364,6.363 z"
       id="path1" />
    <g
       id="g2">
      <path
         d="m 203.9,59 c 0.4,-1.2 1,-2.2 1.7,-3.1 0.7,-0.9 1.5,-1.5 2.5,-2 0.9,-0.5 1.9,-0.7 2.9,-0.7 0.9,0 1.7,0.2 2.5,0.6 0.7,0.4 1.3,0.9 1.8,1.6 0.1,0.1 0.2,0.2 0.3,0.2 0.1,0 0.1,-0.1 0.2,-0.4 l 0.4,-1.6 c 0,-0.1 0.1,-0.2 0.1,-0.2 h 0.9 c 0.1,0 0.2,0 0.2,0.1 v 6.2 c 0,0.1 0,0.2 -0.1,0.3 0,0 -0.1,0.1 -0.2,0.1 h -0.8 c -0.1,0 -0.2,0 -0.2,-0.1 0,-0.1 0,-0.2 -0.1,-0.3 -0.1,-0.8 -0.4,-1.6 -0.8,-2.3 -0.4,-0.7 -1,-1.3 -1.6,-1.7 -0.7,-0.4 -1.4,-0.7 -2.3,-0.7 -1.1,0 -2,0.4 -2.8,1 -0.8,0.7 -1.3,1.7 -1.7,2.9 -0.4,1.2 -0.6,2.6 -0.6,4.1 0,1.5 0.2,2.9 0.6,4.1 0.4,1.2 0.9,2.1 1.7,2.8 0.7,0.7 1.7,1 2.8,1 1,0 1.9,-0.3 2.6,-0.8 0.7,-0.5 1.3,-1.2 1.7,-2.1 0.4,-0.9 0.7,-1.8 0.8,-2.7 0,-0.1 0,-0.2 0.1,-0.2 0,0 0.1,-0.1 0.2,-0.1 h 1.1 c 0,0 0.1,0.1 0,0.2 -0.1,1.4 -0.4,2.7 -1,3.8 -0.6,1.1 -1.3,2 -2.3,2.6 -1,0.6 -2.1,1 -3.5,1 -1.1,0 -2.1,-0.2 -3,-0.7 -0.9,-0.5 -1.7,-1.1 -2.4,-2 -0.7,-0.9 -1.2,-1.9 -1.5,-3.1 -0.4,-1.2 -0.5,-2.5 -0.5,-3.9 -0.3,-1.5 -0.1,-2.7 0.3,-3.9 z m 16,3.4 c 0.4,-1.1 0.9,-1.9 1.6,-2.5 0.7,-0.6 1.6,-0.9 2.7,-0.9 1.1,0 2,0.3 2.7,0.9 0.7,0.6 1.3,1.4 1.6,2.4 0.4,1 0.5,2.1 0.5,3.2 0,1.3 -0.2,2.5 -0.5,3.6 -0.4,1.1 -0.9,1.9 -1.6,2.5 -0.7,0.6 -1.6,0.9 -2.7,0.9 -1.1,0 -2,-0.3 -2.7,-0.9 -0.7,-0.6 -1.3,-1.4 -1.6,-2.4 -0.4,-1 -0.5,-2.1 -0.5,-3.2 -0.1,-1.4 0.1,-2.6 0.5,-3.6 z m 2.1,5.9 c 0.1,0.9 0.4,1.6 0.7,2.1 0.3,0.5 0.9,0.8 1.6,0.8 0.5,0 0.9,-0.1 1.3,-0.4 0.3,-0.3 0.6,-0.7 0.8,-1.2 0.2,-0.5 0.3,-1.1 0.4,-1.7 0.1,-0.6 0.1,-1.2 0.1,-1.9 0,-1 -0.1,-1.9 -0.2,-2.8 -0.1,-0.9 -0.4,-1.6 -0.7,-2.1 -0.4,-0.5 -0.9,-0.8 -1.6,-0.8 -0.5,0 -0.9,0.2 -1.2,0.5 -0.3,0.3 -0.6,0.7 -0.8,1.2 -0.2,0.5 -0.3,1.1 -0.4,1.7 -0.1,0.6 -0.1,1.2 -0.1,1.9 -0.1,0.9 -0.1,1.8 0.1,2.7 z m 8.8,-7.5 c -0.1,0 -0.2,0 -0.2,-0.1 v -1.2 c 0,-0.1 0,-0.2 0.1,-0.3 0,-0.1 0.1,-0.1 0.2,-0.1 h 3.3 c 0.1,0 0.2,0 0.3,0.1 0.1,0.1 0.1,0.2 0.1,0.3 V 61 c 0,0.3 0,0.5 0.1,0.5 l 0.2,-0.2 c 0.3,-0.6 0.8,-1.2 1.3,-1.6 0.5,-0.4 1.3,-0.7 2.1,-0.7 0.8,0 1.5,0.2 2,0.5 0.5,0.3 0.8,0.8 1,1.4 0.2,0.6 0.3,1.3 0.3,2.2 v 7.1 c 0,0.2 0,0.4 0.1,0.4 0,0.1 0.1,0.1 0.3,0.1 h 1.1 c 0.1,0 0.2,0 0.2,0.1 v 1.1 c 0,0.2 0,0.3 -0.1,0.3 h -5.3 c -0.1,0 -0.2,0 -0.2,-0.1 V 71 70.7 c 0,-0.1 0.1,-0.1 0.2,-0.1 h 1 c 0.2,0 0.3,0 0.3,-0.1 0.1,-0.1 0.1,-0.2 0.1,-0.4 v -6.9 c 0,-0.9 -0.1,-1.6 -0.4,-2 -0.3,-0.5 -0.7,-0.7 -1.3,-0.7 -0.6,0 -1.1,0.2 -1.6,0.6 -0.5,0.4 -0.8,1 -1.1,1.6 -0.2,0.7 -0.4,1.5 -0.4,2.3 v 5 c 0,0.2 0,0.3 0.1,0.4 0.1,0.1 0.2,0.1 0.3,0.1 h 0.9 c 0.1,0 0.2,0 0.3,0.1 0.1,0.1 0.1,0.2 0.1,0.4 v 0.7 c 0,0.2 0,0.3 -0.1,0.3 0,0 -0.1,0.1 -0.2,0.1 h -5 c -0.1,0 -0.2,0 -0.2,-0.1 v -1 c 0,-0.2 0,-0.3 0.1,-0.3 0.1,0 0.1,-0.1 0.3,-0.1 h 1.1 c 0.1,0 0.2,0 0.3,-0.1 0.1,-0.1 0.1,-0.1 0.1,-0.3 V 61 c 0,-0.1 0,-0.2 -0.1,-0.2 z m 13.7,1.6 c 0.4,-1.1 0.9,-1.9 1.6,-2.5 0.7,-0.6 1.6,-0.9 2.7,-0.9 1.1,0 2,0.3 2.7,0.9 0.7,0.6 1.3,1.4 1.6,2.4 0.4,1 0.5,2.1 0.5,3.2 0,1.3 -0.2,2.5 -0.5,3.6 -0.4,1.1 -0.9,1.9 -1.6,2.5 -0.7,0.6 -1.6,0.9 -2.7,0.9 -1.1,0 -2,-0.3 -2.7,-0.9 -0.7,-0.6 -1.3,-1.4 -1.6,-2.4 -0.4,-1 -0.5,-2.1 -0.5,-3.2 0,-1.4 0.2,-2.6 0.5,-3.6 z m 2.1,5.9 c 0.1,0.9 0.4,1.6 0.7,2.1 0.3,0.5 0.9,0.8 1.6,0.8 0.5,0 0.9,-0.1 1.3,-0.4 0.3,-0.3 0.6,-0.7 0.8,-1.2 0.2,-0.5 0.3,-1.1 0.4,-1.7 0.1,-0.6 0.1,-1.2 0.1,-1.9 0,-1 -0.1,-1.9 -0.2,-2.8 -0.1,-0.9 -0.4,-1.6 -0.7,-2.1 -0.4,-0.5 -0.9,-0.8 -1.6,-0.8 -0.5,0 -0.9,0.2 -1.2,0.5 -0.3,0.3 -0.6,0.7 -0.8,1.2 -0.2,0.5 -0.3,1.1 -0.4,1.7 -0.1,0.6 -0.1,1.2 -0.1,1.9 -0.1,0.9 0,1.8 0.1,2.7 z m 9.3,-5.2 c 0.2,-0.8 0.6,-1.5 1,-2.2 0.4,-0.6 1,-1.1 1.6,-1.5 0.6,-0.4 1.4,-0.5 2.2,-0.5 0.9,0 1.6,0.2 2.2,0.5 0.6,0.3 1.1,0.8 1.4,1.4 0.3,0.6 0.5,1.2 0.5,1.9 0,0.6 -0.2,1.1 -0.5,1.4 -0.3,0.3 -0.6,0.4 -1,0.4 -0.3,0 -0.6,-0.1 -0.9,-0.4 -0.3,-0.3 -0.4,-0.6 -0.4,-1.1 0,-0.3 0.1,-0.6 0.2,-0.7 0.1,-0.2 0.2,-0.3 0.3,-0.5 0.1,-0.2 0.2,-0.3 0.2,-0.5 0,-0.3 -0.2,-0.6 -0.5,-0.8 -0.3,-0.2 -0.8,-0.3 -1.3,-0.3 -0.7,0 -1.2,0.3 -1.7,0.8 -0.4,0.5 -0.8,1.2 -1,2 -0.2,0.8 -0.3,1.7 -0.3,2.7 0,0.9 0.1,1.8 0.3,2.6 0.2,0.8 0.5,1.5 0.9,2 0.4,0.5 0.9,0.8 1.6,0.8 0.8,0 1.4,-0.3 1.9,-0.8 0.5,-0.5 0.9,-1.3 1.1,-2.1 0,-0.1 0.1,-0.2 0.1,-0.2 0,0 0.1,-0.1 0.2,-0.1 h 1 v 0.2 c -0.2,0.9 -0.5,1.6 -0.9,2.3 -0.4,0.7 -0.9,1.2 -1.4,1.5 -0.6,0.4 -1.3,0.5 -2.1,0.5 -1.2,0 -2.1,-0.3 -2.9,-0.9 -0.7,-0.6 -1.3,-1.4 -1.7,-2.5 -0.4,-1 -0.5,-2.2 -0.5,-3.4 0,-0.8 0.1,-1.7 0.4,-2.5 z m 11.2,-0.7 c 0.4,-1.1 0.9,-1.9 1.7,-2.5 0.8,-0.6 1.7,-0.9 2.8,-0.9 0.7,0 1.3,0.1 1.8,0.4 0.5,0.3 0.9,0.6 1.3,1.1 0.3,0.4 0.6,1 0.8,1.5 0.2,0.5 0.4,1.1 0.4,1.8 0,0.7 0.1,1.2 0.1,1.8 0,0.2 0,0.3 -0.1,0.3 0,0 -0.1,0.1 -0.3,0.1 h -6.4 c -0.1,0 -0.2,0 -0.2,0.1 0,0.1 -0.1,0.1 -0.1,0.3 0,0.9 0.1,1.7 0.3,2.4 0.2,0.7 0.5,1.4 0.9,1.8 0.4,0.4 0.9,0.7 1.6,0.7 0.8,0 1.4,-0.3 1.9,-0.8 0.5,-0.5 0.9,-1.2 1.1,-2.1 0,-0.1 0.1,-0.2 0.1,-0.2 0,-0.1 0.1,-0.1 0.2,-0.1 h 0.8 c 0.1,0 0.2,0 0.2,0.1 v 0.2 c -0.2,0.9 -0.5,1.6 -0.9,2.3 -0.4,0.7 -0.9,1.2 -1.5,1.5 -0.6,0.4 -1.3,0.5 -2.2,0.5 -1,0 -1.9,-0.3 -2.6,-0.9 -0.7,-0.6 -1.3,-1.4 -1.6,-2.4 -0.4,-1 -0.6,-2.1 -0.6,-3.2 0,-1.6 0.2,-2.8 0.5,-3.8 z m 6.3,2.1 h 0.2 v -0.2 c 0,-0.4 0,-0.8 -0.1,-1.3 -0.1,-0.5 -0.2,-0.9 -0.4,-1.3 -0.2,-0.4 -0.4,-0.8 -0.7,-1 -0.3,-0.3 -0.6,-0.4 -1,-0.4 -0.6,0 -1,0.2 -1.4,0.6 -0.4,0.4 -0.7,0.9 -0.8,1.5 -0.2,0.6 -0.3,1.2 -0.3,1.8 v 0.3 c 0,0 0.1,0.1 0.2,0.1 h 4.3 z m 5.7,-3.6 c 0,-0.1 -0.1,-0.1 -0.3,-0.1 h -1.1 c -0.1,0 -0.2,0 -0.3,-0.1 -0.1,-0.1 0,-0.2 0,-0.4 v -0.6 c 0,-0.2 0,-0.3 0.1,-0.4 0,-0.1 0.1,-0.1 0.3,-0.1 h 3.2 c 0.1,0 0.2,0 0.3,0.1 0.1,0 0.1,0.1 0.1,0.3 v 1.7 c 0,0 0.1,-0.1 0.2,-0.3 0.3,-0.6 0.6,-1.1 1,-1.4 0.4,-0.4 1,-0.6 1.7,-0.6 0.6,0 1.1,0.2 1.6,0.7 0.5,0.4 0.7,1 0.7,1.8 0,0.4 -0.1,0.7 -0.2,1 -0.1,0.3 -0.3,0.6 -0.5,0.8 -0.2,0.2 -0.5,0.3 -0.7,0.3 -0.4,0 -0.7,-0.1 -1,-0.4 -0.3,-0.3 -0.4,-0.6 -0.4,-1 0,-0.3 0,-0.6 0.1,-0.7 0.1,-0.2 0.2,-0.3 0.2,-0.4 0.1,-0.1 0.1,-0.2 0.1,-0.3 0,-0.1 0,-0.2 -0.1,-0.3 -0.1,-0.1 -0.2,-0.1 -0.4,-0.1 -0.4,0 -0.8,0.2 -1.2,0.7 -0.4,0.5 -0.6,1.1 -0.8,1.8 -0.2,0.7 -0.3,1.5 -0.3,2.4 v 5.4 c 0,0.1 0.1,0.1 0.3,0.1 h 1.2 c 0.1,0 0.2,0 0.2,0.1 v 1.3 c 0,0.1 -0.1,0.1 -0.2,0.1 h -5.3 c 0,0 -0.1,-0.1 -0.1,-0.2 V 71 c 0,-0.1 0,-0.2 0.1,-0.3 0,0 0.1,-0.1 0.2,-0.1 h 1.1 c 0.2,0 0.3,0 0.3,-0.1 0.1,-0.1 0.1,-0.2 0.1,-0.4 v -9 c -0.2,-0.1 -0.2,-0.2 -0.2,-0.2 z m 13.8,13.4 c 0.1,-0.3 0.3,-0.6 0.5,-0.8 0.2,-0.2 0.5,-0.3 0.7,-0.3 0.3,0 0.6,0.1 0.8,0.4 0.2,0.2 0.3,0.6 0.3,1 0,0.2 0,0.4 -0.1,0.6 -0.1,0.2 -0.1,0.3 -0.2,0.3 -0.1,0.1 -0.2,0.2 -0.3,0.2 -0.1,0 -0.2,0.1 -0.2,0.2 0,0.1 -0.1,0.2 -0.1,0.3 0,0.3 0.1,0.5 0.3,0.7 0.2,0.2 0.4,0.3 0.8,0.3 0.3,0 0.5,-0.1 0.9,-0.3 0.4,-0.2 0.6,-0.6 1,-1.1 0.3,-0.5 0.6,-1.3 0.9,-2.2 l 0.2,-0.7 c 0.1,-0.3 0.1,-0.5 0.1,-0.6 0,-0.1 -0.1,-0.3 -0.1,-0.6 l -3.9,-10.6 c -0.1,-0.2 -0.1,-0.3 -0.2,-0.4 0,-0.1 -0.2,-0.1 -0.4,-0.1 H 293 c -0.1,0 -0.2,0 -0.3,-0.1 0,-0.1 -0.1,-0.2 -0.1,-0.3 v -0.9 c 0,-0.1 0,-0.2 0.1,-0.2 h 5.2 c 0.2,0 0.3,0 0.3,0.1 0,0.1 0.1,0.2 0.1,0.4 v 0.5 c 0,0.2 0,0.4 -0.1,0.5 0,0.1 -0.2,0.1 -0.4,0.1 H 297 c -0.2,0 -0.3,0 -0.4,0.1 v 0.3 l 2.5,7 c 0.1,0.3 0.2,0.5 0.2,0.6 l 0.1,0.2 c 0.1,0 0.1,-0.1 0.2,-0.2 0,-0.2 0.1,-0.4 0.2,-0.7 l 2.2,-6.9 c 0.1,-0.2 0.1,-0.3 0,-0.3 -0.1,0 -0.2,-0.1 -0.4,-0.1 h -0.7 c -0.1,0 -0.2,0 -0.3,-0.1 0,-0.1 -0.1,-0.2 -0.1,-0.4 v -0.6 c 0,-0.2 0,-0.4 0.1,-0.4 0.1,-0.1 0.2,-0.1 0.3,-0.1 h 3.9 c 0.1,0 0.1,0.1 0.1,0.3 v 1.1 c 0,0.1 -0.1,0.1 -0.3,0.1 h -0.8 c -0.2,0 -0.4,0 -0.4,0.1 0,0.1 -0.1,0.2 -0.2,0.4 l -4.3,13.3 c -0.3,1.1 -0.7,1.9 -1.2,2.5 -0.4,0.6 -0.9,1 -1.3,1.2 -0.5,0.2 -0.9,0.3 -1.3,0.3 -0.5,0 -1,-0.2 -1.4,-0.5 -0.4,-0.3 -0.7,-0.7 -0.9,-1.2 -0.2,-0.5 -0.3,-1.1 -0.3,-1.6 0.2,-0.1 0.3,-0.5 0.4,-0.8 z M 315.3,71 c 0,-0.2 0,-0.3 0.1,-0.4 0.1,0 0.2,-0.1 0.3,-0.1 h 1.6 c 0.2,0 0.4,0 0.5,-0.1 0.1,-0.1 0.1,-0.3 0.1,-0.6 V 55.5 c 0,-0.2 0,-0.4 -0.1,-0.4 C 317.7,55 317.6,55 317.5,55 h -0.8 c -0.8,0 -1.5,0.1 -2,0.4 -0.5,0.3 -0.8,0.7 -1,1.4 -0.2,0.7 -0.3,1.6 -0.3,2.7 0,0.2 0,0.3 -0.1,0.4 -0.1,0.1 -0.2,0.1 -0.3,0.1 h -0.4 c -0.2,0 -0.3,-0.1 -0.3,-0.2 0,-0.1 -0.1,-0.3 -0.1,-0.5 V 54 c 0,-0.3 0,-0.5 0.1,-0.6 0,-0.1 0.2,-0.1 0.4,-0.1 h 12.8 c 0.2,0 0.3,0 0.3,0.1 0,0.1 0.1,0.2 0.1,0.5 v 5.6 c 0,0.2 0,0.3 -0.1,0.4 -0.1,0.1 -0.2,0.1 -0.3,0.1 H 325 c -0.2,0 -0.3,0 -0.4,-0.1 0,-0.1 -0.1,-0.2 -0.1,-0.5 0,-1.1 -0.1,-2 -0.3,-2.7 -0.2,-0.6 -0.5,-1.1 -1,-1.4 -0.5,-0.3 -1.1,-0.4 -2,-0.4 h -0.9 c -0.2,0 -0.3,0 -0.3,0.1 0,0.1 -0.1,0.2 -0.1,0.4 v 14.3 c 0,0.3 0,0.5 0.1,0.6 0.1,0.1 0.2,0.1 0.5,0.1 h 1.6 c 0.2,0 0.3,0 0.4,0.1 0,0.1 0.1,0.2 0.1,0.5 v 0.5 c 0,0.3 0,0.4 -0.1,0.5 -0.1,0.1 -0.2,0.1 -0.4,0.1 h -6.3 c -0.2,0 -0.3,0 -0.4,-0.1 -0.1,-0.1 -0.1,-0.2 -0.1,-0.4 z m 13.2,-10.1 c 0,-0.1 -0.1,-0.1 -0.3,-0.1 h -1.1 c -0.1,0 -0.2,0 -0.3,-0.1 v -1 c 0,-0.2 0,-0.3 0.1,-0.4 0,-0.1 0.1,-0.1 0.3,-0.1 h 3.2 c 0.1,0 0.2,0 0.3,0.1 0.1,0 0.1,0.1 0.1,0.3 v 1.7 c 0,0 0.1,-0.1 0.2,-0.3 0.3,-0.6 0.6,-1.1 1,-1.4 0.4,-0.4 1,-0.6 1.7,-0.6 0.6,0 1.1,0.2 1.6,0.7 0.5,0.4 0.7,1 0.7,1.8 0,0.4 -0.1,0.7 -0.2,1 -0.1,0.3 -0.3,0.6 -0.5,0.8 -0.2,0.2 -0.5,0.3 -0.7,0.3 -0.4,0 -0.7,-0.1 -1,-0.4 -0.3,-0.3 -0.4,-0.6 -0.4,-1 0,-0.3 0,-0.6 0.1,-0.7 0.1,-0.2 0.2,-0.3 0.2,-0.4 0.1,-0.1 0.1,-0.2 0.1,-0.3 0,-0.1 0,-0.2 -0.1,-0.3 -0.1,-0.1 -0.2,-0.1 -0.4,-0.1 -0.4,0 -0.8,0.2 -1.2,0.7 -0.4,0.5 -0.6,1.1 -0.8,1.8 -0.2,0.7 -0.3,1.5 -0.3,2.4 v 5.4 c 0,0.1 0.1,0.1 0.3,0.1 h 1.2 c 0.1,0 0.2,0 0.2,0.1 v 1.3 c 0,0.1 -0.1,0.1 -0.2,0.1 H 327 c 0,0 -0.1,-0.1 -0.1,-0.2 V 71 c 0,-0.1 0,-0.2 0.1,-0.3 0.1,-0.1 0.1,-0.1 0.2,-0.1 h 1.1 c 0.2,0 0.3,0 0.3,-0.1 0.1,-0.1 0.1,-0.2 0.1,-0.4 v -9 z m 8.6,-0.1 c -0.1,0 -0.2,0 -0.2,-0.1 v -1.1 c 0,-0.2 0.1,-0.3 0.2,-0.3 h 3.7 v 11.3 c 0,0 0.1,0.1 0.2,0.1 h 1.5 v 1.4 c 0,0 -0.1,0.1 -0.2,0.1 h -5.4 c 0,0 -0.1,-0.1 -0.1,-0.2 v -1 c 0,-0.2 0,-0.3 0.1,-0.3 0,0 0.1,-0.1 0.2,-0.1 h 1.2 c 0.1,0 0.2,0 0.2,-0.1 v -9.6 c 0,-0.2 -0.1,-0.3 -0.2,-0.3 h -1.2 z m 1.6,-7.2 c 0.3,-0.3 0.6,-0.5 1,-0.5 0.4,0 0.7,0.2 1,0.5 0.3,0.3 0.4,0.7 0.4,1.2 0,0.5 -0.1,0.9 -0.4,1.2 -0.3,0.3 -0.6,0.5 -1,0.5 -0.4,0 -0.7,-0.2 -1,-0.5 -0.3,-0.3 -0.4,-0.7 -0.4,-1.2 0,-0.5 0.1,-0.9 0.4,-1.2 z m 6.2,7.6 v -0.3 c 0,-0.1 -0.1,-0.1 -0.2,-0.1 h -1.2 c -0.1,0 -0.2,0 -0.3,-0.1 -0.1,0 -0.1,-0.1 -0.1,-0.3 v -0.7 c 0,-0.2 0,-0.3 0.1,-0.4 0,-0.1 0.1,-0.1 0.3,-0.1 h 3.2 c 0.2,0 0.3,0 0.3,0.1 0,0.1 0.1,0.2 0.1,0.3 v 8.5 c 0,0.9 0.1,1.6 0.4,2.1 0.3,0.5 0.7,0.8 1.3,0.8 0.6,0 1.1,-0.2 1.6,-0.7 0.5,-0.5 0.8,-1 1.1,-1.8 0.3,-0.7 0.4,-1.5 0.4,-2.4 V 61 c 0,-0.2 0,-0.3 -0.1,-0.4 -0.1,0 -0.2,-0.1 -0.3,-0.1 h -1.2 c 0,0 -0.1,-0.1 -0.1,-0.2 v -0.9 -0.3 c 0,-0.1 0.1,-0.1 0.2,-0.1 h 3.4 c 0.1,0 0.2,0 0.2,0.1 V 70 c 0,0.2 0,0.3 0.1,0.4 0.1,0.1 0.1,0.1 0.3,0.1 h 1.1 c 0.1,0 0.2,0 0.2,0.1 0.1,0 0.1,0.1 0.1,0.3 V 72 c 0,0.1 -0.1,0.1 -0.2,0.1 h -3.2 c -0.2,0 -0.2,0 -0.3,-0.1 C 352,71.9 352,71.8 352,71.6 v -1.4 c 0,-0.1 0,-0.2 -0.1,-0.2 0,0 -0.1,0 -0.2,0.2 -0.3,0.7 -0.7,1.2 -1.3,1.6 -0.5,0.4 -1.2,0.6 -2.1,0.6 -0.8,0 -1.5,-0.2 -2,-0.5 -0.5,-0.3 -0.8,-0.8 -1,-1.4 -0.2,-0.6 -0.3,-1.3 -0.3,-2.2 v -7.1 z m 12.2,-0.4 c -0.1,0 -0.2,0 -0.2,-0.1 v -1.2 c 0,-0.1 0,-0.2 0.1,-0.3 0,-0.1 0.1,-0.1 0.2,-0.1 h 3.3 c 0.1,0 0.2,0 0.3,0.1 0.1,0.1 0.1,0.2 0.1,0.3 V 61 c 0,0.3 0,0.5 0.1,0.5 l 0.2,-0.2 c 0.3,-0.6 0.8,-1.2 1.3,-1.6 0.5,-0.4 1.3,-0.7 2.1,-0.7 0.8,0 1.5,0.2 2,0.5 0.5,0.3 0.8,0.8 1,1.4 0.2,0.6 0.3,1.3 0.3,2.2 v 7.1 c 0,0.2 0,0.4 0.1,0.4 0,0.1 0.1,0.1 0.3,0.1 h 1.1 c 0.1,0 0.2,0 0.2,0.1 v 1.1 c 0,0.2 0,0.3 -0.1,0.3 h -5.3 c -0.1,0 -0.2,0 -0.2,-0.1 V 71 70.7 c 0,-0.1 0.1,-0.1 0.2,-0.1 h 1 c 0.2,0 0.3,0 0.3,-0.1 0.1,-0.1 0.1,-0.2 0.1,-0.4 v -6.9 c 0,-0.9 -0.1,-1.6 -0.4,-2 -0.3,-0.5 -0.7,-0.7 -1.3,-0.7 -0.6,0 -1.1,0.2 -1.6,0.6 -0.5,0.4 -0.8,1 -1.1,1.6 -0.2,0.7 -0.4,1.5 -0.4,2.3 v 5 c 0,0.2 0,0.3 0.1,0.4 0.1,0.1 0.2,0.1 0.3,0.1 h 0.9 c 0.1,0 0.2,0 0.3,0.1 0,0.1 0.1,0.2 0.1,0.4 v 0.7 c 0,0.2 0,0.3 -0.1,0.3 -0.1,0 -0.1,0.1 -0.2,0.1 h -5 c -0.1,0 -0.2,0 -0.2,-0.1 v -1 c 0,-0.2 0,-0.3 0.1,-0.3 0.1,0 0.1,-0.1 0.3,-0.1 h 1.1 c 0.1,0 0.2,0 0.3,-0.1 0.1,-0.1 0.1,-0.1 0.1,-0.3 V 61 c 0,-0.1 0,-0.2 -0.1,-0.2 z m 17,9.4 v 0.4 c 0,0.1 0.1,0.1 0.3,0.1 h 1.9 c 0.1,0 0.1,0.1 0.1,0.3 v 0.8 c 0,0.2 0,0.3 -0.1,0.3 0,0 -0.1,0.1 -0.3,0.1 h -5.7 c -0.1,0 -0.2,0 -0.2,-0.1 V 71 c 0,-0.1 0,-0.2 0.1,-0.3 0,0 0.1,-0.1 0.2,-0.1 h 1.2 c 0.1,0 0.2,0 0.2,-0.1 v -9.4 -0.3 c 0,0 -0.1,-0.1 -0.2,-0.1 h -1.5 c 0,0 -0.1,-0.1 -0.1,-0.3 v -0.9 c 0,-0.1 0,-0.2 0.1,-0.3 0,0 0.1,-0.1 0.2,-0.1 h 1.2 c 0.1,0 0.2,0 0.2,-0.1 v -1.2 c 0,-1.1 0.2,-2 0.5,-2.8 0.3,-0.8 0.8,-1.5 1.4,-1.9 0.6,-0.4 1.4,-0.7 2.3,-0.7 0.7,0 1.4,0.1 1.9,0.4 0.5,0.3 0.9,0.6 1.2,1.1 0.3,0.4 0.4,0.9 0.4,1.4 0,0.6 -0.1,1.1 -0.4,1.4 -0.3,0.3 -0.6,0.5 -1,0.5 -0.4,0 -0.7,-0.1 -1,-0.4 -0.2,-0.3 -0.4,-0.6 -0.4,-1 0,-0.3 0,-0.5 0.1,-0.6 0.1,-0.1 0.2,-0.3 0.2,-0.4 0.1,-0.1 0.1,-0.3 0.1,-0.4 0,-0.1 -0.1,-0.3 -0.3,-0.4 -0.2,-0.1 -0.5,-0.2 -1,-0.2 -0.5,0 -0.9,0.2 -1.2,0.5 -0.3,0.3 -0.5,0.9 -0.7,1.6 -0.1,0.7 -0.2,1.6 -0.2,2.7 v 0.7 c 0,0 0.1,0.1 0.2,0.1 h 2.1 c 0.1,0 0.2,0 0.3,0.1 0,0 0.1,0.1 0.1,0.3 v 1.1 c 0,0 -0.1,0.1 -0.3,0.1 h -2.1 c -0.1,0 -0.2,0 -0.2,0.1 v 9.1 z m 4.6,-3.3 c 0.4,-0.7 1,-1.2 1.8,-1.6 0.8,-0.4 1.7,-0.6 2.9,-0.6 h 1.1 V 63 c 0,-0.5 -0.1,-1 -0.2,-1.4 -0.1,-0.4 -0.3,-0.8 -0.6,-1 -0.3,-0.2 -0.7,-0.4 -1.2,-0.4 -0.3,0 -0.6,0 -0.9,0.1 -0.3,0.1 -0.5,0.2 -0.7,0.3 -0.2,0.1 -0.3,0.3 -0.3,0.4 0,0.1 0,0.2 0.1,0.3 l 0.3,0.3 c 0.1,0.1 0.1,0.4 0.1,0.7 0,0.5 -0.1,0.8 -0.3,1.1 -0.2,0.3 -0.4,0.6 -0.8,0.6 -0.3,0 -0.7,-0.1 -0.9,-0.3 -0.3,-0.2 -0.4,-0.6 -0.4,-1.2 0,-0.6 0.1,-1.1 0.4,-1.5 0.3,-0.4 0.6,-0.8 1,-1.1 0.4,-0.3 0.9,-0.5 1.4,-0.7 0.5,-0.1 1.1,-0.2 1.6,-0.2 0.9,0 1.6,0.2 2.2,0.5 0.5,0.4 0.9,0.9 1.1,1.5 0.2,0.6 0.3,1.3 0.3,2 v 7.2 c 0,0.2 0.1,0.4 0.2,0.5 0.1,0.1 0.2,0.2 0.4,0.2 0.2,0 0.3,0 0.4,-0.1 0.2,-0.1 0.3,-0.3 0.5,-0.7 0.1,-0.1 0.1,-0.2 0.2,-0.1 l 0.5,0.4 c 0.1,0.1 0.1,0.2 0.1,0.3 -0.2,0.4 -0.3,0.7 -0.6,0.9 -0.3,0.2 -0.5,0.5 -0.8,0.6 -0.3,0.1 -0.6,0.2 -0.9,0.2 -0.5,0 -0.9,-0.1 -1.1,-0.3 -0.3,-0.2 -0.4,-0.4 -0.5,-0.7 -0.1,-0.3 -0.2,-0.5 -0.2,-0.7 0,-0.2 -0.1,-0.2 -0.1,-0.2 l -0.2,0.2 c -0.1,0.2 -0.3,0.4 -0.5,0.7 -0.2,0.3 -0.6,0.5 -1,0.7 -0.4,0.2 -1,0.3 -1.6,0.3 -0.9,0 -1.7,-0.3 -2.3,-0.9 -0.6,-0.6 -0.9,-1.4 -0.9,-2.5 -0.2,-0.7 0,-1.4 0.4,-2.1 z m 2.4,3.5 c 0.4,0.3 0.8,0.5 1.3,0.5 0.6,0 1.2,-0.3 1.6,-0.9 0.4,-0.6 0.6,-1.4 0.6,-2.5 v -1.3 c 0,-0.2 -0.1,-0.2 -0.2,-0.2 h -0.9 c -0.7,0 -1.3,0.1 -1.7,0.4 -0.4,0.2 -0.7,0.6 -0.9,1 -0.2,0.4 -0.3,1 -0.3,1.5 -0.1,0.6 0.1,1.1 0.5,1.5 z m 10,-9.5 c 0,-0.1 -0.1,-0.1 -0.3,-0.1 h -1.1 c -0.1,0 -0.2,0 -0.3,-0.1 -0.1,-0.1 0,-0.2 0,-0.4 v -0.6 c 0,-0.2 0,-0.3 0.1,-0.4 0,-0.1 0.1,-0.1 0.3,-0.1 h 3.2 c 0.1,0 0.2,0 0.3,0.1 0.1,0 0.1,0.1 0.1,0.3 v 1.7 c 0,0 0.1,-0.1 0.2,-0.3 0.3,-0.6 0.6,-1.1 1,-1.4 0.4,-0.4 1,-0.6 1.7,-0.6 0.6,0 1.1,0.2 1.6,0.7 0.5,0.4 0.7,1 0.7,1.8 0,0.4 -0.1,0.7 -0.2,1 -0.1,0.3 -0.3,0.6 -0.5,0.8 -0.2,0.2 -0.5,0.3 -0.7,0.3 -0.4,0 -0.7,-0.1 -1,-0.4 -0.3,-0.3 -0.4,-0.6 -0.4,-1 0,-0.3 0,-0.6 0.1,-0.7 0.1,-0.2 0.2,-0.3 0.2,-0.4 0.1,-0.1 0.1,-0.2 0.1,-0.3 0,-0.1 0,-0.2 -0.1,-0.3 -0.1,-0.1 -0.2,-0.1 -0.4,-0.1 -0.4,0 -0.8,0.2 -1.2,0.7 -0.4,0.5 -0.6,1.1 -0.8,1.8 -0.2,0.7 -0.3,1.5 -0.3,2.4 v 5.4 c 0,0.1 0.1,0.1 0.3,0.1 h 1.2 c 0.1,0 0.2,0 0.2,0.1 v 1.3 c 0,0.1 -0.1,0.1 -0.2,0.1 h -5.3 c 0,0 -0.1,-0.1 -0.1,-0.2 V 71 c 0,-0.1 0,-0.2 0.1,-0.3 0,0 0.1,-0.1 0.2,-0.1 h 1.1 c 0.2,0 0.3,0 0.3,-0.1 0.1,-0.1 0.1,-0.2 0.1,-0.4 v -9 c -0.1,-0.1 -0.1,-0.2 -0.2,-0.2 z"
         id="path2" />
    </g>
    <g
       id="g3">
      <path
         d="m 59.7,52.5 c 0.5,-1.6 1.2,-2.9 2.1,-4 0.9,-1.1 1.9,-2 3.1,-2.6 1.2,-0.6 2.4,-0.9 3.7,-0.9 1.2,0 2.3,0.3 3.3,0.9 1,0.6 1.8,1.3 2.4,2.2 0.1,0.2 0.2,0.3 0.3,0.2 0.1,0 0.1,-0.2 0.2,-0.5 l 0.5,-2.4 c 0,-0.1 0,-0.2 0.1,-0.2 0,0 0.1,-0.1 0.2,-0.1 h 0.7 c 0.1,0 0.2,0 0.2,0.1 v 8.1 c 0,0.2 0,0.3 -0.1,0.3 -0.1,0.1 -0.2,0.1 -0.3,0.1 h -0.8 c -0.2,0 -0.2,0 -0.3,-0.1 0,-0.1 0,-0.2 -0.1,-0.4 -0.1,-1.1 -0.5,-2.1 -1.1,-3.1 -0.6,-1 -1.3,-1.8 -2.2,-2.4 -0.9,-0.6 -1.9,-0.9 -3.1,-0.9 -1.5,0 -2.7,0.5 -3.8,1.4 -1,1 -1.8,2.3 -2.3,3.9 -0.5,1.6 -0.8,3.5 -0.8,5.5 0,2 0.2,3.8 0.7,5.4 0.5,1.6 1.2,2.9 2.2,3.9 1,1 2.2,1.4 3.7,1.4 1.4,0 2.6,-0.4 3.5,-1.1 1,-0.8 1.8,-1.7 2.3,-2.9 0.6,-1.2 0.9,-2.5 1,-3.8 0,-0.1 0,-0.2 0.1,-0.2 0,0 0.1,-0.1 0.2,-0.1 h 1.1 c 0,0 0.1,0.1 0.1,0.2 -0.1,1.9 -0.5,3.5 -1.2,5 -0.4,1.6 -1.3,2.7 -2.6,3.6 -1.2,0.9 -2.7,1.3 -4.4,1.3 -1.4,0 -2.6,-0.3 -3.8,-0.9 -1.1,-0.6 -2.1,-1.5 -3,-2.6 -0.9,-1.1 -1.5,-2.5 -1.9,-4 -0.5,-1.6 -0.7,-3.2 -0.7,-5.1 0,-2 0.3,-3.7 0.8,-5.2 z m 44.6,16.2 c 0,-0.3 0,-0.4 0.1,-0.5 0.1,-0.1 0.2,-0.1 0.4,-0.1 h 2.1 c 0.3,0 0.5,0 0.6,-0.1 0.1,-0.1 0.1,-0.4 0.1,-0.8 V 47.6 c 0,-0.3 0,-0.5 -0.1,-0.6 -0.1,-0.1 -0.2,-0.1 -0.5,-0.1 h -1.2 c -1.1,0 -2,0.2 -2.6,0.6 -0.6,0.4 -1.1,1 -1.3,1.9 -0.3,0.9 -0.4,2.1 -0.4,3.7 0,0.3 0,0.4 -0.1,0.5 0,0.1 -0.2,0.1 -0.4,0.1 h -0.4 c -0.2,0 -0.3,-0.1 -0.4,-0.2 0,-0.2 -0.1,-0.4 -0.1,-0.6 v -6.7 c 0,-0.4 0,-0.6 0.1,-0.7 0.1,-0.1 0.2,-0.1 0.5,-0.1 H 117 c 0.2,0 0.4,0 0.5,0.1 0.1,0.1 0.1,0.3 0.1,0.6 v 7.1 c 0,0.2 0,0.4 -0.1,0.4 -0.1,0 -0.2,0.1 -0.4,0.1 h -0.3 c -0.2,0 -0.4,-0.1 -0.4,-0.2 0,-0.1 -0.1,-0.3 -0.1,-0.6 0,-1.5 -0.2,-2.7 -0.4,-3.6 -0.3,-0.9 -0.7,-1.5 -1.3,-1.8 C 114,47.1 113.1,47 112,47 h -1.3 c -0.2,0 -0.4,0 -0.4,0.1 -0.1,0.1 -0.1,0.3 -0.1,0.6 v 19.6 c 0,0.4 0,0.7 0.1,0.8 0.1,0.1 0.3,0.2 0.6,0.2 h 2.1 c 0.3,0 0.4,0 0.5,0.1 0.1,0.1 0.1,0.3 0.1,0.7 v 0.3 c 0,0.3 -0.1,0.5 -0.2,0.6 -0.1,0.1 -0.3,0.1 -0.5,0.1 h -7.8 c -0.2,0 -0.4,0 -0.5,-0.1 -0.1,-0.1 -0.1,-0.3 -0.1,-0.6 v -0.7 z m -24.5,8.6 c 0.2,-0.4 0.5,-0.8 0.9,-1 0.4,-0.2 0.8,-0.4 1.2,-0.4 0.5,0 1,0.2 1.4,0.5 0.4,0.3 0.5,0.8 0.5,1.4 0,0.3 -0.1,0.6 -0.2,0.8 -0.1,0.2 -0.2,0.3 -0.4,0.4 -0.2,0.1 -0.3,0.2 -0.5,0.3 -0.2,0.1 -0.3,0.2 -0.4,0.3 -0.1,0.1 -0.2,0.2 -0.2,0.4 0,0.4 0.2,0.7 0.5,0.9 0.3,0.3 0.7,0.4 1.3,0.4 0.4,0 0.9,-0.1 1.4,-0.4 0.5,-0.3 1,-0.7 1.6,-1.4 0.5,-0.7 1.1,-1.7 1.6,-2.9 l 0.4,-0.9 c 0.1,-0.3 0.2,-0.6 0.2,-0.8 0,-0.2 -0.1,-0.4 -0.2,-0.8 l -6.4,-14 c -0.1,-0.2 -0.2,-0.4 -0.3,-0.5 -0.1,-0.1 -0.3,-0.1 -0.6,-0.1 h -1.4 c -0.2,0 -0.4,0 -0.5,-0.1 -0.1,-0.1 -0.1,-0.2 -0.1,-0.5 v -1.1 c 0,-0.2 0,-0.2 0.1,-0.3 0.1,0 0.2,-0.1 0.3,-0.1 h 8.3 c 0.3,0 0.4,0 0.5,0.1 0.1,0.1 0.1,0.3 0.1,0.6 v 0.6 c 0,0.3 0,0.5 -0.1,0.6 -0.1,0.1 -0.3,0.1 -0.6,0.1 h -1.5 c -0.3,0 -0.5,0 -0.6,0.1 -0.1,0 -0.1,0.2 0,0.4 l 4.1,9.2 0.4,0.8 c 0.1,0.2 0.2,0.3 0.2,0.3 0.1,0 0.2,-0.1 0.3,-0.3 0.1,-0.2 0.2,-0.5 0.3,-0.9 L 95,60 c 0.1,-0.2 0.1,-0.4 0,-0.5 -0.1,-0.1 -0.3,-0.1 -0.6,-0.1 h -1.1 c -0.2,0 -0.4,0 -0.5,-0.1 -0.1,-0.1 -0.1,-0.2 -0.1,-0.5 V 58 c 0,-0.3 0,-0.5 0.1,-0.6 0.1,-0.1 0.3,-0.1 0.5,-0.1 h 6.1 c 0.2,0 0.3,0 0.4,0.1 0.1,0 0.1,0.2 0.1,0.3 v 1 c 0,0.2 0,0.4 -0.1,0.5 -0.1,0.1 -0.2,0.2 -0.5,0.2 H 98 c -0.4,0 -0.6,0.1 -0.7,0.2 -0.1,0.1 -0.2,0.3 -0.3,0.6 l -7.1,17.6 c -0.6,1.4 -1.2,2.5 -1.9,3.3 -0.7,0.8 -1.5,1.3 -2.2,1.6 -0.8,0.3 -1.5,0.4 -2.2,0.4 -0.9,0 -1.7,-0.2 -2.3,-0.6 -0.6,-0.4 -1.1,-0.9 -1.5,-1.6 -0.3,-0.7 -0.5,-1.4 -0.5,-2.2 0.1,-0.4 0.2,-0.9 0.5,-1.4 z"
         id="path3" />
    </g>
  </g>
</svg>
