<?xml version="1.0" encoding="UTF-8"?>
<svg width="150.86mm" height="auto" version="1.1" viewBox="0 0 150.86 46.264" xml:space="preserve" xmlns="http://www.w3.org/2000/svg"><g transform="translate(-481.35 -64.823)"><g transform="translate(-.51536 61.298)"><g transform="translate(162.02 -90.501)" stroke-width=".26458"><g><path d="m366.28 94.092 5.8043 6.8626-0.81028-3.3404z"/><path d="m366.28 94.092 5.8043 6.8626-3.1596-1.3534z"/><g transform="rotate(38.863 368.39 106.24)"><path d="m366.28 94.092 5.8043 6.8626-0.81028-3.3404z"/><path d="m366.28 94.092 5.8043 6.8626-3.1596-1.3534z"/></g><g transform="rotate(-6.1516 428.49 88.208)"><path d="m366.28 94.092 5.8043 6.8626-0.81028-3.3404z"/><path d="m366.28 94.092 5.8043 6.8626-3.1596-1.3534z"/></g><g transform="rotate(10.217 297.57 125.23)"><path d="m366.28 94.092 5.8043 6.8626-0.81028-3.3404z"/><path d="m366.28 94.092 5.8043 6.8626-3.1596-1.3534z"/></g><g transform="rotate(51.703 363.75 110.38)"><path d="m366.28 94.092 5.8043 6.8626-0.81028-3.3404z"/><path d="m366.28 94.092 5.8043 6.8626-3.1596-1.3534z"/></g><g transform="rotate(21.139 319.52 115.39)"><path d="m366.28 94.092 5.8043 6.8626-0.81028-3.3404z"/><path d="m366.28 94.092 5.8043 6.8626-3.1596-1.3534z"/></g><g transform="rotate(70.996 362.62 112.06)"><path d="m366.28 94.092 5.8043 6.8626-0.81028-3.3404z"/><path d="m366.28 94.092 5.8043 6.8626-3.1596-1.3534z"/></g><g transform="rotate(92.592 363.26 112.71)"><path d="m366.28 94.092 5.8043 6.8626-0.81028-3.3404z"/><path d="m366.28 94.092 5.8043 6.8626-3.1596-1.3534z"/></g><g transform="rotate(27.771 318.36 112.98)"><path d="m366.28 94.092 5.8043 6.8626-0.81028-3.3404z"/><path d="m366.28 94.092 5.8043 6.8626-3.1596-1.3534z"/></g><g transform="rotate(100.73 361.78 114.19)"><path d="m366.28 94.092 5.8043 6.8626-0.81028-3.3404z"/><path d="m366.28 94.092 5.8043 6.8626-3.1596-1.3534z"/></g><g transform="rotate(38.073 325.77 109.23)"><path d="m366.28 94.092 5.8043 6.8626-0.81028-3.3404z"/><path d="m366.28 94.092 5.8043 6.8626-3.1596-1.3534z"/></g><g transform="rotate(111.6 360.39 114.85)"><path d="m366.28 94.092 5.8043 6.8626-0.81028-3.3404z"/><path d="m366.28 94.092 5.8043 6.8626-3.1596-1.3534z"/></g><g transform="rotate(59.68 337.57 108.37)"><path d="m366.28 94.092 5.8043 6.8626-0.81028-3.3404z"/><path d="m366.28 94.092 5.8043 6.8626-3.1596-1.3534z"/></g><g transform="rotate(91.033 345.59 109.32)"><path d="m366.28 94.092 5.8043 6.8626-0.81028-3.3404z"/><path d="m366.28 94.092 5.8043 6.8626-3.1596-1.3534z"/></g><g transform="rotate(141.93 356.02 116.23)"><path d="m366.28 94.092 5.8043 6.8626-0.81028-3.3404z"/><path d="m366.28 94.092 5.8043 6.8626-3.1596-1.3534z"/></g><g transform="rotate(137.28 358.46 116.06)"><path d="m366.28 94.092 5.8043 6.8626-0.81028-3.3404z"/><path d="m366.28 94.092 5.8043 6.8626-3.1596-1.3534z"/></g><g transform="rotate(122.37 358.95 115.38)"><path d="m366.28 94.092 5.8043 6.8626-0.81028-3.3404z"/><path d="m366.28 94.092 5.8043 6.8626-3.1596-1.3534z"/></g></g><g transform="matrix(-1 0 0 1 701.57 -.066146)"><path d="m366.28 94.092 5.8043 6.8626-0.81028-3.3404z"/><path d="m366.28 94.092 5.8043 6.8626-3.1596-1.3534z"/><g transform="rotate(38.863 368.39 106.24)"><path d="m366.28 94.092 5.8043 6.8626-0.81028-3.3404z"/><path d="m366.28 94.092 5.8043 6.8626-3.1596-1.3534z"/></g><g transform="rotate(-6.1516 428.49 88.208)"><path d="m366.28 94.092 5.8043 6.8626-0.81028-3.3404z"/><path d="m366.28 94.092 5.8043 6.8626-3.1596-1.3534z"/></g><g transform="rotate(10.217 297.57 125.23)"><path d="m366.28 94.092 5.8043 6.8626-0.81028-3.3404z"/><path d="m366.28 94.092 5.8043 6.8626-3.1596-1.3534z"/></g><g transform="rotate(51.703 363.75 110.38)"><path d="m366.28 94.092 5.8043 6.8626-0.81028-3.3404z"/><path d="m366.28 94.092 5.8043 6.8626-3.1596-1.3534z"/></g><g transform="rotate(21.139 319.52 115.39)"><path d="m366.28 94.092 5.8043 6.8626-0.81028-3.3404z"/><path d="m366.28 94.092 5.8043 6.8626-3.1596-1.3534z"/></g><g transform="rotate(70.996 362.62 112.06)"><path d="m366.28 94.092 5.8043 6.8626-0.81028-3.3404z"/><path d="m366.28 94.092 5.8043 6.8626-3.1596-1.3534z"/></g><g transform="rotate(92.592 363.26 112.71)"><path d="m366.28 94.092 5.8043 6.8626-0.81028-3.3404z"/><path d="m366.28 94.092 5.8043 6.8626-3.1596-1.3534z"/></g><g transform="rotate(27.771 318.36 112.98)"><path d="m366.28 94.092 5.8043 6.8626-0.81028-3.3404z"/><path d="m366.28 94.092 5.8043 6.8626-3.1596-1.3534z"/></g><g transform="rotate(100.73 361.78 114.19)"><path d="m366.28 94.092 5.8043 6.8626-0.81028-3.3404z"/><path d="m366.28 94.092 5.8043 6.8626-3.1596-1.3534z"/></g><g transform="rotate(38.073 325.77 109.23)"><path d="m366.28 94.092 5.8043 6.8626-0.81028-3.3404z"/><path d="m366.28 94.092 5.8043 6.8626-3.1596-1.3534z"/></g><g transform="rotate(111.6 360.39 114.85)"><path d="m366.28 94.092 5.8043 6.8626-0.81028-3.3404z"/><path d="m366.28 94.092 5.8043 6.8626-3.1596-1.3534z"/></g><g transform="rotate(59.68 337.57 108.37)"><path d="m366.28 94.092 5.8043 6.8626-0.81028-3.3404z"/><path d="m366.28 94.092 5.8043 6.8626-3.1596-1.3534z"/></g><g transform="rotate(91.033 345.59 109.32)"><path d="m366.28 94.092 5.8043 6.8626-0.81028-3.3404z"/><path d="m366.28 94.092 5.8043 6.8626-3.1596-1.3534z"/></g><g transform="rotate(141.93 356.02 116.23)"><path d="m366.28 94.092 5.8043 6.8626-0.81028-3.3404z"/><path d="m366.28 94.092 5.8043 6.8626-3.1596-1.3534z"/></g><g transform="rotate(137.28 358.46 116.06)"><path d="m366.28 94.092 5.8043 6.8626-0.81028-3.3404z"/><path d="m366.28 94.092 5.8043 6.8626-3.1596-1.3534z"/></g><g transform="rotate(122.37 358.95 115.38)"><path d="m366.28 94.092 5.8043 6.8626-0.81028-3.3404z"/><path d="m366.28 94.092 5.8043 6.8626-3.1596-1.3534z"/></g></g><rect transform="rotate(45)" x="343.33" y="-152.94" width="3.1915" height="3.1915"/></g><path transform="scale(.88192 1.1339)" d="m566.69 20.314q0 1.0101 0.32275 1.8588 0.32872 0.8487 0.92639 1.4643 0.60365 0.61561 1.4165 0.95628 0.81882 0.34068 1.799 0.34068 1.2193 0 2.0919-0.46021 0.87858-0.46619 1.3746-1.2671 0.50205-0.80686 0.57974-1.8229 0.012-0.0777-0.0239-0.09563t-0.12552-0.01793h-0.52595q-0.0837 0-0.11356 0.02988-0.0299 0.02988-0.0478 0.10758-0.0837 0.6933-0.46619 1.3089-0.38251 0.6156-1.0459 1.0041-0.65744 0.38251-1.5599 0.38251-0.99214 0-1.6556-0.49607-0.65744-0.49607-0.99214-1.3507-0.3347-0.86065-0.3347-1.9424 0-1.0818 0.35861-1.9424 0.3586-0.86065 1.04-1.3627 0.68733-0.50205 1.6675-0.50205 0.79491 0 1.3926 0.32274 0.60365 0.31677 0.97421 0.83077 0.37055 0.50802 0.47814 1.0818 0.0179 0.1016 0.0299 0.14344 0.0179 0.04184 0.14344 0.04184h0.49607q0.10758 0 0.14344-0.02988 0.0418-0.02988 0.0418-0.13747v-2.8449q0-0.08965-0.0239-0.11356-0.0239-0.02988-0.11953-0.02988h-0.39447q-0.0956 0-0.11953 0.02391-0.0179 0.01793-0.0418 0.08965l-0.23907 0.771q-0.0657 0.16735-0.11953 0.1793-0.0478 0.01195-0.1554-0.08965-0.44228-0.45423-1.0878-0.75307-0.63951-0.29884-1.4703-0.29884-0.93835 0-1.7691 0.34665-0.83076 0.34068-1.4703 0.96226-0.63951 0.62158-1.0101 1.4703-0.36458 0.84272-0.36458 1.8408zm17.056-1.016q-0.11954 0-0.14942 0.04781-0.0299 0.04184-0.0299 0.16735v0.28688q0 0.16137 0.0359 0.20919 0.0418 0.04781 0.19724 0.04781h0.63353q0.13149 0 0.17333 0.02988 0.0418 0.02391 0.0179 0.14344-0.19126 1.0758-0.89054 2.0321-0.13746 0.18528-0.18528 0.17333-0.0418-0.01195-0.16137-0.20321l-1.5599-2.4325q-0.0897-0.13746-0.10161-0.19126-6e-3 -0.05379 0.14942-0.11954 0.54986-0.23907 1.0101-0.52595 0.46619-0.29286 0.7471-0.70526 0.28688-0.41837 0.28688-1.034 0-0.49009-0.30481-0.83077-0.29884-0.34067-0.82479-0.51998-0.51998-0.1793-1.1954-0.1793-0.72319 0-1.297 0.22114-0.56779 0.21516-0.89651 0.61561-0.32275 0.40044-0.32275 0.95628 0 0.31079 0.16138 0.70526 0.16735 0.39447 0.38849 0.74709l0.21516 0.34068q0.0897 0.13746 0.11953 0.19126 0.0359 0.04781-0.13746 0.11954-0.49607 0.18528-0.96824 0.41837-0.46618 0.22712-0.84272 0.54388-0.37056 0.31079-0.5917 0.76502t-0.22114 1.0878q0 0.85468 0.4124 1.4165 0.4124 0.55584 1.0997 0.83674 0.68733 0.27493 1.5181 0.27493 0.69928 0 1.3268-0.18528 0.63353-0.19126 1.1774-0.52595 0.14344-0.08965 0.18527-0.09563 0.0478-0.01195 0.13747 0.12551l0.22114 0.34665q0.0837 0.12551 0.14942 0.16137 0.0657 0.03586 0.27493 0.03586h2.4505q0.13148 0 0.15539-0.04184 0.0299-0.04781 0.0299-0.1793v-0.31677q0-0.13149-0.0299-0.17332-0.0299-0.04781-0.15539-0.04781h-1.3747q-0.15539 0-0.20321-0.02391-0.0478-0.02391-0.10758-0.11356l-0.37056-0.58572q-0.1016-0.1554-0.0598-0.18528 0.0418-0.02988 0.14344-0.1554 0.48412-0.60365 0.77698-1.3089 0.29883-0.71123 0.43032-1.4643 0.0179-0.09563 0.0418-0.11954 0.0239-0.02391 0.14344-0.02391h0.75905q0.10758 0 0.13149-0.01793 0.0239-0.02391 0.0239-0.13149v-0.4363q0-0.10758-0.0418-0.13747-0.0418-0.03586-0.14345-0.03586zm-3.586 0.94433q0.16137-0.08965 0.20918-0.08367 0.0538 0 0.1554 0.14942l1.8767 2.9286q0.0897 0.13746 0.0956 0.18528 0.0119 0.04781-0.13149 0.12551-0.38252 0.23309-0.80686 0.37056-0.42435 0.13149-0.87859 0.13149-0.53193 0-0.98018-0.20321-0.44228-0.20919-0.71124-0.62756-0.26895-0.41837-0.26895-1.0519 0-0.73514 0.41239-1.1714 0.41838-0.44228 1.028-0.75307zm2.4505-3.0541q0 0.63951-0.33469 1.034-0.32873 0.39446-0.84273 0.67537-0.0897 0.04781-0.12551 0.05977-0.0299 6e-3 -0.0897-0.0777-0.3347-0.53791-0.55584-0.96226-0.21516-0.43033-0.21516-0.74709 0-0.45423 0.32872-0.68135 0.32872-0.23309 0.80089-0.23309 0.31676 0 0.54986 0.12551 0.23309 0.11954 0.3586 0.3347 0.12551 0.20919 0.12551 0.47216zm7.3156 7.3574q0 0.16735 0.0538 0.20919 0.0538 0.04184 0.22712 0.04184h3.7833q0.16735 0 0.257-0.03586 0.0897-0.04184 0.0897-0.22712v-0.23309q0-0.18528-0.0418-0.23907-0.0359-0.05379-0.22114-0.05379h-0.94433q-0.22712 0-0.28091-0.05977-0.0478-0.06574-0.0478-0.30481v-6.8254q0-0.1554 0.0359-0.20321 0.0359-0.05379 0.19126-0.05379h0.53193q0.75307 0 1.1714 0.19723 0.41837 0.19126 0.5917 0.65744 0.1793 0.46021 0.19723 1.279 6e-3 0.1554 0.0359 0.22114 0.0359 0.06574 0.21516 0.06574h0.22114q0.1554 0 0.20321-0.02988 0.0478-0.03586 0.0478-0.1793v-2.6597q0-0.17333-0.0418-0.22712t-0.20919-0.05379h-7.6861q-0.20321 0-0.24504 0.05977-0.0418 0.05379-0.0418 0.26298v2.5282q0 0.13746 0.0299 0.22114 0.0359 0.0777 0.19126 0.0777h0.24505q0.16735 0 0.20321-0.05379 0.0418-0.05977 0.0478-0.20321 0.0179-0.83077 0.19126-1.297 0.17332-0.47216 0.59169-0.6694 0.42435-0.19723 1.1834-0.19723h0.50205q0.16137 0 0.20918 0.05379 0.0478 0.04781 0.0478 0.20919v6.8434q0 0.22712-0.0538 0.28688-0.0538 0.05379-0.27493 0.05379h-0.95628q-0.13747 0-0.19724 0.03586-0.0538 0.03586-0.0538 0.18528z" stroke-width=".39845" aria-label="C&T"/><path transform="matrix(.89274 0 0 1.1201 .51536 -61.298)" d="m621.06 74.313q0 0.7513 0.24006 1.3826 0.24451 0.63127 0.68906 1.0892 0.449 0.45789 1.0536 0.71129 0.60904 0.2534 1.3381 0.2534 0.9069 0 1.556-0.34231 0.6535-0.34675 1.0225-0.94246 0.37343-0.60015 0.43122-1.3559 9e-3 -0.05779-0.0178-0.07113-0.0267-0.01334-0.0934-0.01334h-0.39121q-0.0622 0-0.0845 0.02223-0.0222 0.02223-0.0356 0.08002-0.0622 0.51568-0.34675 0.97358-0.28452 0.45789-0.77798 0.74685-0.48901 0.28452-1.1603 0.28452-0.73796 0-1.2314-0.36898-0.48901-0.36898-0.73796-1.0047-0.24895-0.64016-0.24895-1.4448t0.26673-1.4448q0.26674-0.64016 0.77353-1.0136 0.51124-0.37343 1.2403-0.37343 0.59126 0 1.0358 0.24006 0.449 0.23561 0.72462 0.61793 0.27563 0.37787 0.35565 0.80465 0.0133 0.07557 0.0222 0.10669 0.0133 0.03112 0.1067 0.03112h0.36898q0.08 0 0.10669-0.02223 0.0311-0.02223 0.0311-0.10225v-2.1161q0-0.06668-0.0178-0.08447-0.0178-0.02223-0.0889-0.02223h-0.29341q-0.0711 0-0.0889 0.01778-0.0133 0.01334-0.0311 0.06668l-0.17782 0.57348q-0.0489 0.12448-0.0889 0.13337-0.0356 0.0089-0.11559-0.06668-0.32897-0.33786-0.80909-0.56014-0.47567-0.22228-1.0936-0.22228-0.69795 0-1.3159 0.25784-0.61794 0.2534-1.0936 0.71574-0.47568 0.46234-0.7513 1.0936-0.27118 0.62682-0.27118 1.3692zm8.2465 0.93357q0-0.33786 0.0489-0.66683 0.0489-0.32897 0.16893-0.5957 0.12003-0.27118 0.33786-0.43122 0.22228-0.16004 0.56014-0.16004 0.45345 0 0.69351 0.28452 0.24451 0.28452 0.33342 0.74685 0.0889 0.46234 0.0889 1.0003 0 0.33786-0.0489 0.66683-0.0445 0.32897-0.16893 0.60015-0.12003 0.26673-0.33787 0.42677-0.21783 0.16004-0.56014 0.16004-0.45344 0-0.69795-0.28452-0.24006-0.28452-0.32897-0.74685-0.0889-0.46234-0.0889-1.0003zm-1.0847 0.18227q0 0.62238 0.24451 1.1514 0.2445 0.52902 0.73351 0.8491 0.48902 0.32008 1.2225 0.32008 0.73352 0 1.2225-0.32897 0.48901-0.33342 0.73352-0.898 0.2445-0.56459 0.2445-1.2759 0-0.62238-0.2445-1.1514-0.24451-0.52902-0.73352-0.8491-0.48901-0.32453-1.2225-0.32453-0.73351 0-1.2225 0.33342-0.48901 0.32897-0.73351 0.898-0.24451 0.56459-0.24451 1.2759zm5.6636-1.8538q0.0667 0 0.0934 0.01778 0.0267 0.01334 0.0267 0.07558v3.2942q0 0.09336-0.0311 0.11558-0.0311 0.01778-0.12892 0.01778h-0.47567q-0.0889 0-0.12893 0.02667-0.0356 0.02667-0.0356 0.12003v0.25784q0 0.08447 0.0222 0.11558 0.0222 0.03112 0.10669 0.03112h2.2361q0.08 0 0.10669-0.02667 0.0311-0.02667 0.0311-0.11114v-0.26229q0-0.0978-0.0356-0.12448-0.0311-0.02667-0.12448-0.02667h-0.40899q-0.10225 0-0.14226-0.04001-0.04-0.04001-0.04-0.14226v-1.7827q0-0.45789 0.16449-0.82687 0.16893-0.36898 0.47123-0.58237 0.30229-0.21783 0.70239-0.21783 0.40455 0 0.59126 0.24895 0.18672 0.24451 0.18672 0.71574v2.4539q0 0.11558-0.0356 0.1467-0.0311 0.02667-0.14226 0.02667h-0.45344q-0.0756 0-0.0978 0.03112-0.0178 0.03112-0.0178 0.10669v0.26673q0 0.08002 0.0133 0.11558 0.0178 0.03112 0.0934 0.03112h2.2361q0.0889 0 0.12003-0.01334 0.0356-0.01778 0.0356-0.10225v-0.29785q0-0.08002-0.0222-0.10669-0.0222-0.03112-0.0978-0.03112h-0.51124q-0.12003 0-0.14671-0.04001-0.0222-0.04001-0.0222-0.16004v-2.5295q0-0.47568-0.13337-0.79576-0.13337-0.32008-0.45345-0.48457-0.32008-0.16448-0.87577-0.16448-0.57793 0-0.94691 0.24006-0.36453 0.23562-0.58237 0.58237-0.0489 0.07557-0.0756 0.08002-0.0222 0.0044-0.0222-0.16448v-0.47123q0-0.07113-0.04-0.11558-0.0356-0.0489-0.11558-0.0489h-1.4582q-0.0622 0-0.0889 0.02667t-0.0267 0.09336v0.3023q0 0.07113 0.0222 0.10225 0.0222 0.02667 0.0934 0.02667zm6.4194 1.6715q0-0.33786 0.0489-0.66683 0.0489-0.32897 0.16893-0.5957 0.12003-0.27118 0.33786-0.43122 0.22228-0.16004 0.56014-0.16004 0.45345 0 0.69351 0.28452 0.2445 0.28452 0.33342 0.74685 0.0889 0.46234 0.0889 1.0003 0 0.33786-0.0489 0.66683-0.0445 0.32897-0.16894 0.60015-0.12003 0.26673-0.33786 0.42677-0.21783 0.16004-0.56014 0.16004-0.45345 0-0.69795-0.28452-0.24006-0.28452-0.32897-0.74685-0.0889-0.46234-0.0889-1.0003zm-1.0847 0.18227q0 0.62238 0.2445 1.1514 0.24451 0.52902 0.73352 0.8491 0.48901 0.32008 1.2225 0.32008t1.2225-0.32897q0.48901-0.33342 0.73352-0.898 0.2445-0.56459 0.2445-1.2759 0-0.62238-0.2445-1.1514-0.24451-0.52902-0.73352-0.8491-0.48901-0.32453-1.2225-0.32453t-1.2225 0.33342q-0.48901 0.32897-0.73352 0.898-0.2445 0.56459-0.2445 1.2759zm5.148-0.08002q0 0.65794 0.24006 1.2047 0.24451 0.5468 0.74241 0.87133t1.2803 0.32453q0.52902 0 0.91579-0.19116 0.38676-0.1956 0.64016-0.54236 0.25784-0.3512 0.4001-0.81798 0.0178-0.05335 0-0.07113-0.0133-0.01778-0.0934-0.01778h-0.35564q-0.0711 0-0.0978 0.02223-0.0222 0.01778-0.04 0.06668-0.17337 0.47568-0.50234 0.76464-0.32453 0.28452-0.82688 0.28452-0.45789 0-0.72907-0.27562t-0.39121-0.71574q-0.11558-0.44011-0.11558-0.93357 0-0.50679 0.14225-0.9469 0.14671-0.44011 0.44011-0.70684 0.29786-0.27118 0.75575-0.27118 0.33342 0 0.56014 0.10669 0.23117 0.10225 0.23117 0.27118 0 0.0978-0.0756 0.16893-0.0711 0.06668-0.1467 0.16004-0.0711 0.08891-0.0711 0.25784 0 0.26229 0.17782 0.41344 0.17783 0.15115 0.4001 0.15115 0.23562 0 0.44012-0.15115 0.20449-0.15559 0.20449-0.50235 0-0.36898-0.21783-0.67572t-0.62683-0.48901q-0.40899-0.18671-0.97802-0.18671-0.56014 0-0.99136 0.19116-0.42677 0.18671-0.72018 0.52458-0.28896 0.33342-0.44011 0.77353-0.15115 0.43566-0.15115 0.93801zm4.9301 0.07557q0 0.62238 0.24451 1.1514 0.24895 0.52902 0.72907 0.85355 0.48012 0.32008 1.1825 0.32008 0.56459 0 0.96913-0.19116 0.40899-0.19116 0.66684-0.53791 0.26228-0.34675 0.3912-0.81354 0.0133-0.05335-9e-3 -0.07558-0.0178-0.02223-0.0845-0.02223h-0.35565q-0.0667 0-0.0889 0.03112-0.0178 0.02667-0.0356 0.07558-0.17782 0.47123-0.5068 0.7513-0.32897 0.28007-0.83132 0.28007-0.43566 0-0.70684-0.24006-0.26673-0.2445-0.39121-0.64461-0.12003-0.4001-0.12447-0.86244 0-0.07558 0.0311-0.10225 0.0356-0.02667 0.11114-0.02667h2.8585q0.0978 0 0.12892-0.02223 0.0311-0.02223 0.0311-0.11114 0-0.31564-0.0622-0.64016-0.0578-0.32453-0.1956-0.62238-0.13782-0.3023-0.36899-0.53791-0.22672-0.24006-0.56458-0.37787t-0.8002-0.13781q-0.74241 0-1.2359 0.33342-0.48901 0.32897-0.73796 0.89356-0.24451 0.56459-0.24451 1.2759zm1.1914-0.51124q-0.0845 0-0.10669-0.02223-0.0178-0.02667-0.0133-0.0978 4e-3 -0.33342 0.12892-0.65794 0.12448-0.32453 0.37343-0.53791 0.2534-0.21339 0.63572-0.21339 0.25339 0 0.43566 0.14226t0.3023 0.36898q0.12003 0.22228 0.17782 0.47568 0.0622 0.24895 0.0622 0.46234 0 0.05335-0.0178 0.06668-0.0178 0.01334-0.1067 0.01334zm4.4144-1.1647v3.1919q0 0.0978-0.04 0.12892-0.04 0.02667-0.14226 0.02667h-0.48457q-0.0711 0-0.10225 0.02667-0.0311 0.02223-0.0311 0.0978v0.32897q0 0.06224 0.0356 0.08002t0.10225 0.01778h2.2939q0.08 0 0.0978-0.03112 0.0222-0.03112 0.0222-0.11114v-0.25784q0-0.08447-0.0178-0.11558-0.0133-0.03556-0.0978-0.03556h-0.53791q-0.10225 0-0.12448-0.03557-0.0222-0.04001-0.0222-0.14226v-1.7604q0-0.45789 0.13781-0.85355 0.13781-0.4001 0.37343-0.64461 0.24006-0.24451 0.52902-0.24451 0.1467 0 0.1956 0.03112 0.0534 0.03112 0.0534 0.09336 0 0.05335-0.0534 0.10669-0.0533 0.05335-0.10669 0.1467-0.0534 0.08891-0.0534 0.25784 0 0.22228 0.17338 0.36009 0.17338 0.13337 0.43122 0.13337 0.18671 0 0.32452-0.10225 0.14226-0.10225 0.22228-0.27118 0.08-0.16893 0.08-0.36454 0-0.41344-0.31119-0.64905-0.31119-0.23561-0.72018-0.23561-0.45789 0-0.7513 0.2045-0.28896 0.2045-0.45789 0.51124-0.0534 0.10669-0.0711 0.09336-0.0178-0.01334-0.0178-0.12892v-0.44899q0-0.08891-0.0445-0.10669-0.04-0.02223-0.11558-0.02223h-1.4226q-0.0934 0-0.12003 0.03112-0.0267 0.03112-0.0267 0.12892v0.22672q0 0.0978 0.0178 0.13337 0.0222 0.03112 0.12003 0.03112h0.50679q0.10225 0 0.12892 0.03556 0.0267 0.03112 0.0267 0.13781zm6.0726 5.0324q0 0.31564 0.13781 0.58681 0.14226 0.27118 0.4001 0.43122 0.26229 0.16449 0.62683 0.16449 0.28896 0 0.59126-0.12003 0.30674-0.12003 0.5957-0.43566 0.29341-0.31564 0.52902-0.88911l1.9205-4.7434q0.0444-0.10669 0.0711-0.15115 0.0311-0.0489 0.18227-0.0489h0.34231q0.10225 0 0.12448-0.04001 0.0222-0.04446 0.0222-0.14226v-0.25784q0-0.07558-0.0356-0.09336t-0.11114-0.01778h-1.6404q-0.11114 0-0.1467 0.03556-0.0356 0.03112-0.0356 0.1467v0.20894q0 0.08891 0.0222 0.12448 0.0267 0.03556 0.12447 0.03556h0.3023q0.14226 0 0.16449 0.02667 0.0222 0.02667-0.0133 0.12448l-0.96913 2.4362q-0.0578 0.1556-0.0934 0.24451-0.0311 0.08447-0.0711 0.08447-0.0267 0-0.0622-0.08447-0.0356-0.08447-0.10225-0.22672l-1.1158-2.4717q-0.0444-0.09336-0.0133-0.11114 0.0311-0.02223 0.16893-0.02223h0.4001q0.12892 0 0.16004-0.03556 0.0356-0.03557 0.0356-0.16893v-0.16448q0-0.11558-0.0311-0.1467-0.0311-0.03556-0.13781-0.03556h-2.245q-0.0622 0-0.0934 0.01778-0.0311 0.01334-0.0311 0.07557v0.30674q0 0.09336 0.0311 0.12448 0.0311 0.02667 0.12892 0.02667h0.37342q0.13337 0 0.16449 0.03112 0.0311 0.02667 0.0756 0.12448l1.7382 3.7832q0.0622 0.13337 0.0622 0.20894 4e-3 0.07557-0.0489 0.21339l-0.1067 0.24895q-0.20005 0.50235-0.41788 0.77797-0.21783 0.28007-0.42677 0.38676-0.2045 0.10669-0.37788 0.10669-0.21338 0-0.33786-0.11114t-0.12448-0.2534q0-0.07113 0.0445-0.11558 0.0445-0.04001 0.11114-0.07557 0.0667-0.03112 0.12892-0.07558 0.0667-0.04445 0.11114-0.12003 0.0445-0.07557 0.0445-0.2045 0-0.24006-0.14671-0.36898-0.14226-0.12448-0.36453-0.12448-0.17338 0-0.32008 0.0978-0.14226 0.0978-0.23117 0.27118-0.0845 0.17338-0.0845 0.40455zm10.06-1.3203q0 0.12448 0.04 0.15559 0.04 0.03112 0.16893 0.03112h2.814q0.12448 0 0.19116-0.02667 0.0667-0.03112 0.0667-0.16893v-0.17338q0-0.13781-0.0311-0.17782-0.0267-0.04001-0.16448-0.04001h-0.7024q-0.16893 0-0.20894-0.04445-0.0356-0.0489-0.0356-0.22672v-5.0768q0-0.11558 0.0267-0.15115 0.0267-0.04001 0.14225-0.04001h0.39566q0.56014 0 0.87133 0.1467 0.31119 0.14226 0.44011 0.48901 0.13337 0.34231 0.1467 0.95135 4e-3 0.11558 0.0267 0.16449 0.0267 0.0489 0.16004 0.0489h0.16448q0.11559 0 0.15115-0.02223 0.0356-0.02667 0.0356-0.13337v-1.9783q0-0.12892-0.0311-0.16893t-0.1556-0.04001h-5.7171q-0.15115 0-0.18227 0.04446-0.0311 0.04001-0.0311 0.1956v1.8805q0 0.10225 0.0222 0.16449 0.0267 0.05779 0.14226 0.05779h0.18227q0.12447 0 0.15115-0.04001 0.0311-0.04445 0.0356-0.15115 0.0133-0.61793 0.14226-0.96469 0.12892-0.3512 0.44011-0.4979 0.31564-0.1467 0.88022-0.1467h0.37343q0.12003 0 0.15559 0.04001 0.0356 0.03556 0.0356 0.1556v5.0902q0 0.16893-0.04 0.21339-0.04 0.04001-0.2045 0.04001h-0.71129q-0.10225 0-0.1467 0.02667-0.04 0.02667-0.04 0.13781zm5.9215-3.712v3.1919q0 0.0978-0.04 0.12892-0.04 0.02667-0.14225 0.02667h-0.48457q-0.0711 0-0.10225 0.02667-0.0311 0.02223-0.0311 0.0978v0.32897q0 0.06224 0.0356 0.08002t0.10224 0.01778h2.2939q0.08 0 0.0978-0.03112 0.0222-0.03112 0.0222-0.11114v-0.25784q0-0.08447-0.0178-0.11558-0.0133-0.03556-0.0978-0.03556h-0.53791q-0.10225 0-0.12448-0.03557-0.0222-0.04001-0.0222-0.14226v-1.7604q0-0.45789 0.13782-0.85355 0.13781-0.4001 0.37342-0.64461 0.24006-0.24451 0.52902-0.24451 0.14671 0 0.19561 0.03112 0.0534 0.03112 0.0534 0.09336 0 0.05335-0.0534 0.10669-0.0534 0.05335-0.10669 0.1467-0.0533 0.08891-0.0533 0.25784 0 0.22228 0.17338 0.36009 0.17337 0.13337 0.43121 0.13337 0.18672 0 0.32453-0.10225 0.14226-0.10225 0.22228-0.27118 0.08-0.16893 0.08-0.36454 0-0.41344-0.31119-0.64905-0.31119-0.23561-0.72018-0.23561-0.45789 0-0.7513 0.2045-0.28896 0.2045-0.45789 0.51124-0.0534 0.10669-0.0711 0.09336-0.0178-0.01334-0.0178-0.12892v-0.44899q0-0.08891-0.0445-0.10669-0.04-0.02223-0.11559-0.02223h-1.4226q-0.0934 0-0.12003 0.03112-0.0267 0.03112-0.0267 0.12892v0.22672q0 0.0978 0.0178 0.13337 0.0222 0.03112 0.12003 0.03112h0.5068q0.10225 0 0.12892 0.03556 0.0267 0.03112 0.0267 0.13781zm4.3389-2.3117q0 0.24895 0.17782 0.41788 0.18227 0.16893 0.43122 0.16893t0.42677-0.16893q0.17783-0.16893 0.17783-0.41788 0-0.2534-0.17783-0.42233-0.17782-0.16893-0.42677-0.16893t-0.43122 0.16893q-0.17782 0.16893-0.17782 0.42233zm0.0711 2.1383q0.10669 0 0.10669 0.10669v3.2942q0 0.07113-0.0178 0.0978-0.0133 0.02223-0.0889 0.02223h-0.55125q-0.08 0-0.11114 0.02223-0.0311 0.02223-0.0311 0.11114v0.31119q0 0.07113 0.0267 0.08891 0.0311 0.01778 0.1067 0.01778h2.3206q0.0667 0 0.08-0.02223t0.0133-0.08891v-0.34675q0-0.06668-0.0222-0.08002t-0.0845-0.01334h-0.60015q-0.0534 0-0.0756-0.02223-0.0178-0.02667-0.0178-0.08447v-3.8721q0-0.05779-0.0178-0.07557-0.0133-0.01778-0.0667-0.01778h-1.5515q-0.11114 0-0.11114 0.11558v0.33342q0 0.06224 0.0133 0.08447 0.0178 0.01778 0.08 0.01778zm2.8718 2.7296q0 0.47568 0.13337 0.79576t0.45345 0.48457 0.87577 0.16449q0.58237 0 0.94246-0.22228t0.56903-0.57348q0.0534-0.08447 0.0845-0.05779 0.0311 0.02223 0.0311 0.07558v0.50235q0 0.10669 0.0267 0.14226 0.0267 0.03112 0.12892 0.03112h1.4448q0.0889 0 0.10669-0.03112 0.0178-0.03112 0.0178-0.12003v-0.28896q0-0.07113-0.04-0.08891-0.04-0.02223-0.1067-0.02223h-0.49345q-0.1067 0-0.13337-0.02667-0.0267-0.02667-0.0267-0.12892v-3.7787q0-0.08002-0.0178-0.10669-0.0178-0.03112-0.0933-0.03112h-1.4982q-0.0756 0-0.0978 0.03112-0.0178 0.02667-0.0178 0.10225v0.32453q0 0.06224 0.0311 0.08002 0.0356 0.01334 0.10224 0.01334h0.46234q0.0978 0 0.13782 0.02667 0.0444 0.02223 0.0444 0.12892v1.8093q0 0.45789-0.16893 0.8491-0.16893 0.38676-0.47123 0.62238-0.29785 0.23117-0.69795 0.23117-0.40455 0-0.59571-0.28452-0.18671-0.28452-0.18671-0.75574v-3.0363q0-0.0978-0.0356-0.12003-0.0311-0.02223-0.13336-0.02223h-1.4181q-0.10224 0-0.13336 0.03112-0.0267 0.03112-0.0267 0.13337v0.25784q0 0.08891 0.0356 0.11114 0.0356 0.01778 0.12447 0.01778h0.51569q0.08 0 0.10225 0.03112 0.0222 0.03112 0.0222 0.12003zm6.0326-2.7296q0.0667 0 0.0934 0.01778 0.0267 0.01334 0.0267 0.07558v3.2942q0 0.09336-0.0311 0.11558-0.0311 0.01778-0.12892 0.01778h-0.47567q-0.0889 0-0.12893 0.02667-0.0356 0.02667-0.0356 0.12003v0.25784q0 0.08447 0.0222 0.11558 0.0222 0.03112 0.10669 0.03112h2.2361q0.08 0 0.10669-0.02667 0.0311-0.02667 0.0311-0.11114v-0.26229q0-0.0978-0.0356-0.12448-0.0311-0.02667-0.12448-0.02667h-0.40899q-0.10225 0-0.14226-0.04001-0.04-0.04001-0.04-0.14226v-1.7827q0-0.45789 0.16449-0.82687 0.16893-0.36898 0.47123-0.58237 0.30229-0.21783 0.70239-0.21783 0.40455 0 0.59126 0.24895 0.18672 0.24451 0.18672 0.71574v2.4539q0 0.11558-0.0356 0.1467-0.0311 0.02667-0.14226 0.02667h-0.45344q-0.0756 0-0.0978 0.03112-0.0178 0.03112-0.0178 0.10669v0.26673q0 0.08002 0.0133 0.11558 0.0178 0.03112 0.0934 0.03112h2.2361q0.0889 0 0.12003-0.01334 0.0356-0.01778 0.0356-0.10225v-0.29785q0-0.08002-0.0222-0.10669-0.0222-0.03112-0.0978-0.03112h-0.51124q-0.12003 0-0.14671-0.04001-0.0222-0.04001-0.0222-0.16004v-2.5295q0-0.47568-0.13337-0.79576-0.13337-0.32008-0.45345-0.48457-0.32008-0.16448-0.87577-0.16448-0.57792 0-0.94691 0.24006-0.36453 0.23562-0.58236 0.58237-0.0489 0.07557-0.0756 0.08002-0.0222 0.0044-0.0222-0.16448v-0.47123q0-0.07113-0.04-0.11558-0.0356-0.0489-0.11558-0.0489h-1.4582q-0.0622 0-0.0889 0.02667t-0.0267 0.09336v0.3023q0 0.07113 0.0222 0.10225 0.0222 0.02667 0.0933 0.02667zm7.0195 0.14226q0-0.08447 0.0222-0.11114 0.0222-0.03112 0.10225-0.03112h0.95579q0.0934 0 0.11559-0.01778 0.0222-0.02223 0.0222-0.11558v-0.28007q0-0.0978-0.0356-0.11558-0.0311-0.02223-0.12003-0.02223h-0.95135q-0.0711 0-0.0934-0.02667-0.0178-0.02667-0.0178-0.09336v-0.1467q0-0.56459 0.0978-0.94246 0.10225-0.37787 0.31119-0.56459 0.21339-0.18671 0.54236-0.18671 0.30674 0 0.43567 0.07113 0.12892 0.07113 0.12892 0.1467 0 0.08002-0.0534 0.1467-0.0489 0.06224-0.10225 0.1467-0.0489 0.08447-0.0489 0.22672 0 0.21339 0.16004 0.3512 0.16449 0.13337 0.43122 0.13337 0.26229 0 0.43122-0.16004 0.16893-0.16449 0.16893-0.48457 0-0.26673-0.1956-0.50235-0.19116-0.23561-0.54236-0.38232-0.3512-0.1467-0.84021-0.1467-0.61794 0-1.0358 0.2534-0.41788 0.24895-0.63127 0.68906-0.20894 0.44011-0.20894 1.0091v0.33342q0 0.08447-0.0222 0.10669-0.0178 0.02223-0.10224 0.02223h-0.54681q-0.0756 0-0.10225 0.02223-0.0267 0.01778-0.0267 0.09336v0.32453q0 0.07558 0.0222 0.09336 0.0267 0.01778 0.10225 0.01778h0.56014q0.0845 0 0.0978 0.03556 0.0178 0.03112 0.0178 0.11558v3.2408q0 0.07558-0.0178 0.10225-0.0178 0.02667-0.0934 0.02667h-0.55569q-0.0667 0-0.10225 0.02223-0.0311 0.01778-0.0311 0.0978v0.29785q0 0.08447 0.0222 0.11114 0.0222 0.02223 0.10225 0.02223h2.5384q0.0889 0 0.12003-0.02223 0.0356-0.02667 0.0356-0.12003v-0.29785q0-0.08002-0.0578-0.09336-0.0533-0.01778-0.12892-0.01778h-0.72907q-0.10669 0-0.12892-0.02667-0.0222-0.02667-0.0222-0.13337zm1.7693 2.8363q0 0.56459 0.39566 0.87578 0.39565 0.30674 1.0091 0.30674 0.45789 0 0.73352-0.10669 0.28007-0.11114 0.43122-0.25784 0.15559-0.1467 0.23561-0.2534 0.0667-0.08002 0.0934-0.08002t0.0578 0.08891q0.0311 0.11114 0.10225 0.2534 0.0711 0.14226 0.2445 0.24895 0.17338 0.10669 0.50235 0.10669h4e-3q0.21338 0 0.4001-0.07557 0.18671-0.07113 0.34231-0.20894 0.15559-0.14226 0.25784-0.33786 0.0311-0.07113-0.0267-0.10669l-0.20895-0.12892q-0.0578-0.04445-0.10224 0.03112-0.11114 0.17782-0.21339 0.23117-0.10225 0.05335-0.19561 0.05335-0.0933 0-0.16448-0.06224-0.0667-0.06224-0.0667-0.1956v-2.5651q0-0.38676-0.13337-0.71574-0.12892-0.32897-0.47123-0.52458-0.33786-0.1956-0.96024-0.1956-0.35565 0-0.71129 0.08002-0.3512 0.08002-0.64016 0.24006-0.28896 0.15559-0.46234 0.38676-0.17338 0.23117-0.17338 0.52902 0 0.3023 0.17783 0.42233 0.17782 0.12003 0.40899 0.12003 0.2445 0 0.39565-0.15115 0.1556-0.15115 0.1556-0.39121 0-0.17338-0.0578-0.24451-0.0578-0.07113-0.12003-0.10669-0.0578-0.04001-0.0578-0.11558 0-0.08002 0.12003-0.15115 0.12448-0.07113 0.32008-0.11558 0.19561-0.04446 0.41344-0.04446 0.33342 0 0.51568 0.12892 0.18672 0.12448 0.25785 0.3512 0.0711 0.22228 0.0711 0.51124v0.49346q0 0.08002-0.0222 0.0978-0.0178 0.01778-0.0934 0.01778h-0.41788q-0.76464 0-1.2892 0.21339-0.52013 0.20894-0.79131 0.56459-0.26674 0.3512-0.26674 0.78242zm1.0758-0.13781q0-0.32008 0.12892-0.55125 0.13337-0.23117 0.42233-0.35564 0.28896-0.12892 0.76019-0.12892h0.40454q0.0889 0 0.0889 0.08891v0.48012q0 0.58237-0.28452 0.90245-0.28452 0.32008-0.71574 0.32008-0.31563 0-0.56014-0.17338-0.2445-0.17782-0.2445-0.58237zm4.7701-2.6673v3.1919q0 0.0978-0.04 0.12892-0.04 0.02667-0.14226 0.02667h-0.48457q-0.0711 0-0.10224 0.02667-0.0311 0.02223-0.0311 0.0978v0.32897q0 0.06224 0.0356 0.08002t0.10225 0.01778h2.2939q0.08 0 0.0978-0.03112 0.0222-0.03112 0.0222-0.11114v-0.25784q0-0.08447-0.0178-0.11558-0.0133-0.03556-0.0978-0.03556h-0.53791q-0.10225 0-0.12447-0.03557-0.0222-0.04001-0.0222-0.14226v-1.7604q0-0.45789 0.13781-0.85355 0.13781-0.4001 0.37343-0.64461 0.24006-0.24451 0.52902-0.24451 0.1467 0 0.1956 0.03112 0.0534 0.03112 0.0534 0.09336 0 0.05335-0.0534 0.10669-0.0533 0.05335-0.10669 0.1467-0.0534 0.08891-0.0534 0.25784 0 0.22228 0.17338 0.36009 0.17338 0.13337 0.43122 0.13337 0.18671 0 0.32453-0.10225 0.14225-0.10225 0.22227-0.27118 0.08-0.16893 0.08-0.36454 0-0.41344-0.31119-0.64905-0.31118-0.23561-0.72018-0.23561-0.45789 0-0.7513 0.2045-0.28896 0.2045-0.45789 0.51124-0.0533 0.10669-0.0711 0.09336-0.0178-0.01334-0.0178-0.12892v-0.44899q0-0.08891-0.0445-0.10669-0.04-0.02223-0.11558-0.02223h-1.4226q-0.0934 0-0.12003 0.03112-0.0267 0.03112-0.0267 0.12892v0.22672q0 0.0978 0.0178 0.13337 0.0222 0.03112 0.12003 0.03112h0.50679q0.10225 0 0.12893 0.03556 0.0267 0.03112 0.0267 0.13781z" stroke-width=".29637" aria-label="Conocer y Triunfar"/></g></g></svg>
