<svg xmlns="http://www.w3.org/2000/svg" viewBox="0 0 427.6 131.1"><path d="M93.633 52.275l-10.2.3v-2.3c6.2-2.1 9.3-5.9 9.3-11.5 0-2.5-.9-4.3-2.6-5.4-1.7-1.1-5.2-1.6-10.5-1.6-9.8 0-15.6.4-17.6 1.2s-3 2.6-3 5.4c0 5.8 3.2 10 9.6 12.7v2.3l-11.2-.7v-2.3c.7-.7 1.6-1.6 2.5-2.6-1.9-3-2.8-6.4-2.8-10.2 0-4.9 1.6-9.2 4.9-13 3.3-3.8 7.8-5.7 13.4-5.7 5.6 0 10.2 1.9 13.7 5.7s5.3 8.5 5.3 14.1c0 3.3-.9 6.4-2.7 9.1.6 1 1.1 1.9 1.7 2.6v1.9h.2zM79.233 57.375h38.6l.3 16.6h-2.1c-1.7-9.4-5.2-12.3-10.6-12.3h-1.3v42.1h7.1v4.5h-25.5v-4.5h7v-42.1h-1.6c-5.4 0-8.3 2.9-10.1 12.3h-2.1l.3-16.6zM39.033 103.775v4.5h32.5v-4.5h-16.3zM44.633 64.875h4.5v36.1h-4.5zM61.333 64.875h4.5v36.1h-4.5zM57.533 100.875v-36h-4.5v36h2.2z"/><path d="M71.533 57.275s0 .1 0 0h-32.6c-2.4 0-4.3 1.9-4.3 4.3s1.9 4.3 4.3 4.3c2.3 0 4.2-1.8 4.3-4.2h24c.1 2.3 2 4.2 4.3 4.2 2.4 0 4.3-1.9 4.3-4.3s-1.9-4.3-4.3-4.3z"/><g><path d="M159.333 56.675v5.8h-.6c-.7-3.6-2.5-5.4-5.3-5.4-1.5 0-2.7.6-3.4 1.8-.7 1.2-1.1 3.8-1.1 7.6 0 3.2.2 5.4.5 6.5s.8 2 1.6 2.5 1.6.7 2.5.7c1.2 0 2.3-.4 3.3-1.3s1.8-2.3 2.4-4.3h.7l-.2 6h-.6c-.2-.6-.6-1.2-1.1-1.6-1.6 1.3-3.2 1.9-4.8 1.9-2.1 0-4-1-5.7-3s-2.6-4.4-2.6-7.3c0-2.9.8-5.4 2.5-7.4s3.6-3 5.9-3c1.7 0 3.2.6 4.5 1.8.4-.6.7-1.1.9-1.6h.6zM162.633 70.775c0-1.7.6-3.1 1.8-4.3 1.2-1.2 2.6-1.8 4.4-1.8 1.7 0 3.1.6 4.3 1.7 1.2 1.1 1.8 2.6 1.8 4.3 0 1.8-.6 3.3-1.8 4.5-1.2 1.2-2.7 1.8-4.3 1.8-1.6 0-3-.6-4.2-1.8-1.4-1.2-2-2.6-2-4.4zm8.8 0c0-1.8-.1-3-.2-3.6-.1-.6-.4-1-.8-1.4-.4-.3-1-.5-1.8-.5-.7 0-1.3.2-1.7.5s-.7.8-.8 1.4c-.1.6-.2 1.8-.2 3.6s.1 3 .2 3.6c.1.6.4 1.1.9 1.4.4.3 1 .5 1.7.5s1.3-.2 1.7-.5c.5-.3.7-.8.9-1.4.1-.6.1-1.8.1-3.6zM179.133 75.875v-10.1h-2.1v-.8h1.3c1.3 0 2.5-.1 3.6-.2v2.9h.1c1-2 2.4-3 4.3-3 .9 0 1.6.2 2.1.7.6.4.9 1 1.1 1.6.2.6.3 1.5.3 2.8v6.2h2.3v.8h-7.1v-.8h2v-7.5c0-1.1-.1-1.9-.2-2.3-.1-.4-.5-.6-1.1-.6-1 0-1.8.5-2.6 1.5s-1.1 2.3-1.1 3.9v5h1.9v.8h-6.9v-.8h2.1zM193.833 70.775c0-1.7.6-3.1 1.8-4.3 1.2-1.2 2.6-1.8 4.4-1.8 1.7 0 3.1.6 4.3 1.7 1.2 1.1 1.8 2.6 1.8 4.3 0 1.8-.6 3.3-1.8 4.5-1.2 1.2-2.7 1.8-4.3 1.8-1.6 0-3-.6-4.2-1.8-1.4-1.2-2-2.6-2-4.4zm8.8 0c0-1.8-.1-3-.2-3.6-.1-.6-.4-1-.8-1.4-.4-.3-1-.5-1.8-.5-.7 0-1.3.2-1.7.5s-.7.8-.8 1.4c-.1.6-.2 1.8-.2 3.6s.1 3 .2 3.6c.1.6.4 1.1.9 1.4.4.3 1 .5 1.7.5s1.3-.2 1.7-.5c.5-.3.7-.8.9-1.4.1-.6.1-1.8.1-3.6zM218.733 72.575h.6c-.3 1.4-.9 2.5-1.7 3.3-.9.7-1.9 1.1-3.1 1.1-1.7 0-3.1-.6-4.2-1.9s-1.7-2.7-1.7-4.3c0-1.7.6-3.1 1.8-4.4 1.2-1.2 2.6-1.9 4.4-1.9 1.2 0 2.3.3 3.1 1 .8.6 1.2 1.3 1.2 2.1 0 .4-.1.7-.4 1.1-.3.3-.6.5-1.1.5-.4 0-.8-.1-1.1-.4s-.4-.6-.4-1c0-.3.1-.6.4-.9.2-.3.4-.5.4-.6 0-.3-.2-.5-.5-.7-.4-.2-.8-.3-1.4-.3-1 0-1.8.3-2.3.8-.5.6-.7 1.7-.7 3.5s0 3.1.1 3.9.3 1.5.7 2c.4.5 1.1.7 2 .7 1.7.2 3.1-1.1 3.9-3.6zM232.133 69.975h-7.5c-.1 2.9.1 4.7.5 5.4.4.7 1.1 1 2.1 1 2.1 0 3.5-1.2 4.2-3.6h.6c-.3 1.5-.9 2.5-1.8 3.2-.9.7-1.9 1-3 1-1.6 0-3-.6-4.1-1.8-1.2-1.2-1.8-2.7-1.8-4.4 0-1.7.6-3.2 1.7-4.4 1.1-1.2 2.5-1.8 4-1.8 1.3 0 2.5.5 3.5 1.4 1 1 1.5 2.3 1.6 4zm-7.5-.7h4.3c.1-.7.1-1.2.1-1.6 0-1.6-.7-2.4-2.1-2.4-.7 0-1.3.2-1.7.6-.4.4-.6.9-.6 1.5v1.9zM236.033 75.875v-10.1h-2.4v-.8h2.4c1.2 0 2.2-.1 2.8-.2v2.8h.1c.7-1.9 1.7-2.8 3.1-2.8.6 0 1.1.2 1.4.5.4.4.5.8.5 1.3s-.1.9-.4 1.1-.7.4-1.1.4c-.8 0-1.3-.4-1.3-1.3l.1-.6c0-.2-.1-.3-.3-.3-.3 0-.7.4-1.2 1.3s-.8 2.2-.8 4v4.5h2.4v.8h-7.7v-.8h2.4zM257.333 65.775l4.1 8.1 3.6-8.1h-2.6v-.8h5.2v.8h-2l-5.9 13.5c-.9 1.9-1.6 3.3-2.2 4-.6.8-1.3 1.2-2.2 1.2-.5 0-.9-.2-1.2-.5-.3-.3-.4-.7-.4-1.1 0-.4.1-.7.4-1 .3-.2.5-.4.9-.4.5 0 .9.2 1.1.7s.5.7.7.7c.3 0 .6-.2.9-.7.3-.5.8-1.4 1.4-2.8l1-2.2-5.8-11.3h-1.8v-.8h7.1v.8h-2.3zM276.933 56.875h16.9l.5 6.7h-.8c-.5-2.3-1.1-3.8-1.8-4.7-.8-.9-1.8-1.3-3-1.3h-1.6v18.3h3.5v.8h-10.6v-.8h3.5v-18.3h-1.6c-1.2 0-2.2.4-3 1.3-.8.9-1.4 2.4-1.8 4.7h-.8l.6-6.7zM296.933 75.875v-10.1h-2.4v-.8h2.4c1.2 0 2.2-.1 2.8-.2v2.8h.1c.7-1.9 1.7-2.8 3.1-2.8.6 0 1.1.2 1.4.5.4.4.5.8.5 1.3s-.1.9-.4 1.1-.7.4-1.1.4c-.8 0-1.3-.4-1.3-1.3l.1-.6c0-.2-.1-.3-.3-.3-.3 0-.7.4-1.2 1.3s-.8 2.2-.8 4v4.5h2.4v.8h-7.7v-.8h2.4zM311.033 64.775v11.1h1.9v.8h-6.8v-.8h2.1v-10.1h-2.1v-.8h2.1c1 .1 1.9 0 2.8-.2zm-3-5.6c0-.4.2-.8.5-1.1.3-.3.7-.5 1.1-.5s.8.2 1.1.5c.3.3.5.7.5 1.1 0 .5-.2.8-.5 1.2s-.7.5-1.1.5-.8-.2-1.1-.5c-.3-.4-.5-.8-.5-1.2zM327.033 65.075v10.8h2v.8h-2c-1.5 0-2.5.1-2.9.2v-2.7c-.9 1.8-2.3 2.7-4.2 2.7-1.1 0-2-.3-2.6-.9-.7-.6-1-1.8-1-3.6v-6.5h-2.2v-.8h5v7.8c0 1.2.1 2.1.2 2.5.1.5.5.7 1.1.7.9 0 1.7-.5 2.5-1.5s1.2-2.4 1.2-4.4v-4.4h-2.4v-.8h5.3zM332.833 75.875v-10.1h-2.1v-.8h1.3c1.3 0 2.5-.1 3.6-.2v2.9h.1c1-2 2.4-3 4.3-3 .9 0 1.6.2 2.1.7.6.4.9 1 1.1 1.6.2.6.3 1.5.3 2.8v6.2h2.3v.8h-7.1v-.8h2v-7.5c0-1.1-.1-1.9-.2-2.3-.1-.4-.5-.6-1.1-.6-1 0-1.8.5-2.6 1.5s-1.1 2.3-1.1 3.9v5h1.9v.8h-6.9v-.8h2.1zM349.433 75.875v-10.1h-2.4v-.8h2.4c-.1-2.6.5-4.7 1.6-6.2 1.2-1.5 2.5-2.2 4.1-2.2.8 0 1.4.2 2 .7.6.4.8 1 .8 1.6 0 .4-.1.8-.4 1.1s-.6.4-1 .4-.7-.1-.9-.4c-.3-.2-.4-.6-.4-.9 0-.6.3-1.1 1-1.4-.3-.3-.7-.4-1.3-.4-.6 0-1.1.2-1.6.5s-.8.8-.9 1.5c-.1.7-.2 1.8-.2 3.3v2.5h2.7v.8h-2.7v10.1h2.5v.8h-7.6v-.8h2.3zM364.933 69.975v-1.5c0-1.2-.1-2-.3-2.4-.2-.4-.7-.6-1.6-.6-1.6 0-2.4.3-2.4.9 0 .2.1.4.2.6.1.2.2.5.2.7 0 .4-.1.7-.4.9-.3.2-.6.3-.9.3-.4 0-.8-.1-1-.4s-.4-.6-.4-1c0-.8.5-1.4 1.4-2 .9-.5 2.2-.8 3.8-.8 1.3 0 2.3.2 2.9.5.6.3 1 .7 1.1 1.1.1.5.2 1.1.2 1.9v5.4c0 .8.1 1.3.2 1.5.1.2.3.3.5.3.4 0 .7-.2 1-.7h.4c-.3 1.4-1.1 2.2-2.5 2.2s-2.2-.8-2.4-2.4c-1.2 1.6-2.5 2.4-4 2.4-1 0-1.8-.3-2.4-.8s-.9-1.2-.9-2c-.1-2.5 2.4-3.8 7.3-4.1zm0 2.3v-1.6c-1.8.1-3 .3-3.6.8-.6.5-.9 1.2-.9 2.1 0 .7.2 1.2.5 1.5.3.4.8.5 1.2.5.6 0 1.1-.2 1.6-.6.5-.4.8-.8.9-1.2.2-.3.3-.8.3-1.5zM373.733 75.875v-10.1h-2.4v-.8h2.4c1.2 0 2.2-.1 2.8-.2v2.8h.1c.7-1.9 1.7-2.8 3.1-2.8.6 0 1.1.2 1.4.5.4.4.5.8.5 1.3s-.1.9-.4 1.1-.7.4-1.1.4c-.8 0-1.3-.4-1.3-1.3l.1-.6c0-.2-.1-.3-.3-.3-.3 0-.7.4-1.2 1.3s-.8 2.2-.8 4v4.5h2.4v.8h-7.7v-.8h2.4z"/></g></svg>