<svg xmlns="http://www.w3.org/2000/svg" viewBox="0 0 215.6 171.2"><path d="M32.8 124.5v5.5h-.5c-.5-3.3-1.8-5-4-5-1.1 0-2 .6-2.5 1.7s-.8 3.5-.8 7.1c0 3 .1 5 .3 6.1s.6 1.8 1.2 2.3c.6.5 1.2.7 1.9.7.9 0 1.7-.4 2.5-1.2.8-.8 1.4-2.2 1.8-4h.5l-.2 5.6h-.5c-.2-.6-.4-1.1-.8-1.5-1.2 1.2-2.3 1.8-3.6 1.8-1.6 0-3-.9-4.3-2.8-1.3-1.8-1.9-4.1-1.9-6.8s.6-5 1.9-6.9 2.7-2.8 4.4-2.8c1.3 0 2.4.6 3.4 1.7.3-.6.5-1.1.6-1.5h.6zM35.2 137.8c0-1.6.4-2.9 1.3-4.1.9-1.1 2-1.7 3.2-1.7 1.3 0 2.3.5 3.2 1.6.9 1.1 1.3 2.4 1.3 4s-.5 3-1.4 4.2c-.9 1.1-2 1.7-3.2 1.7-1.2 0-2.3-.6-3.2-1.7-.7-1-1.2-2.4-1.2-4zm6.6 0c0-1.7 0-2.8-.1-3.3s-.3-1-.6-1.3c-.3-.3-.8-.5-1.3-.5s-1 .2-1.3.5c-.3.3-.6.8-.6 1.3s-.1 1.7-.1 3.3c0 1.7 0 2.8.1 3.4.1.6.3 1 .6 1.3.3.3.8.5 1.3.5s.9-.2 1.3-.5c.3-.3.6-.8.6-1.3.1-.6.1-1.7.1-3.4zM47.5 142.5v-9.4h-1.6v-.7h1c1 0 1.9-.1 2.7-.2v2.7c.8-1.9 1.8-2.8 3.2-2.8.6 0 1.2.2 1.6.6.4.4.7.9.8 1.5.1.6.2 1.4.2 2.6v5.8h1.7v.7h-5.3v-.7h1.5v-6.9c0-1.1-.1-1.8-.2-2.2-.1-.4-.4-.6-.8-.6-.7 0-1.3.5-1.9 1.4-.6.9-.9 2.1-.9 3.7v4.6h1.4v.7h-5.1v-.7h1.7zM58.4 137.8c0-1.6.4-2.9 1.3-4.1.9-1.1 2-1.7 3.2-1.7 1.3 0 2.3.5 3.2 1.6.9 1.1 1.3 2.4 1.3 4s-.5 3-1.4 4.2c-.9 1.1-2 1.7-3.2 1.7-1.2 0-2.3-.6-3.2-1.7-.7-1-1.2-2.4-1.2-4zm6.6 0c0-1.7 0-2.8-.1-3.3s-.3-1-.6-1.3c-.3-.3-.8-.5-1.3-.5s-1 .2-1.3.5c-.3.3-.6.8-.6 1.3s-.1 1.7-.1 3.3c0 1.7 0 2.8.1 3.4.1.6.3 1 .6 1.3.3.3.8.5 1.3.5s.9-.2 1.3-.5c.3-.3.6-.8.6-1.3.1-.6.1-1.7.1-3.4zM77 139.5h.5c-.2 1.3-.7 2.3-1.3 3-.6.7-1.4 1-2.3 1-1.2 0-2.3-.6-3.1-1.7s-1.3-2.5-1.3-4 .4-2.9 1.3-4.1c.9-1.2 2-1.8 3.3-1.8.9 0 1.7.3 2.3.9.6.6.9 1.3.9 2 0 .4-.1.7-.3 1-.2.3-.5.4-.8.4-.3 0-.6-.1-.8-.4-.2-.2-.3-.6-.3-1 0-.3.1-.6.3-.8.2-.3.3-.5.3-.6 0-.2-.1-.5-.4-.7-.3-.2-.6-.3-1.1-.3-.8 0-1.3.3-1.7.8-.4.5-.6 1.6-.6 3.3 0 1.7 0 2.9.1 3.7.1.8.3 1.4.6 1.9s.8.7 1.5.7c1.3.2 2.3-1 2.9-3.3zM87 137h-5.6c-.1 2.7.1 4.4.4 5 .3.6.8.9 1.6.9 1.6 0 2.6-1.1 3.2-3.4h.4c-.2 1.4-.7 2.4-1.4 3s-1.4 1-2.3 1c-1.2 0-2.2-.5-3.1-1.6-.9-1.1-1.3-2.5-1.3-4.1 0-1.6.4-3 1.3-4.1.9-1.1 1.8-1.7 3-1.7 1 0 1.8.4 2.6 1.3.7.9 1.1 2.1 1.2 3.7zm-5.6-.6h3.2c.1-.7.1-1.1.1-1.5 0-1.5-.5-2.2-1.6-2.2-.5 0-.9.2-1.2.5s-.5.8-.5 1.4v1.8zM89.9 142.5v-9.4h-1.8v-.7h1.8c.9 0 1.6-.1 2.1-.2v2.6c.5-1.7 1.3-2.6 2.3-2.6.4 0 .8.2 1.1.5.3.3.4.7.4 1.2 0 .4-.1.8-.3 1.1-.2.3-.5.4-.8.4-.6 0-.9-.4-.9-1.2v-.6c0-.2-.1-.3-.2-.3-.2 0-.5.4-.9 1.2s-.6 2.1-.6 3.7v4.2h1.8v.7h-5.7v-.7h1.7zM105.7 133.1l3.1 7.5 2.7-7.5h-1.9v-.7h3.9v.7H112l-4.4 12.6c-.6 1.8-1.2 3.1-1.6 3.8-.4.7-1 1.1-1.6 1.1-.4 0-.7-.2-.9-.5-.2-.3-.3-.7-.3-1.1 0-.4.1-.7.3-.9.2-.2.4-.3.7-.3.4 0 .6.2.8.6.2.4.4.6.5.6.2 0 .4-.2.6-.7s.6-1.3 1-2.6l.7-2-4.3-10.6h-1.3v-.7h5.3v.7h-1.8zM120.3 124.7h12.6l.4 6.3h-.6c-.3-2.1-.8-3.6-1.4-4.4-.6-.8-1.3-1.2-2.2-1.2h-1.2v17.1h2.6v.7h-7.9v-.7h2.6v-17.1H124c-.9 0-1.7.4-2.2 1.2s-1 2.3-1.4 4.4h-.4l.3-6.3zM135.3 142.5v-9.4h-1.8v-.7h1.8c.9 0 1.6-.1 2.1-.2v2.6c.5-1.7 1.3-2.6 2.3-2.6.4 0 .8.2 1.1.5.3.3.4.7.4 1.2 0 .4-.1.8-.3 1.1-.2.3-.5.4-.8.4-.6 0-.9-.4-.9-1.2v-.6c0-.2-.1-.3-.2-.3-.2 0-.5.4-.9 1.2-.4.8-.6 2.1-.6 3.7v4.2h1.8v.7h-5.7v-.7h1.7zM145.8 132.2v10.3h1.4v.7h-5.1v-.7h1.5v-9.4h-1.5v-.7h1.6c.7 0 1.4-.1 2.1-.2zm-2.2-5.3c0-.4.1-.8.4-1 .2-.3.5-.4.8-.4s.6.1.8.4c.2.3.4.6.4 1.1 0 .4-.1.8-.4 1.1-.2.3-.5.4-.8.4-.3 0-.6-.1-.8-.4-.3-.4-.4-.8-.4-1.2zM157.7 132.4v10.1h1.5v.7h-1.5c-1.1 0-1.9.1-2.2.2v-2.6c-.7 1.7-1.7 2.6-3.1 2.6-.8 0-1.5-.3-2-.8s-.7-1.7-.7-3.4v-6.1h-1.6v-.7h3.7v7.3c0 1.1.1 1.9.2 2.4.1.4.4.7.8.7.7 0 1.3-.5 1.9-1.4.6-.9.9-2.3.9-4.1v-4.1h-1.8v-.7h3.9zM162 142.5v-9.4h-1.6v-.7h1c1 0 1.9-.1 2.7-.2v2.7c.8-1.9 1.8-2.8 3.2-2.8.6 0 1.2.2 1.6.6.4.4.7.9.8 1.5.1.6.2 1.4.2 2.6v5.8h1.7v.7h-5.3v-.7h1.5v-6.9c0-1.1-.1-1.8-.2-2.2s-.4-.6-.8-.6c-.7 0-1.3.5-1.9 1.4-.6.9-.9 2.1-.9 3.7v4.6h1.4v.7h-5.1v-.7h1.7zM174.4 142.5v-9.4h-1.8v-.7h1.8c-.1-2.4.3-4.4 1.2-5.8.9-1.4 1.9-2.1 3.1-2.1.6 0 1.1.2 1.5.6.4.4.6.9.6 1.5 0 .4-.1.7-.3 1-.2.3-.5.4-.8.4-.3 0-.5-.1-.7-.3-.2-.2-.3-.5-.3-.9 0-.5.2-1 .7-1.4-.2-.2-.5-.4-1-.4-.4 0-.8.2-1.2.5-.4.3-.6.8-.7 1.4-.1.6-.1 1.6-.1 3v2.3h2v.7h-2v9.4h1.8v.7h-5.6v-.7h1.8zM185.9 137v-1.4c0-1.1-.1-1.9-.2-2.3s-.6-.5-1.2-.5c-1.2 0-1.8.3-1.8.9 0 .2 0 .3.1.5s.1.4.1.7c0 .4-.1.7-.3.9-.2.2-.4.3-.7.3-.3 0-.6-.1-.7-.4-.2-.3-.3-.5-.3-.9 0-.7.3-1.4 1-1.9s1.6-.8 2.9-.8c1 0 1.7.1 2.2.4s.7.6.8 1.1c.1.4.2 1 .2 1.8v5.1c0 .7 0 1.2.1 1.4s.2.3.4.3c.3 0 .5-.2.8-.7h.3c-.2 1.3-.8 2-1.9 2-1 0-1.6-.7-1.8-2.2-.9 1.5-1.9 2.2-3 2.2-.8 0-1.4-.3-1.8-.8s-.7-1.2-.7-1.9c0-2.3 1.8-3.5 5.5-3.8zm0 2.2v-1.5c-1.4.1-2.2.3-2.7.8-.4.4-.6 1.1-.6 1.9 0 .6.1 1.1.4 1.4.3.3.6.5.9.5.4 0 .8-.2 1.2-.5.3-.4.6-.7.7-1.1 0-.4.1-.9.1-1.5zM192.5 142.5v-9.4h-1.8v-.7h1.8c.9 0 1.6-.1 2.1-.2v2.6c.5-1.7 1.3-2.6 2.3-2.6.4 0 .8.2 1.1.5.3.3.4.7.4 1.2 0 .4-.1.8-.3 1.1-.2.3-.5.4-.8.4-.6 0-.9-.4-.9-1.2v-.6c0-.2-.1-.3-.2-.3-.2 0-.5.4-.9 1.2s-.6 2.1-.6 3.7v4.2h1.8v.7h-5.7v-.7h1.7z"/><g><path d="M124.2 53.1l-10.2.2V51c6.2-2.1 9.3-5.9 9.3-11.5 0-2.5-.9-4.3-2.6-5.4-1.7-1.1-5.2-1.6-10.5-1.6-9.8 0-15.6.4-17.6 1.2s-3 2.6-3 5.4c0 5.8 3.2 10 9.6 12.7v2.3L88 53.4v-2.3c.7-.7 1.6-1.6 2.5-2.6-1.9-3-2.8-6.4-2.8-10.2 0-4.9 1.6-9.2 4.9-13s7.8-5.7 13.4-5.7 10.2 1.9 13.7 5.7 5.3 8.5 5.3 14.1c0 3.3-.9 6.4-2.7 9.1.6 1 1.1 1.9 1.7 2.6v2h.2zM109.8 58.2h38.6l.3 16.6h-2.1c-1.7-9.4-5.2-12.3-10.6-12.3h-1.1v42.1h7.1v4.5h-25.5v-4.5h7V62.5h-1.7c-5.4 0-8.3 2.9-10.1 12.3h-2.1l.2-16.6zM69.5 104.5v4.5h32.6v-4.5H85.8zM75.2 65.6h4.5v36.1h-4.5zM91.9 65.6h4.5v36.1h-4.5zM88.1 101.6v-36h-4.5v36h2.2z"/><path d="M102.1 58.1H69.5c-2.4 0-4.3 1.9-4.3 4.3s1.9 4.3 4.3 4.3c2.3 0 4.2-1.8 4.3-4.2h24c.1 2.3 2 4.2 4.3 4.2 2.4 0 4.3-1.9 4.3-4.3.1-2.4-1.9-4.3-4.3-4.3z"/></g></svg>