<?xml version="1.0" encoding="utf-8"?>
<!-- Generator: Adobe Illustrator 26.1.0, SVG Export Plug-In . SVG Version: 6.00 Build 0)  -->
<svg version="1.1"
	 id="svg1" inkscape:version="1.3.2 (091e20e, 2023-11-25, custom)" xmlns:inkscape="http://www.inkscape.org/namespaces/inkscape" xmlns:sodipodi="http://sodipodi.sourceforge.net/DTD/sodipodi-0.dtd" xmlns:svg="http://www.w3.org/2000/svg"
	 xmlns="http://www.w3.org/2000/svg" xmlns:xlink="http://www.w3.org/1999/xlink" x="0px" y="0px" viewBox="0 0 427.6 131.1"
	 style="enable-background:new 0 0 427.6 131.1;" xml:space="preserve">
<sodipodi:namedview  bordercolor="#eeeeee" borderopacity="1" id="namedview1" inkscape:current-layer="layer3" inkscape:cx="349.31075" inkscape:cy="251.37646" inkscape:deskcolor="#505050" inkscape:document-units="mm" inkscape:lockguides="false" inkscape:pagecheckerboard="false" inkscape:pageopacity="0" inkscape:showpageshadow="0" inkscape:window-height="1261" inkscape:window-maximized="1" inkscape:window-width="2400" inkscape:window-x="-9" inkscape:window-y="-9" inkscape:zoom="1.4142136" pagecolor="#505050" showguides="false">
	<sodipodi:guide  id="guide2" inkscape:locked="false" orientation="0,-1" position="-312.65271,223.96287"></sodipodi:guide>
	<sodipodi:guide  id="guide3" inkscape:locked="false" orientation="1,0" position="-298.2682,223.794"></sodipodi:guide>
	<sodipodi:guide  id="guide4" inkscape:locked="false" orientation="0,-1" position="-307.90671,117.72555"></sodipodi:guide>
	<sodipodi:guide  id="guide5" inkscape:locked="false" orientation="1,0" position="-277.93946,223.96287"></sodipodi:guide>
	<sodipodi:guide  id="guide6" inkscape:locked="false" orientation="0,-1" position="-298.2682,108.41173"></sodipodi:guide>
	<sodipodi:guide  id="guide7" inkscape:locked="false" orientation="0,-1" position="-313.49705,93.105815"></sodipodi:guide>
	<sodipodi:guide  id="guide9" inkscape:locked="false" orientation="0,-1" position="-331.02864,219.75652"></sodipodi:guide>
	<sodipodi:guide  id="guide10" inkscape:locked="false" orientation="1,0" position="-346.48776,234.61692"></sodipodi:guide>
	<sodipodi:guide  id="guide11" inkscape:locked="false" orientation="0,-1" position="-317.82621,233.44265"></sodipodi:guide>
	<sodipodi:guide  id="guide12" inkscape:locked="false" orientation="0,-1" position="-313.49705,248.5966"></sodipodi:guide>
	<sodipodi:guide  id="guide27" inkscape:locked="false" orientation="0,-1" position="-406.7117,213.13085"></sodipodi:guide>
	<sodipodi:guide  id="guide28" inkscape:locked="false" orientation="0,-1" position="-406.7117,208.41464"></sodipodi:guide>
	<sodipodi:guide  id="guide115" inkscape:locked="false" orientation="-0.99813788,0.060998208" position="-319.00023,179.14998">
		</sodipodi:guide>
	
		<sodipodi:guide  id="guide116" inkscape:color="rgb(0,134,229)" inkscape:label="" inkscape:locked="false" orientation="-0.99813788,0.060998194" position="-317.63286,178.31994">
		</sodipodi:guide>
	<sodipodi:guide  id="guide117" inkscape:locked="false" orientation="0,-1" position="-318.65187,172.46929"></sodipodi:guide>
	<sodipodi:guide  id="guide165" inkscape:locked="false" orientation="0,-1" position="-122.66093,167.93833"></sodipodi:guide>
	<sodipodi:guide  id="guide166" inkscape:locked="false" orientation="1,0" position="-123.35208,167.93833"></sodipodi:guide>
	<sodipodi:guide  id="guide167" inkscape:locked="false" orientation="1,0" position="-120.38188,167.93833"></sodipodi:guide>
	<sodipodi:guide  id="guide1" inkscape:locked="false" orientation="1,0" position="31.586791,226.17878"></sodipodi:guide>
	<sodipodi:guide  id="guide8" inkscape:locked="false" orientation="0,-1" position="43.971151,195.7299"></sodipodi:guide>
	<sodipodi:guide  id="guide13" inkscape:locked="false" orientation="0,-1" position="43.971151,185.25269"></sodipodi:guide>
</sodipodi:namedview>
<g>
	<polygon points="150.1,19.9 147.8,10.4 133.6,0.4 141.1,16 	"/>
	<polygon points="161.3,21 156.5,4.3 152.6,21.2 157.1,29.8 	"/>
	<polygon points="145.5,33.9 154.8,36.8 151.6,27.6 136.4,19.2 	"/>
	<polygon points="158.3,48.7 146.2,36.4 150.8,53.1 158.9,58.4 	"/>
	<polygon points="162,48.6 168,40.9 167.1,23.6 159.5,39.2 	"/>
	<polygon points="156.1,66.7 146.5,52.3 147.8,69.6 154.8,76.4 	"/>
	<polygon points="161.7,66.5 169.9,61.2 174.8,44.6 162.4,56.8 	"/>
	<polygon points="177.4,64.1 161.4,70.9 157.2,79.7 166.8,77.8 	"/>
	<polygon points="142.3,87.2 148.4,94.8 150.8,85.3 142.9,69.9 	"/>
	<polygon points="152.3,93.1 162,92.6 174.4,80.5 157.7,85 	"/>
	<polygon points="140.6,97 135.6,80.4 131.9,97.3 136.6,105.8 	"/>
	<polygon points="141.3,104.6 150.9,105.9 165.4,96.4 148.2,97.7 	"/>
	<polygon points="126.8,108 128.2,90.7 118.5,105.1 119.8,114.7 	"/>
	<polygon points="117,103 101.3,110.2 97.3,119.1 106.8,117 	"/>
	<polygon points="95.3,125.3 103,131.4 120.3,130.5 104.8,122.8 	"/>
	<polygon points="112.1,120.3 120.2,125.7 137.4,123.5 121.3,117.1 	"/>
	<polygon points="127.4,114.1 136.6,117.3 152.7,110.6 135.4,108.6 	"/>
	<polygon points="45.7,0.2 31.6,10.2 29.3,19.7 38.2,15.8 	"/>
	<polygon points="26.8,21 22.8,4.1 18,20.8 22.2,29.6 	"/>
	<polygon points="33.8,33.8 42.9,19 27.8,27.4 24.5,36.6 	"/>
	<polygon points="21,48.5 20.4,58.2 28.6,52.9 33.2,36.2 	"/>
	<polygon points="19.8,39 12.2,23.4 11.3,40.7 17.3,48.4 	"/>
	<polygon points="31.5,69.4 32.9,52.1 23.3,66.5 24.5,76.2 	"/>
	<polygon points="17.6,66.3 16.9,56.6 4.6,44.4 9.4,61 	"/>
	<polygon points="22.1,79.5 17.9,70.7 2,63.9 12.6,77.6 	"/>
	<polygon points="37.1,87 36.4,69.7 28.6,85.1 30.9,94.6 	"/>
	<polygon points="27.1,92.9 21.6,84.8 4.9,80.3 17.3,92.4 	"/>
	<polygon points="38.7,96.8 42.8,105.6 47.4,97.1 43.7,80.2 	"/>
	<polygon points="38,104.4 31.2,97.5 13.9,96.3 28.4,105.7 	"/>
	<polygon points="59.6,114.5 60.8,104.9 51.1,90.5 52.6,107.8 	"/>
	<polygon points="82,118.9 78,110 62.3,102.8 72.5,116.8 	"/>
	<polygon points="59,130.3 76.3,131.2 84,125.1 74.6,122.6 	"/>
	<polygon points="67.2,120.2 58,116.9 41.9,123.3 59.1,125.6 	"/>
	<polygon points="51.9,113.9 43.9,108.4 26.7,110.5 42.7,117.1 	"/>
	<rect x="85.5" y="117.2" transform="matrix(0.7071 -0.7071 0.7071 0.7071 -59.7027 99.3225)" width="9" height="9"/>
</g>
<g>
	<path d="M203.9,59c0.4-1.2,1-2.2,1.7-3.1c0.7-0.9,1.5-1.5,2.5-2c0.9-0.5,1.9-0.7,2.9-0.7c0.9,0,1.7,0.2,2.5,0.6
		c0.7,0.4,1.3,0.9,1.8,1.6c0.1,0.1,0.2,0.2,0.3,0.2s0.1-0.1,0.2-0.4l0.4-1.6c0-0.1,0.1-0.2,0.1-0.2c0,0,0.1,0,0.2,0h0.7
		c0.1,0,0.2,0,0.2,0.1c0,0,0,0.1,0,0.2v6c0,0.1,0,0.2-0.1,0.3c0,0-0.1,0.1-0.2,0.1h-0.8c-0.1,0-0.2,0-0.2-0.1c0-0.1,0-0.2-0.1-0.3
		c-0.1-0.8-0.4-1.6-0.8-2.3c-0.4-0.7-1-1.3-1.6-1.7c-0.7-0.4-1.4-0.7-2.3-0.7c-1.1,0-2,0.4-2.8,1c-0.8,0.7-1.3,1.7-1.7,2.9
		s-0.6,2.6-0.6,4.1c0,1.5,0.2,2.9,0.6,4.1c0.4,1.2,0.9,2.1,1.7,2.8c0.7,0.7,1.7,1,2.8,1c1,0,1.9-0.3,2.6-0.8
		c0.7-0.5,1.3-1.2,1.7-2.1s0.7-1.8,0.8-2.7c0-0.1,0-0.2,0.1-0.2c0,0,0.1-0.1,0.2-0.1h0.9c0.1,0,0.2,0,0.2,0c0,0,0.1,0.1,0,0.2
		c-0.1,1.4-0.4,2.7-1,3.8c-0.6,1.1-1.3,2-2.3,2.6c-1,0.6-2.1,1-3.5,1c-1.1,0-2.1-0.2-3-0.7c-0.9-0.5-1.7-1.1-2.4-2
		c-0.7-0.9-1.2-1.9-1.5-3.1c-0.4-1.2-0.5-2.5-0.5-3.9C203.3,61.4,203.5,60.2,203.9,59z"/>
	<path d="M219.9,62.4c0.4-1.1,0.9-1.9,1.6-2.5c0.7-0.6,1.6-0.9,2.7-0.9c1.1,0,2,0.3,2.7,0.9c0.7,0.6,1.3,1.4,1.6,2.4
		c0.4,1,0.5,2.1,0.5,3.2c0,1.3-0.2,2.5-0.5,3.6c-0.4,1.1-0.9,1.9-1.6,2.5c-0.7,0.6-1.6,0.9-2.7,0.9c-1.1,0-2-0.3-2.7-0.9
		c-0.7-0.6-1.3-1.4-1.6-2.4c-0.4-1-0.5-2.1-0.5-3.2C219.3,64.6,219.5,63.4,219.9,62.4z M222,68.3c0.1,0.9,0.4,1.6,0.7,2.1
		s0.9,0.8,1.6,0.8c0.5,0,0.9-0.1,1.3-0.4c0.3-0.3,0.6-0.7,0.8-1.2c0.2-0.5,0.3-1.1,0.4-1.7c0.1-0.6,0.1-1.2,0.1-1.9
		c0-1-0.1-1.9-0.2-2.8c-0.1-0.9-0.4-1.6-0.7-2.1c-0.4-0.5-0.9-0.8-1.6-0.8c-0.5,0-0.9,0.2-1.2,0.5c-0.3,0.3-0.6,0.7-0.8,1.2
		c-0.2,0.5-0.3,1.1-0.4,1.7c-0.1,0.6-0.1,1.2-0.1,1.9C221.8,66.5,221.8,67.4,222,68.3z"/>
	<path d="M230.8,60.8c-0.1,0-0.2,0-0.2-0.1c0-0.1,0-0.1,0-0.3v-0.9c0-0.1,0-0.2,0.1-0.3c0-0.1,0.1-0.1,0.2-0.1h3.3
		c0.1,0,0.2,0,0.3,0.1c0.1,0.1,0.1,0.2,0.1,0.3V61c0,0.3,0,0.5,0.1,0.5c0,0,0.1-0.1,0.2-0.2c0.3-0.6,0.8-1.2,1.3-1.6
		c0.5-0.4,1.3-0.7,2.1-0.7c0.8,0,1.5,0.2,2,0.5c0.5,0.3,0.8,0.8,1,1.4c0.2,0.6,0.3,1.3,0.3,2.2v7.1c0,0.2,0,0.4,0.1,0.4
		c0,0.1,0.1,0.1,0.3,0.1h1.1c0.1,0,0.2,0,0.2,0.1c0,0.1,0,0.2,0,0.3v0.8c0,0.2,0,0.3-0.1,0.3s-0.1,0-0.3,0h-5c-0.1,0-0.2,0-0.2-0.1
		c0-0.1,0-0.2,0-0.3V71c0-0.1,0-0.2,0-0.3c0-0.1,0.1-0.1,0.2-0.1h1c0.2,0,0.3,0,0.3-0.1c0.1-0.1,0.1-0.2,0.1-0.4v-6.9
		c0-0.9-0.1-1.6-0.4-2c-0.3-0.5-0.7-0.7-1.3-0.7c-0.6,0-1.1,0.2-1.6,0.6s-0.8,1-1.1,1.6c-0.2,0.7-0.4,1.5-0.4,2.3v5
		c0,0.2,0,0.3,0.1,0.4c0.1,0.1,0.2,0.1,0.3,0.1h0.9c0.1,0,0.2,0,0.3,0.1c0.1,0.1,0.1,0.2,0.1,0.4v0.7c0,0.2,0,0.3-0.1,0.3
		c0,0-0.1,0.1-0.2,0.1h-5c-0.1,0-0.2,0-0.2-0.1c0-0.1,0-0.2,0-0.3v-0.7c0-0.2,0-0.3,0.1-0.3c0.1,0,0.1-0.1,0.3-0.1h1.1
		c0.1,0,0.2,0,0.3-0.1s0.1-0.1,0.1-0.3V61c0-0.1,0-0.2-0.1-0.2c0,0-0.1,0-0.2,0H230.8z"/>
	<path d="M244.5,62.4c0.4-1.1,0.9-1.9,1.6-2.5c0.7-0.6,1.6-0.9,2.7-0.9c1.1,0,2,0.3,2.7,0.9c0.7,0.6,1.3,1.4,1.6,2.4
		c0.4,1,0.5,2.1,0.5,3.2c0,1.3-0.2,2.5-0.5,3.6c-0.4,1.1-0.9,1.9-1.6,2.5c-0.7,0.6-1.6,0.9-2.7,0.9c-1.1,0-2-0.3-2.7-0.9
		c-0.7-0.6-1.3-1.4-1.6-2.4c-0.4-1-0.5-2.1-0.5-3.2C244,64.6,244.2,63.4,244.5,62.4z M246.6,68.3c0.1,0.9,0.4,1.6,0.7,2.1
		s0.9,0.8,1.6,0.8c0.5,0,0.9-0.1,1.3-0.4c0.3-0.3,0.6-0.7,0.8-1.2c0.2-0.5,0.3-1.1,0.4-1.7c0.1-0.6,0.1-1.2,0.1-1.9
		c0-1-0.1-1.9-0.2-2.8c-0.1-0.9-0.4-1.6-0.7-2.1c-0.4-0.5-0.9-0.8-1.6-0.8c-0.5,0-0.9,0.2-1.2,0.5c-0.3,0.3-0.6,0.7-0.8,1.2
		c-0.2,0.5-0.3,1.1-0.4,1.7c-0.1,0.6-0.1,1.2-0.1,1.9C246.4,66.5,246.5,67.4,246.6,68.3z"/>
	<path d="M255.9,63.1c0.2-0.8,0.6-1.5,1-2.2c0.4-0.6,1-1.1,1.6-1.5c0.6-0.4,1.4-0.5,2.2-0.5c0.9,0,1.6,0.2,2.2,0.5
		c0.6,0.3,1.1,0.8,1.4,1.4c0.3,0.6,0.5,1.2,0.5,1.9c0,0.6-0.2,1.1-0.5,1.4c-0.3,0.3-0.6,0.4-1,0.4c-0.3,0-0.6-0.1-0.9-0.4
		S262,63.5,262,63c0-0.3,0.1-0.6,0.2-0.7c0.1-0.2,0.2-0.3,0.3-0.5s0.2-0.3,0.2-0.5c0-0.3-0.2-0.6-0.5-0.8c-0.3-0.2-0.8-0.3-1.3-0.3
		c-0.7,0-1.2,0.3-1.7,0.8c-0.4,0.5-0.8,1.2-1,2s-0.3,1.7-0.3,2.7c0,0.9,0.1,1.8,0.3,2.6c0.2,0.8,0.5,1.5,0.9,2
		c0.4,0.5,0.9,0.8,1.6,0.8c0.8,0,1.4-0.3,1.9-0.8c0.5-0.5,0.9-1.3,1.1-2.1c0-0.1,0.1-0.2,0.1-0.2c0,0,0.1-0.1,0.2-0.1h0.8
		c0.1,0,0.2,0,0.2,0c0,0,0,0.1,0,0.2c-0.2,0.9-0.5,1.6-0.9,2.3s-0.9,1.2-1.4,1.5c-0.6,0.4-1.3,0.5-2.1,0.5c-1.2,0-2.1-0.3-2.9-0.9
		c-0.7-0.6-1.3-1.4-1.7-2.5c-0.4-1-0.5-2.2-0.5-3.4C255.5,64.8,255.6,63.9,255.9,63.1z"/>
	<path d="M267.1,62.4c0.4-1.1,0.9-1.9,1.7-2.5s1.7-0.9,2.8-0.9c0.7,0,1.3,0.1,1.8,0.4c0.5,0.3,0.9,0.6,1.3,1.1
		c0.3,0.4,0.6,1,0.8,1.5s0.4,1.1,0.4,1.8s0.1,1.2,0.1,1.8c0,0.2,0,0.3-0.1,0.3c0,0-0.1,0.1-0.3,0.1h-6.4c-0.1,0-0.2,0-0.2,0.1
		s-0.1,0.1-0.1,0.3c0,0.9,0.1,1.7,0.3,2.4s0.5,1.4,0.9,1.8s0.9,0.7,1.6,0.7c0.8,0,1.4-0.3,1.9-0.8c0.5-0.5,0.9-1.2,1.1-2.1
		c0-0.1,0.1-0.2,0.1-0.2c0-0.1,0.1-0.1,0.2-0.1h0.8c0.1,0,0.2,0,0.2,0.1c0,0,0,0.1,0,0.2c-0.2,0.9-0.5,1.6-0.9,2.3s-0.9,1.2-1.5,1.5
		c-0.6,0.4-1.3,0.5-2.2,0.5c-1,0-1.9-0.3-2.6-0.9c-0.7-0.6-1.3-1.4-1.6-2.4c-0.4-1-0.6-2.1-0.6-3.2
		C266.6,64.6,266.8,63.4,267.1,62.4z M273.4,64.5c0.1,0,0.2,0,0.2,0c0,0,0-0.1,0-0.2c0-0.4,0-0.8-0.1-1.3c-0.1-0.5-0.2-0.9-0.4-1.3
		s-0.4-0.8-0.7-1c-0.3-0.3-0.6-0.4-1-0.4c-0.6,0-1,0.2-1.4,0.6c-0.4,0.4-0.7,0.9-0.8,1.5c-0.2,0.6-0.3,1.2-0.3,1.8
		c0,0.1,0,0.2,0,0.3c0,0,0.1,0.1,0.2,0.1H273.4z"/>
	<path d="M279.1,60.9c0-0.1-0.1-0.1-0.3-0.1h-1.1c-0.1,0-0.2,0-0.3-0.1s0-0.2,0-0.4v-0.6c0-0.2,0-0.3,0.1-0.4c0-0.1,0.1-0.1,0.3-0.1
		h3.2c0.1,0,0.2,0,0.3,0.1c0.1,0,0.1,0.1,0.1,0.3v1.3c0,0.2,0,0.3,0,0.4c0,0,0.1-0.1,0.2-0.3c0.3-0.6,0.6-1.1,1-1.4
		c0.4-0.4,1-0.6,1.7-0.6c0.6,0,1.1,0.2,1.6,0.7c0.5,0.4,0.7,1,0.7,1.8c0,0.4-0.1,0.7-0.2,1c-0.1,0.3-0.3,0.6-0.5,0.8
		c-0.2,0.2-0.5,0.3-0.7,0.3c-0.4,0-0.7-0.1-1-0.4s-0.4-0.6-0.4-1c0-0.3,0-0.6,0.1-0.7c0.1-0.2,0.2-0.3,0.2-0.4
		c0.1-0.1,0.1-0.2,0.1-0.3c0-0.1,0-0.2-0.1-0.3c-0.1-0.1-0.2-0.1-0.4-0.1c-0.4,0-0.8,0.2-1.2,0.7c-0.4,0.5-0.6,1.1-0.8,1.8
		c-0.2,0.7-0.3,1.5-0.3,2.4v5c0,0.2,0,0.3,0,0.4c0,0.1,0.1,0.1,0.3,0.1h1.2c0.1,0,0.2,0,0.2,0.1s0,0.2,0,0.3v0.7c0,0.2,0,0.3,0,0.3
		c0,0.1-0.1,0.1-0.2,0.1h-5.1c-0.1,0-0.2,0-0.2,0s-0.1-0.1-0.1-0.2V71c0-0.1,0-0.2,0.1-0.3c0,0,0.1-0.1,0.2-0.1h1.1
		c0.2,0,0.3,0,0.3-0.1c0.1-0.1,0.1-0.2,0.1-0.4v-9C279.1,61,279.1,60.9,279.1,60.9z"/>
	<path d="M292.9,74.3c0.1-0.3,0.3-0.6,0.5-0.8s0.5-0.3,0.7-0.3c0.3,0,0.6,0.1,0.8,0.4c0.2,0.2,0.3,0.6,0.3,1c0,0.2,0,0.4-0.1,0.6
		s-0.1,0.3-0.2,0.3c-0.1,0.1-0.2,0.2-0.3,0.2s-0.2,0.1-0.2,0.2s-0.1,0.2-0.1,0.3c0,0.3,0.1,0.5,0.3,0.7c0.2,0.2,0.4,0.3,0.8,0.3
		c0.3,0,0.5-0.1,0.9-0.3s0.6-0.6,1-1.1c0.3-0.5,0.6-1.3,0.9-2.2l0.2-0.7c0.1-0.3,0.1-0.5,0.1-0.6c0-0.1-0.1-0.3-0.1-0.6l-3.9-10.6
		c-0.1-0.2-0.1-0.3-0.2-0.4c0-0.1-0.2-0.1-0.4-0.1H293c-0.1,0-0.2,0-0.3-0.1c0-0.1-0.1-0.2-0.1-0.3v-0.9c0-0.1,0-0.2,0.1-0.2
		c0,0,0.1,0,0.2,0h5c0.2,0,0.3,0,0.3,0.1c0,0.1,0.1,0.2,0.1,0.4v0.5c0,0.2,0,0.4-0.1,0.5c0,0.1-0.2,0.1-0.4,0.1H297
		c-0.2,0-0.3,0-0.4,0.1c0,0,0,0.1,0,0.3l2.5,7c0.1,0.3,0.2,0.5,0.2,0.6c0.1,0.2,0.1,0.2,0.1,0.2c0.1,0,0.1-0.1,0.2-0.2
		c0-0.2,0.1-0.4,0.2-0.7l2.2-6.9c0.1-0.2,0.1-0.3,0-0.3s-0.2-0.1-0.4-0.1h-0.7c-0.1,0-0.2,0-0.3-0.1c0-0.1-0.1-0.2-0.1-0.4v-0.6
		c0-0.2,0-0.4,0.1-0.4c0.1-0.1,0.2-0.1,0.3-0.1h3.7c0.1,0,0.2,0,0.2,0c0.1,0,0.1,0.1,0.1,0.3v0.7c0,0.2,0,0.3,0,0.4
		c0,0.1-0.1,0.1-0.3,0.1h-0.8c-0.2,0-0.4,0-0.4,0.1c0,0.1-0.1,0.2-0.2,0.4l-4.3,13.3c-0.3,1.1-0.7,1.9-1.2,2.5
		c-0.4,0.6-0.9,1-1.3,1.2c-0.5,0.2-0.9,0.3-1.3,0.3c-0.5,0-1-0.2-1.4-0.5c-0.4-0.3-0.7-0.7-0.9-1.2c-0.2-0.5-0.3-1.1-0.3-1.6
		C292.7,75,292.8,74.6,292.9,74.3z"/>
	<path d="M315.3,71c0-0.2,0-0.3,0.1-0.4c0.1,0,0.2-0.1,0.3-0.1h1.6c0.2,0,0.4,0,0.5-0.1c0.1-0.1,0.1-0.3,0.1-0.6V55.5
		c0-0.2,0-0.4-0.1-0.4c-0.1-0.1-0.2-0.1-0.3-0.1h-0.8c-0.8,0-1.5,0.1-2,0.4c-0.5,0.3-0.8,0.7-1,1.4s-0.3,1.6-0.3,2.7
		c0,0.2,0,0.3-0.1,0.4s-0.2,0.1-0.3,0.1h-0.4c-0.2,0-0.3-0.1-0.3-0.2c0-0.1-0.1-0.3-0.1-0.5v-5.3c0-0.3,0-0.5,0.1-0.6
		c0-0.1,0.2-0.1,0.4-0.1h12.8c0.2,0,0.3,0,0.3,0.1s0.1,0.2,0.1,0.5v5.6c0,0.2,0,0.3-0.1,0.4s-0.2,0.1-0.3,0.1H325
		c-0.2,0-0.3,0-0.4-0.1c0-0.1-0.1-0.2-0.1-0.5c0-1.1-0.1-2-0.3-2.7c-0.2-0.6-0.5-1.1-1-1.4c-0.5-0.3-1.1-0.4-2-0.4h-0.9
		c-0.2,0-0.3,0-0.3,0.1c0,0.1-0.1,0.2-0.1,0.4v14.3c0,0.3,0,0.5,0.1,0.6c0.1,0.1,0.2,0.1,0.5,0.1h1.6c0.2,0,0.3,0,0.4,0.1
		c0,0.1,0.1,0.2,0.1,0.5v0.5c0,0.3,0,0.4-0.1,0.5c-0.1,0.1-0.2,0.1-0.4,0.1h-6.3c-0.2,0-0.3,0-0.4-0.1c-0.1-0.1-0.1-0.2-0.1-0.4V71z
		"/>
	<path d="M328.5,60.9c0-0.1-0.1-0.1-0.3-0.1h-1.1c-0.1,0-0.2,0-0.3-0.1c0-0.1,0-0.2,0-0.4v-0.6c0-0.2,0-0.3,0.1-0.4
		c0-0.1,0.1-0.1,0.3-0.1h3.2c0.1,0,0.2,0,0.3,0.1c0.1,0,0.1,0.1,0.1,0.3v1.3c0,0.2,0,0.3,0,0.4c0,0,0.1-0.1,0.2-0.3
		c0.3-0.6,0.6-1.1,1-1.4c0.4-0.4,1-0.6,1.7-0.6c0.6,0,1.1,0.2,1.6,0.7c0.5,0.4,0.7,1,0.7,1.8c0,0.4-0.1,0.7-0.2,1
		c-0.1,0.3-0.3,0.6-0.5,0.8s-0.5,0.3-0.7,0.3c-0.4,0-0.7-0.1-1-0.4c-0.3-0.3-0.4-0.6-0.4-1c0-0.3,0-0.6,0.1-0.7
		c0.1-0.2,0.2-0.3,0.2-0.4c0.1-0.1,0.1-0.2,0.1-0.3c0-0.1,0-0.2-0.1-0.3s-0.2-0.1-0.4-0.1c-0.4,0-0.8,0.2-1.2,0.7
		c-0.4,0.5-0.6,1.1-0.8,1.8s-0.3,1.5-0.3,2.4v5c0,0.2,0,0.3,0,0.4c0,0.1,0.1,0.1,0.3,0.1h1.2c0.1,0,0.2,0,0.2,0.1c0,0.1,0,0.2,0,0.3
		v0.7c0,0.2,0,0.3,0,0.3c0,0.1-0.1,0.1-0.2,0.1h-5.1c-0.1,0-0.2,0-0.2,0s-0.1-0.1-0.1-0.2V71c0-0.1,0-0.2,0.1-0.3s0.1-0.1,0.2-0.1
		h1.1c0.2,0,0.3,0,0.3-0.1c0.1-0.1,0.1-0.2,0.1-0.4v-9C328.6,61,328.5,60.9,328.5,60.9z"/>
	<path d="M337.1,60.8c-0.1,0-0.2,0-0.2-0.1c0,0,0-0.1,0-0.2v-0.9c0-0.2,0.1-0.3,0.2-0.3h3.5c0.1,0,0.1,0,0.2,0c0,0,0,0.1,0,0.2v10.9
		c0,0.1,0,0.2,0,0.2c0,0,0.1,0.1,0.2,0.1h1.3c0.1,0,0.2,0,0.2,0c0,0,0,0.1,0,0.2v1c0,0.1,0,0.2,0,0.2s-0.1,0.1-0.2,0.1h-5.2
		c-0.1,0-0.2,0-0.2,0c0,0-0.1-0.1-0.1-0.2V71c0-0.2,0-0.3,0.1-0.3c0,0,0.1-0.1,0.2-0.1h1.2c0.1,0,0.2,0,0.2-0.1c0,0,0-0.1,0-0.3
		v-9.3c0-0.2-0.1-0.3-0.2-0.3H337.1z M338.7,53.6c0.3-0.3,0.6-0.5,1-0.5s0.7,0.2,1,0.5c0.3,0.3,0.4,0.7,0.4,1.2
		c0,0.5-0.1,0.9-0.4,1.2c-0.3,0.3-0.6,0.5-1,0.5s-0.7-0.2-1-0.5c-0.3-0.3-0.4-0.7-0.4-1.2C338.3,54.3,338.4,53.9,338.7,53.6z"/>
	<path d="M344.9,61.2c0-0.2,0-0.3,0-0.3c0-0.1-0.1-0.1-0.2-0.1h-1.2c-0.1,0-0.2,0-0.3-0.1c-0.1,0-0.1-0.1-0.1-0.3v-0.7
		c0-0.2,0-0.3,0.1-0.4c0-0.1,0.1-0.1,0.3-0.1h3.2c0.2,0,0.3,0,0.3,0.1s0.1,0.2,0.1,0.3v8.5c0,0.9,0.1,1.6,0.4,2.1s0.7,0.8,1.3,0.8
		c0.6,0,1.1-0.2,1.6-0.7s0.8-1,1.1-1.8c0.3-0.7,0.4-1.5,0.4-2.4v-5.1c0-0.2,0-0.3-0.1-0.4c-0.1,0-0.2-0.1-0.3-0.1h-1
		c-0.1,0-0.2,0-0.2,0s-0.1-0.1-0.1-0.2v-0.9c0-0.1,0-0.2,0-0.3c0-0.1,0.1-0.1,0.2-0.1h3.4c0.1,0,0.2,0,0.2,0.1c0,0.1,0,0.2,0,0.3
		v10.6c0,0.2,0,0.3,0.1,0.4s0.1,0.1,0.3,0.1h1.1c0.1,0,0.2,0,0.2,0.1c0.1,0,0.1,0.1,0.1,0.3v0.8c0,0.2,0,0.3,0,0.3
		c0,0.1-0.1,0.1-0.2,0.1h-3.2c-0.2,0-0.2,0-0.3-0.1s-0.1-0.2-0.1-0.4v-1.4c0-0.1,0-0.2-0.1-0.2c0,0-0.1,0-0.2,0.2
		c-0.3,0.7-0.7,1.2-1.3,1.6c-0.5,0.4-1.2,0.6-2.1,0.6c-0.8,0-1.5-0.2-2-0.5c-0.5-0.3-0.8-0.8-1-1.4c-0.2-0.6-0.3-1.3-0.3-2.2V61.2z"
		/>
	<path d="M357.1,60.8c-0.1,0-0.2,0-0.2-0.1c0-0.1,0-0.1,0-0.3v-0.9c0-0.1,0-0.2,0.1-0.3c0-0.1,0.1-0.1,0.2-0.1h3.3
		c0.1,0,0.2,0,0.3,0.1c0.1,0.1,0.1,0.2,0.1,0.3V61c0,0.3,0,0.5,0.1,0.5c0,0,0.1-0.1,0.2-0.2c0.3-0.6,0.8-1.2,1.3-1.6
		c0.5-0.4,1.3-0.7,2.1-0.7c0.8,0,1.5,0.2,2,0.5s0.8,0.8,1,1.4c0.2,0.6,0.3,1.3,0.3,2.2v7.1c0,0.2,0,0.4,0.1,0.4
		c0,0.1,0.1,0.1,0.3,0.1h1.1c0.1,0,0.2,0,0.2,0.1c0,0.1,0,0.2,0,0.3v0.8c0,0.2,0,0.3-0.1,0.3s-0.1,0-0.3,0h-5c-0.1,0-0.2,0-0.2-0.1
		s0-0.2,0-0.3V71c0-0.1,0-0.2,0-0.3c0-0.1,0.1-0.1,0.2-0.1h1c0.2,0,0.3,0,0.3-0.1c0.1-0.1,0.1-0.2,0.1-0.4v-6.9c0-0.9-0.1-1.6-0.4-2
		c-0.3-0.5-0.7-0.7-1.3-0.7c-0.6,0-1.1,0.2-1.6,0.6c-0.5,0.4-0.8,1-1.1,1.6c-0.2,0.7-0.4,1.5-0.4,2.3v5c0,0.2,0,0.3,0.1,0.4
		c0.1,0.1,0.2,0.1,0.3,0.1h0.9c0.1,0,0.2,0,0.3,0.1c0,0.1,0.1,0.2,0.1,0.4v0.7c0,0.2,0,0.3-0.1,0.3s-0.1,0.1-0.2,0.1h-5
		c-0.1,0-0.2,0-0.2-0.1c0-0.1,0-0.2,0-0.3v-0.7c0-0.2,0-0.3,0.1-0.3c0.1,0,0.1-0.1,0.3-0.1h1.1c0.1,0,0.2,0,0.3-0.1s0.1-0.1,0.1-0.3
		V61c0-0.1,0-0.2-0.1-0.2s-0.1,0-0.2,0H357.1z"/>
	<path d="M374.1,70.2c0,0.2,0,0.3,0,0.4s0.1,0.1,0.3,0.1h1.6c0.1,0,0.2,0,0.3,0c0.1,0,0.1,0.1,0.1,0.3v0.8c0,0.2,0,0.3-0.1,0.3
		c0,0-0.1,0.1-0.3,0.1h-5.7c-0.1,0-0.2,0-0.2-0.1c0,0,0-0.1,0-0.3V71c0-0.1,0-0.2,0.1-0.3c0,0,0.1-0.1,0.2-0.1h1.2
		c0.1,0,0.2,0,0.2-0.1s0-0.1,0-0.3v-9.1c0-0.2,0-0.3,0-0.3s-0.1-0.1-0.2-0.1h-1.3c-0.1,0-0.2,0-0.2,0c0,0-0.1-0.1-0.1-0.3v-0.9
		c0-0.1,0-0.2,0.1-0.3c0,0,0.1-0.1,0.2-0.1h1.2c0.1,0,0.2,0,0.2-0.1c0,0,0-0.1,0-0.3v-0.9c0-1.1,0.2-2,0.5-2.8s0.8-1.5,1.4-1.9
		s1.4-0.7,2.3-0.7c0.7,0,1.4,0.1,1.9,0.4c0.5,0.3,0.9,0.6,1.2,1.1c0.3,0.4,0.4,0.9,0.4,1.4c0,0.6-0.1,1.1-0.4,1.4
		c-0.3,0.3-0.6,0.5-1,0.5c-0.4,0-0.7-0.1-1-0.4c-0.2-0.3-0.4-0.6-0.4-1c0-0.3,0-0.5,0.1-0.6s0.2-0.3,0.2-0.4
		c0.1-0.1,0.1-0.3,0.1-0.4c0-0.1-0.1-0.3-0.3-0.4c-0.2-0.1-0.5-0.2-1-0.2c-0.5,0-0.9,0.2-1.2,0.5c-0.3,0.3-0.5,0.9-0.7,1.6
		c-0.1,0.7-0.2,1.6-0.2,2.7v0.4c0,0.1,0,0.2,0,0.3c0,0,0.1,0.1,0.2,0.1h2.1c0.1,0,0.2,0,0.3,0.1c0,0,0.1,0.1,0.1,0.3v0.8
		c0,0.2,0,0.3,0,0.3c0,0-0.1,0.1-0.3,0.1h-2.1c-0.1,0-0.2,0-0.2,0.1c0,0.1,0,0.2,0,0.3V70.2z"/>
	<path d="M378.7,66.9c0.4-0.7,1-1.2,1.8-1.6c0.8-0.4,1.7-0.6,2.9-0.6h0.9c0.1,0,0.2,0,0.2,0c0,0,0-0.1,0-0.3V63c0-0.5-0.1-1-0.2-1.4
		s-0.3-0.8-0.6-1c-0.3-0.2-0.7-0.4-1.2-0.4c-0.3,0-0.6,0-0.9,0.1c-0.3,0.1-0.5,0.2-0.7,0.3c-0.2,0.1-0.3,0.3-0.3,0.4
		c0,0.1,0,0.2,0.1,0.3c0.1,0.1,0.2,0.2,0.3,0.3c0.1,0.1,0.1,0.4,0.1,0.7c0,0.5-0.1,0.8-0.3,1.1S380.4,64,380,64
		c-0.3,0-0.7-0.1-0.9-0.3c-0.3-0.2-0.4-0.6-0.4-1.2c0-0.6,0.1-1.1,0.4-1.5c0.3-0.4,0.6-0.8,1-1.1s0.9-0.5,1.4-0.7
		c0.5-0.1,1.1-0.2,1.6-0.2c0.9,0,1.6,0.2,2.2,0.5c0.5,0.4,0.9,0.9,1.1,1.5c0.2,0.6,0.3,1.3,0.3,2v7.2c0,0.2,0.1,0.4,0.2,0.5
		c0.1,0.1,0.2,0.2,0.4,0.2s0.3,0,0.4-0.1c0.2-0.1,0.3-0.3,0.5-0.7c0.1-0.1,0.1-0.2,0.2-0.1l0.5,0.4c0.1,0.1,0.1,0.2,0.1,0.3
		c-0.2,0.4-0.3,0.7-0.6,0.9s-0.5,0.5-0.8,0.6c-0.3,0.1-0.6,0.2-0.9,0.2h0c-0.5,0-0.9-0.1-1.1-0.3c-0.3-0.2-0.4-0.4-0.5-0.7
		c-0.1-0.3-0.2-0.5-0.2-0.7c0-0.2-0.1-0.2-0.1-0.2s-0.1,0.1-0.2,0.2c-0.1,0.2-0.3,0.4-0.5,0.7c-0.2,0.3-0.6,0.5-1,0.7
		s-1,0.3-1.6,0.3c-0.9,0-1.7-0.3-2.3-0.9c-0.6-0.6-0.9-1.4-0.9-2.5C378.1,68.3,378.3,67.6,378.7,66.9z M381.1,70.4
		c0.4,0.3,0.8,0.5,1.3,0.5c0.6,0,1.2-0.3,1.6-0.9c0.4-0.6,0.6-1.4,0.6-2.5v-1.3c0-0.2-0.1-0.2-0.2-0.2h-0.9c-0.7,0-1.3,0.1-1.7,0.4
		c-0.4,0.2-0.7,0.6-0.9,1c-0.2,0.4-0.3,1-0.3,1.5C380.5,69.5,380.7,70,381.1,70.4z"/>
	<path d="M391.1,60.9c0-0.1-0.1-0.1-0.3-0.1h-1.1c-0.1,0-0.2,0-0.3-0.1s0-0.2,0-0.4v-0.6c0-0.2,0-0.3,0.1-0.4c0-0.1,0.1-0.1,0.3-0.1
		h3.2c0.1,0,0.2,0,0.3,0.1c0.1,0,0.1,0.1,0.1,0.3v1.3c0,0.2,0,0.3,0,0.4c0,0,0.1-0.1,0.2-0.3c0.3-0.6,0.6-1.1,1-1.4
		c0.4-0.4,1-0.6,1.7-0.6c0.6,0,1.1,0.2,1.6,0.7c0.5,0.4,0.7,1,0.7,1.8c0,0.4-0.1,0.7-0.2,1c-0.1,0.3-0.3,0.6-0.5,0.8
		c-0.2,0.2-0.5,0.3-0.7,0.3c-0.4,0-0.7-0.1-1-0.4s-0.4-0.6-0.4-1c0-0.3,0-0.6,0.1-0.7c0.1-0.2,0.2-0.3,0.2-0.4
		c0.1-0.1,0.1-0.2,0.1-0.3c0-0.1,0-0.2-0.1-0.3c-0.1-0.1-0.2-0.1-0.4-0.1c-0.4,0-0.8,0.2-1.2,0.7c-0.4,0.5-0.6,1.1-0.8,1.8
		c-0.2,0.7-0.3,1.5-0.3,2.4v5c0,0.2,0,0.3,0,0.4c0,0.1,0.1,0.1,0.3,0.1h1.2c0.1,0,0.2,0,0.2,0.1s0,0.2,0,0.3v0.7c0,0.2,0,0.3,0,0.3
		c0,0.1-0.1,0.1-0.2,0.1h-5.1c-0.1,0-0.2,0-0.2,0s-0.1-0.1-0.1-0.2V71c0-0.1,0-0.2,0.1-0.3c0,0,0.1-0.1,0.2-0.1h1.1
		c0.2,0,0.3,0,0.3-0.1c0.1-0.1,0.1-0.2,0.1-0.4v-9C391.2,61,391.2,60.9,391.1,60.9z"/>
</g>
<g>
	<path d="M59.7,52.5c0.5-1.6,1.2-2.9,2.1-4c0.9-1.1,1.9-2,3.1-2.6c1.2-0.6,2.4-0.9,3.7-0.9c1.2,0,2.3,0.3,3.3,0.9
		c1,0.6,1.8,1.3,2.4,2.2c0.1,0.2,0.2,0.3,0.3,0.2c0.1,0,0.1-0.2,0.2-0.5l0.5-2.4c0-0.1,0-0.2,0.1-0.2c0,0,0.1-0.1,0.2-0.1h0.7
		c0.1,0,0.2,0,0.2,0.1c0,0,0,0.1,0,0.3v7.8c0,0.2,0,0.3-0.1,0.3c-0.1,0.1-0.2,0.1-0.3,0.1h-0.8c-0.2,0-0.2,0-0.3-0.1
		c0-0.1,0-0.2-0.1-0.4c-0.1-1.1-0.5-2.1-1.1-3.1c-0.6-1-1.3-1.8-2.2-2.4c-0.9-0.6-1.9-0.9-3.1-0.9c-1.5,0-2.7,0.5-3.8,1.4
		c-1,1-1.8,2.3-2.3,3.9c-0.5,1.6-0.8,3.5-0.8,5.5s0.2,3.8,0.7,5.4c0.5,1.6,1.2,2.9,2.2,3.9c1,1,2.2,1.4,3.7,1.4
		c1.4,0,2.6-0.4,3.5-1.1c1-0.8,1.8-1.7,2.3-2.9c0.6-1.2,0.9-2.5,1-3.8c0-0.1,0-0.2,0.1-0.2c0,0,0.1-0.1,0.2-0.1h0.9
		c0.1,0,0.2,0,0.2,0c0,0,0.1,0.1,0.1,0.2c-0.1,1.9-0.5,3.5-1.2,5C74.9,67,74,68.1,72.7,69c-1.2,0.9-2.7,1.3-4.4,1.3
		c-1.4,0-2.6-0.3-3.8-0.9c-1.1-0.6-2.1-1.5-3-2.6s-1.5-2.5-1.9-4c-0.5-1.6-0.7-3.2-0.7-5.1C58.9,55.7,59.2,54,59.7,52.5z"/>
	<path d="M104.3,68.7c0-0.3,0-0.4,0.1-0.5c0.1-0.1,0.2-0.1,0.4-0.1h2.1c0.3,0,0.5,0,0.6-0.1c0.1-0.1,0.1-0.4,0.1-0.8V47.6
		c0-0.3,0-0.5-0.1-0.6c-0.1-0.1-0.2-0.1-0.5-0.1h-1.2c-1.1,0-2,0.2-2.6,0.6c-0.6,0.4-1.1,1-1.3,1.9c-0.3,0.9-0.4,2.1-0.4,3.7
		c0,0.3,0,0.4-0.1,0.5c0,0.1-0.2,0.1-0.4,0.1h-0.4c-0.2,0-0.3-0.1-0.4-0.2c0-0.2-0.1-0.4-0.1-0.6v-6.7c0-0.4,0-0.6,0.1-0.7
		c0.1-0.1,0.2-0.1,0.5-0.1H117c0.2,0,0.4,0,0.5,0.1c0.1,0.1,0.1,0.3,0.1,0.6v7.1c0,0.2,0,0.4-0.1,0.4c-0.1,0-0.2,0.1-0.4,0.1h-0.3
		c-0.2,0-0.4-0.1-0.4-0.2c0-0.1-0.1-0.3-0.1-0.6c0-1.5-0.2-2.7-0.4-3.6c-0.3-0.9-0.7-1.5-1.3-1.8c-0.6-0.4-1.5-0.5-2.6-0.5h-1.3
		c-0.2,0-0.4,0-0.4,0.1c-0.1,0.1-0.1,0.3-0.1,0.6v19.6c0,0.4,0,0.7,0.1,0.8c0.1,0.1,0.3,0.2,0.6,0.2h2.1c0.3,0,0.4,0,0.5,0.1
		c0.1,0.1,0.1,0.3,0.1,0.7v0.3c0,0.3-0.1,0.5-0.2,0.6s-0.3,0.1-0.5,0.1h-7.8c-0.2,0-0.4,0-0.5-0.1c-0.1-0.1-0.1-0.3-0.1-0.6V68.7z"
		/>
	<path d="M79.8,77.3c0.2-0.4,0.5-0.8,0.9-1c0.4-0.2,0.8-0.4,1.2-0.4c0.5,0,1,0.2,1.4,0.5s0.5,0.8,0.5,1.4c0,0.3-0.1,0.6-0.2,0.8
		s-0.2,0.3-0.4,0.4c-0.2,0.1-0.3,0.2-0.5,0.3s-0.3,0.2-0.4,0.3c-0.1,0.1-0.2,0.2-0.2,0.4c0,0.4,0.2,0.7,0.5,0.9
		c0.3,0.3,0.7,0.4,1.3,0.4c0.4,0,0.9-0.1,1.4-0.4c0.5-0.3,1-0.7,1.6-1.4c0.5-0.7,1.1-1.7,1.6-2.9l0.4-0.9c0.1-0.3,0.2-0.6,0.2-0.8
		s-0.1-0.4-0.2-0.8l-6.4-14c-0.1-0.2-0.2-0.4-0.3-0.5c-0.1-0.1-0.3-0.1-0.6-0.1h-1.4c-0.2,0-0.4,0-0.5-0.1c-0.1-0.1-0.1-0.2-0.1-0.5
		v-1.1c0-0.2,0-0.2,0.1-0.3c0.1,0,0.2-0.1,0.3-0.1h8.3c0.3,0,0.4,0,0.5,0.1c0.1,0.1,0.1,0.3,0.1,0.6v0.6c0,0.3,0,0.5-0.1,0.6
		c-0.1,0.1-0.3,0.1-0.6,0.1h-1.5c-0.3,0-0.5,0-0.6,0.1c-0.1,0-0.1,0.2,0,0.4l4.1,9.2c0.2,0.4,0.3,0.6,0.4,0.8s0.2,0.3,0.2,0.3
		c0.1,0,0.2-0.1,0.3-0.3c0.1-0.2,0.2-0.5,0.3-0.9l3.6-9c0.1-0.2,0.1-0.4,0-0.5c-0.1-0.1-0.3-0.1-0.6-0.1h-1.1c-0.2,0-0.4,0-0.5-0.1
		c-0.1-0.1-0.1-0.2-0.1-0.5v-0.8c0-0.3,0-0.5,0.1-0.6s0.3-0.1,0.5-0.1h6.1c0.2,0,0.3,0,0.4,0.1c0.1,0,0.1,0.2,0.1,0.3v1
		c0,0.2,0,0.4-0.1,0.5c-0.1,0.1-0.2,0.2-0.5,0.2h-1.3c-0.4,0-0.6,0.1-0.7,0.2c-0.1,0.1-0.2,0.3-0.3,0.6l-7.1,17.6
		c-0.6,1.4-1.2,2.5-1.9,3.3c-0.7,0.8-1.5,1.3-2.2,1.6c-0.8,0.3-1.5,0.4-2.2,0.4c-0.9,0-1.7-0.2-2.3-0.6s-1.1-0.9-1.5-1.6
		c-0.3-0.7-0.5-1.4-0.5-2.2C79.4,78.3,79.5,77.8,79.8,77.3z"/>
</g>
</svg>
