<?xml version="1.0" encoding="UTF-8" standalone="no"?>
<!-- Created with Inkscape (http://www.inkscape.org/) -->

<svg
   width="61.878429mm"
   height="46.263733mm"
   viewBox="0 0 61.878429 46.263733"
   version="1.1"
   id="svg1"
   inkscape:version="1.3.2 (091e20e, 2023-11-25, custom)"
   sodipodi:docname="logoS.svg"
   xml:space="preserve"
   xmlns:inkscape="http://www.inkscape.org/namespaces/inkscape"
   xmlns:sodipodi="http://sodipodi.sourceforge.net/DTD/sodipodi-0.dtd"
   xmlns="http://www.w3.org/2000/svg"
   xmlns:svg="http://www.w3.org/2000/svg"><sodipodi:namedview
     id="namedview1"
     pagecolor="#505050"
     bordercolor="#eeeeee"
     borderopacity="1"
     inkscape:showpageshadow="0"
     inkscape:pageopacity="0"
     inkscape:pagecheckerboard="false"
     inkscape:deskcolor="#505050"
     inkscape:document-units="mm"
     inkscape:zoom="2.8284271"
     inkscape:cx="156.62415"
     inkscape:cy="88.918678"
     inkscape:window-width="2400"
     inkscape:window-height="1261"
     inkscape:window-x="-9"
     inkscape:window-y="-9"
     inkscape:window-maximized="1"
     inkscape:current-layer="layer3"
     showguides="false"
     inkscape:lockguides="false"><sodipodi:guide
       position="-312.65271,162.66509"
       orientation="0,-1"
       id="guide2"
       inkscape:locked="false" /><sodipodi:guide
       position="-298.2682,162.49622"
       orientation="1,0"
       id="guide3"
       inkscape:locked="false" /><sodipodi:guide
       position="-307.90671,56.427775"
       orientation="0,-1"
       id="guide4"
       inkscape:locked="false" /><sodipodi:guide
       position="-277.93946,162.66509"
       orientation="1,0"
       id="guide5"
       inkscape:locked="false" /><sodipodi:guide
       position="-298.2682,47.113958"
       orientation="0,-1"
       id="guide6"
       inkscape:locked="false" /><sodipodi:guide
       position="-313.49705,31.808038"
       orientation="0,-1"
       id="guide7"
       inkscape:locked="false" /><sodipodi:guide
       position="-331.02864,158.45874"
       orientation="0,-1"
       id="guide9"
       inkscape:locked="false" /><sodipodi:guide
       position="-346.48776,173.31914"
       orientation="1,0"
       id="guide10"
       inkscape:locked="false" /><sodipodi:guide
       position="-317.82621,172.14487"
       orientation="0,-1"
       id="guide11"
       inkscape:locked="false" /><sodipodi:guide
       position="-313.49705,187.29882"
       orientation="0,-1"
       id="guide12"
       inkscape:locked="false" /><sodipodi:guide
       position="-406.7117,151.83307"
       orientation="0,-1"
       id="guide27"
       inkscape:locked="false" /><sodipodi:guide
       position="-406.7117,147.11686"
       orientation="0,-1"
       id="guide28"
       inkscape:locked="false" /><sodipodi:guide
       position="-319.00023,117.8522"
       orientation="-0.99813788,0.060998208"
       id="guide115"
       inkscape:locked="false" /><sodipodi:guide
       position="-317.63286,117.02216"
       orientation="-0.99813788,0.060998194"
       id="guide116"
       inkscape:label=""
       inkscape:locked="false"
       inkscape:color="rgb(0,134,229)" /><sodipodi:guide
       position="-318.65187,111.17151"
       orientation="0,-1"
       id="guide117"
       inkscape:locked="false" /><sodipodi:guide
       position="-122.66093,106.64055"
       orientation="0,-1"
       id="guide165"
       inkscape:locked="false" /><sodipodi:guide
       position="-123.35208,106.64055"
       orientation="1,0"
       id="guide166"
       inkscape:locked="false" /><sodipodi:guide
       position="-120.38188,106.64055"
       orientation="1,0"
       id="guide167"
       inkscape:locked="false" /><sodipodi:guide
       position="31.586791,164.881"
       orientation="1,0"
       id="guide1"
       inkscape:locked="false" /><sodipodi:guide
       position="43.971151,134.43212"
       orientation="0,-1"
       id="guide8"
       inkscape:locked="false" /><sodipodi:guide
       position="43.971151,123.95491"
       orientation="0,-1"
       id="guide13"
       inkscape:locked="false" /></sodipodi:namedview><defs
     id="defs1" /><g
     inkscape:groupmode="layer"
     id="layer3"
     inkscape:label="laurel 2"
     transform="translate(-481.3521,-3.5251392)"
     style="fill:#ffffff"><path
       d="m 566.68994,20.313986 q 0,1.010071 0.32275,1.85877 0.32872,0.848698 0.92639,1.464303 0.60365,0.615606 1.41649,0.95628 0.81882,0.340675 1.799,0.340675 1.21926,0 2.09187,-0.46021 0.87858,-0.466186 1.37465,-1.267071 0.50205,-0.806861 0.57974,-1.822908 0.012,-0.0777 -0.0239,-0.09563 -0.0359,-0.01793 -0.12552,-0.01793 h -0.52595 q -0.0837,0 -0.11356,0.02988 -0.0299,0.02988 -0.0478,0.107582 -0.0837,0.693303 -0.46619,1.308908 -0.38251,0.615605 -1.04593,1.004094 -0.65744,0.382512 -1.55993,0.382512 -0.99214,0 -1.65556,-0.49607 -0.65744,-0.496071 -0.99214,-1.350746 -0.3347,-0.860652 -0.3347,-1.942444 0,-1.081791 0.35861,-1.942443 0.3586,-0.860652 1.03995,-1.362699 0.68733,-0.502047 1.66751,-0.502047 0.79491,0 1.39259,0.322744 0.60365,0.316768 0.97421,0.830768 0.37055,0.508024 0.47814,1.081792 0.0179,0.101605 0.0299,0.143442 0.0179,0.04184 0.14344,0.04184 h 0.49607 q 0.10758,0 0.14344,-0.02988 0.0418,-0.02988 0.0418,-0.137466 v -2.844933 q 0,-0.08965 -0.0239,-0.113558 -0.0239,-0.02988 -0.11953,-0.02988 h -0.39447 q -0.0956,0 -0.11953,0.02391 -0.0179,0.01793 -0.0418,0.08965 l -0.23907,0.771 q -0.0657,0.167349 -0.11953,0.179303 -0.0478,0.01195 -0.1554,-0.08965 -0.44228,-0.454233 -1.08777,-0.753071 -0.63951,-0.298837 -1.47028,-0.298837 -0.93835,0 -1.76912,0.346651 -0.83076,0.340675 -1.47028,0.962257 -0.63951,0.621582 -1.01007,1.47028 -0.36458,0.842722 -0.36458,1.840839 z m 17.05621,-1.016047 q -0.11954,0 -0.14942,0.04781 -0.0299,0.04184 -0.0299,0.167349 v 0.286884 q 0,0.161372 0.0359,0.209186 0.0418,0.04781 0.19724,0.04781 h 0.63353 q 0.13149,0 0.17333,0.02988 0.0418,0.02391 0.0179,0.143442 -0.19126,1.075815 -0.89054,2.032095 -0.13746,0.185279 -0.18528,0.173326 -0.0418,-0.01195 -0.16137,-0.20321 l -1.55993,-2.432537 q -0.0897,-0.137465 -0.10161,-0.191256 -0.006,-0.05379 0.14942,-0.119535 0.54986,-0.23907 1.01007,-0.525954 0.46619,-0.292861 0.7471,-0.705257 0.28688,-0.418372 0.28688,-1.033977 0,-0.490094 -0.30481,-0.830769 -0.29884,-0.340674 -0.82479,-0.519977 -0.51998,-0.179302 -1.19535,-0.179302 -0.72319,0 -1.29696,0.221139 -0.56779,0.215163 -0.89651,0.615606 -0.32275,0.400442 -0.32275,0.95628 0,0.310791 0.16138,0.705256 0.16735,0.394466 0.38849,0.747094 l 0.21516,0.340675 q 0.0897,0.137465 0.11953,0.191256 0.0359,0.04781 -0.13746,0.119535 -0.49607,0.185279 -0.96824,0.418372 -0.46618,0.227117 -0.84272,0.543884 -0.37056,0.310791 -0.5917,0.765024 -0.22114,0.454233 -0.22114,1.087769 0,0.854675 0.4124,1.41649 0.4124,0.555837 1.09972,0.836745 0.68733,0.27493 1.5181,0.27493 0.69928,0 1.32684,-0.185279 0.63353,-0.191256 1.17742,-0.525954 0.14344,-0.08965 0.18527,-0.09563 0.0478,-0.01195 0.13747,0.125512 l 0.22114,0.346651 q 0.0837,0.125512 0.14942,0.161372 0.0657,0.03586 0.27493,0.03586 h 2.45047 q 0.13148,0 0.15539,-0.04184 0.0299,-0.04781 0.0299,-0.179303 v -0.316768 q 0,-0.131488 -0.0299,-0.173325 -0.0299,-0.04781 -0.15539,-0.04781 h -1.37466 q -0.15539,0 -0.20321,-0.02391 -0.0478,-0.02391 -0.10758,-0.113559 l -0.37056,-0.585721 q -0.1016,-0.155396 -0.0598,-0.185279 0.0418,-0.02988 0.14344,-0.155396 0.48412,-0.603652 0.77698,-1.308908 0.29883,-0.711233 0.43032,-1.464304 0.0179,-0.09563 0.0418,-0.119535 0.0239,-0.02391 0.14344,-0.02391 h 0.75905 q 0.10758,0 0.13149,-0.01793 0.0239,-0.02391 0.0239,-0.131489 v -0.436302 q 0,-0.107582 -0.0418,-0.137466 -0.0418,-0.03586 -0.14345,-0.03586 z m -3.58605,0.944326 q 0.16137,-0.08965 0.20918,-0.08367 0.0538,0 0.1554,0.149419 l 1.8767,2.928607 q 0.0897,0.137465 0.0956,0.185279 0.0119,0.04781 -0.13149,0.125512 -0.38252,0.233093 -0.80686,0.370559 -0.42435,0.131488 -0.87859,0.131488 -0.53193,0 -0.98018,-0.203209 -0.44228,-0.209187 -0.71124,-0.627559 -0.26895,-0.418373 -0.26895,-1.051908 0,-0.73514 0.41239,-1.171443 0.41838,-0.44228 1.02801,-0.753071 z m 2.45046,-3.054119 q 0,0.639512 -0.33469,1.033978 -0.32873,0.394465 -0.84273,0.675373 -0.0897,0.04781 -0.12551,0.05977 -0.0299,0.006 -0.0897,-0.0777 -0.3347,-0.537907 -0.55584,-0.962256 -0.21516,-0.430326 -0.21516,-0.747094 0,-0.454233 0.32872,-0.68135 0.32872,-0.233093 0.80089,-0.233093 0.31676,0 0.54986,0.125512 0.23309,0.119535 0.3586,0.334698 0.12551,0.209186 0.12551,0.472163 z m 7.31555,7.357379 q 0,0.167349 0.0538,0.209187 0.0538,0.04184 0.22712,0.04184 h 3.78328 q 0.16735,0 0.257,-0.03586 0.0897,-0.04184 0.0897,-0.227116 v -0.233093 q 0,-0.18528 -0.0418,-0.23907 -0.0359,-0.05379 -0.22114,-0.05379 h -0.94433 q -0.22712,0 -0.28091,-0.05977 -0.0478,-0.06574 -0.0478,-0.304814 v -6.825448 q 0,-0.155396 0.0359,-0.20321 0.0359,-0.05379 0.19126,-0.05379 h 0.53193 q 0.75307,0 1.17144,0.197233 0.41837,0.191256 0.5917,0.657443 0.1793,0.460209 0.19723,1.279024 0.006,0.155396 0.0359,0.22114 0.0359,0.06574 0.21516,0.06574 h 0.22114 q 0.1554,0 0.20321,-0.02988 0.0478,-0.03586 0.0478,-0.179302 v -2.659654 q 0,-0.173326 -0.0418,-0.227116 -0.0418,-0.05379 -0.20919,-0.05379 h -7.6861 q -0.20321,0 -0.24504,0.05977 -0.0418,0.05379 -0.0418,0.262977 v 2.528166 q 0,0.137465 0.0299,0.221139 0.0359,0.0777 0.19126,0.0777 h 0.24505 q 0.16735,0 0.20321,-0.05379 0.0418,-0.05977 0.0478,-0.203209 0.0179,-0.830768 0.19126,-1.296955 0.17332,-0.472163 0.59169,-0.669396 0.42435,-0.197233 1.1834,-0.197233 h 0.50205 q 0.16137,0 0.20918,0.05379 0.0478,0.04781 0.0478,0.209186 v 6.843379 q 0,0.227117 -0.0538,0.286884 -0.0538,0.05379 -0.27493,0.05379 h -0.95628 q -0.13747,0 -0.19724,0.03586 -0.0538,0.03586 -0.0538,0.18528 z"
       id="text308"
       style="font-weight:500;font-size:11.9535px;font-family:Besley;-inkscape-font-specification:'Besley Medium';stroke-width:0.39845"
       transform="matrix(0.88191914,0,0,1.1338908,-0.51534812,-6.4583332e-8)"
       aria-label="C&amp;T" /><g
       id="g308"
       style="fill:#ffffff;display:inline"
       transform="translate(161.50876,-90.501163)"><g
         id="g273"
         style="display:inline;fill:#ffffff"><g
           id="g240"
           style="fill:#ffffff"><path
             style="fill:#ffffff;stroke-width:0.264583"
             d="m 366.28255,94.092447 5.80429,6.862633 -0.81028,-3.340368 z"
             id="path239" /><path
             style="fill:#ffffff;stroke-width:0.264583"
             d="m 366.28255,94.092449 5.80429,6.862631 -3.15959,-1.353361 z"
             id="path240" /></g><g
           id="g242"
           transform="rotate(38.862542,368.38513,106.23938)"
           style="fill:#ffffff"><path
             style="fill:#ffffff;stroke-width:0.264583"
             d="m 366.28255,94.092447 5.80429,6.862633 -0.81028,-3.340368 z"
             id="path241" /><path
             style="fill:#ffffff;stroke-width:0.264583"
             d="m 366.28255,94.092449 5.80429,6.862631 -3.15959,-1.353361 z"
             id="path242" /></g><g
           id="g244"
           transform="rotate(-6.1515866,428.48827,88.207688)"
           style="fill:#ffffff"><path
             style="fill:#ffffff;stroke-width:0.264583"
             d="m 366.28255,94.092447 5.80429,6.862633 -0.81028,-3.340368 z"
             id="path243" /><path
             style="fill:#ffffff;stroke-width:0.264583"
             d="m 366.28255,94.092449 5.80429,6.862631 -3.15959,-1.353361 z"
             id="path244" /></g><g
           id="g246"
           transform="rotate(10.216694,297.56683,125.2263)"
           style="fill:#ffffff"><path
             style="fill:#ffffff;stroke-width:0.264583"
             d="m 366.28255,94.092447 5.80429,6.862633 -0.81028,-3.340368 z"
             id="path245" /><path
             style="fill:#ffffff;stroke-width:0.264583"
             d="m 366.28255,94.092449 5.80429,6.862631 -3.15959,-1.353361 z"
             id="path246" /></g><g
           id="g248"
           transform="rotate(51.702642,363.74874,110.37657)"
           style="fill:#ffffff"><path
             style="fill:#ffffff;stroke-width:0.264583"
             d="m 366.28255,94.092447 5.80429,6.862633 -0.81028,-3.340368 z"
             id="path247" /><path
             style="fill:#ffffff;stroke-width:0.264583"
             d="m 366.28255,94.092449 5.80429,6.862631 -3.15959,-1.353361 z"
             id="path248" /></g><g
           id="g250"
           transform="rotate(21.138983,319.51824,115.39258)"
           style="fill:#ffffff"><path
             style="fill:#ffffff;stroke-width:0.264583"
             d="m 366.28255,94.092447 5.80429,6.862633 -0.81028,-3.340368 z"
             id="path249" /><path
             style="fill:#ffffff;stroke-width:0.264583"
             d="m 366.28255,94.092449 5.80429,6.862631 -3.15959,-1.353361 z"
             id="path250" /></g><g
           id="g252"
           transform="rotate(70.996255,362.62051,112.06298)"
           style="fill:#ffffff"><path
             style="fill:#ffffff;stroke-width:0.264583"
             d="m 366.28255,94.092447 5.80429,6.862633 -0.81028,-3.340368 z"
             id="path251" /><path
             style="fill:#ffffff;stroke-width:0.264583"
             d="m 366.28255,94.092449 5.80429,6.862631 -3.15959,-1.353361 z"
             id="path252" /></g><g
           id="g254"
           transform="rotate(92.591743,363.26114,112.70872)"
           style="fill:#ffffff"><path
             style="fill:#ffffff;stroke-width:0.264583"
             d="m 366.28255,94.092447 5.80429,6.862633 -0.81028,-3.340368 z"
             id="path253" /><path
             style="fill:#ffffff;stroke-width:0.264583"
             d="m 366.28255,94.092449 5.80429,6.862631 -3.15959,-1.353361 z"
             id="path254" /></g><g
           id="g256"
           transform="rotate(27.771439,318.35783,112.9827)"
           style="fill:#ffffff"><path
             style="fill:#ffffff;stroke-width:0.264583"
             d="m 366.28255,94.092447 5.80429,6.862633 -0.81028,-3.340368 z"
             id="path255" /><path
             style="fill:#ffffff;stroke-width:0.264583"
             d="m 366.28255,94.092449 5.80429,6.862631 -3.15959,-1.353361 z"
             id="path256" /></g><g
           id="g258"
           transform="rotate(100.72925,361.78484,114.18726)"
           style="fill:#ffffff"><path
             style="fill:#ffffff;stroke-width:0.264583"
             d="m 366.28255,94.092447 5.80429,6.862633 -0.81028,-3.340368 z"
             id="path257" /><path
             style="fill:#ffffff;stroke-width:0.264583"
             d="m 366.28255,94.092449 5.80429,6.862631 -3.15959,-1.353361 z"
             id="path258" /></g><g
           id="g260"
           transform="rotate(38.073015,325.7675,109.22563)"
           style="fill:#ffffff"><path
             style="fill:#ffffff;stroke-width:0.264583"
             d="m 366.28255,94.092447 5.80429,6.862633 -0.81028,-3.340368 z"
             id="path259" /><path
             style="fill:#ffffff;stroke-width:0.264583"
             d="m 366.28255,94.092449 5.80429,6.862631 -3.15959,-1.353361 z"
             id="path260" /></g><g
           id="g262"
           transform="rotate(111.59629,360.38702,114.84715)"
           style="fill:#ffffff"><path
             style="fill:#ffffff;stroke-width:0.264583"
             d="m 366.28255,94.092447 5.80429,6.862633 -0.81028,-3.340368 z"
             id="path261" /><path
             style="fill:#ffffff;stroke-width:0.264583"
             d="m 366.28255,94.092449 5.80429,6.862631 -3.15959,-1.353361 z"
             id="path262" /></g><g
           id="g264"
           transform="rotate(59.679598,337.57251,108.37172)"
           style="fill:#ffffff"><path
             style="fill:#ffffff;stroke-width:0.264583"
             d="m 366.28255,94.092447 5.80429,6.862633 -0.81028,-3.340368 z"
             id="path263" /><path
             style="fill:#ffffff;stroke-width:0.264583"
             d="m 366.28255,94.092449 5.80429,6.862631 -3.15959,-1.353361 z"
             id="path264" /></g><g
           id="g266"
           transform="rotate(91.033014,345.58956,109.31606)"
           style="fill:#ffffff"><path
             style="fill:#ffffff;stroke-width:0.264583"
             d="m 366.28255,94.092447 5.80429,6.862633 -0.81028,-3.340368 z"
             id="path265" /><path
             style="fill:#ffffff;stroke-width:0.264583"
             d="m 366.28255,94.092449 5.80429,6.862631 -3.15959,-1.353361 z"
             id="path266" /></g><g
           id="g268"
           transform="rotate(141.93087,356.01752,116.22772)"
           style="fill:#ffffff"><path
             style="fill:#ffffff;stroke-width:0.264583"
             d="m 366.28255,94.092447 5.80429,6.862633 -0.81028,-3.340368 z"
             id="path267" /><path
             style="fill:#ffffff;stroke-width:0.264583"
             d="m 366.28255,94.092449 5.80429,6.862631 -3.15959,-1.353361 z"
             id="path268" /></g><g
           id="g270"
           transform="rotate(137.28138,358.46269,116.0611)"
           style="fill:#ffffff"><path
             style="fill:#ffffff;stroke-width:0.264583"
             d="m 366.28255,94.092447 5.80429,6.862633 -0.81028,-3.340368 z"
             id="path269" /><path
             style="fill:#ffffff;stroke-width:0.264583"
             d="m 366.28255,94.092449 5.80429,6.862631 -3.15959,-1.353361 z"
             id="path270" /></g><g
           id="g272"
           transform="rotate(122.36564,358.946,115.3843)"
           style="fill:#ffffff"><path
             style="fill:#ffffff;stroke-width:0.264583"
             d="m 366.28255,94.092447 5.80429,6.862633 -0.81028,-3.340368 z"
             id="path271" /><path
             style="fill:#ffffff;stroke-width:0.264583"
             d="m 366.28255,94.092449 5.80429,6.862631 -3.15959,-1.353361 z"
             id="path272" /></g></g><g
         id="g307"
         transform="matrix(-1,0,0,1,701.56508,-0.06614583)"
         style="fill:#ffffff"><g
           id="g274"
           style="fill:#ffffff"><path
             style="fill:#ffffff;stroke-width:0.264583"
             d="m 366.28255,94.092447 5.80429,6.862633 -0.81028,-3.340368 z"
             id="path273" /><path
             style="fill:#ffffff;stroke-width:0.264583"
             d="m 366.28255,94.092449 5.80429,6.862631 -3.15959,-1.353361 z"
             id="path274" /></g><g
           id="g276"
           transform="rotate(38.862542,368.38513,106.23938)"
           style="fill:#ffffff"><path
             style="fill:#ffffff;stroke-width:0.264583"
             d="m 366.28255,94.092447 5.80429,6.862633 -0.81028,-3.340368 z"
             id="path275" /><path
             style="fill:#ffffff;stroke-width:0.264583"
             d="m 366.28255,94.092449 5.80429,6.862631 -3.15959,-1.353361 z"
             id="path276" /></g><g
           id="g278"
           transform="rotate(-6.1515866,428.48827,88.207688)"
           style="fill:#ffffff"><path
             style="fill:#ffffff;stroke-width:0.264583"
             d="m 366.28255,94.092447 5.80429,6.862633 -0.81028,-3.340368 z"
             id="path277" /><path
             style="fill:#ffffff;stroke-width:0.264583"
             d="m 366.28255,94.092449 5.80429,6.862631 -3.15959,-1.353361 z"
             id="path278" /></g><g
           id="g280"
           transform="rotate(10.216694,297.56683,125.2263)"
           style="fill:#ffffff"><path
             style="fill:#ffffff;stroke-width:0.264583"
             d="m 366.28255,94.092447 5.80429,6.862633 -0.81028,-3.340368 z"
             id="path279" /><path
             style="fill:#ffffff;stroke-width:0.264583"
             d="m 366.28255,94.092449 5.80429,6.862631 -3.15959,-1.353361 z"
             id="path280" /></g><g
           id="g282"
           transform="rotate(51.702642,363.74874,110.37657)"
           style="fill:#ffffff"><path
             style="fill:#ffffff;stroke-width:0.264583"
             d="m 366.28255,94.092447 5.80429,6.862633 -0.81028,-3.340368 z"
             id="path281" /><path
             style="fill:#ffffff;stroke-width:0.264583"
             d="m 366.28255,94.092449 5.80429,6.862631 -3.15959,-1.353361 z"
             id="path282" /></g><g
           id="g284"
           transform="rotate(21.138983,319.51824,115.39258)"
           style="fill:#ffffff"><path
             style="fill:#ffffff;stroke-width:0.264583"
             d="m 366.28255,94.092447 5.80429,6.862633 -0.81028,-3.340368 z"
             id="path283" /><path
             style="fill:#ffffff;stroke-width:0.264583"
             d="m 366.28255,94.092449 5.80429,6.862631 -3.15959,-1.353361 z"
             id="path284" /></g><g
           id="g286"
           transform="rotate(70.996255,362.62051,112.06298)"
           style="fill:#ffffff"><path
             style="fill:#ffffff;stroke-width:0.264583"
             d="m 366.28255,94.092447 5.80429,6.862633 -0.81028,-3.340368 z"
             id="path285" /><path
             style="fill:#ffffff;stroke-width:0.264583"
             d="m 366.28255,94.092449 5.80429,6.862631 -3.15959,-1.353361 z"
             id="path286" /></g><g
           id="g288"
           transform="rotate(92.591743,363.26114,112.70872)"
           style="fill:#ffffff"><path
             style="fill:#ffffff;stroke-width:0.264583"
             d="m 366.28255,94.092447 5.80429,6.862633 -0.81028,-3.340368 z"
             id="path287" /><path
             style="fill:#ffffff;stroke-width:0.264583"
             d="m 366.28255,94.092449 5.80429,6.862631 -3.15959,-1.353361 z"
             id="path288" /></g><g
           id="g290"
           transform="rotate(27.771439,318.35783,112.9827)"
           style="fill:#ffffff"><path
             style="fill:#ffffff;stroke-width:0.264583"
             d="m 366.28255,94.092447 5.80429,6.862633 -0.81028,-3.340368 z"
             id="path289" /><path
             style="fill:#ffffff;stroke-width:0.264583"
             d="m 366.28255,94.092449 5.80429,6.862631 -3.15959,-1.353361 z"
             id="path290" /></g><g
           id="g292"
           transform="rotate(100.72925,361.78484,114.18726)"
           style="fill:#ffffff"><path
             style="fill:#ffffff;stroke-width:0.264583"
             d="m 366.28255,94.092447 5.80429,6.862633 -0.81028,-3.340368 z"
             id="path291" /><path
             style="fill:#ffffff;stroke-width:0.264583"
             d="m 366.28255,94.092449 5.80429,6.862631 -3.15959,-1.353361 z"
             id="path292" /></g><g
           id="g294"
           transform="rotate(38.073015,325.7675,109.22563)"
           style="fill:#ffffff"><path
             style="fill:#ffffff;stroke-width:0.264583"
             d="m 366.28255,94.092447 5.80429,6.862633 -0.81028,-3.340368 z"
             id="path293" /><path
             style="fill:#ffffff;stroke-width:0.264583"
             d="m 366.28255,94.092449 5.80429,6.862631 -3.15959,-1.353361 z"
             id="path294" /></g><g
           id="g296"
           transform="rotate(111.59629,360.38702,114.84715)"
           style="fill:#ffffff"><path
             style="fill:#ffffff;stroke-width:0.264583"
             d="m 366.28255,94.092447 5.80429,6.862633 -0.81028,-3.340368 z"
             id="path295" /><path
             style="fill:#ffffff;stroke-width:0.264583"
             d="m 366.28255,94.092449 5.80429,6.862631 -3.15959,-1.353361 z"
             id="path296" /></g><g
           id="g298"
           transform="rotate(59.679598,337.57251,108.37172)"
           style="fill:#ffffff"><path
             style="fill:#ffffff;stroke-width:0.264583"
             d="m 366.28255,94.092447 5.80429,6.862633 -0.81028,-3.340368 z"
             id="path297" /><path
             style="fill:#ffffff;stroke-width:0.264583"
             d="m 366.28255,94.092449 5.80429,6.862631 -3.15959,-1.353361 z"
             id="path298" /></g><g
           id="g300"
           transform="rotate(91.033014,345.58956,109.31606)"
           style="fill:#ffffff"><path
             style="fill:#ffffff;stroke-width:0.264583"
             d="m 366.28255,94.092447 5.80429,6.862633 -0.81028,-3.340368 z"
             id="path299" /><path
             style="fill:#ffffff;stroke-width:0.264583"
             d="m 366.28255,94.092449 5.80429,6.862631 -3.15959,-1.353361 z"
             id="path300" /></g><g
           id="g302"
           transform="rotate(141.93087,356.01752,116.22772)"
           style="fill:#ffffff"><path
             style="fill:#ffffff;stroke-width:0.264583"
             d="m 366.28255,94.092447 5.80429,6.862633 -0.81028,-3.340368 z"
             id="path301" /><path
             style="fill:#ffffff;stroke-width:0.264583"
             d="m 366.28255,94.092449 5.80429,6.862631 -3.15959,-1.353361 z"
             id="path302" /></g><g
           id="g304"
           transform="rotate(137.28138,358.46269,116.0611)"
           style="fill:#ffffff"><path
             style="fill:#ffffff;stroke-width:0.264583"
             d="m 366.28255,94.092447 5.80429,6.862633 -0.81028,-3.340368 z"
             id="path303" /><path
             style="fill:#ffffff;stroke-width:0.264583"
             d="m 366.28255,94.092449 5.80429,6.862631 -3.15959,-1.353361 z"
             id="path304" /></g><g
           id="g306"
           transform="rotate(122.36564,358.946,115.3843)"
           style="fill:#ffffff"><path
             style="fill:#ffffff;stroke-width:0.264583"
             d="m 366.28255,94.092447 5.80429,6.862633 -0.81028,-3.340368 z"
             id="path305" /><path
             style="fill:#ffffff;stroke-width:0.264583"
             d="m 366.28255,94.092449 5.80429,6.862631 -3.15959,-1.353361 z"
             id="path306" /></g></g><rect
         style="fill:#ffffff;stroke-width:0.264583"
         id="rect307"
         width="3.1915364"
         height="3.1915364"
         x="343.33325"
         y="-152.93515"
         transform="rotate(45)" /></g></g></svg>
