<?xml version="1.0" encoding="utf-8"?>
<!-- Generator: Adobe Illustrator 26.1.0, SVG Export Plug-In . SVG Version: 6.00 Build 0)  -->
<svg version="1.1"
	 id="svg1" inkscape:version="1.3.2 (091e20e, 2023-11-25, custom)" xmlns:inkscape="http://www.inkscape.org/namespaces/inkscape" xmlns:sodipodi="http://sodipodi.sourceforge.net/DTD/sodipodi-0.dtd" xmlns:svg="http://www.w3.org/2000/svg"
	 xmlns="http://www.w3.org/2000/svg" xmlns:xlink="http://www.w3.org/1999/xlink" x="0px" y="0px" viewBox="0 0 215.6 171.2"
	 style="enable-background:new 0 0 215.6 171.2;" xml:space="preserve">
<style type="text/css">
	.st0{enable-background:new    ;}
</style>
<sodipodi:namedview  bordercolor="#eeeeee" borderopacity="1" id="namedview1" inkscape:current-layer="layer3" inkscape:cx="2173.5" inkscape:cy="327.5" inkscape:deskcolor="#505050" inkscape:document-units="mm" inkscape:lockguides="false" inkscape:pagecheckerboard="false" inkscape:pageopacity="0" inkscape:showpageshadow="0" inkscape:window-height="1417" inkscape:window-maximized="1" inkscape:window-width="2498" inkscape:window-x="54" inkscape:window-y="-8" inkscape:zoom="1" pagecolor="#505050" showguides="true">
	<sodipodi:guide  id="guide2" inkscape:locked="false" orientation="0,-1" position="-464.54931,154.03677"></sodipodi:guide>
	<sodipodi:guide  id="guide3" inkscape:locked="false" orientation="1,0" position="-450.1648,153.8679"></sodipodi:guide>
	<sodipodi:guide  id="guide4" inkscape:locked="false" orientation="0,-1" position="-459.80331,47.79946"></sodipodi:guide>
	<sodipodi:guide  id="guide5" inkscape:locked="false" orientation="1,0" position="-429.83606,154.03677"></sodipodi:guide>
	<sodipodi:guide  id="guide6" inkscape:locked="false" orientation="0,-1" position="-450.1648,38.485643"></sodipodi:guide>
	<sodipodi:guide  id="guide7" inkscape:locked="false" orientation="0,-1" position="-465.39365,23.179723"></sodipodi:guide>
	<sodipodi:guide  id="guide9" inkscape:locked="false" orientation="0,-1" position="-482.92524,149.83042"></sodipodi:guide>
	<sodipodi:guide  id="guide10" inkscape:locked="false" orientation="1,0" position="-498.38436,164.69082"></sodipodi:guide>
	<sodipodi:guide  id="guide11" inkscape:locked="false" orientation="0,-1" position="-469.72281,163.51655"></sodipodi:guide>
	<sodipodi:guide  id="guide12" inkscape:locked="false" orientation="0,-1" position="-465.39365,178.6705"></sodipodi:guide>
	<sodipodi:guide  id="guide27" inkscape:locked="false" orientation="0,-1" position="-558.6083,143.20475"></sodipodi:guide>
	<sodipodi:guide  id="guide28" inkscape:locked="false" orientation="0,-1" position="-558.6083,138.48854"></sodipodi:guide>
	<sodipodi:guide  id="guide115" inkscape:locked="false" orientation="-0.99813788,0.060998208" position="-470.89683,109.22388">
		</sodipodi:guide>
	
		<sodipodi:guide  id="guide116" inkscape:color="rgb(0,134,229)" inkscape:label="" inkscape:locked="false" orientation="-0.99813788,0.060998194" position="-469.52946,108.39384">
		</sodipodi:guide>
	<sodipodi:guide  id="guide117" inkscape:locked="false" orientation="0,-1" position="-470.54847,102.54319"></sodipodi:guide>
	<sodipodi:guide  id="guide165" inkscape:locked="false" orientation="0,-1" position="-274.55753,98.012234"></sodipodi:guide>
	<sodipodi:guide  id="guide166" inkscape:locked="false" orientation="1,0" position="-275.24868,98.012234"></sodipodi:guide>
	<sodipodi:guide  id="guide167" inkscape:locked="false" orientation="1,0" position="-272.27848,98.012234"></sodipodi:guide>
	<sodipodi:guide  id="guide1" inkscape:locked="false" orientation="1,0" position="-120.30981,156.25268"></sodipodi:guide>
	<sodipodi:guide  id="guide8" inkscape:locked="false" orientation="0,-1" position="-107.92545,125.8038"></sodipodi:guide>
	<sodipodi:guide  id="guide13" inkscape:locked="false" orientation="0,-1" position="-107.92545,115.32659"></sodipodi:guide>
	<sodipodi:guide  id="guide668" inkscape:locked="false" orientation="1,0" position="21.256078,169.03823"></sodipodi:guide>
</sodipodi:namedview>
<g class="st0">
	<path d="M32.8,124.5v5.5h-0.5c-0.5-3.3-1.8-5-4-5c-1.1,0-2,0.6-2.5,1.7s-0.8,3.5-0.8,7.1c0,3,0.1,5,0.3,6.1s0.6,1.8,1.2,2.3
		c0.6,0.5,1.2,0.7,1.9,0.7c0.9,0,1.7-0.4,2.5-1.2c0.8-0.8,1.4-2.2,1.8-4h0.5l-0.2,5.6h-0.5c-0.2-0.6-0.4-1.1-0.8-1.5
		c-1.2,1.2-2.3,1.8-3.6,1.8c-1.6,0-3-0.9-4.3-2.8c-1.3-1.8-1.9-4.1-1.9-6.8c0-2.7,0.6-5,1.9-6.9s2.7-2.8,4.4-2.8
		c1.3,0,2.4,0.6,3.4,1.7c0.3-0.6,0.5-1.1,0.6-1.5H32.8z"/>
	<path d="M35.2,137.8c0-1.6,0.4-2.9,1.3-4.1c0.9-1.1,2-1.7,3.2-1.7c1.3,0,2.3,0.5,3.2,1.6c0.9,1.1,1.3,2.4,1.3,4
		c0,1.6-0.5,3-1.4,4.2c-0.9,1.1-2,1.7-3.2,1.7c-1.2,0-2.3-0.6-3.2-1.7C35.7,140.8,35.2,139.4,35.2,137.8z M41.8,137.8
		c0-1.7,0-2.8-0.1-3.3c-0.1-0.5-0.3-1-0.6-1.3c-0.3-0.3-0.8-0.5-1.3-0.5c-0.5,0-1,0.2-1.3,0.5c-0.3,0.3-0.6,0.8-0.6,1.3
		s-0.1,1.7-0.1,3.3c0,1.7,0,2.8,0.1,3.4c0.1,0.6,0.3,1,0.6,1.3c0.3,0.3,0.8,0.5,1.3,0.5c0.5,0,0.9-0.2,1.3-0.5
		c0.3-0.3,0.6-0.8,0.6-1.3C41.8,140.6,41.8,139.5,41.8,137.8z"/>
	<path d="M47.5,142.5v-9.4h-1.6v-0.7h1c1,0,1.9-0.1,2.7-0.2v2.7h0c0.8-1.9,1.8-2.8,3.2-2.8c0.6,0,1.2,0.2,1.6,0.6
		c0.4,0.4,0.7,0.9,0.8,1.5c0.1,0.6,0.2,1.4,0.2,2.6v5.8h1.7v0.7h-5.3v-0.7h1.5v-6.9c0-1.1-0.1-1.8-0.2-2.2c-0.1-0.4-0.4-0.6-0.8-0.6
		c-0.7,0-1.3,0.5-1.9,1.4c-0.6,0.9-0.9,2.1-0.9,3.7v4.6h1.4v0.7h-5.1v-0.7H47.5z"/>
	<path d="M58.4,137.8c0-1.6,0.4-2.9,1.3-4.1c0.9-1.1,2-1.7,3.2-1.7c1.3,0,2.3,0.5,3.2,1.6c0.9,1.1,1.3,2.4,1.3,4
		c0,1.6-0.5,3-1.4,4.2c-0.9,1.1-2,1.7-3.2,1.7c-1.2,0-2.3-0.6-3.2-1.7C58.9,140.8,58.4,139.4,58.4,137.8z M65,137.8
		c0-1.7,0-2.8-0.1-3.3c-0.1-0.5-0.3-1-0.6-1.3c-0.3-0.3-0.8-0.5-1.3-0.5c-0.5,0-1,0.2-1.3,0.5c-0.3,0.3-0.6,0.8-0.6,1.3
		s-0.1,1.7-0.1,3.3c0,1.7,0,2.8,0.1,3.4c0.1,0.6,0.3,1,0.6,1.3c0.3,0.3,0.8,0.5,1.3,0.5c0.5,0,0.9-0.2,1.3-0.5
		c0.3-0.3,0.6-0.8,0.6-1.3C65,140.6,65,139.5,65,137.8z"/>
	<path d="M77,139.5h0.5c-0.2,1.3-0.7,2.3-1.3,3c-0.6,0.7-1.4,1-2.3,1c-1.2,0-2.3-0.6-3.1-1.7s-1.3-2.5-1.3-4c0-1.5,0.4-2.9,1.3-4.1
		c0.9-1.2,2-1.8,3.3-1.8c0.9,0,1.7,0.3,2.3,0.9c0.6,0.6,0.9,1.3,0.9,2c0,0.4-0.1,0.7-0.3,1c-0.2,0.3-0.5,0.4-0.8,0.4
		c-0.3,0-0.6-0.1-0.8-0.4c-0.2-0.2-0.3-0.6-0.3-1c0-0.3,0.1-0.6,0.3-0.8c0.2-0.3,0.3-0.5,0.3-0.6c0-0.2-0.1-0.5-0.4-0.7
		c-0.3-0.2-0.6-0.3-1.1-0.3c-0.8,0-1.3,0.3-1.7,0.8c-0.4,0.5-0.6,1.6-0.6,3.3c0,1.7,0,2.9,0.1,3.7c0.1,0.8,0.3,1.4,0.6,1.9
		c0.3,0.5,0.8,0.7,1.5,0.7C75.4,143,76.4,141.8,77,139.5z"/>
	<path d="M87,137h-5.6c-0.1,2.7,0.1,4.4,0.4,5c0.3,0.6,0.8,0.9,1.6,0.9c1.6,0,2.6-1.1,3.2-3.4H87c-0.2,1.4-0.7,2.4-1.4,3
		s-1.4,1-2.3,1c-1.2,0-2.2-0.5-3.1-1.6c-0.9-1.1-1.3-2.5-1.3-4.1c0-1.6,0.4-3,1.3-4.1c0.9-1.1,1.8-1.7,3-1.7c1,0,1.8,0.4,2.6,1.3
		C86.5,134.2,86.9,135.4,87,137z M81.4,136.4h3.2c0.1-0.7,0.1-1.1,0.1-1.5c0-1.5-0.5-2.2-1.6-2.2c-0.5,0-0.9,0.2-1.2,0.5
		s-0.5,0.8-0.5,1.4V136.4z"/>
	<path d="M89.9,142.5v-9.4h-1.8v-0.7h1.8c0.9,0,1.6-0.1,2.1-0.2v2.6h0c0.5-1.7,1.3-2.6,2.3-2.6c0.4,0,0.8,0.2,1.1,0.5
		c0.3,0.3,0.4,0.7,0.4,1.2c0,0.4-0.1,0.8-0.3,1.1c-0.2,0.3-0.5,0.4-0.8,0.4c-0.6,0-0.9-0.4-0.9-1.2l0-0.6c0-0.2-0.1-0.3-0.2-0.3
		c-0.2,0-0.5,0.4-0.9,1.2s-0.6,2.1-0.6,3.7v4.2h1.8v0.7h-5.7v-0.7H89.9z"/>
	<path d="M105.7,133.1l3.1,7.5l2.7-7.5h-1.9v-0.7h3.9v0.7H112l-4.4,12.6c-0.6,1.8-1.2,3.1-1.6,3.8c-0.4,0.7-1,1.1-1.6,1.1
		c-0.4,0-0.7-0.2-0.9-0.5c-0.2-0.3-0.3-0.7-0.3-1.1c0-0.4,0.1-0.7,0.3-0.9c0.2-0.2,0.4-0.3,0.7-0.3c0.4,0,0.6,0.2,0.8,0.6
		c0.2,0.4,0.4,0.6,0.5,0.6c0.2,0,0.4-0.2,0.6-0.7s0.6-1.3,1-2.6l0.7-2l-4.3-10.6h-1.3v-0.7h5.3v0.7H105.7z"/>
	<path d="M120.3,124.7h12.6l0.4,6.3h-0.6c-0.3-2.1-0.8-3.6-1.4-4.4c-0.6-0.8-1.3-1.2-2.2-1.2h-1.2v17.1h2.6v0.7h-7.9v-0.7h2.6v-17.1
		h-1.2c-0.9,0-1.7,0.4-2.2,1.2s-1,2.3-1.4,4.4H120L120.3,124.7z"/>
	<path d="M135.3,142.5v-9.4h-1.8v-0.7h1.8c0.9,0,1.6-0.1,2.1-0.2v2.6h0c0.5-1.7,1.3-2.6,2.3-2.6c0.4,0,0.8,0.2,1.1,0.5
		c0.3,0.3,0.4,0.7,0.4,1.2c0,0.4-0.1,0.8-0.3,1.1c-0.2,0.3-0.5,0.4-0.8,0.4c-0.6,0-0.9-0.4-0.9-1.2l0-0.6c0-0.2-0.1-0.3-0.2-0.3
		c-0.2,0-0.5,0.4-0.9,1.2c-0.4,0.8-0.6,2.1-0.6,3.7v4.2h1.8v0.7h-5.7v-0.7H135.3z"/>
	<path d="M145.8,132.2v10.3h1.4v0.7h-5.1v-0.7h1.5v-9.4h-1.5v-0.7h1.6C144.4,132.4,145.1,132.3,145.8,132.2z M143.6,126.9
		c0-0.4,0.1-0.8,0.4-1c0.2-0.3,0.5-0.4,0.8-0.4s0.6,0.1,0.8,0.4c0.2,0.3,0.4,0.6,0.4,1.1c0,0.4-0.1,0.8-0.4,1.1
		c-0.2,0.3-0.5,0.4-0.8,0.4c-0.3,0-0.6-0.1-0.8-0.4C143.7,127.7,143.6,127.3,143.6,126.9z"/>
	<path d="M157.7,132.4v10.1h1.5v0.7h-1.5c-1.1,0-1.9,0.1-2.2,0.2v-2.6h0c-0.7,1.7-1.7,2.6-3.1,2.6c-0.8,0-1.5-0.3-2-0.8
		c-0.5-0.5-0.7-1.7-0.7-3.4v-6.1h-1.6v-0.7h3.7v7.3c0,1.1,0.1,1.9,0.2,2.4c0.1,0.4,0.4,0.7,0.8,0.7c0.7,0,1.3-0.5,1.9-1.4
		c0.6-0.9,0.9-2.3,0.9-4.1v-4.1h-1.8v-0.7H157.7z"/>
	<path d="M162,142.5v-9.4h-1.6v-0.7h1c1,0,1.9-0.1,2.7-0.2v2.7h0c0.8-1.9,1.8-2.8,3.2-2.8c0.6,0,1.2,0.2,1.6,0.6
		c0.4,0.4,0.7,0.9,0.8,1.5c0.1,0.6,0.2,1.4,0.2,2.6v5.8h1.7v0.7h-5.3v-0.7h1.5v-6.9c0-1.1-0.1-1.8-0.2-2.2s-0.4-0.6-0.8-0.6
		c-0.7,0-1.3,0.5-1.9,1.4c-0.6,0.9-0.9,2.1-0.9,3.7v4.6h1.4v0.7h-5.1v-0.7H162z"/>
	<path d="M174.4,142.5v-9.4h-1.8v-0.7h1.8c-0.1-2.4,0.3-4.4,1.2-5.8c0.9-1.4,1.9-2.1,3.1-2.1c0.6,0,1.1,0.2,1.5,0.6
		c0.4,0.4,0.6,0.9,0.6,1.5c0,0.4-0.1,0.7-0.3,1c-0.2,0.3-0.5,0.4-0.8,0.4c-0.3,0-0.5-0.1-0.7-0.3c-0.2-0.2-0.3-0.5-0.3-0.9
		c0-0.5,0.2-1,0.7-1.4c-0.2-0.2-0.5-0.4-1-0.4c-0.4,0-0.8,0.2-1.2,0.5c-0.4,0.3-0.6,0.8-0.7,1.4c-0.1,0.6-0.1,1.6-0.1,3v2.3h2v0.7
		h-2v9.4h1.8v0.7h-5.6v-0.7H174.4z"/>
	<path d="M185.9,137v-1.4c0-1.1-0.1-1.9-0.2-2.3s-0.6-0.5-1.2-0.5c-1.2,0-1.8,0.3-1.8,0.9c0,0.2,0,0.3,0.1,0.5
		c0.1,0.2,0.1,0.4,0.1,0.7c0,0.4-0.1,0.7-0.3,0.9c-0.2,0.2-0.4,0.3-0.7,0.3c-0.3,0-0.6-0.1-0.7-0.4c-0.2-0.3-0.3-0.5-0.3-0.9
		c0-0.7,0.3-1.4,1-1.9c0.7-0.5,1.6-0.8,2.9-0.8c1,0,1.7,0.1,2.2,0.4s0.7,0.6,0.8,1.1c0.1,0.4,0.2,1,0.2,1.8v5.1c0,0.7,0,1.2,0.1,1.4
		s0.2,0.3,0.4,0.3c0.3,0,0.5-0.2,0.8-0.7h0.3c-0.2,1.3-0.8,2-1.9,2c-1,0-1.6-0.7-1.8-2.2c-0.9,1.5-1.9,2.2-3,2.2
		c-0.8,0-1.4-0.3-1.8-0.8s-0.7-1.2-0.7-1.9C180.4,138.5,182.2,137.3,185.9,137z M185.9,139.2v-1.5c-1.4,0.1-2.2,0.3-2.7,0.8
		c-0.4,0.4-0.6,1.1-0.6,1.9c0,0.6,0.1,1.1,0.4,1.4c0.3,0.3,0.6,0.5,0.9,0.5c0.4,0,0.8-0.2,1.2-0.5c0.3-0.4,0.6-0.7,0.7-1.1
		C185.8,140.3,185.9,139.8,185.9,139.2z"/>
	<path d="M192.5,142.5v-9.4h-1.8v-0.7h1.8c0.9,0,1.6-0.1,2.1-0.2v2.6h0c0.5-1.7,1.3-2.6,2.3-2.6c0.4,0,0.8,0.2,1.1,0.5
		c0.3,0.3,0.4,0.7,0.4,1.2c0,0.4-0.1,0.8-0.3,1.1c-0.2,0.3-0.5,0.4-0.8,0.4c-0.6,0-0.9-0.4-0.9-1.2l0-0.6c0-0.2-0.1-0.3-0.2-0.3
		c-0.2,0-0.5,0.4-0.9,1.2s-0.6,2.1-0.6,3.7v4.2h1.8v0.7h-5.7v-0.7H192.5z"/>
</g>
<g>
	<path d="M124.2,53.1L114,53.3V51c6.2-2.1,9.3-5.9,9.3-11.5c0-2.5-0.9-4.3-2.6-5.4c-1.7-1.1-5.2-1.6-10.5-1.6
		c-9.8,0-15.6,0.4-17.6,1.2s-3,2.6-3,5.4c0,5.8,3.2,10,9.6,12.7v2.3L88,53.4v-2.3c0.7-0.7,1.6-1.6,2.5-2.6c-1.9-3-2.8-6.4-2.8-10.2
		c0-4.9,1.6-9.2,4.9-13s7.8-5.7,13.4-5.7s10.2,1.9,13.7,5.7s5.3,8.5,5.3,14.1c0,3.3-0.9,6.4-2.7,9.1c0.6,1,1.1,1.9,1.7,2.6v2H124.2z
		"/>
	<path d="M109.8,58.2h38.6l0.3,16.6h-2.1c-1.7-9.4-5.2-12.3-10.6-12.3h-1.1v42.1h7.1v4.5h-25.5v-4.5h7V62.5h-1.7
		c-5.4,0-8.3,2.9-10.1,12.3h-2.1L109.8,58.2z"/>
	<g>
		<polygon points="69.5,104.5 69.5,109 85.8,109 102.1,109 102.1,104.5 85.8,104.5 		"/>
		<g>
			<rect x="75.2" y="65.6" width="4.5" height="36.1"/>
			<rect x="91.9" y="65.6" width="4.5" height="36.1"/>
			<polygon points="88.1,101.6 88.1,65.6 85.8,65.6 83.6,65.6 83.6,101.6 85.8,101.6 			"/>
		</g>
		<path d="M102.1,58.1L102.1,58.1L102.1,58.1H85.8H69.5l0,0l0,0c-2.4,0-4.3,1.9-4.3,4.3s1.9,4.3,4.3,4.3c2.3,0,4.2-1.8,4.3-4.2l0,0
			h12h12l0,0c0.1,2.3,2,4.2,4.3,4.2c2.4,0,4.3-1.9,4.3-4.3C106.5,60,104.5,58.1,102.1,58.1z"/>
	</g>
</g>
</svg>
