<?xml version="1.0" encoding="utf-8"?>
<!-- Generator: Adobe Illustrator 26.1.0, SVG Export Plug-In . SVG Version: 6.00 Build 0)  -->
<svg version="1.1"
	 id="svg1" inkscape:version="1.3.2 (091e20e, 2023-11-25, custom)" xmlns:inkscape="http://www.inkscape.org/namespaces/inkscape" xmlns:sodipodi="http://sodipodi.sourceforge.net/DTD/sodipodi-0.dtd" xmlns:svg="http://www.w3.org/2000/svg"
	 xmlns="http://www.w3.org/2000/svg" xmlns:xlink="http://www.w3.org/1999/xlink" x="0px" y="0px" viewBox="0 0 221.9 165.2"
	 style="enable-background:new 0 0 221.9 165.2;" xml:space="preserve">
<sodipodi:namedview  bordercolor="#eeeeee" borderopacity="1" id="namedview1" inkscape:current-layer="layer3" inkscape:cx="2173.5" inkscape:cy="327.5" inkscape:deskcolor="#505050" inkscape:document-units="mm" inkscape:lockguides="false" inkscape:pagecheckerboard="false" inkscape:pageopacity="0" inkscape:showpageshadow="0" inkscape:window-height="1417" inkscape:window-maximized="1" inkscape:window-width="2498" inkscape:window-x="54" inkscape:window-y="-8" inkscape:zoom="1" pagecolor="#505050" showguides="true">
	<sodipodi:guide  id="guide2" inkscape:locked="false" orientation="0,-1" position="-464.54931,154.03677"></sodipodi:guide>
	<sodipodi:guide  id="guide3" inkscape:locked="false" orientation="1,0" position="-450.1648,153.8679"></sodipodi:guide>
	<sodipodi:guide  id="guide4" inkscape:locked="false" orientation="0,-1" position="-459.80331,47.79946"></sodipodi:guide>
	<sodipodi:guide  id="guide5" inkscape:locked="false" orientation="1,0" position="-429.83606,154.03677"></sodipodi:guide>
	<sodipodi:guide  id="guide6" inkscape:locked="false" orientation="0,-1" position="-450.1648,38.485643"></sodipodi:guide>
	<sodipodi:guide  id="guide7" inkscape:locked="false" orientation="0,-1" position="-465.39365,23.179723"></sodipodi:guide>
	<sodipodi:guide  id="guide9" inkscape:locked="false" orientation="0,-1" position="-482.92524,149.83042"></sodipodi:guide>
	<sodipodi:guide  id="guide10" inkscape:locked="false" orientation="1,0" position="-498.38436,164.69082"></sodipodi:guide>
	<sodipodi:guide  id="guide11" inkscape:locked="false" orientation="0,-1" position="-469.72281,163.51655"></sodipodi:guide>
	<sodipodi:guide  id="guide12" inkscape:locked="false" orientation="0,-1" position="-465.39365,178.6705"></sodipodi:guide>
	<sodipodi:guide  id="guide27" inkscape:locked="false" orientation="0,-1" position="-558.6083,143.20475"></sodipodi:guide>
	<sodipodi:guide  id="guide28" inkscape:locked="false" orientation="0,-1" position="-558.6083,138.48854"></sodipodi:guide>
	<sodipodi:guide  id="guide115" inkscape:locked="false" orientation="-0.99813788,0.060998208" position="-470.89683,109.22388">
		</sodipodi:guide>
	
		<sodipodi:guide  id="guide116" inkscape:color="rgb(0,134,229)" inkscape:label="" inkscape:locked="false" orientation="-0.99813788,0.060998194" position="-469.52946,108.39384">
		</sodipodi:guide>
	<sodipodi:guide  id="guide117" inkscape:locked="false" orientation="0,-1" position="-470.54847,102.54319"></sodipodi:guide>
	<sodipodi:guide  id="guide165" inkscape:locked="false" orientation="0,-1" position="-274.55753,98.012234"></sodipodi:guide>
	<sodipodi:guide  id="guide166" inkscape:locked="false" orientation="1,0" position="-275.24868,98.012234"></sodipodi:guide>
	<sodipodi:guide  id="guide167" inkscape:locked="false" orientation="1,0" position="-272.27848,98.012234"></sodipodi:guide>
	<sodipodi:guide  id="guide1" inkscape:locked="false" orientation="1,0" position="-120.30981,156.25268"></sodipodi:guide>
	<sodipodi:guide  id="guide8" inkscape:locked="false" orientation="0,-1" position="-107.92545,125.8038"></sodipodi:guide>
	<sodipodi:guide  id="guide13" inkscape:locked="false" orientation="0,-1" position="-107.92545,115.32659"></sodipodi:guide>
	<sodipodi:guide  id="guide668" inkscape:locked="false" orientation="1,0" position="21.256078,169.03823"></sodipodi:guide>
</sodipodi:namedview>
<g>
	<polygon points="169.3,20.2 167,10.8 152.9,0.8 160.4,16.4 	"/>
	<polygon points="180.6,21.3 175.8,4.7 171.8,21.5 176.4,30.1 	"/>
	<polygon points="164.8,34.3 174.1,37.1 170.8,28 155.7,19.6 	"/>
	<polygon points="177.6,49.1 165.4,36.7 170.1,53.4 178.2,58.8 	"/>
	<polygon points="181.3,48.9 187.3,41.3 186.4,24 178.8,39.5 	"/>
	<polygon points="175.3,67.1 165.7,52.6 167.1,69.9 174.1,76.7 	"/>
	<polygon points="181,66.8 189.2,61.6 194,44.9 181.7,57.1 	"/>
	<polygon points="196.6,64.5 180.7,71.3 176.5,80 186,78.2 	"/>
	<polygon points="161.5,87.5 167.7,95.1 170.1,85.7 162.2,70.2 	"/>
	<polygon points="171.6,93.4 181.3,92.9 193.7,80.9 177,85.3 	"/>
	<polygon points="159.9,97.3 154.9,80.7 151.2,97.6 155.9,106.2 	"/>
	<polygon points="160.6,104.9 170.2,106.3 184.7,96.8 167.4,98 	"/>
	<polygon points="146.1,108.3 147.5,91.1 137.8,105.4 139,115.1 	"/>
	<polygon points="136.3,103.4 120.6,110.6 116.6,119.5 126.1,117.3 	"/>
	<polygon points="114.6,125.7 122.3,131.7 139.6,130.9 124,123.2 	"/>
	<polygon points="131.4,120.7 139.5,126.1 156.7,123.8 140.6,117.4 	"/>
	<polygon points="146.7,114.5 155.9,117.6 171.9,111 154.7,109 	"/>
	<polygon points="65,0.6 50.9,10.6 48.6,20 57.5,16.2 	"/>
	<polygon points="46,21.3 42.1,4.5 37.3,21.1 41.5,29.9 	"/>
	<polygon points="53.1,34.1 62.2,19.4 47.1,27.8 43.8,37 	"/>
	<polygon points="40.3,48.9 39.7,58.6 47.8,53.2 52.4,36.5 	"/>
	<polygon points="39.1,39.3 31.5,23.8 30.6,41.1 36.6,48.7 	"/>
	<polygon points="50.8,69.7 52.2,52.5 42.6,66.9 43.8,76.5 	"/>
	<polygon points="36.9,66.6 36.2,56.9 23.8,44.8 28.7,61.4 	"/>
	<polygon points="41.4,79.9 37.2,71.1 21.2,64.3 31.9,78 	"/>
	<polygon points="56.4,87.4 55.7,70.1 47.8,85.5 50.2,94.9 	"/>
	<polygon points="46.3,93.2 40.9,85.1 24.2,80.7 36.6,92.7 	"/>
	<polygon points="58,97.1 62,106 66.7,97.5 63,80.5 	"/>
	<polygon points="57.3,104.7 50.5,97.8 33.2,96.6 47.7,106.1 	"/>
	<polygon points="78.9,114.9 80.1,105.2 70.4,90.9 71.8,108.1 	"/>
	<polygon points="101.3,119.3 97.3,110.4 81.6,103.2 91.8,117.1 	"/>
	<polygon points="78.3,130.7 95.6,131.5 103.3,125.5 93.9,123 	"/>
	<polygon points="86.5,120.5 77.3,117.3 61.2,123.6 78.4,125.9 	"/>
	<polygon points="71.2,114.3 63.2,108.8 46,110.8 62,117.4 	"/>
	<rect x="104.8" y="117.6" transform="matrix(0.7071 -0.7071 0.7071 0.7071 -54.3066 113.0595)" width="9" height="9"/>
</g>
<g>
	<path d="M14,145.5c0.4-1.2,1-2.2,1.7-3.1c0.7-0.9,1.5-1.5,2.5-2c0.9-0.5,1.9-0.7,2.9-0.7c0.9,0,1.7,0.2,2.5,0.6
		c0.7,0.4,1.3,0.9,1.8,1.6c0.1,0.1,0.2,0.2,0.3,0.2s0.1-0.1,0.2-0.4l0.4-1.6c0-0.1,0.1-0.2,0.1-0.2c0,0,0.1,0,0.2,0h0.7
		c0.1,0,0.2,0,0.2,0.1c0,0,0,0.1,0,0.2v6c0,0.1,0,0.2-0.1,0.3c0,0-0.1,0.1-0.2,0.1h-0.8c-0.1,0-0.2,0-0.2-0.1c0-0.1,0-0.2-0.1-0.3
		c-0.1-0.8-0.4-1.6-0.8-2.3c-0.4-0.7-1-1.3-1.6-1.7c-0.7-0.4-1.4-0.7-2.3-0.7c-1.1,0-2,0.4-2.8,1c-0.8,0.7-1.3,1.7-1.7,2.9
		s-0.6,2.6-0.6,4.1c0,1.5,0.2,2.9,0.6,4.1c0.4,1.2,0.9,2.1,1.7,2.8c0.7,0.7,1.7,1,2.8,1c1,0,1.9-0.3,2.6-0.8
		c0.7-0.5,1.3-1.2,1.7-2.1s0.7-1.8,0.8-2.7c0-0.1,0-0.2,0.1-0.2c0,0,0.1-0.1,0.2-0.1h0.9c0.1,0,0.2,0,0.2,0c0,0,0.1,0.1,0,0.2
		c-0.1,1.4-0.4,2.7-1,3.8c-0.6,1.1-1.3,2-2.3,2.6c-1,0.6-2.1,1-3.5,1c-1.1,0-2.1-0.2-3-0.7c-0.9-0.5-1.7-1.1-2.4-2
		c-0.7-0.9-1.2-1.9-1.5-3.1c-0.4-1.2-0.5-2.5-0.5-3.9C13.4,148,13.6,146.7,14,145.5z"/>
	<path d="M29.9,148.9c0.4-1.1,0.9-1.9,1.6-2.5c0.7-0.6,1.6-0.9,2.7-0.9c1.1,0,2,0.3,2.7,0.9c0.7,0.6,1.3,1.4,1.6,2.4
		c0.4,1,0.5,2.1,0.5,3.2c0,1.3-0.2,2.5-0.5,3.6c-0.4,1.1-0.9,1.9-1.6,2.5c-0.7,0.6-1.6,0.9-2.7,0.9c-1.1,0-2-0.3-2.7-0.9
		c-0.7-0.6-1.3-1.4-1.6-2.4c-0.4-1-0.5-2.1-0.5-3.2C29.4,151.2,29.6,150,29.9,148.9z M32,154.8c0.1,0.9,0.4,1.6,0.7,2.1
		s0.9,0.8,1.6,0.8c0.5,0,0.9-0.1,1.3-0.4c0.3-0.3,0.6-0.7,0.8-1.2c0.2-0.5,0.3-1.1,0.4-1.7c0.1-0.6,0.1-1.2,0.1-1.9
		c0-1-0.1-1.9-0.2-2.8c-0.1-0.9-0.4-1.6-0.7-2.1c-0.4-0.5-0.9-0.8-1.6-0.8c-0.5,0-0.9,0.2-1.2,0.5c-0.3,0.3-0.6,0.7-0.8,1.2
		c-0.2,0.5-0.3,1.1-0.4,1.7c-0.1,0.6-0.1,1.2-0.1,1.9C31.8,153,31.9,153.9,32,154.8z"/>
	<path d="M40.8,147.3c-0.1,0-0.2,0-0.2-0.1c0-0.1,0-0.1,0-0.3v-0.9c0-0.1,0-0.2,0.1-0.3c0-0.1,0.1-0.1,0.2-0.1h3.3
		c0.1,0,0.2,0,0.3,0.1c0.1,0.1,0.1,0.2,0.1,0.3v1.3c0,0.3,0,0.5,0.1,0.5c0,0,0.1-0.1,0.2-0.2c0.3-0.6,0.8-1.2,1.3-1.6
		c0.5-0.4,1.3-0.7,2.1-0.7c0.8,0,1.5,0.2,2,0.5c0.5,0.3,0.8,0.8,1,1.4c0.2,0.6,0.3,1.3,0.3,2.2v7.1c0,0.2,0,0.4,0.1,0.4
		c0,0.1,0.1,0.1,0.3,0.1h1.1c0.1,0,0.2,0,0.2,0.1c0,0.1,0,0.2,0,0.3v0.8c0,0.2,0,0.3-0.1,0.3s-0.1,0-0.3,0h-5c-0.1,0-0.2,0-0.2-0.1
		c0-0.1,0-0.2,0-0.3v-0.8c0-0.1,0-0.2,0-0.3c0-0.1,0.1-0.1,0.2-0.1h1c0.2,0,0.3,0,0.3-0.1c0.1-0.1,0.1-0.2,0.1-0.4v-6.9
		c0-0.9-0.1-1.6-0.4-2c-0.3-0.5-0.7-0.7-1.3-0.7c-0.6,0-1.1,0.2-1.6,0.6s-0.8,1-1.1,1.6c-0.2,0.7-0.4,1.5-0.4,2.3v5
		c0,0.2,0,0.3,0.1,0.4c0.1,0.1,0.2,0.1,0.3,0.1h0.9c0.1,0,0.2,0,0.3,0.1c0.1,0.1,0.1,0.2,0.1,0.4v0.7c0,0.2,0,0.3-0.1,0.3
		c0,0-0.1,0.1-0.2,0.1h-5c-0.1,0-0.2,0-0.2-0.1c0-0.1,0-0.2,0-0.3v-0.7c0-0.2,0-0.3,0.1-0.3c0.1,0,0.1-0.1,0.3-0.1H42
		c0.1,0,0.2,0,0.3-0.1s0.1-0.1,0.1-0.3v-9.3c0-0.1,0-0.2-0.1-0.2c0,0-0.1,0-0.2,0H40.8z"/>
	<path d="M54.6,148.9c0.4-1.1,0.9-1.9,1.6-2.5c0.7-0.6,1.6-0.9,2.7-0.9c1.1,0,2,0.3,2.7,0.9c0.7,0.6,1.3,1.4,1.6,2.4
		c0.4,1,0.5,2.1,0.5,3.2c0,1.3-0.2,2.5-0.5,3.6c-0.4,1.1-0.9,1.9-1.6,2.5c-0.7,0.6-1.6,0.9-2.7,0.9c-1.1,0-2-0.3-2.7-0.9
		c-0.7-0.6-1.3-1.4-1.6-2.4c-0.4-1-0.5-2.1-0.5-3.2C54,151.2,54.2,150,54.6,148.9z M56.7,154.8c0.1,0.9,0.4,1.6,0.7,2.1
		s0.9,0.8,1.6,0.8c0.5,0,0.9-0.1,1.3-0.4c0.3-0.3,0.6-0.7,0.8-1.2c0.2-0.5,0.3-1.1,0.4-1.7c0.1-0.6,0.1-1.2,0.1-1.9
		c0-1-0.1-1.9-0.2-2.8c-0.1-0.9-0.4-1.6-0.7-2.1c-0.4-0.5-0.9-0.8-1.6-0.8c-0.5,0-0.9,0.2-1.2,0.5c-0.3,0.3-0.6,0.7-0.8,1.2
		c-0.2,0.5-0.3,1.1-0.4,1.7c-0.1,0.6-0.1,1.2-0.1,1.9C56.5,153,56.5,153.9,56.7,154.8z"/>
	<path d="M65.9,149.6c0.2-0.8,0.6-1.5,1-2.2c0.4-0.6,1-1.1,1.6-1.5c0.6-0.4,1.4-0.5,2.2-0.5c0.9,0,1.6,0.2,2.2,0.5
		c0.6,0.3,1.1,0.8,1.4,1.4c0.3,0.6,0.5,1.2,0.5,1.9c0,0.6-0.2,1.1-0.5,1.4c-0.3,0.3-0.6,0.4-1,0.4c-0.3,0-0.6-0.1-0.9-0.4
		s-0.4-0.7-0.4-1.2c0-0.3,0.1-0.6,0.2-0.7c0.1-0.2,0.2-0.3,0.3-0.5s0.2-0.3,0.2-0.5c0-0.3-0.2-0.6-0.5-0.8c-0.3-0.2-0.8-0.3-1.3-0.3
		c-0.7,0-1.2,0.3-1.7,0.8c-0.4,0.5-0.8,1.2-1,2s-0.3,1.7-0.3,2.7c0,0.9,0.1,1.8,0.3,2.6c0.2,0.8,0.5,1.5,0.9,2
		c0.4,0.5,0.9,0.8,1.6,0.8c0.8,0,1.4-0.3,1.9-0.8c0.5-0.5,0.9-1.3,1.1-2.1c0-0.1,0.1-0.2,0.1-0.2c0,0,0.1-0.1,0.2-0.1h0.8
		c0.1,0,0.2,0,0.2,0c0,0,0,0.1,0,0.2c-0.2,0.9-0.5,1.6-0.9,2.3s-0.9,1.2-1.4,1.5c-0.6,0.4-1.3,0.5-2.1,0.5c-1.2,0-2.1-0.3-2.9-0.9
		c-0.7-0.6-1.3-1.4-1.7-2.5c-0.4-1-0.5-2.2-0.5-3.4C65.6,151.3,65.7,150.4,65.9,149.6z"/>
	<path d="M77.2,148.9c0.4-1.1,0.9-1.9,1.7-2.5s1.7-0.9,2.8-0.9c0.7,0,1.3,0.1,1.8,0.4c0.5,0.3,0.9,0.6,1.3,1.1
		c0.3,0.4,0.6,1,0.8,1.5s0.4,1.1,0.4,1.8s0.1,1.2,0.1,1.8c0,0.2,0,0.3-0.1,0.3c0,0-0.1,0.1-0.3,0.1h-6.4c-0.1,0-0.2,0-0.2,0.1
		s-0.1,0.1-0.1,0.3c0,0.9,0.1,1.7,0.3,2.4s0.5,1.4,0.9,1.8s0.9,0.7,1.6,0.7c0.8,0,1.4-0.3,1.9-0.8c0.5-0.5,0.9-1.2,1.1-2.1
		c0-0.1,0.1-0.2,0.1-0.2c0-0.1,0.1-0.1,0.2-0.1h0.8c0.1,0,0.2,0,0.2,0.1c0,0,0,0.1,0,0.2c-0.2,0.9-0.5,1.6-0.9,2.3s-0.9,1.2-1.5,1.5
		c-0.6,0.4-1.3,0.5-2.2,0.5c-1,0-1.9-0.3-2.6-0.9c-0.7-0.6-1.3-1.4-1.6-2.4c-0.4-1-0.6-2.1-0.6-3.2
		C76.6,151.1,76.8,149.9,77.2,148.9z M83.5,151c0.1,0,0.2,0,0.2,0c0,0,0-0.1,0-0.2c0-0.4,0-0.8-0.1-1.3c-0.1-0.5-0.2-0.9-0.4-1.3
		s-0.4-0.8-0.7-1c-0.3-0.3-0.6-0.4-1-0.4c-0.6,0-1,0.2-1.4,0.6c-0.4,0.4-0.7,0.9-0.8,1.5c-0.2,0.6-0.3,1.2-0.3,1.8
		c0,0.1,0,0.2,0,0.3c0,0,0.1,0.1,0.2,0.1H83.5z"/>
	<path d="M89.1,147.4c0-0.1-0.1-0.1-0.3-0.1h-1.1c-0.1,0-0.2,0-0.3-0.1s0-0.2,0-0.4v-0.6c0-0.2,0-0.3,0.1-0.4c0-0.1,0.1-0.1,0.3-0.1
		h3.2c0.1,0,0.2,0,0.3,0.1c0.1,0,0.1,0.1,0.1,0.3v1.3c0,0.2,0,0.3,0,0.4c0,0,0.1-0.1,0.2-0.3c0.3-0.6,0.6-1.1,1-1.4
		c0.4-0.4,1-0.6,1.7-0.6c0.6,0,1.1,0.2,1.6,0.7c0.5,0.4,0.7,1,0.7,1.8c0,0.4-0.1,0.7-0.2,1c-0.1,0.3-0.3,0.6-0.5,0.8
		c-0.2,0.2-0.5,0.3-0.7,0.3c-0.4,0-0.7-0.1-1-0.4s-0.4-0.6-0.4-1c0-0.3,0-0.6,0.1-0.7c0.1-0.2,0.2-0.3,0.2-0.4
		c0.1-0.1,0.1-0.2,0.1-0.3c0-0.1,0-0.2-0.1-0.3c-0.1-0.1-0.2-0.1-0.4-0.1c-0.4,0-0.8,0.2-1.2,0.7c-0.4,0.5-0.6,1.1-0.8,1.8
		c-0.2,0.7-0.3,1.5-0.3,2.4v5c0,0.2,0,0.3,0,0.4c0,0.1,0.1,0.1,0.3,0.1h1.2c0.1,0,0.2,0,0.2,0.1s0,0.2,0,0.3v0.7c0,0.2,0,0.3,0,0.3
		c0,0.1-0.1,0.1-0.2,0.1h-5.1c-0.1,0-0.2,0-0.2,0s-0.1-0.1-0.1-0.2v-0.9c0-0.1,0-0.2,0.1-0.3c0,0,0.1-0.1,0.2-0.1h1.1
		c0.2,0,0.3,0,0.3-0.1c0.1-0.1,0.1-0.2,0.1-0.4v-9C89.2,147.6,89.2,147.4,89.1,147.4z"/>
	<path d="M103,160.8c0.1-0.3,0.3-0.6,0.5-0.8s0.5-0.3,0.7-0.3c0.3,0,0.6,0.1,0.8,0.4c0.2,0.2,0.3,0.6,0.3,1c0,0.2,0,0.4-0.1,0.6
		s-0.1,0.3-0.2,0.3c-0.1,0.1-0.2,0.2-0.3,0.2s-0.2,0.1-0.2,0.2s-0.1,0.2-0.1,0.3c0,0.3,0.1,0.5,0.3,0.7c0.2,0.2,0.4,0.3,0.8,0.3
		c0.3,0,0.5-0.1,0.9-0.3s0.6-0.6,1-1.1c0.3-0.5,0.6-1.3,0.9-2.2l0.2-0.7c0.1-0.3,0.1-0.5,0.1-0.6c0-0.1-0.1-0.3-0.1-0.6l-3.9-10.6
		c-0.1-0.2-0.1-0.3-0.2-0.4c0-0.1-0.2-0.1-0.4-0.1h-0.8c-0.1,0-0.2,0-0.3-0.1c0-0.1-0.1-0.2-0.1-0.3V146c0-0.1,0-0.2,0.1-0.2
		c0,0,0.1,0,0.2,0h5c0.2,0,0.3,0,0.3,0.1c0,0.1,0.1,0.2,0.1,0.4v0.5c0,0.2,0,0.4-0.1,0.5c0,0.1-0.2,0.1-0.4,0.1h-0.9
		c-0.2,0-0.3,0-0.4,0.1c0,0,0,0.1,0,0.3l2.5,7c0.1,0.3,0.2,0.5,0.2,0.6c0.1,0.2,0.1,0.2,0.1,0.2c0.1,0,0.1-0.1,0.2-0.2
		c0-0.2,0.1-0.4,0.2-0.7l2.2-6.9c0.1-0.2,0.1-0.3,0-0.3s-0.2-0.1-0.4-0.1h-0.7c-0.1,0-0.2,0-0.3-0.1c0-0.1-0.1-0.2-0.1-0.4v-0.6
		c0-0.2,0-0.4,0.1-0.4c0.1-0.1,0.2-0.1,0.3-0.1h3.7c0.1,0,0.2,0,0.2,0c0.1,0,0.1,0.1,0.1,0.3v0.7c0,0.2,0,0.3,0,0.4
		c0,0.1-0.1,0.1-0.3,0.1h-0.8c-0.2,0-0.4,0-0.4,0.1c0,0.1-0.1,0.2-0.2,0.4l-4.3,13.3c-0.3,1.1-0.7,1.9-1.2,2.5
		c-0.4,0.6-0.9,1-1.3,1.2c-0.5,0.2-0.9,0.3-1.3,0.3c-0.5,0-1-0.2-1.4-0.5c-0.4-0.3-0.7-0.7-0.9-1.2c-0.2-0.5-0.3-1.1-0.3-1.6
		C102.8,161.5,102.9,161.1,103,160.8z"/>
	<path d="M125.3,157.5c0-0.2,0-0.3,0.1-0.4c0.1,0,0.2-0.1,0.3-0.1h1.6c0.2,0,0.4,0,0.5-0.1c0.1-0.1,0.1-0.3,0.1-0.6V142
		c0-0.2,0-0.4-0.1-0.4c-0.1-0.1-0.2-0.1-0.3-0.1h-0.8c-0.8,0-1.5,0.1-2,0.4c-0.5,0.3-0.8,0.7-1,1.4s-0.3,1.6-0.3,2.7
		c0,0.2,0,0.3-0.1,0.4s-0.2,0.1-0.3,0.1h-0.4c-0.2,0-0.3-0.1-0.3-0.2c0-0.1-0.1-0.3-0.1-0.5v-5.3c0-0.3,0-0.5,0.1-0.6
		c0-0.1,0.2-0.1,0.4-0.1h12.8c0.2,0,0.3,0,0.3,0.1s0.1,0.2,0.1,0.5v5.6c0,0.2,0,0.3-0.1,0.4s-0.2,0.1-0.3,0.1h-0.4
		c-0.2,0-0.3,0-0.4-0.1c0-0.1-0.1-0.2-0.1-0.5c0-1.1-0.1-2-0.3-2.7c-0.2-0.6-0.5-1.1-1-1.4c-0.5-0.3-1.1-0.4-2-0.4h-0.9
		c-0.2,0-0.3,0-0.3,0.1c0,0.1-0.1,0.2-0.1,0.4v14.3c0,0.3,0,0.5,0.1,0.6c0.1,0.1,0.2,0.1,0.5,0.1h1.6c0.2,0,0.3,0,0.4,0.1
		c0,0.1,0.1,0.2,0.1,0.5v0.5c0,0.3,0,0.4-0.1,0.5c-0.1,0.1-0.2,0.1-0.4,0.1h-6.3c-0.2,0-0.3,0-0.4-0.1c-0.1-0.1-0.1-0.2-0.1-0.4
		V157.5z"/>
	<path d="M138.6,147.4c0-0.1-0.1-0.1-0.3-0.1h-1.1c-0.1,0-0.2,0-0.3-0.1c0-0.1,0-0.2,0-0.4v-0.6c0-0.2,0-0.3,0.1-0.4
		c0-0.1,0.1-0.1,0.3-0.1h3.2c0.1,0,0.2,0,0.3,0.1c0.1,0,0.1,0.1,0.1,0.3v1.3c0,0.2,0,0.3,0,0.4c0,0,0.1-0.1,0.2-0.3
		c0.3-0.6,0.6-1.1,1-1.4c0.4-0.4,1-0.6,1.7-0.6c0.6,0,1.1,0.2,1.6,0.7c0.5,0.4,0.7,1,0.7,1.8c0,0.4-0.1,0.7-0.2,1
		c-0.1,0.3-0.3,0.6-0.5,0.8s-0.5,0.3-0.7,0.3c-0.4,0-0.7-0.1-1-0.4c-0.3-0.3-0.4-0.6-0.4-1c0-0.3,0-0.6,0.1-0.7
		c0.1-0.2,0.2-0.3,0.2-0.4c0.1-0.1,0.1-0.2,0.1-0.3c0-0.1,0-0.2-0.1-0.3s-0.2-0.1-0.4-0.1c-0.4,0-0.8,0.2-1.2,0.7
		c-0.4,0.5-0.6,1.1-0.8,1.8s-0.3,1.5-0.3,2.4v5c0,0.2,0,0.3,0,0.4c0,0.1,0.1,0.1,0.3,0.1h1.2c0.1,0,0.2,0,0.2,0.1c0,0.1,0,0.2,0,0.3
		v0.7c0,0.2,0,0.3,0,0.3c0,0.1-0.1,0.1-0.2,0.1h-5.1c-0.1,0-0.2,0-0.2,0s-0.1-0.1-0.1-0.2v-0.9c0-0.1,0-0.2,0.1-0.3s0.1-0.1,0.2-0.1
		h1.1c0.2,0,0.3,0,0.3-0.1c0.1-0.1,0.1-0.2,0.1-0.4v-9C138.6,147.6,138.6,147.4,138.6,147.4z"/>
	<path d="M147.2,147.3c-0.1,0-0.2,0-0.2-0.1c0,0,0-0.1,0-0.2V146c0-0.2,0.1-0.3,0.2-0.3h3.5c0.1,0,0.1,0,0.2,0c0,0,0,0.1,0,0.2v10.9
		c0,0.1,0,0.2,0,0.2c0,0,0.1,0.1,0.2,0.1h1.3c0.1,0,0.2,0,0.2,0c0,0,0,0.1,0,0.2v1c0,0.1,0,0.2,0,0.2s-0.1,0.1-0.2,0.1h-5.2
		c-0.1,0-0.2,0-0.2,0c0,0-0.1-0.1-0.1-0.2v-0.9c0-0.2,0-0.3,0.1-0.3c0,0,0.1-0.1,0.2-0.1h1.2c0.1,0,0.2,0,0.2-0.1c0,0,0-0.1,0-0.3
		v-9.3c0-0.2-0.1-0.3-0.2-0.3H147.2z M148.7,140.1c0.3-0.3,0.6-0.5,1-0.5s0.7,0.2,1,0.5c0.3,0.3,0.4,0.7,0.4,1.2
		c0,0.5-0.1,0.9-0.4,1.2c-0.3,0.3-0.6,0.5-1,0.5s-0.7-0.2-1-0.5c-0.3-0.3-0.4-0.7-0.4-1.2C148.3,140.8,148.5,140.4,148.7,140.1z"/>
	<path d="M154.9,147.7c0-0.2,0-0.3,0-0.3c0-0.1-0.1-0.1-0.2-0.1h-1.2c-0.1,0-0.2,0-0.3-0.1c-0.1,0-0.1-0.1-0.1-0.3v-0.7
		c0-0.2,0-0.3,0.1-0.4c0-0.1,0.1-0.1,0.3-0.1h3.2c0.2,0,0.3,0,0.3,0.1s0.1,0.2,0.1,0.3v8.5c0,0.9,0.1,1.6,0.4,2.1s0.7,0.8,1.3,0.8
		c0.6,0,1.1-0.2,1.6-0.7s0.8-1,1.1-1.8c0.3-0.7,0.4-1.5,0.4-2.4v-5.1c0-0.2,0-0.3-0.1-0.4c-0.1,0-0.2-0.1-0.3-0.1h-1
		c-0.1,0-0.2,0-0.2,0s-0.1-0.1-0.1-0.2v-0.9c0-0.1,0-0.2,0-0.3c0-0.1,0.1-0.1,0.2-0.1h3.4c0.1,0,0.2,0,0.2,0.1c0,0.1,0,0.2,0,0.3
		v10.6c0,0.2,0,0.3,0.1,0.4s0.1,0.1,0.3,0.1h1.1c0.1,0,0.2,0,0.2,0.1c0.1,0,0.1,0.1,0.1,0.3v0.8c0,0.2,0,0.3,0,0.3
		c0,0.1-0.1,0.1-0.2,0.1h-3.2c-0.2,0-0.2,0-0.3-0.1s-0.1-0.2-0.1-0.4v-1.4c0-0.1,0-0.2-0.1-0.2c0,0-0.1,0-0.2,0.2
		c-0.3,0.7-0.7,1.2-1.3,1.6c-0.5,0.4-1.2,0.6-2.1,0.6c-0.8,0-1.5-0.2-2-0.5c-0.5-0.3-0.8-0.8-1-1.4c-0.2-0.6-0.3-1.3-0.3-2.2V147.7z
		"/>
	<path d="M167.2,147.3c-0.1,0-0.2,0-0.2-0.1c0-0.1,0-0.1,0-0.3v-0.9c0-0.1,0-0.2,0.1-0.3c0-0.1,0.1-0.1,0.2-0.1h3.3
		c0.1,0,0.2,0,0.3,0.1c0.1,0.1,0.1,0.2,0.1,0.3v1.3c0,0.3,0,0.5,0.1,0.5c0,0,0.1-0.1,0.2-0.2c0.3-0.6,0.8-1.2,1.3-1.6
		c0.5-0.4,1.3-0.7,2.1-0.7c0.8,0,1.5,0.2,2,0.5s0.8,0.8,1,1.4c0.2,0.6,0.3,1.3,0.3,2.2v7.1c0,0.2,0,0.4,0.1,0.4
		c0,0.1,0.1,0.1,0.3,0.1h1.1c0.1,0,0.2,0,0.2,0.1c0,0.1,0,0.2,0,0.3v0.8c0,0.2,0,0.3-0.1,0.3s-0.1,0-0.3,0h-5c-0.1,0-0.2,0-0.2-0.1
		s0-0.2,0-0.3v-0.8c0-0.1,0-0.2,0-0.3c0-0.1,0.1-0.1,0.2-0.1h1c0.2,0,0.3,0,0.3-0.1c0.1-0.1,0.1-0.2,0.1-0.4v-6.9
		c0-0.9-0.1-1.6-0.4-2c-0.3-0.5-0.7-0.7-1.3-0.7c-0.6,0-1.1,0.2-1.6,0.6c-0.5,0.4-0.8,1-1.1,1.6c-0.2,0.7-0.4,1.5-0.4,2.3v5
		c0,0.2,0,0.3,0.1,0.4c0.1,0.1,0.2,0.1,0.3,0.1h0.9c0.1,0,0.2,0,0.3,0.1c0,0.1,0.1,0.2,0.1,0.4v0.7c0,0.2,0,0.3-0.1,0.3
		s-0.1,0.1-0.2,0.1h-5c-0.1,0-0.2,0-0.2-0.1c0-0.1,0-0.2,0-0.3v-0.7c0-0.2,0-0.3,0.1-0.3c0.1,0,0.1-0.1,0.3-0.1h1.1
		c0.1,0,0.2,0,0.3-0.1s0.1-0.1,0.1-0.3v-9.3c0-0.1,0-0.2-0.1-0.2s-0.1,0-0.2,0H167.2z"/>
	<path d="M184.2,156.7c0,0.2,0,0.3,0,0.4s0.1,0.1,0.3,0.1h1.6c0.1,0,0.2,0,0.3,0c0.1,0,0.1,0.1,0.1,0.3v0.8c0,0.2,0,0.3-0.1,0.3
		c0,0-0.1,0.1-0.3,0.1h-5.7c-0.1,0-0.2,0-0.2-0.1c0,0,0-0.1,0-0.3v-0.9c0-0.1,0-0.2,0.1-0.3c0,0,0.1-0.1,0.2-0.1h1.2
		c0.1,0,0.2,0,0.2-0.1s0-0.1,0-0.3v-9.1c0-0.2,0-0.3,0-0.3s-0.1-0.1-0.2-0.1h-1.3c-0.1,0-0.2,0-0.2,0c0,0-0.1-0.1-0.1-0.3V146
		c0-0.1,0-0.2,0.1-0.3c0,0,0.1-0.1,0.2-0.1h1.2c0.1,0,0.2,0,0.2-0.1c0,0,0-0.1,0-0.3v-0.9c0-1.1,0.2-2,0.5-2.8s0.8-1.5,1.4-1.9
		s1.4-0.7,2.3-0.7c0.7,0,1.4,0.1,1.9,0.4c0.5,0.3,0.9,0.6,1.2,1.1c0.3,0.4,0.4,0.9,0.4,1.4c0,0.6-0.1,1.1-0.4,1.4
		c-0.3,0.3-0.6,0.5-1,0.5c-0.4,0-0.7-0.1-1-0.4c-0.2-0.3-0.4-0.6-0.4-1c0-0.3,0-0.5,0.1-0.6s0.2-0.3,0.2-0.4
		c0.1-0.1,0.1-0.3,0.1-0.4c0-0.1-0.1-0.3-0.3-0.4c-0.2-0.1-0.5-0.2-1-0.2c-0.5,0-0.9,0.2-1.2,0.5c-0.3,0.3-0.5,0.9-0.7,1.6
		c-0.1,0.7-0.2,1.6-0.2,2.7v0.4c0,0.1,0,0.2,0,0.3c0,0,0.1,0.1,0.2,0.1h2.1c0.1,0,0.2,0,0.3,0.1c0,0,0.1,0.1,0.1,0.3v0.8
		c0,0.2,0,0.3,0,0.3c0,0-0.1,0.1-0.3,0.1h-2.1c-0.1,0-0.2,0-0.2,0.1c0,0.1,0,0.2,0,0.3V156.7z"/>
	<path d="M188.8,153.4c0.4-0.7,1-1.2,1.8-1.6c0.8-0.4,1.7-0.6,2.9-0.6h0.9c0.1,0,0.2,0,0.2,0c0,0,0-0.1,0-0.3v-1.4
		c0-0.5-0.1-1-0.2-1.4s-0.3-0.8-0.6-1c-0.3-0.2-0.7-0.4-1.2-0.4c-0.3,0-0.6,0-0.9,0.1c-0.3,0.1-0.5,0.2-0.7,0.3
		c-0.2,0.1-0.3,0.3-0.3,0.4c0,0.1,0,0.2,0.1,0.3c0.1,0.1,0.2,0.2,0.3,0.3c0.1,0.1,0.1,0.4,0.1,0.7c0,0.5-0.1,0.8-0.3,1.1
		s-0.5,0.4-0.9,0.4c-0.3,0-0.7-0.1-0.9-0.3c-0.3-0.2-0.4-0.6-0.4-1.2c0-0.6,0.1-1.1,0.4-1.5c0.3-0.4,0.6-0.8,1-1.1s0.9-0.5,1.4-0.7
		c0.5-0.1,1.1-0.2,1.6-0.2c0.9,0,1.6,0.2,2.2,0.5c0.5,0.4,0.9,0.9,1.1,1.5c0.2,0.6,0.3,1.3,0.3,2v7.2c0,0.2,0.1,0.4,0.2,0.5
		c0.1,0.1,0.2,0.2,0.4,0.2s0.3,0,0.4-0.1c0.2-0.1,0.3-0.3,0.5-0.7c0.1-0.1,0.1-0.2,0.2-0.1l0.5,0.4c0.1,0.1,0.1,0.2,0.1,0.3
		c-0.2,0.4-0.3,0.7-0.6,0.9s-0.5,0.5-0.8,0.6c-0.3,0.1-0.6,0.2-0.9,0.2h0c-0.5,0-0.9-0.1-1.1-0.3c-0.3-0.2-0.4-0.4-0.5-0.7
		c-0.1-0.3-0.2-0.5-0.2-0.7c0-0.2-0.1-0.2-0.1-0.2s-0.1,0.1-0.2,0.2c-0.1,0.2-0.3,0.4-0.5,0.7c-0.2,0.3-0.6,0.5-1,0.7
		s-1,0.3-1.6,0.3c-0.9,0-1.7-0.3-2.3-0.9c-0.6-0.6-0.9-1.4-0.9-2.5C188.2,154.8,188.4,154.1,188.8,153.4z M191.1,156.9
		c0.4,0.3,0.8,0.5,1.3,0.5c0.6,0,1.2-0.3,1.6-0.9c0.4-0.6,0.6-1.4,0.6-2.5v-1.3c0-0.2-0.1-0.2-0.2-0.2h-0.9c-0.7,0-1.3,0.1-1.7,0.4
		c-0.4,0.2-0.7,0.6-0.9,1c-0.2,0.4-0.3,1-0.3,1.5C190.6,156,190.7,156.6,191.1,156.9z"/>
	<path d="M201.2,147.4c0-0.1-0.1-0.1-0.3-0.1h-1.1c-0.1,0-0.2,0-0.3-0.1s0-0.2,0-0.4v-0.6c0-0.2,0-0.3,0.1-0.4
		c0-0.1,0.1-0.1,0.3-0.1h3.2c0.1,0,0.2,0,0.3,0.1c0.1,0,0.1,0.1,0.1,0.3v1.3c0,0.2,0,0.3,0,0.4c0,0,0.1-0.1,0.2-0.3
		c0.3-0.6,0.6-1.1,1-1.4c0.4-0.4,1-0.6,1.7-0.6c0.6,0,1.1,0.2,1.6,0.7c0.5,0.4,0.7,1,0.7,1.8c0,0.4-0.1,0.7-0.2,1
		c-0.1,0.3-0.3,0.6-0.5,0.8c-0.2,0.2-0.5,0.3-0.7,0.3c-0.4,0-0.7-0.1-1-0.4s-0.4-0.6-0.4-1c0-0.3,0-0.6,0.1-0.7
		c0.1-0.2,0.2-0.3,0.2-0.4c0.1-0.1,0.1-0.2,0.1-0.3c0-0.1,0-0.2-0.1-0.3c-0.1-0.1-0.2-0.1-0.4-0.1c-0.4,0-0.8,0.2-1.2,0.7
		c-0.4,0.5-0.6,1.1-0.8,1.8c-0.2,0.7-0.3,1.5-0.3,2.4v5c0,0.2,0,0.3,0,0.4c0,0.1,0.1,0.1,0.3,0.1h1.2c0.1,0,0.2,0,0.2,0.1
		s0,0.2,0,0.3v0.7c0,0.2,0,0.3,0,0.3c0,0.1-0.1,0.1-0.2,0.1h-5.1c-0.1,0-0.2,0-0.2,0s-0.1-0.1-0.1-0.2v-0.9c0-0.1,0-0.2,0.1-0.3
		c0,0,0.1-0.1,0.2-0.1h1.1c0.2,0,0.3,0,0.3-0.1c0.1-0.1,0.1-0.2,0.1-0.4v-9C201.3,147.6,201.2,147.4,201.2,147.4z"/>
</g>
<g>
	<path d="M79,52.8c0.5-1.6,1.2-2.9,2.1-4c0.9-1.1,1.9-2,3.1-2.6c1.2-0.6,2.4-0.9,3.7-0.9c1.2,0,2.3,0.3,3.3,0.9
		c1,0.6,1.8,1.3,2.4,2.2c0.1,0.2,0.2,0.3,0.3,0.2c0.1,0,0.1-0.2,0.2-0.5l0.5-2.4c0-0.1,0-0.2,0.1-0.2c0,0,0.1-0.1,0.2-0.1h0.7
		c0.1,0,0.2,0,0.2,0.1c0,0,0,0.1,0,0.3v7.8c0,0.2,0,0.3-0.1,0.3c-0.1,0.1-0.2,0.1-0.3,0.1h-0.8c-0.2,0-0.2,0-0.3-0.1
		c0-0.1,0-0.2-0.1-0.4c-0.1-1.1-0.5-2.1-1.1-3.1c-0.6-1-1.3-1.8-2.2-2.4c-0.9-0.6-1.9-0.9-3.1-0.9c-1.5,0-2.7,0.5-3.8,1.4
		c-1,1-1.8,2.3-2.3,3.9c-0.5,1.6-0.8,3.5-0.8,5.5s0.2,3.8,0.7,5.4c0.5,1.6,1.2,2.9,2.2,3.9c1,1,2.2,1.4,3.7,1.4
		c1.4,0,2.6-0.4,3.5-1.1c1-0.8,1.8-1.7,2.3-2.9c0.6-1.2,0.9-2.5,1-3.8c0-0.1,0-0.2,0.1-0.2c0,0,0.1-0.1,0.2-0.1h0.9
		c0.1,0,0.2,0,0.2,0c0,0,0.1,0.1,0.1,0.2c-0.1,1.9-0.5,3.5-1.2,5c-0.7,1.5-1.7,2.7-2.9,3.5c-1.2,0.9-2.7,1.3-4.4,1.3
		c-1.4,0-2.6-0.3-3.8-0.9c-1.1-0.6-2.1-1.5-3-2.6s-1.5-2.5-1.9-4c-0.5-1.6-0.7-3.2-0.7-5.1C78.2,56.1,78.5,54.4,79,52.8z"/>
	<path d="M123.6,69.1c0-0.3,0-0.4,0.1-0.5c0.1-0.1,0.2-0.1,0.4-0.1h2.1c0.3,0,0.5,0,0.6-0.1c0.1-0.1,0.1-0.4,0.1-0.8V47.9
		c0-0.3,0-0.5-0.1-0.6c-0.1-0.1-0.2-0.1-0.5-0.1h-1.2c-1.1,0-2,0.2-2.6,0.6c-0.6,0.4-1.1,1-1.3,1.9c-0.3,0.9-0.4,2.1-0.4,3.7
		c0,0.3,0,0.4-0.1,0.5c0,0.1-0.2,0.1-0.4,0.1h-0.4c-0.2,0-0.3-0.1-0.4-0.2c0-0.2-0.1-0.4-0.1-0.6v-6.7c0-0.4,0-0.6,0.1-0.7
		c0.1-0.1,0.2-0.1,0.5-0.1h16.2c0.2,0,0.4,0,0.5,0.1c0.1,0.1,0.1,0.3,0.1,0.6v7.1c0,0.2,0,0.4-0.1,0.4c-0.1,0-0.2,0.1-0.4,0.1H136
		c-0.2,0-0.4-0.1-0.4-0.2c0-0.1-0.1-0.3-0.1-0.6c0-1.5-0.2-2.7-0.4-3.6c-0.3-0.9-0.7-1.5-1.3-1.8c-0.6-0.4-1.5-0.5-2.6-0.5h-1.3
		c-0.2,0-0.4,0-0.4,0.1c-0.1,0.1-0.1,0.3-0.1,0.6v19.6c0,0.4,0,0.7,0.1,0.8c0.1,0.1,0.3,0.2,0.6,0.2h2.1c0.3,0,0.4,0,0.5,0.1
		c0.1,0.1,0.1,0.3,0.1,0.7v0.3c0,0.3-0.1,0.5-0.2,0.6s-0.3,0.1-0.5,0.1h-7.8c-0.2,0-0.4,0-0.5-0.1c-0.1-0.1-0.1-0.3-0.1-0.6V69.1z"
		/>
	<path d="M99,77.7c0.2-0.4,0.5-0.8,0.9-1c0.4-0.2,0.8-0.4,1.2-0.4c0.5,0,1,0.2,1.4,0.5s0.5,0.8,0.5,1.4c0,0.3-0.1,0.6-0.2,0.8
		s-0.2,0.3-0.4,0.4c-0.2,0.1-0.3,0.2-0.5,0.3s-0.3,0.2-0.4,0.3c-0.1,0.1-0.2,0.2-0.2,0.4c0,0.4,0.2,0.7,0.5,0.9
		c0.3,0.3,0.7,0.4,1.3,0.4c0.4,0,0.9-0.1,1.4-0.4c0.5-0.3,1-0.7,1.6-1.4c0.5-0.7,1.1-1.7,1.6-2.9l0.4-0.9c0.1-0.3,0.2-0.6,0.2-0.8
		s-0.1-0.4-0.2-0.8l-6.4-14c-0.1-0.2-0.2-0.4-0.3-0.5c-0.1-0.1-0.3-0.1-0.6-0.1h-1.4c-0.2,0-0.4,0-0.5-0.1c-0.1-0.1-0.1-0.2-0.1-0.5
		v-1.1c0-0.2,0-0.2,0.1-0.3c0.1,0,0.2-0.1,0.3-0.1h8.3c0.3,0,0.4,0,0.5,0.1c0.1,0.1,0.1,0.3,0.1,0.6v0.6c0,0.3,0,0.5-0.1,0.6
		c-0.1,0.1-0.3,0.1-0.6,0.1h-1.5c-0.3,0-0.5,0-0.6,0.1c-0.1,0-0.1,0.2,0,0.4l4.1,9.2c0.2,0.4,0.3,0.6,0.4,0.8s0.2,0.3,0.2,0.3
		c0.1,0,0.2-0.1,0.3-0.3c0.1-0.2,0.2-0.5,0.3-0.9l3.6-9c0.1-0.2,0.1-0.4,0-0.5c-0.1-0.1-0.3-0.1-0.6-0.1h-1.1c-0.2,0-0.4,0-0.5-0.1
		c-0.1-0.1-0.1-0.2-0.1-0.5v-0.8c0-0.3,0-0.5,0.1-0.6s0.3-0.1,0.5-0.1h6.1c0.2,0,0.3,0,0.4,0.1c0.1,0,0.1,0.2,0.1,0.3v1
		c0,0.2,0,0.4-0.1,0.5c-0.1,0.1-0.2,0.2-0.5,0.2h-1.3c-0.4,0-0.6,0.1-0.7,0.2c-0.1,0.1-0.2,0.3-0.3,0.6l-7.1,17.6
		c-0.6,1.4-1.2,2.5-1.9,3.3c-0.7,0.8-1.5,1.3-2.2,1.6c-0.8,0.3-1.5,0.4-2.2,0.4c-0.9,0-1.7-0.2-2.3-0.6s-1.1-0.9-1.5-1.6
		c-0.3-0.7-0.5-1.4-0.5-2.2C98.7,78.6,98.8,78.1,99,77.7z"/>
</g>
</svg>
