<?xml version="1.0" encoding="utf-8"?>
<!-- Generator: Adobe Illustrator 26.1.0, SVG Export Plug-In . SVG Version: 6.00 Build 0)  -->
<svg version="1.1"
	 id="svg1" inkscape:version="1.3.2 (091e20e, 2023-11-25, custom)" xmlns:inkscape="http://www.inkscape.org/namespaces/inkscape" xmlns:sodipodi="http://sodipodi.sourceforge.net/DTD/sodipodi-0.dtd" xmlns:svg="http://www.w3.org/2000/svg"
	 xmlns="http://www.w3.org/2000/svg" xmlns:xlink="http://www.w3.org/1999/xlink" x="0px" y="0px" viewBox="0 0 427.6 131.1"
	 style="enable-background:new 0 0 427.6 131.1;" xml:space="preserve">
<style type="text/css">
	.st0{enable-background:new    ;}
</style>
<sodipodi:namedview  bordercolor="#eeeeee" borderopacity="1" id="namedview1" inkscape:current-layer="layer3" inkscape:cx="349.31075" inkscape:cy="251.37646" inkscape:deskcolor="#505050" inkscape:document-units="mm" inkscape:lockguides="false" inkscape:pagecheckerboard="false" inkscape:pageopacity="0" inkscape:showpageshadow="0" inkscape:window-height="1261" inkscape:window-maximized="1" inkscape:window-width="2400" inkscape:window-x="-9" inkscape:window-y="-9" inkscape:zoom="1.4142136" pagecolor="#505050" showguides="false">
	<sodipodi:guide  id="guide2" inkscape:locked="false" orientation="0,-1" position="-312.65271,223.96287"></sodipodi:guide>
	<sodipodi:guide  id="guide3" inkscape:locked="false" orientation="1,0" position="-298.2682,223.794"></sodipodi:guide>
	<sodipodi:guide  id="guide4" inkscape:locked="false" orientation="0,-1" position="-307.90671,117.72555"></sodipodi:guide>
	<sodipodi:guide  id="guide5" inkscape:locked="false" orientation="1,0" position="-277.93946,223.96287"></sodipodi:guide>
	<sodipodi:guide  id="guide6" inkscape:locked="false" orientation="0,-1" position="-298.2682,108.41173"></sodipodi:guide>
	<sodipodi:guide  id="guide7" inkscape:locked="false" orientation="0,-1" position="-313.49705,93.105815"></sodipodi:guide>
	<sodipodi:guide  id="guide9" inkscape:locked="false" orientation="0,-1" position="-331.02864,219.75652"></sodipodi:guide>
	<sodipodi:guide  id="guide10" inkscape:locked="false" orientation="1,0" position="-346.48776,234.61692"></sodipodi:guide>
	<sodipodi:guide  id="guide11" inkscape:locked="false" orientation="0,-1" position="-317.82621,233.44265"></sodipodi:guide>
	<sodipodi:guide  id="guide12" inkscape:locked="false" orientation="0,-1" position="-313.49705,248.5966"></sodipodi:guide>
	<sodipodi:guide  id="guide27" inkscape:locked="false" orientation="0,-1" position="-406.7117,213.13085"></sodipodi:guide>
	<sodipodi:guide  id="guide28" inkscape:locked="false" orientation="0,-1" position="-406.7117,208.41464"></sodipodi:guide>
	<sodipodi:guide  id="guide115" inkscape:locked="false" orientation="-0.99813788,0.060998208" position="-319.00023,179.14998">
		</sodipodi:guide>
	
		<sodipodi:guide  id="guide116" inkscape:color="rgb(0,134,229)" inkscape:label="" inkscape:locked="false" orientation="-0.99813788,0.060998194" position="-317.63286,178.31994">
		</sodipodi:guide>
	<sodipodi:guide  id="guide117" inkscape:locked="false" orientation="0,-1" position="-318.65187,172.46929"></sodipodi:guide>
	<sodipodi:guide  id="guide165" inkscape:locked="false" orientation="0,-1" position="-122.66093,167.93833"></sodipodi:guide>
	<sodipodi:guide  id="guide166" inkscape:locked="false" orientation="1,0" position="-123.35208,167.93833"></sodipodi:guide>
	<sodipodi:guide  id="guide167" inkscape:locked="false" orientation="1,0" position="-120.38188,167.93833"></sodipodi:guide>
	<sodipodi:guide  id="guide1" inkscape:locked="false" orientation="1,0" position="31.586791,226.17878"></sodipodi:guide>
	<sodipodi:guide  id="guide8" inkscape:locked="false" orientation="0,-1" position="43.971151,195.7299"></sodipodi:guide>
	<sodipodi:guide  id="guide13" inkscape:locked="false" orientation="0,-1" position="43.971151,185.25269"></sodipodi:guide>
</sodipodi:namedview>
<g id="layer3" transform="translate(-481.3521,-64.822916)" inkscape:groupmode="layer" inkscape:label="laurel 2">
	<g id="g3" transform="translate(-0.51536135,61.297777)">
		<g>
			<path d="M575.5,55.8l-10.2,0.3v-2.3c6.2-2.1,9.3-5.9,9.3-11.5c0-2.5-0.9-4.3-2.6-5.4c-1.7-1.1-5.2-1.6-10.5-1.6
				c-9.8,0-15.6,0.4-17.6,1.2s-3,2.6-3,5.4c0,5.8,3.2,10,9.6,12.7v2.3l-11.2-0.7v-2.3c0.7-0.7,1.6-1.6,2.5-2.6
				c-1.9-3-2.8-6.4-2.8-10.2c0-4.9,1.6-9.2,4.9-13c3.3-3.8,7.8-5.7,13.4-5.7c5.6,0,10.2,1.9,13.7,5.7s5.3,8.5,5.3,14.1
				c0,3.3-0.9,6.4-2.7,9.1c0.6,1,1.1,1.9,1.7,2.6v1.9H575.5z"/>
			<path d="M561.1,60.9h38.6l0.3,16.6h-2.1c-1.7-9.4-5.2-12.3-10.6-12.3H586v42.1h7.1v4.5h-25.5v-4.5h7V65.2H573
				c-5.4,0-8.3,2.9-10.1,12.3h-2.1L561.1,60.9z"/>
			<g>
				<polygon points="520.9,107.3 520.9,111.8 537.1,111.8 553.4,111.8 553.4,107.3 537.1,107.3 				"/>
				<g>
					<rect x="526.5" y="68.4" width="4.5" height="36.1"/>
					<rect x="543.2" y="68.4" width="4.5" height="36.1"/>
					<polygon points="539.4,104.4 539.4,68.4 537.1,68.4 534.9,68.4 534.9,104.4 537.1,104.4 					"/>
				</g>
				<path d="M553.4,60.8C553.4,60.8,553.4,60.9,553.4,60.8L553.4,60.8h-16.3h-16.3l0,0l0,0c-2.4,0-4.3,1.9-4.3,4.3
					c0,2.4,1.9,4.3,4.3,4.3c2.3,0,4.2-1.8,4.3-4.2l0,0h12h12l0,0c0.1,2.3,2,4.2,4.3,4.2c2.4,0,4.3-1.9,4.3-4.3
					S555.8,60.8,553.4,60.8z"/>
			</g>
		</g>
		<g class="st0">
			<path d="M641.2,60.2V66h-0.6c-0.7-3.6-2.5-5.4-5.3-5.4c-1.5,0-2.7,0.6-3.4,1.8c-0.7,1.2-1.1,3.8-1.1,7.6c0,3.2,0.2,5.4,0.5,6.5
				s0.8,2,1.6,2.5c0.8,0.5,1.6,0.7,2.5,0.7c1.2,0,2.3-0.4,3.3-1.3c1-0.9,1.8-2.3,2.4-4.3h0.7l-0.2,6h-0.6c-0.2-0.6-0.6-1.2-1.1-1.6
				c-1.6,1.3-3.2,1.9-4.8,1.9c-2.1,0-4-1-5.7-3s-2.6-4.4-2.6-7.3c0-2.9,0.8-5.4,2.5-7.4c1.7-2,3.6-3,5.9-3c1.7,0,3.2,0.6,4.5,1.8
				c0.4-0.6,0.7-1.1,0.9-1.6H641.2z"/>
			<path d="M644.5,74.3c0-1.7,0.6-3.1,1.8-4.3c1.2-1.2,2.6-1.8,4.4-1.8c1.7,0,3.1,0.6,4.3,1.7c1.2,1.1,1.8,2.6,1.8,4.3
				c0,1.8-0.6,3.3-1.8,4.5c-1.2,1.2-2.7,1.8-4.3,1.8c-1.6,0-3-0.6-4.2-1.8C645.1,77.5,644.5,76.1,644.5,74.3z M653.3,74.3
				c0-1.8-0.1-3-0.2-3.6c-0.1-0.6-0.4-1-0.8-1.4c-0.4-0.3-1-0.5-1.8-0.5c-0.7,0-1.3,0.2-1.7,0.5s-0.7,0.8-0.8,1.4
				c-0.1,0.6-0.2,1.8-0.2,3.6c0,1.8,0.1,3,0.2,3.6c0.1,0.6,0.4,1.1,0.9,1.4c0.4,0.3,1,0.5,1.7,0.5c0.7,0,1.3-0.2,1.7-0.5
				c0.5-0.3,0.7-0.8,0.9-1.4C653.3,77.3,653.3,76.1,653.3,74.3z"/>
			<path d="M661,79.4V69.3h-2.1v-0.8h1.3c1.3,0,2.5-0.1,3.6-0.2v2.9h0.1c1-2,2.4-3,4.3-3c0.9,0,1.6,0.2,2.1,0.7
				c0.6,0.4,0.9,1,1.1,1.6c0.2,0.6,0.3,1.5,0.3,2.8v6.2h2.3v0.8h-7.1v-0.8h2V72c0-1.1-0.1-1.9-0.2-2.3c-0.1-0.4-0.5-0.6-1.1-0.6
				c-1,0-1.8,0.5-2.6,1.5c-0.8,1-1.1,2.3-1.1,3.9v5h1.9v0.8h-6.9v-0.8H661z"/>
			<path d="M675.7,74.3c0-1.7,0.6-3.1,1.8-4.3c1.2-1.2,2.6-1.8,4.4-1.8c1.7,0,3.1,0.6,4.3,1.7c1.2,1.1,1.8,2.6,1.8,4.3
				c0,1.8-0.6,3.3-1.8,4.5c-1.2,1.2-2.7,1.8-4.3,1.8c-1.6,0-3-0.6-4.2-1.8C676.3,77.5,675.7,76.1,675.7,74.3z M684.5,74.3
				c0-1.8-0.1-3-0.2-3.6c-0.1-0.6-0.4-1-0.8-1.4c-0.4-0.3-1-0.5-1.8-0.5c-0.7,0-1.3,0.2-1.7,0.5s-0.7,0.8-0.8,1.4
				c-0.1,0.6-0.2,1.8-0.2,3.6c0,1.8,0.1,3,0.2,3.6c0.1,0.6,0.4,1.1,0.9,1.4c0.4,0.3,1,0.5,1.7,0.5c0.7,0,1.3-0.2,1.7-0.5
				c0.5-0.3,0.7-0.8,0.9-1.4C684.5,77.3,684.5,76.1,684.5,74.3z"/>
			<path d="M700.6,76.1h0.6c-0.3,1.4-0.9,2.5-1.7,3.3c-0.9,0.7-1.9,1.1-3.1,1.1c-1.7,0-3.1-0.6-4.2-1.9s-1.7-2.7-1.7-4.3
				c0-1.7,0.6-3.1,1.8-4.4c1.2-1.2,2.6-1.9,4.4-1.9c1.2,0,2.3,0.3,3.1,1c0.8,0.6,1.2,1.3,1.2,2.1c0,0.4-0.1,0.7-0.4,1.1
				c-0.3,0.3-0.6,0.5-1.1,0.5c-0.4,0-0.8-0.1-1.1-0.4s-0.4-0.6-0.4-1c0-0.3,0.1-0.6,0.4-0.9c0.2-0.3,0.4-0.5,0.4-0.6
				c0-0.3-0.2-0.5-0.5-0.7c-0.4-0.2-0.8-0.3-1.4-0.3c-1,0-1.8,0.3-2.3,0.8c-0.5,0.6-0.7,1.7-0.7,3.5c0,1.8,0,3.1,0.1,3.9
				s0.3,1.5,0.7,2c0.4,0.5,1.1,0.7,2,0.7C698.4,79.9,699.8,78.6,700.6,76.1z"/>
			<path d="M714,73.5h-7.5c-0.1,2.9,0.1,4.7,0.5,5.4c0.4,0.7,1.1,1,2.1,1c2.1,0,3.5-1.2,4.2-3.6h0.6c-0.3,1.5-0.9,2.5-1.8,3.2
				c-0.9,0.7-1.9,1-3,1c-1.6,0-3-0.6-4.1-1.8c-1.2-1.2-1.8-2.7-1.8-4.4c0-1.7,0.6-3.2,1.7-4.4c1.1-1.2,2.5-1.8,4-1.8
				c1.3,0,2.5,0.5,3.5,1.4C713.4,70.5,713.9,71.8,714,73.5z M706.5,72.8h4.3c0.1-0.7,0.1-1.2,0.1-1.6c0-1.6-0.7-2.4-2.1-2.4
				c-0.7,0-1.3,0.2-1.7,0.6c-0.4,0.4-0.6,0.9-0.6,1.5V72.8z"/>
			<path d="M717.9,79.4V69.3h-2.4v-0.8h2.4c1.2,0,2.2-0.1,2.8-0.2v2.8h0.1c0.7-1.9,1.7-2.8,3.1-2.8c0.6,0,1.1,0.2,1.4,0.5
				c0.4,0.4,0.5,0.8,0.5,1.3c0,0.5-0.1,0.9-0.4,1.1s-0.7,0.4-1.1,0.4c-0.8,0-1.3-0.4-1.3-1.3l0.1-0.6c0-0.2-0.1-0.3-0.3-0.3
				c-0.3,0-0.7,0.4-1.2,1.3c-0.5,0.9-0.8,2.2-0.8,4v4.5h2.4v0.8h-7.7v-0.8H717.9z"/>
			<path d="M739.2,69.3l4.1,8.1l3.6-8.1h-2.6v-0.8h5.2v0.8h-2l-5.9,13.5c-0.9,1.9-1.6,3.3-2.2,4c-0.6,0.8-1.3,1.2-2.2,1.2
				c-0.5,0-0.9-0.2-1.2-0.5c-0.3-0.3-0.4-0.7-0.4-1.1c0-0.4,0.1-0.7,0.4-1c0.3-0.2,0.5-0.4,0.9-0.4c0.5,0,0.9,0.2,1.1,0.7
				s0.5,0.7,0.7,0.7c0.3,0,0.6-0.2,0.9-0.7c0.3-0.5,0.8-1.4,1.4-2.8l1-2.2l-5.8-11.3h-1.8v-0.8h7.1v0.8H739.2z"/>
			<path d="M758.8,60.4h16.9l0.5,6.7h-0.8c-0.5-2.3-1.1-3.8-1.8-4.7c-0.8-0.9-1.8-1.3-3-1.3H769v18.3h3.5v0.8h-10.6v-0.8h3.5V61.1
				h-1.6c-1.2,0-2.2,0.4-3,1.3c-0.8,0.9-1.4,2.4-1.8,4.7h-0.8L758.8,60.4z"/>
			<path d="M778.8,79.4V69.3h-2.4v-0.8h2.4c1.2,0,2.2-0.1,2.8-0.2v2.8h0.1c0.7-1.9,1.7-2.8,3.1-2.8c0.6,0,1.1,0.2,1.4,0.5
				c0.4,0.4,0.5,0.8,0.5,1.3c0,0.5-0.1,0.9-0.4,1.1s-0.7,0.4-1.1,0.4c-0.8,0-1.3-0.4-1.3-1.3l0.1-0.6c0-0.2-0.1-0.3-0.3-0.3
				c-0.3,0-0.7,0.4-1.2,1.3c-0.5,0.9-0.8,2.2-0.8,4v4.5h2.4v0.8h-7.7v-0.8H778.8z"/>
			<path d="M792.9,68.3v11.1h1.9v0.8H788v-0.8h2.1V69.3H788v-0.8h2.1C791.1,68.6,792,68.5,792.9,68.3z M789.9,62.7
				c0-0.4,0.2-0.8,0.5-1.1c0.3-0.3,0.7-0.5,1.1-0.5s0.8,0.2,1.1,0.5c0.3,0.3,0.5,0.7,0.5,1.1c0,0.5-0.2,0.8-0.5,1.2
				s-0.7,0.5-1.1,0.5s-0.8-0.2-1.1-0.5C790.1,63.5,789.9,63.1,789.9,62.7z"/>
			<path d="M808.9,68.6v10.8h2v0.8h-2c-1.5,0-2.5,0.1-2.9,0.2v-2.7H806c-0.9,1.8-2.3,2.7-4.2,2.7c-1.1,0-2-0.3-2.6-0.9
				c-0.7-0.6-1-1.8-1-3.6v-6.5H796v-0.8h5v7.8c0,1.2,0.1,2.1,0.2,2.5c0.1,0.5,0.5,0.7,1.1,0.7c0.9,0,1.7-0.5,2.5-1.5
				c0.8-1,1.2-2.4,1.2-4.4v-4.4h-2.4v-0.8H808.9z"/>
			<path d="M814.7,79.4V69.3h-2.1v-0.8h1.3c1.3,0,2.5-0.1,3.6-0.2v2.9h0.1c1-2,2.4-3,4.3-3c0.9,0,1.6,0.2,2.1,0.7
				c0.6,0.4,0.9,1,1.1,1.6c0.2,0.6,0.3,1.5,0.3,2.8v6.2h2.3v0.8h-7.1v-0.8h2V72c0-1.1-0.1-1.9-0.2-2.3c-0.1-0.4-0.5-0.6-1.1-0.6
				c-1,0-1.8,0.5-2.6,1.5c-0.8,1-1.1,2.3-1.1,3.9v5h1.9v0.8h-6.9v-0.8H814.7z"/>
			<path d="M831.3,79.4V69.3h-2.4v-0.8h2.4c-0.1-2.6,0.5-4.7,1.6-6.2c1.2-1.5,2.5-2.2,4.1-2.2c0.8,0,1.4,0.2,2,0.7
				c0.6,0.4,0.8,1,0.8,1.6c0,0.4-0.1,0.8-0.4,1.1s-0.6,0.4-1,0.4c-0.4,0-0.7-0.1-0.9-0.4c-0.3-0.2-0.4-0.6-0.4-0.9
				c0-0.6,0.3-1.1,1-1.4c-0.3-0.3-0.7-0.4-1.3-0.4c-0.6,0-1.1,0.2-1.6,0.5c-0.5,0.3-0.8,0.8-0.9,1.5c-0.1,0.7-0.2,1.8-0.2,3.3v2.5
				h2.7v0.8h-2.7v10.1h2.5v0.8h-7.6v-0.8H831.3z"/>
			<path d="M846.8,73.5V72c0-1.2-0.1-2-0.3-2.4c-0.2-0.4-0.7-0.6-1.6-0.6c-1.6,0-2.4,0.3-2.4,0.9c0,0.2,0.1,0.4,0.2,0.6
				c0.1,0.2,0.2,0.5,0.2,0.7c0,0.4-0.1,0.7-0.4,0.9c-0.3,0.2-0.6,0.3-0.9,0.3c-0.4,0-0.8-0.1-1-0.4s-0.4-0.6-0.4-1
				c0-0.8,0.5-1.4,1.4-2c0.9-0.5,2.2-0.8,3.8-0.8c1.3,0,2.3,0.2,2.9,0.5c0.6,0.3,1,0.7,1.1,1.1c0.1,0.5,0.2,1.1,0.2,1.9v5.4
				c0,0.8,0.1,1.3,0.2,1.5c0.1,0.2,0.3,0.3,0.5,0.3c0.4,0,0.7-0.2,1-0.7h0.4c-0.3,1.4-1.1,2.2-2.5,2.2c-1.4,0-2.2-0.8-2.4-2.4
				c-1.2,1.6-2.5,2.4-4,2.4c-1,0-1.8-0.3-2.4-0.8s-0.9-1.2-0.9-2C839.4,75.1,841.9,73.8,846.8,73.5z M846.8,75.8v-1.6
				c-1.8,0.1-3,0.3-3.6,0.8c-0.6,0.5-0.9,1.2-0.9,2.1c0,0.7,0.2,1.2,0.5,1.5c0.3,0.4,0.8,0.5,1.2,0.5c0.6,0,1.1-0.2,1.6-0.6
				c0.5-0.4,0.8-0.8,0.9-1.2C846.7,77,846.8,76.5,846.8,75.8z"/>
			<path d="M855.6,79.4V69.3h-2.4v-0.8h2.4c1.2,0,2.2-0.1,2.8-0.2v2.8h0.1c0.7-1.9,1.7-2.8,3.1-2.8c0.6,0,1.1,0.2,1.4,0.5
				c0.4,0.4,0.5,0.8,0.5,1.3c0,0.5-0.1,0.9-0.4,1.1s-0.7,0.4-1.1,0.4c-0.8,0-1.3-0.4-1.3-1.3l0.1-0.6c0-0.2-0.1-0.3-0.3-0.3
				c-0.3,0-0.7,0.4-1.2,1.3c-0.5,0.9-0.8,2.2-0.8,4v4.5h2.4v0.8h-7.7v-0.8H855.6z"/>
		</g>
	</g>
</g>
</svg>
