<?xml version="1.0" encoding="utf-8"?>
<!-- Generator: Adobe Illustrator 26.1.0, SVG Export Plug-In . SVG Version: 6.00 Build 0)  -->
<svg version="1.1"
	 id="svg1" xmlns:inkscape="http://www.inkscape.org/namespaces/inkscape" xmlns:sodipodi="http://sodipodi.sourceforge.net/DTD/sodipodi-0.dtd" xmlns:svg="http://www.w3.org/2000/svg"
	 xmlns="http://www.w3.org/2000/svg" xmlns:xlink="http://www.w3.org/1999/xlink" x="0px" y="0px" viewBox="0 0 132.1 131.1"
	 style="enable-background:new 0 0 132.1 131.1;" xml:space="preserve">
<style type="text/css">
	.st0{fill:#FFFFFF;stroke:#1D1D1B;stroke-width:0.25;stroke-miterlimit:10;}
</style>
<sodipodi:namedview  bordercolor="#eeeeee" borderopacity="1" id="namedview1" inkscape:current-layer="layer3" inkscape:cx="156.62415" inkscape:cy="88.918678" inkscape:deskcolor="#505050" inkscape:document-units="mm" inkscape:lockguides="false" inkscape:pagecheckerboard="false" inkscape:pageopacity="0" inkscape:showpageshadow="0" inkscape:window-height="1261" inkscape:window-maximized="1" inkscape:window-width="2400" inkscape:window-x="-9" inkscape:window-y="-9" inkscape:zoom="2.8284271" pagecolor="#505050" showguides="false">
	<sodipodi:guide  id="guide2" inkscape:locked="false" orientation="0,-1" position="-312.65271,162.66509"></sodipodi:guide>
	<sodipodi:guide  id="guide3" inkscape:locked="false" orientation="1,0" position="-298.2682,162.49622"></sodipodi:guide>
	<sodipodi:guide  id="guide4" inkscape:locked="false" orientation="0,-1" position="-307.90671,56.427775"></sodipodi:guide>
	<sodipodi:guide  id="guide5" inkscape:locked="false" orientation="1,0" position="-277.93946,162.66509"></sodipodi:guide>
	<sodipodi:guide  id="guide6" inkscape:locked="false" orientation="0,-1" position="-298.2682,47.113958"></sodipodi:guide>
	<sodipodi:guide  id="guide7" inkscape:locked="false" orientation="0,-1" position="-313.49705,31.808038"></sodipodi:guide>
	<sodipodi:guide  id="guide9" inkscape:locked="false" orientation="0,-1" position="-331.02864,158.45874"></sodipodi:guide>
	<sodipodi:guide  id="guide10" inkscape:locked="false" orientation="1,0" position="-346.48776,173.31914"></sodipodi:guide>
	<sodipodi:guide  id="guide11" inkscape:locked="false" orientation="0,-1" position="-317.82621,172.14487"></sodipodi:guide>
	<sodipodi:guide  id="guide12" inkscape:locked="false" orientation="0,-1" position="-313.49705,187.29882"></sodipodi:guide>
	<sodipodi:guide  id="guide27" inkscape:locked="false" orientation="0,-1" position="-406.7117,151.83307"></sodipodi:guide>
	<sodipodi:guide  id="guide28" inkscape:locked="false" orientation="0,-1" position="-406.7117,147.11686"></sodipodi:guide>
	<sodipodi:guide  id="guide115" inkscape:locked="false" orientation="-0.99813788,0.060998208" position="-319.00023,117.8522">
		</sodipodi:guide>
	
		<sodipodi:guide  id="guide116" inkscape:color="rgb(0,134,229)" inkscape:label="" inkscape:locked="false" orientation="-0.99813788,0.060998194" position="-317.63286,117.02216">
		</sodipodi:guide>
	<sodipodi:guide  id="guide117" inkscape:locked="false" orientation="0,-1" position="-318.65187,111.17151"></sodipodi:guide>
	<sodipodi:guide  id="guide165" inkscape:locked="false" orientation="0,-1" position="-122.66093,106.64055"></sodipodi:guide>
	<sodipodi:guide  id="guide166" inkscape:locked="false" orientation="1,0" position="-123.35208,106.64055"></sodipodi:guide>
	<sodipodi:guide  id="guide167" inkscape:locked="false" orientation="1,0" position="-120.38188,106.64055"></sodipodi:guide>
	<sodipodi:guide  id="guide1" inkscape:locked="false" orientation="1,0" position="31.586791,164.881"></sodipodi:guide>
	<sodipodi:guide  id="guide8" inkscape:locked="false" orientation="0,-1" position="43.971151,134.43212"></sodipodi:guide>
	<sodipodi:guide  id="guide13" inkscape:locked="false" orientation="0,-1" position="43.971151,123.95491"></sodipodi:guide>
</sodipodi:namedview>
<path class="st0" d="M87.5,48.1l-13,0.3v-2.9c7.9-2.8,11.9-7.6,11.9-14.5c0-3.3-1-5.5-3.3-6.9C81,22.7,76.7,22,69.9,22
	c-12.4,0-19.9,0.5-22.5,1.6c-2.6,1-3.8,3.3-3.8,6.9c0,7.3,4.1,12.6,12.3,16.1v2.9l-14.3-0.9v-2.9c0.9-0.9,2.1-1.9,3.1-3.3
	c-2.4-3.8-3.6-8.1-3.6-13c0-6.2,2.1-11.7,6.2-16.6c4.1-4.8,9.8-7.3,17.1-7.3c7.1,0,13,2.4,17.4,7.3c4.8,4.8,6.9,10.9,6.9,18
	c0,4.3-1.2,8.1-3.5,11.6c0.7,1.2,1.4,2.4,2.2,3.3V48.1z"/>
<path class="st0" d="M69.2,54.6h49l0.3,21.1h-2.8c-2.2-11.9-6.7-15.7-13.5-15.7H101v53.5h9v5.7H77.7v-5.7h9V60h-2.1
	c-6.9,0-10.5,3.6-12.8,15.5h-2.8L69.2,54.6z"/>
<polygon class="st0" points="18.3,113.3 18.3,119.2 38.8,119.2 59.6,119.2 59.6,113.3 38.8,113.3 "/>
<g>
	<rect x="25.4" y="64" class="st0" width="5.7" height="45.8"/>
	<rect x="46.6" y="64" class="st0" width="5.7" height="45.8"/>
	<polygon class="st0" points="41.8,109.9 41.8,64 38.8,64 36.1,64 36.1,109.9 38.8,109.9 	"/>
</g>
<path class="st0" d="M59.6,54.5L59.6,54.5L59.6,54.5H38.8H18.1l0,0l0,0c-3.1,0-5.5,2.4-5.5,5.5c0,3.1,2.4,5.5,5.5,5.5
	c2.9,0,5.4-2.4,5.5-5.4l0,0h15.2H54l0,0c0.2,2.9,2.6,5.4,5.5,5.4c3.1,0,5.5-2.4,5.5-5.5C65.1,56.9,62.7,54.5,59.6,54.5z"/>
</svg>
